<svg width="1002" height="532" viewBox="0 0 1002 532" fill="none" xmlns="http://www.w3.org/2000/svg">
<path d="M151.096 184.847L155.931 189.964L149.305 213.283C149.305 213.283 144.424 224.605 102.703 215.824C60.9811 207.043 25.5997 194.6 9.7156 179.72C9.7156 179.72 1.66219 176.284 2.21211 167.244C2.76204 158.205 8.73392 146.016 8.73392 146.016L61.8265 179.511L127.99 198.767L145.942 194.263L151.096 184.847Z" fill="#FDC6FF"/>
<path d="M155.772 192.151C158.841 182.055 128.28 163.826 87.5129 151.435C46.7458 139.045 11.2099 137.185 8.14135 147.281C5.07277 157.378 35.6335 175.607 76.4006 187.997C117.168 200.388 152.704 202.247 155.772 192.151Z" fill="#FDC6FF"/>
<path d="M155.772 192.151C158.841 182.055 128.28 163.826 87.5129 151.435C46.7458 139.045 11.2099 137.185 8.14135 147.281C5.07277 157.378 35.6335 175.607 76.4006 187.997C117.168 200.388 152.704 202.247 155.772 192.151Z" stroke="#51A755" stroke-width="2.72689" stroke-miterlimit="10"/>
<path opacity="0.5" d="M134.842 183.882C136.997 176.79 115.528 163.985 86.8887 155.28C58.2496 146.576 33.2858 145.269 31.1303 152.361C28.9749 159.453 50.4441 172.258 79.0832 180.963C107.722 189.667 132.686 190.974 134.842 183.882Z" fill="#51A755"/>
<path d="M134.842 183.882C136.997 176.79 115.528 163.985 86.8887 155.28C58.2496 146.576 33.2858 145.269 31.1303 152.361C28.9749 159.453 50.4441 172.258 79.0832 180.963C107.722 189.667 132.686 190.974 134.842 183.882Z" stroke="#51A755" stroke-width="2.72689" stroke-miterlimit="10"/>
<path d="M155.768 192.146L149.837 212.111C146.769 222.205 111.233 220.346 70.4707 207.957C29.7083 195.568 -0.855601 177.339 2.21215 167.245L8.14313 147.279" stroke="#51A755" stroke-width="2.72689" stroke-miterlimit="10"/>
<path d="M10.6837 154.891L5.02087 175.179" stroke="#51A755" stroke-width="2.72689" stroke-miterlimit="10"/>
<path d="M18.1598 161.718L12.5288 181.901" stroke="#51A755" stroke-width="2.72689" stroke-miterlimit="10"/>
<path d="M26.1042 166.854L20.4731 187.037" stroke="#51A755" stroke-width="2.72689" stroke-miterlimit="10"/>
<path d="M34.2213 171.389L28.6039 191.513" stroke="#51A755" stroke-width="2.72689" stroke-miterlimit="10"/>
<path d="M50.8689 178.969L45.2606 199.061" stroke="#51A755" stroke-width="2.72689" stroke-miterlimit="10"/>
<path d="M59.3313 182.256L53.7275 202.339" stroke="#51A755" stroke-width="2.72689" stroke-miterlimit="10"/>
<path d="M67.9711 184.919L62.2719 205.339" stroke="#51A755" stroke-width="2.72689" stroke-miterlimit="10"/>
<path d="M76.488 188.015L70.8888 208.08" stroke="#51A755" stroke-width="2.72689" stroke-miterlimit="10"/>
<path d="M85.1686 190.519L79.574 210.57" stroke="#51A755" stroke-width="2.72689" stroke-miterlimit="10"/>
<path d="M93.9219 192.758L88.3318 212.805" stroke="#51A755" stroke-width="2.72689" stroke-miterlimit="10"/>
<path d="M102.866 194.331L97.2942 214.292" stroke="#51A755" stroke-width="2.72689" stroke-miterlimit="10"/>
<path d="M111.674 196.381L106.089 216.401" stroke="#51A755" stroke-width="2.72689" stroke-miterlimit="10"/>
<path d="M36.88 195.477L42.4929 175.361" stroke="#51A755" stroke-width="2.72689" stroke-miterlimit="10"/>
<path d="M120.696 197.668L115.115 217.674" stroke="#51A755" stroke-width="2.72689" stroke-miterlimit="10"/>
<path d="M129.862 198.431L124.277 218.46" stroke="#51A755" stroke-width="2.72689" stroke-miterlimit="10"/>
<path d="M139.207 198.571L133.639 218.523" stroke="#51A755" stroke-width="2.72689" stroke-miterlimit="10"/>
<path d="M148.973 197.186L143.433 217.037" stroke="#51A755" stroke-width="2.72689" stroke-miterlimit="10"/>
<path d="M969.394 43.5687L976.36 42.5522L991.629 61.3811C991.629 61.3811 998.089 71.8818 966.914 100.974C935.739 130.065 905.231 151.862 883.922 156.304C883.922 156.304 876.482 160.918 869.401 155.275C862.32 149.631 855.781 137.736 855.781 137.736L913.71 113.552L967.5 70.482L974.136 53.2028L969.394 43.5687Z" fill="#FDC6FF"/>
<path d="M929.001 106.511C962.573 80.2778 984.522 52.2715 978.025 43.9572C971.528 35.6428 939.046 50.1689 905.474 76.402C871.902 102.635 849.954 130.641 856.45 138.956C862.947 147.27 895.429 132.744 929.001 106.511Z" fill="#FDC6FF"/>
<path d="M929.001 106.511C962.573 80.2778 984.522 52.2715 978.025 43.9572C971.528 35.6428 939.046 50.1689 905.474 76.402C871.902 102.635 849.954 130.641 856.45 138.956C862.947 147.27 895.429 132.744 929.001 106.511Z" stroke="#51A755" stroke-width="2.72689" stroke-miterlimit="10"/>
<path opacity="0.5" d="M924.791 100.279C948.375 81.85 963.795 62.176 959.231 56.3358C954.667 50.4956 931.849 60.7007 908.265 79.1296C884.68 97.5585 869.261 117.232 873.824 123.073C878.388 128.913 901.206 118.708 924.791 100.279Z" fill="#51A755"/>
<path d="M924.791 100.279C948.375 81.85 963.795 62.176 959.231 56.3358C954.667 50.4956 931.849 60.7007 908.265 79.1296C884.68 97.5585 869.261 117.232 873.824 123.073C878.388 128.913 901.206 118.708 924.791 100.279Z" stroke="#51A755" stroke-width="2.72689" stroke-miterlimit="10"/>
<path d="M978.053 43.9439L990.98 60.2716C997.476 68.5858 975.527 96.5896 941.953 122.824C908.38 149.058 875.899 163.586 869.403 155.271L856.475 138.944" stroke="#51A755" stroke-width="2.72689" stroke-miterlimit="10"/>
<path d="M864.164 141.239L877.512 157.536" stroke="#51A755" stroke-width="2.72689" stroke-miterlimit="10"/>
<path d="M874.048 139.045L887.326 155.259" stroke="#51A755" stroke-width="2.72689" stroke-miterlimit="10"/>
<path d="M882.821 135.499L896.1 151.709" stroke="#51A755" stroke-width="2.72689" stroke-miterlimit="10"/>
<path d="M891.199 131.465L904.438 147.629" stroke="#51A755" stroke-width="2.72689" stroke-miterlimit="10"/>
<path d="M906.971 122.201L920.19 138.343" stroke="#51A755" stroke-width="2.72689" stroke-miterlimit="10"/>
<path d="M914.523 117.166L927.735 133.3" stroke="#51A755" stroke-width="2.72689" stroke-miterlimit="10"/>
<path d="M921.666 111.627L935.101 128.033" stroke="#51A755" stroke-width="2.72689" stroke-miterlimit="10"/>
<path d="M929.097 106.44L942.297 122.555" stroke="#51A755" stroke-width="2.72689" stroke-miterlimit="10"/>
<path d="M936.135 100.771L949.327 116.882" stroke="#51A755" stroke-width="2.72689" stroke-miterlimit="10"/>
<path d="M943.006 94.8984L956.191 111.002" stroke="#51A755" stroke-width="2.72689" stroke-miterlimit="10"/>
<path d="M949.433 88.4863L962.564 104.519" stroke="#51A755" stroke-width="2.72689" stroke-miterlimit="10"/>
<path d="M956.172 82.4561L969.341 98.5382" stroke="#51A755" stroke-width="2.72689" stroke-miterlimit="10"/>
<path d="M912.432 143.136L899.204 126.981" stroke="#51A755" stroke-width="2.72689" stroke-miterlimit="10"/>
<path d="M962.413 75.8125L975.571 91.8854" stroke="#51A755" stroke-width="2.72689" stroke-miterlimit="10"/>
<path d="M968.307 68.7549L981.485 84.8405" stroke="#51A755" stroke-width="2.72689" stroke-miterlimit="10"/>
<path d="M973.792 61.1924L986.918 77.2128" stroke="#51A755" stroke-width="2.72689" stroke-miterlimit="10"/>
<path d="M978.27 52.3994L991.333 68.3453" stroke="#51A755" stroke-width="2.72689" stroke-miterlimit="10"/>
<path d="M827.238 321.43C820.43 325.957 813.386 330.725 809.286 337.796C804.582 345.909 804.478 356.057 807.014 365.083C809.55 374.109 814.49 382.249 819.53 390.153C820.039 390.953 820.598 391.793 821.466 392.175C822.339 392.561 823.339 392.407 824.284 392.252C830.688 391.221 837.178 390.712 843.663 390.725C846.626 390.73 850.267 391.316 851.239 394.116C851.498 394.856 851.521 395.684 851.926 396.352C852.771 397.765 854.793 397.829 856.411 397.511C858.575 397.088 862.651 396.179 863.579 393.807C864.483 391.484 862.515 390.557 861.565 388.853C860.556 387.048 860.224 384.703 859.629 382.704C859.338 381.727 859.052 380.645 859.475 379.718C859.947 378.686 861.192 378.191 862.324 378.259C863.456 378.327 864.51 378.845 865.519 379.359C876.081 384.703 886.334 390.648 896.224 397.156C895.188 396.474 898.228 381.118 898.437 379.2C899.142 372.81 899.714 366.406 900.014 359.984C900.523 349.013 900.851 336.615 896.619 326.275C895.919 324.557 895.088 322.871 893.902 321.444C892.87 320.199 891.588 319.19 890.32 318.185C886.253 314.972 881.967 311.655 876.872 310.696C873.545 310.073 870.028 310.532 866.973 311.991C856.557 316.972 844.272 316.186 832.978 318.576C830.997 319.008 828.933 320.303 827.238 321.43Z" fill="#FFD6A5"/>
<path opacity="0.5" d="M841.65 337.18C841.65 337.18 863.224 324.104 876.572 342.015C889.92 359.926 886.716 390.74 886.716 390.74C886.716 390.74 898.592 398.503 897.769 398.166C896.946 397.83 902.137 352.959 897.81 335.053C893.483 317.151 881.694 307.006 864.696 313.037L846.913 324.377L841.65 335.793" fill="#51A755"/>
<path d="M862.256 324.476C859.461 326.957 855.689 327.994 852.012 328.689C848.29 329.394 844.467 329.816 840.718 329.393C840.213 329.339 839.714 329.266 839.214 329.18C834.982 328.435 830.865 326.389 828.279 322.963C825.216 318.909 821.543 310.114 821.53 305.024C821.507 297.212 824.997 292.317 828.651 285.404C829.451 283.886 830.356 282.386 831.633 281.232C832.901 280.082 834.414 279.373 836.046 278.937C838.655 278.246 841.577 278.26 844.317 278.342C847.203 278.428 850.317 278.596 852.557 280.419C855.248 282.609 856.788 288.395 855.943 291.758C855.098 295.116 852.139 296.271 850.439 299.293C850.021 300.039 849.667 301.097 850.326 301.638C850.68 301.925 851.18 301.916 851.635 301.897C857.343 301.638 863.292 302.297 865.128 308.292C866.837 313.887 867.046 320.227 862.256 324.476Z" fill="#FFD6A5"/>
<path opacity="0.5" d="M862.256 324.476C859.461 326.958 855.689 327.994 852.012 328.689C848.29 329.394 844.467 329.816 840.718 329.394L836.505 326.621C843.818 329.194 851.616 324.163 850.308 318.836C848.999 313.505 836.132 313.532 842.25 298.103C848.367 282.669 836.505 280.701 836.505 280.701L836.041 278.942C838.65 278.251 841.572 278.265 844.313 278.346C847.199 278.433 850.312 278.601 852.553 280.423C855.243 282.614 856.784 288.4 855.939 291.763C855.093 295.121 852.135 296.276 850.435 299.298C850.017 300.043 849.662 301.102 850.321 301.643C850.676 301.93 851.176 301.92 851.63 301.902C857.338 301.643 863.288 302.302 865.124 308.297C866.837 313.887 867.046 320.227 862.256 324.476Z" fill="#51A755"/>
<path d="M755.503 186.577C752.667 187.1 749.758 187.086 746.881 187.314C737.71 188.05 728.938 191.259 720.303 194.435C716.835 195.712 712.95 197.408 711.822 200.925C717.385 201.757 723.589 204.588 724.702 210.101C725.198 212.565 724.557 215.096 723.898 217.518C723.13 220.354 722.171 223.422 719.726 225.054C717.767 226.363 715.263 226.458 712.904 226.508C710.704 226.554 708.505 226.599 706.305 226.644C707.75 229.739 706.91 233.375 705.923 236.648C705.432 238.266 704.869 239.947 703.633 241.106C702.397 242.26 700.283 242.651 699.042 241.501C699.233 243.565 701.019 245.201 702.978 245.864C704.942 246.528 707.069 246.414 709.141 246.296C712.827 246.083 716.513 245.869 720.199 245.655C719.058 254.409 716.813 263.167 714.054 271.547C711.436 279.501 708.755 286.586 710.236 295.23C711.445 302.275 715.186 308.992 721.008 313.137C723.803 315.127 726.998 316.491 729.893 318.332C732.783 320.168 735.383 322.472 738.441 324.013C744.659 327.144 751.985 326.785 758.934 326.349C762.674 326.112 766.456 325.871 770.028 324.753C774.345 323.404 778.177 320.836 782.372 319.145C785.412 317.923 788.648 317.154 791.52 315.582C794.393 314.009 796.961 311.373 797.306 308.115C797.551 305.802 796.37 306.647 795.502 304.97C791.966 298.153 788.389 291.263 786.189 283.873C785.126 280.287 784.149 276.369 784.13 272.606C784.121 270.107 784.967 267.784 785.094 265.298C785.517 257.131 786.003 249.523 787.771 241.479C789.525 233.516 791.643 225.604 792.529 217.478C793.256 210.769 791.289 205.279 788.016 199.498C786.666 197.117 786.753 194.263 786.439 191.568C786.276 190.14 786.089 188.659 785.312 187.455C784.435 186.096 782.903 185.268 781.326 184.905C779.749 184.541 778.109 184.591 776.495 184.641C772.887 184.75 769.314 184.728 765.751 184.605C762.302 184.469 758.87 185.732 755.503 186.577Z" fill="#CAFFBF"/>
<path opacity="0.5" d="M745.191 149.556C743.945 149.933 742.677 150.342 741.632 151.124C740.523 151.955 739.746 153.146 739.032 154.332C738.132 155.828 737.283 157.387 736.933 159.091C736.433 161.509 736.973 164.008 737.51 166.422C735.565 164.108 733.769 161.668 732.133 159.127C731.174 157.632 730.252 156.064 729.87 154.328C729.12 150.947 730.483 147.492 731.815 144.297C732.397 142.902 732.988 141.493 733.851 140.257C735.06 138.53 736.746 137.212 738.41 135.921C740.296 134.453 742.205 132.976 744.386 131.999C747.986 130.386 752.049 130.263 755.989 130.168C758.784 130.099 761.37 130.095 763.933 131.181C766.774 132.386 769.619 133.413 772.346 134.894C776.113 136.944 779.808 139.607 781.608 143.502C783.576 147.761 783.058 153.383 782.863 157.964C782.549 165.263 778.949 172.362 773.246 176.925C772.741 174.039 771.85 171.221 770.614 168.567C772.578 168.871 774.582 167.658 775.532 165.917C776.482 164.176 776.491 162.027 775.9 160.132C775.4 158.532 774.432 156.996 772.941 156.232C771.451 155.469 769.396 155.682 768.374 157.009C767.928 157.587 767.71 158.3 767.501 158.995C767.142 160.2 766.778 161.404 766.419 162.609C765.747 160.822 765.001 158.936 763.456 157.814C762.352 157.009 760.906 156.659 760.011 155.623C759.034 154.491 757.802 153.378 757.212 152.01C754.757 146.284 749.517 148.256 745.191 149.556Z" fill="#51A755"/>
<path d="M709.736 290.409C688.144 284.596 664.879 285.159 643.591 292.009C640.646 303.189 636.397 314.028 630.956 324.231C629.943 326.131 628.879 328.031 628.316 330.108C627.511 333.053 627.761 336.17 628.011 339.216C629.561 357.867 634.065 375.801 636.61 394.349C642.859 398.225 650.554 399.257 657.875 398.548C665.197 397.844 672.255 395.521 679.2 393.099C675.032 382.187 673.373 370.525 672.778 358.913C672.482 353.173 672.451 347.428 672.496 341.683C672.51 339.906 671.787 335.284 673.019 334.075C674.473 332.653 679.259 333.634 680.981 333.934C698.083 336.929 714.995 341.006 731.579 346.137C728.979 354.522 733.392 362.358 733.56 370.634C733.719 378.715 735.942 385.386 737.81 393.035C738.987 397.848 741.55 399.975 743.368 404.32C745.145 408.556 745.39 413.419 748.294 417.159C751.003 420.65 756.325 424.085 760.038 426.508C765.088 429.803 770.85 432.021 776.822 432.893C781.299 433.548 785.844 433.47 790.37 433.393C804.241 433.152 818.207 434.039 831.992 432.089C835.464 431.598 838.918 430.934 842.304 430.012C843.995 429.553 845.644 428.844 847.34 428.43C848.117 428.239 849.498 428.898 849.985 428.58C854.493 425.64 854.407 413.364 853.966 408.828C853.33 402.27 851.035 395.935 847.776 390.208C847.194 389.186 835.4 390.472 833.81 390.522C828.96 390.672 824.111 390.858 819.262 391.031C811.149 391.317 794.379 396.58 793.784 384.555C793.238 373.483 794.388 362.367 795.311 351.346C796.292 339.57 797.215 327.322 793.006 316.282C783.094 320.991 772.886 323.513 761.924 324.099C750.467 324.713 738.655 322.872 728.674 317.21C718.685 311.529 711.577 301.734 709.736 290.409Z" fill="#A0C4FF"/>
<path d="M857.52 382.891C857.447 382.286 857.434 381.627 857.775 381.127C857.984 380.823 858.302 380.614 858.624 380.432C862.856 378.064 868.114 379.728 872.654 381.432C874.45 382.105 876.267 382.795 877.79 383.959C879.031 384.909 880.021 386.136 881.18 387.177C882.817 388.645 884.757 389.726 886.707 390.74C891.774 393.376 895.442 396.553 899.869 400.157C902.877 402.606 907.054 404.747 910.072 407.187C913.394 409.878 917.257 411.859 920.475 414.677C923.688 417.495 926.301 421.522 925.874 425.776C925.67 427.816 924.792 429.716 923.924 431.575C923.461 432.575 922.952 433.62 922.043 434.238C921.07 434.902 919.816 434.952 918.634 434.947C916.921 434.938 915.185 434.856 913.553 434.338C911.899 433.811 910.426 432.852 908.936 431.966C901.55 427.566 893.292 424.644 884.78 423.431C883.507 423.249 882.044 422.985 881.417 421.863C880.921 420.967 881.158 419.867 881.321 418.858C882.344 412.564 879.694 406.278 875.581 401.602C871.818 397.321 866.482 395.589 862.433 391.835C859.915 389.49 857.934 386.358 857.52 382.891Z" fill="#FFADAD"/>
<path opacity="0.5" d="M869.241 402.264C869.873 404 870.509 405.759 870.677 407.6C870.905 410.14 870.223 412.667 869.396 415.08C869.341 415.244 869.273 415.421 869.132 415.526C868.964 415.653 868.737 415.644 868.528 415.63C864.319 415.349 860.115 415.071 855.907 414.79C855.748 414.781 855.557 414.749 855.489 414.603C855.443 414.508 855.47 414.394 855.493 414.294C856.37 410.849 857.088 407.377 857.707 403.877C858.061 401.878 858.229 399.537 859.411 397.806C860.361 396.415 862.66 394.783 864.351 394.565C866.205 394.329 866.51 395.729 867.342 397.487C868.078 399.037 868.655 400.655 869.241 402.264Z" fill="#51A755"/>
<path d="M642.732 418.012C640.024 419.634 636.724 419.92 633.833 421.188C631.829 422.07 630.057 423.402 628.125 424.438C622.44 427.478 615.25 427.983 610.782 432.632C610.196 433.246 609.614 433.95 608.792 434.159C608.296 434.287 607.764 434.214 607.265 434.314C605.238 434.732 604.86 437.422 604.938 439.49C605.028 441.867 605.219 444.485 606.905 446.162C608.778 448.03 611.764 448.026 614.404 447.898C628.252 447.23 642.114 446.63 655.976 446.93C664.12 447.107 672.405 447.576 680.282 445.508C681.5 445.19 682.722 444.799 683.776 444.108C685.044 443.276 685.999 442.045 686.844 440.786C688.508 438.3 689.817 434.923 688.153 432.437C687.321 431.196 685.917 430.483 684.576 429.824C682.918 429.006 681.263 428.192 679.604 427.374C679.591 429.405 679.213 431.432 678.495 433.332C678.214 434.073 677.864 434.823 677.255 435.336C676.546 435.936 675.591 436.132 674.678 436.282C669.574 437.123 664.334 437.15 659.221 436.359C657.976 436.168 656.662 435.891 655.744 435.027C655.062 434.387 654.676 433.491 654.072 432.773C653.34 431.91 652.313 431.337 651.563 430.483C649.577 428.21 650.049 424.588 648.304 422.125C646.741 419.92 649.354 418.761 648.4 416.944C647.241 414.726 643.978 417.266 642.732 418.012Z" fill="#FFADAD"/>
<path d="M504.952 105.034C502.134 106.675 499.807 109.156 498.357 112.079C498.112 112.574 497.862 113.11 497.389 113.392C496.98 113.633 496.48 113.638 496.007 113.642C478.842 113.737 461.739 119.141 447.637 128.926C444.937 130.799 442.306 132.867 440.361 135.516C438.802 137.639 437.72 140.093 437.007 142.629C435.407 148.342 435.698 154.568 437.816 160.108C439.779 165.239 443.201 169.661 446.578 174.002C448.919 177.006 451.423 180.142 454.963 181.555C455.59 181.805 456.29 182.032 456.658 182.601C456.949 183.05 456.963 183.623 457.126 184.137C457.699 185.936 459.849 186.605 461.699 187.004C465.33 187.791 468.957 188.577 472.588 189.363C473.333 189.522 474.115 189.686 474.847 189.468C475.578 189.25 476.215 188.518 476.047 187.777C475.974 187.45 473.71 186.127 473.333 185.705C472.515 184.8 471.634 183.578 471.42 182.346C471.02 180.005 471.974 176.842 472.633 174.638C473.601 171.388 475.588 164.98 479.037 163.635C479.955 163.276 480.964 163.244 481.946 163.267C484.963 163.34 487.963 163.912 490.794 164.948C490.926 162.299 489.749 159.713 488.081 157.65C486.413 155.586 484.277 153.959 482.159 152.355C481.059 151.519 479.828 150.641 478.451 150.719C477.746 150.755 477.069 151.046 476.365 151.05C475.66 151.05 474.851 150.591 474.869 149.887C474.879 149.523 475.101 149.205 475.328 148.923C477.642 146.087 481.309 144.774 484.854 143.847C490.376 142.402 496.066 141.584 501.77 141.415C504.583 141.334 507.397 141.402 510.205 141.475C516.468 141.638 522.731 141.797 528.998 141.961C533.17 142.07 537.342 142.174 541.515 142.283C544.537 142.361 547.714 142.752 550.645 142.124C553.217 141.574 555.981 140.747 558.376 142.433C559.385 143.142 560.085 144.206 560.676 145.288C565.057 153.273 564.498 163.721 559.28 171.189C558.426 172.416 557.335 173.638 555.867 173.924C554.854 174.124 553.817 173.847 552.831 173.547C544.378 170.975 536.443 167.048 528.007 164.517C522.872 162.976 517.6 161.281 512.319 160.335C507.806 159.527 503.315 157.045 498.712 156.886C494.767 156.75 494.294 162.949 493.235 165.994C505.556 170.984 518.154 175.302 530.943 178.924C532.679 179.415 534.447 179.896 536.252 179.915C537.77 179.928 539.265 179.615 540.742 179.269C544.142 178.483 547.586 177.533 551.063 177.828C554.054 178.078 556.881 179.233 559.785 179.987C562.689 180.742 565.902 181.064 568.588 179.724C569.606 179.219 570.501 178.492 571.515 177.983C573.855 176.81 576.619 176.865 579.109 176.056C584.395 174.334 586.245 169.771 589.39 165.762C590.68 164.117 591.926 163.235 592.589 161.131C593.498 158.24 593.466 155.009 592.957 152.05C592.23 147.846 590.476 143.897 588.567 140.079C588.013 138.97 587.435 137.857 586.608 136.939C585.608 135.83 584.3 135.057 583.013 134.303C575.755 130.044 568.424 125.749 560.416 123.15C552.44 120.555 543.855 119.187 535.638 117.605C535.125 117.505 534.597 117.401 534.157 117.119C533.561 116.733 533.211 116.078 532.889 115.451C531.993 113.715 531.093 111.979 530.198 110.243C529.125 110.974 528.053 111.711 526.98 112.442C528.707 117.514 527.594 123.604 523.726 127.317C519.863 131.031 513.287 131.78 509.001 128.563C505.77 126.14 504.206 121.982 503.993 117.951C503.779 113.915 504.738 109.92 505.692 105.993" fill="#9BF6FF"/>
<path d="M610.946 172.029C609.119 174.46 607.046 176.733 605.569 179.391C604.306 181.664 603.51 184.163 602.465 186.54C600.947 189.994 598.902 193.176 596.87 196.343C595.107 199.098 594.243 202.015 592.621 204.838C592.448 205.133 592.276 205.442 592.244 205.783C592.212 206.087 592.298 206.392 592.389 206.683C592.975 208.569 593.794 210.387 594.816 212.078C595.225 212.75 595.666 213.409 596.211 213.982C598.925 216.836 602.829 217.322 606.478 216.291C610.755 215.082 611.905 213.805 614.35 210.023C616.109 207.301 618.308 204.901 620.499 202.52C623.285 199.488 625.575 196.334 629.216 194.385C633.12 192.294 636.16 188.354 639.137 185.14C642.982 180.991 646.827 176.842 650.672 172.692C652.994 170.188 655.371 167.584 656.489 164.357C657.903 160.28 656.985 155.486 654.167 152.222C653.026 150.9 651.626 149.836 650.199 148.836C646.977 146.573 643.514 144.546 639.701 143.578C636.415 142.742 632.056 142.546 629.016 144.337C626.234 145.973 624.189 149.745 622.521 152.436C618.513 158.88 615.518 165.939 610.946 172.029Z" fill="#FFD6A5"/>
<path d="M557.444 336.516C553.145 331.326 545.809 329.949 539.079 329.626C535.338 329.445 531.471 329.508 528.021 330.967C521.995 333.512 518.477 339.693 515.391 345.46C508.456 343.62 501.42 347.851 495.962 352.509C494.067 354.127 492.222 355.841 490.844 357.913C487.922 362.317 487.413 367.821 486.6 373.043C486.468 373.893 486.322 374.747 485.972 375.533C485.527 376.529 484.777 377.351 484.123 378.224C481.782 381.342 480.623 385.187 479.841 389.004C478.769 394.263 478.337 399.721 479.323 404.998C480.31 410.274 482.805 415.373 486.872 418.877C490.363 421.886 494.771 423.563 499.08 425.186C498.784 425.831 498.675 426.576 498.848 427.263C500.211 432.644 504.002 437.225 508.678 440.215C513.355 443.206 518.859 444.715 524.381 445.292C526.744 445.542 529.348 445.56 531.234 444.115C531.543 443.878 531.439 443.138 531.171 443.419C530.184 444.442 542.005 449.337 543.105 449.541C547.082 450.273 551.722 450.655 555.772 450.278C564.357 449.473 572.642 444.846 577.45 437.629C577.823 437.07 578.191 436.484 578.75 436.116C579.541 435.593 580.559 435.607 581.491 435.434C583.227 435.107 584.745 434.098 586.195 433.089C591.63 429.317 597.143 424.967 599.516 418.786C601.324 414.074 601.052 408.911 600.406 403.998C600.102 401.671 599.72 400.562 600.611 398.448C601.643 396.012 602.451 393.749 602.965 391.131C603.406 388.895 603.819 386.618 603.619 384.35C603.433 382.21 602.715 380.16 601.997 378.133C600.275 373.243 598.507 368.275 595.448 364.09C595.566 356.323 592.716 348.76 587.267 343.22C585.654 341.579 583.822 340.111 581.7 339.22C580.068 338.534 578.309 338.207 576.569 337.88C570.174 336.693 563.934 335.894 557.444 336.516Z" fill="#FDFFB6"/>
<path opacity="0.5" d="M502.038 429.68C502.038 429.68 510.542 439.706 521.808 440.846C521.808 440.846 520.931 436.479 521.808 433.62L532.402 444.837C532.402 444.837 514.146 444.955 510.778 441.423C507.406 437.892 502.67 433.625 502.038 429.68Z" fill="#51A755"/>
<path opacity="0.5" d="M540.638 365.984C540.638 365.984 562.13 367.452 570.329 389.863C570.329 389.863 571.842 376.256 567.225 368.052C567.225 368.052 591.153 385.145 592.526 401.729C593.898 418.313 587.585 425.199 587.585 425.199C587.585 425.199 585.84 418.591 581.359 416.396C581.359 416.396 582.427 429.457 578.796 434.952C578.796 434.952 597.461 431.393 600.62 414.837L599.575 399.148C599.575 399.148 604.683 387.227 602.038 374.638L596.652 363.771C596.652 363.771 590.88 333.23 561.512 335.698L557.567 336.861C557.567 336.861 540.924 325.813 528.026 330.753C515.127 335.693 515.891 345.096 515.891 345.096L524.435 346.392C524.435 346.387 512.355 362.635 540.638 365.984Z" fill="#51A755"/>
<path d="M599.716 189.586C599.716 189.586 584.622 177.843 572.574 177.734L566.934 180.951L556.253 179.933L552.222 178.347L550.463 177.656C550.463 177.656 541.287 179.083 541.024 179.138C540.76 179.192 525.408 182.651 511.792 189.582C498.175 196.517 468.552 214.315 458.394 228.817C448.237 243.32 446.078 241.456 438.165 252.682C430.253 263.908 421.104 278.278 417.659 284.987C414.219 291.695 404.379 313.923 401.53 321.277C398.68 328.63 394.358 350.237 393.531 353.545C392.704 356.854 390.59 393.076 392.245 405.579C393.899 418.082 395.567 424.826 395.381 424.181C395.194 423.535 422.672 433.802 431.13 435.638C439.588 437.479 465.33 441.337 475.351 440.787C485.372 440.238 501.552 440.328 507.988 436.833C507.988 436.833 499.839 431.312 499.548 425.062C499.548 425.062 482.796 419.368 480.655 407.06C478.514 394.748 477.278 383.368 487.022 374.201C487.022 374.201 485.832 354.291 500.17 348.678C514.509 343.065 515.614 345.455 515.891 345.087C516.168 344.719 520.672 330.103 532.62 329.826C544.569 329.549 557.976 337.102 557.976 337.102C557.976 337.102 569.729 330.058 584.731 342.583C584.731 342.583 597.616 357.804 596.789 364.73C596.789 364.73 603.41 375.06 601.938 374.692C600.465 374.324 630.307 340.379 639.669 304.184C648.886 268.557 648.054 218.41 621.808 201.717C621.39 201.448 620.963 201.189 620.526 200.939C620.526 200.939 607.778 217.164 607.26 216.714C606.742 216.264 595.934 217.301 593.925 209.688C591.917 202.076 593.166 201.707 593.166 201.707L599.716 189.586Z" fill="#FFD6A5"/>
<path opacity="0.5" d="M593.73 208.834C593.475 207.07 566.997 281.742 536.606 311.006C506.215 340.27 422.281 409.96 406.502 408.833C390.718 407.706 390.859 372.729 393.058 359.662C393.058 359.662 388.627 414.437 394.999 422.726C401.371 431.021 473.083 450.968 507.406 437.892C507.406 437.892 500.198 427.357 499.543 425.067C499.543 425.067 486.909 422.054 483.764 413.818C483.764 413.818 476.315 401.475 479.096 390.867C481.878 380.26 487.018 374.201 487.018 374.201C487.018 374.201 483.764 345.037 515.641 345.642C515.641 345.642 522.79 316.609 558.985 337.679C558.985 337.679 583.472 326.626 596.652 363.757L601.797 374.097L621.408 345.642L636.833 311.724L644.655 278.942L645.205 249.246L638.778 223.304C638.778 223.304 632.779 207.484 622.526 202.789L607.31 216.601C607.314 216.605 594.666 215.351 593.73 208.834Z" fill="#51A755"/>
<path opacity="0.5" d="M419.482 121.804C419.482 121.804 425.404 115.332 421.822 106.525C417.509 95.9307 404.184 99.0211 404.184 99.0211C404.984 99.0211 405.257 99.8756 405.111 100.666C404.888 101.862 404.666 103.057 404.443 104.252C404.384 104.561 404.329 104.902 404.479 105.179C404.725 105.638 405.357 105.684 405.879 105.693C407.488 105.72 409.088 105.988 410.615 106.497C411.324 106.734 412.074 107.065 412.41 107.734C412.651 108.206 412.646 108.779 412.91 109.233C413.155 109.656 413.614 109.942 413.805 110.392C413.978 110.797 413.901 111.26 413.824 111.692C413.628 112.774 413.433 113.855 413.237 114.937C413.133 115.505 413.033 116.091 413.155 116.655C413.464 118.073 415.01 118.796 416.369 119.314C417.718 119.832 419.182 120.382 419.482 121.804Z" fill="#FDFFB6"/>
<path d="M269.603 349.187C264.958 357.977 257.618 365.067 249.683 371.061C241.752 377.051 233.14 382.087 225.005 387.795C224.464 388.177 223.877 388.632 223.778 389.286C223.718 389.668 223.841 390.05 223.964 390.413C226.009 396.476 229.245 402.139 233.426 406.984C235.035 408.842 236.803 410.601 238.894 411.887C239.825 412.46 240.821 412.942 241.684 413.61C243.37 414.919 244.434 416.85 245.715 418.559C250.392 424.777 258.732 428.108 266.349 426.508C268.008 426.158 269.617 425.599 271.28 425.286C274.607 424.658 278.029 425.031 281.41 425.126C283.919 425.199 286.41 425.645 288.864 424.895C290.305 424.454 291.641 423.727 293.063 423.222C295.29 422.431 297.753 422.186 299.735 420.895C300.576 420.35 301.385 419.6 302.389 419.591C305.189 419.573 306.475 417.023 308.493 415.082C310.506 413.142 312.524 411.201 314.537 409.261C330.835 393.567 317.401 362.722 299.34 354.845C297.694 354.127 295.804 353.441 295.045 351.814C294.722 351.123 294.654 350.346 294.586 349.587C294.209 345.174 293.831 340.761 293.459 336.348C293.345 335.03 293.236 333.698 293.39 332.385C293.55 331.035 293.99 329.726 294.14 328.376C294.422 325.818 293.486 323.018 291.359 321.564C280.715 314.283 272.493 343.72 269.603 349.187Z" fill="#F9F9D9"/>
<path opacity="0.5" d="M280.442 328.558C280.442 328.558 284.737 332.648 282.628 339.824C280.52 347.001 279.324 364.23 284.214 378.696C287.609 388.74 280.279 423.535 250.856 422.349C250.519 422.336 250.124 422.508 249.869 422.308C249.388 421.936 249.369 422.708 249.369 422.708C249.369 422.708 260.563 430.675 268.212 426.662C275.861 422.649 274.561 425.244 277.529 425.217C280.497 425.185 289.446 426.194 298.617 419.85C298.617 419.85 314.174 416.046 319.714 401.261C319.714 401.261 325.291 372.252 307.448 360.703C289.605 349.155 292.318 343.029 293.354 341.547C294.39 340.065 293.131 330.008 293.131 330.008C293.131 330.008 284.664 327.603 283.787 323.072L280.442 328.558Z" fill="#51A755"/>
<path d="M338.316 402.303C336.548 402.648 334.607 403.357 333.903 405.011C333.508 405.939 333.585 406.984 333.658 407.988C334.112 414.256 334.121 420.555 333.685 426.822C333.608 427.917 333.521 429.035 333.758 430.108C334.353 432.771 336.875 434.639 339.507 435.375C342.134 436.112 344.915 435.966 347.646 436.043C353.655 436.221 359.627 437.557 365.135 439.957C368.712 441.515 371.87 442.543 375.815 442.338C380.278 442.106 384.409 439.966 388.218 437.625C389.836 436.63 391.513 435.494 392.254 433.744C392.363 433.485 392.449 433.207 392.417 432.93C392.367 432.539 392.09 432.217 391.818 431.935C390.127 430.181 388.909 427.695 386.705 426.658C384.869 425.795 382.119 426.258 380.174 425.681C376.711 424.654 373.243 423.627 369.78 422.6C367.416 421.9 364.821 421.018 363.644 418.855C363.249 418.132 361.954 416.955 361.763 416.155C360.999 412.969 361.331 410.147 360.563 406.961C360.431 406.407 360.286 405.834 359.94 405.38C359.295 404.534 358.131 404.321 357.077 404.171C356.754 404.125 356.395 404.084 356.118 404.257C355.873 404.412 355.75 404.689 355.614 404.943C354.691 406.675 352.732 407.657 350.787 407.906C348.842 408.156 346.874 407.788 344.951 407.416C343.443 407.125 341.902 406.825 340.588 406.034C339.275 405.243 338.216 403.843 338.266 402.312" fill="#FFADAD"/>
<path opacity="0.5" d="M356.241 403.446C356.241 403.446 359.717 404.21 359.967 406.936C360.217 409.663 360.331 415.385 361.817 417.244C363.303 419.103 366.685 425.179 380.305 425.593C390.14 425.893 392.295 432.183 392.667 434.355C392.74 434.787 392.595 435.232 392.281 435.542C390.886 436.923 386.227 441.009 378.924 442.159C369.471 443.645 353.264 436.632 347.069 435.714C344.015 435.26 341.116 434.792 338.889 434.414C336.425 434.001 334.603 431.901 334.535 429.406C334.353 422.671 333.967 410.113 333.553 407.873C332.694 403.242 337.807 402.76 337.807 402.76C337.807 402.76 339.184 409.432 347.796 408.336C356.409 407.236 356.241 403.446 356.241 403.446Z" fill="#51A755"/>
<path d="M179.243 384.382C179.588 383.664 179.947 382.855 179.702 382.096C179.352 381.005 177.889 380.637 176.825 381.059C175.762 381.482 175.021 382.436 174.33 383.345C173.339 384.659 172.348 385.968 171.358 387.281C170.703 388.145 170.031 389.026 169.126 389.622C166.495 391.34 162.65 390.199 160.15 392.103C158.837 393.103 158.182 394.776 158.041 396.421C157.9 398.066 158.209 399.707 158.491 401.334C159.764 408.61 160.564 415.968 160.886 423.349C160.964 425.117 161.018 426.917 161.55 428.607C161.877 429.644 162.373 430.616 162.791 431.621C163.177 432.548 163.5 433.52 164.127 434.302C164.69 435.006 165.463 435.511 166.272 435.915C169.276 437.415 172.821 437.588 176.111 436.906C176.83 436.756 177.548 436.565 178.193 436.22C178.779 435.902 179.297 435.465 179.893 435.156C181.524 434.316 183.479 434.593 185.31 434.725C186.915 434.843 188.532 434.829 190.137 434.693C191.246 434.597 192.436 434.402 193.227 433.611C194.454 432.384 194.154 430.321 193.514 428.707C191.75 424.267 187.987 420.667 183.474 419.104C182.933 418.918 182.333 418.718 182.047 418.222C181.865 417.909 181.847 417.527 181.833 417.163C181.683 413.205 182.833 409.805 185.447 406.774C186.315 405.765 187.314 404.852 188.001 403.711C188.687 402.57 189.019 401.102 188.432 399.907C186.851 400.498 184.965 400.193 183.651 399.13C182.779 398.425 182.179 397.443 181.597 396.485C180.284 394.321 178.947 392.094 178.529 389.599C178.175 387.536 178.361 386.213 179.243 384.382Z" fill="#FFADAD"/>
<path d="M324.691 239.297C326.545 247.328 334.107 252.6 339.788 258.572C344.247 263.253 348.037 268.161 351.578 273.574C354.723 278.378 356.55 283.7 358.999 288.89C361.622 294.449 363.235 299.798 363.967 305.902C366.803 329.557 370.511 353.759 368.562 377.451C368.489 378.346 368.403 379.269 368.012 380.078C367.498 381.136 366.512 381.886 365.517 382.518C355.486 388.863 342.497 386.649 330.876 384.209C328.717 373.129 328.767 362.266 328.285 351.091C328.058 345.81 328.49 340.501 327.758 335.361C327.008 330.062 325.427 325.517 323.732 320.363C320.378 310.165 315.996 300.289 308.984 292.204C307.843 290.89 291.027 275.533 290.632 275.988C287.028 280.101 285.537 287.036 284.21 292.34C281.488 303.229 279.897 313.164 278.061 324.235C277.397 328.253 276.734 332.089 275.125 335.829C273.648 339.251 272.675 343.478 270.734 346.66C268.776 349.873 267.126 353.263 265.258 356.526C258.586 368.179 247.301 377.487 235.994 384.709C230.826 388.008 225.714 392.976 219.574 394.026C213.647 395.039 206.975 389.172 203.444 384.731C201.926 382.823 194.05 363.675 196.681 362.807C209.152 358.69 219.537 349.309 226.118 337.952C232.703 326.59 235.662 313.369 235.985 300.239C236.126 294.526 235.785 288.809 236.017 283.1C237.18 254.886 253.651 226.081 278.847 212.778C278.42 215.123 279.029 215.964 280.051 218.118C280.847 219.791 282.033 221.245 283.265 222.627C288.705 228.744 295.34 233.898 302.907 237.016C310.483 240.138 316.742 241.256 324.691 239.297Z" fill="#BDB2FF"/>
<path d="M360.931 157.904C355.745 153.273 350.341 148.515 343.701 146.456C342.711 150.696 338.607 153.451 334.562 155.064C330.517 156.677 326.104 157.65 322.654 160.304C319.355 162.845 317.296 166.658 314.419 169.666C311.633 172.58 308.088 174.729 305.53 177.843C303.266 180.597 301.876 183.969 299.744 186.823C297.058 190.423 293.204 193.177 291.241 197.217C289.505 200.789 289.1 205.489 285.651 207.457C286.755 210.015 287.855 212.569 288.959 215.128C289.645 216.719 290.345 218.332 291.482 219.641C292.836 221.205 294.704 222.209 296.526 223.182C305.13 227.767 313.887 232.417 323.454 234.307C324.318 234.48 325.236 234.621 326.063 234.326C327.322 233.871 328.272 232.294 329.213 231.394C330.817 229.858 332.512 228.404 334.244 227.013C337.589 224.327 341.147 221.9 344.869 219.764C346.542 218.805 348.278 217.878 349.587 216.464C351.387 214.524 352.45 211.633 354.963 210.802C356.845 212.542 357.877 214.074 358.89 216.428C361.926 215.046 364.962 213.66 367.998 212.279C372.666 210.152 377.46 207.938 380.96 204.193C383.35 201.639 386.182 197.563 387.009 194.104C387.763 190.941 384.423 186.769 382.673 184.023C379.224 178.62 375.165 173.643 370.966 168.812C367.775 165.163 364.535 161.127 360.931 157.904Z" fill="#FDFFB6"/>
<path opacity="0.5" d="M651.226 407.255C651.54 408.891 651.854 410.545 651.808 412.213C651.763 413.881 651.326 415.586 650.281 416.885C649.218 418.203 647.472 419.321 647.582 421.012C647.613 421.48 647.795 421.926 648.009 422.348C649.163 424.616 651.263 426.307 653.576 427.366C655.889 428.425 658.425 428.916 660.948 429.256C665.215 429.834 669.665 430.006 673.719 428.547C675.3 427.979 676.859 427.111 677.777 425.702C679.204 423.512 678.75 420.639 678.191 418.085C677.864 416.581 677.509 415.063 676.85 413.668C676.368 412.65 675.728 411.713 675.264 410.686C674.791 409.636 674.519 408.505 674.364 407.364C674.182 405.991 674.119 404.473 673.173 403.465C672.264 402.492 670.819 402.306 669.51 402.074C665.87 401.433 662.343 400.029 658.653 399.974C657.339 399.956 656.035 400.11 654.735 400.256C653.553 400.388 651.663 400.138 650.581 400.533C649.572 400.901 650.204 401.865 650.408 402.928C650.677 404.374 650.954 405.814 651.226 407.255Z" fill="#51A755"/>
<path opacity="0.5" d="M714.236 200.816C714.236 200.816 724.475 200.071 727.193 205.538C729.915 211.006 734.01 215.814 739.105 216.691C744.2 217.568 773.55 220.636 780.745 210.819C780.745 210.819 783.299 197.653 778.477 195.69C778.477 195.69 785.962 195.385 788.839 201.912C791.716 208.438 794.952 213.255 788.021 235.748C781.09 258.24 784.617 289.272 794.552 302.188C804.487 315.1 784.221 318.836 784.221 318.836C784.221 318.836 751.281 331.321 730.102 318.836C730.102 318.836 753.753 322.467 755.721 314.191C757.689 305.915 745.004 279.455 748.722 265.239C752.439 251.023 750.676 243.842 748.058 240.765C745.44 237.688 727.102 236.198 721.512 241.206L720.758 234.184C720.758 234.184 721.185 230.017 717.058 229.68L714.236 226.454C714.236 226.454 718.512 226.731 720.117 225.213C721.721 223.695 723.803 221.472 724.189 216.95C724.575 212.433 723.843 207.938 721.489 205.484C719.13 203.039 714.236 200.816 714.236 200.816Z" fill="#51A755"/>
<path opacity="0.5" d="M731.261 324.449C732.529 323.927 749.731 327.322 753.694 340.438C756.657 350.25 750.912 380.896 763.238 403.729C775.563 426.562 795.583 421.34 801.405 426.53C805.777 430.43 804.141 433.966 804.141 433.966L849.099 429.007C849.099 429.007 859.002 416.223 850.103 391.481L809.086 392.394L794.17 391.481L792.993 366.452L795.297 348.096C795.297 348.096 798.933 333.498 797.788 330.012C796.642 326.526 794.338 314.878 794.338 314.878C794.338 314.878 769.296 325.095 763.238 325.09C757.18 325.086 737.532 325.454 732.342 320.032L731.261 324.449Z" fill="#51A755"/>
<path opacity="0.5" d="M713.186 303.556C713.186 303.556 672.055 288.617 639.651 302.824L637.692 309.173L627.871 333.347C627.871 333.347 632.261 382.536 637.606 394.548C637.606 394.548 659.093 406.796 678.209 392.739C678.209 392.739 666.961 347.445 675.037 334.374C675.037 334.374 720.939 340.501 731.261 346.205C731.261 346.205 733.169 320.513 732.347 320.026C731.529 319.54 712.381 310.128 713.186 303.556Z" fill="#51A755"/>
<path opacity="0.5" d="M705.523 225.767C705.523 225.767 708.482 240.883 698.924 241.81C698.924 241.81 700.206 245.782 702.551 245.727C704.896 245.673 719.762 244.868 719.762 244.868C719.762 244.868 723.771 233.284 719.635 230.661C719.635 230.661 715.613 228.893 714.822 226.694L705.523 225.767Z" fill="#51A755"/>
<path opacity="0.5" d="M626.562 195.69C626.562 195.69 642.037 211.102 688.876 208.834C709.414 207.839 707.859 202.417 707.859 202.417C707.859 202.417 714.908 201.217 717.767 202.794C720.621 204.371 730.888 215.883 719.376 225.663C719.376 225.663 685.626 227.581 664.12 221.41C642.614 215.238 627.998 211.734 621.812 201.717L626.562 195.69Z" fill="#51A755"/>
<path opacity="0.5" d="M516.518 161.463C514.909 160.849 513.3 160.217 511.641 159.754C509.751 159.231 504.638 157.095 502.697 156.804C500.016 156.404 500.043 156.768 497.362 156.368C496.648 156.259 496.335 157.236 495.685 157.554C495.117 157.831 494.739 158.386 494.421 158.931C493.271 160.885 492.512 163.067 492.19 165.307C492.153 165.571 492.126 165.857 492.271 166.08C492.421 166.312 492.712 166.398 492.98 166.471C496.089 167.303 499.22 168.143 502.129 169.534C504.174 170.511 506.306 171.52 508.374 172.452C515.327 175.592 520.94 177.31 527.889 178.76C529.884 179.178 531.88 181.196 533.916 181.178C535.447 181.164 536.974 180.955 538.488 180.701C541.783 180.146 553.036 178.683 548.414 172.688C546.646 170.398 542.055 169.925 539.438 169.102C535.779 167.957 532.12 166.821 528.475 165.635C524.458 164.326 520.463 162.962 516.518 161.463Z" fill="#51A755"/>
<path opacity="0.5" d="M536.62 118.446C536.62 118.446 542.892 129.595 540.997 141.852L528.571 142.588C528.571 142.588 535.525 133.367 534.725 126.241C533.925 119.114 533.034 120.196 533.334 119.323C533.634 118.446 536.62 118.446 536.62 118.446Z" fill="#51A755"/>
<path opacity="0.5" d="M553.836 138.116C556.072 136.139 576.06 148.088 564.257 172.775C558.626 184.546 549.913 175.42 549.913 175.42L553.822 179.76L563.475 181.21H567.47L572.578 175.043C572.578 175.043 576.991 163.731 577.25 159.654C577.509 155.582 577.755 144.643 568.852 138.289L553.836 138.116Z" fill="#51A755"/>
<path d="M798.433 398.516C798.433 398.516 803.023 407.997 838.437 400.789C838.437 400.789 845.913 399.63 849.044 410.088C849.044 410.088 856.607 408.32 855.193 409.292C853.78 410.265 851.916 392.763 849.576 391.481C847.235 390.199 809.313 392.408 807.332 392.395C805.346 392.381 793.488 390.799 794.206 391.168C794.924 391.536 795.533 396.585 798.433 398.516Z" fill="#009245"/>
<path opacity="0.5" d="M489.836 158.468C489.836 158.468 474.924 152.882 468.32 169.812C465.021 178.269 464.735 188.573 473.788 189.704L478.169 187.764C478.169 187.764 472.629 187.55 471.893 184.023C471.152 180.492 472.902 171.448 474.888 168.812C476.874 166.176 481.459 161.39 485.123 162.49C488.781 163.59 489.867 164.99 489.867 164.99C489.867 164.99 490.44 159.209 489.836 158.468Z" fill="#51A755"/>
<path opacity="0.5" d="M467.025 143.493C466.989 143.32 474.506 139.016 482.877 138.071C489.136 137.362 500.411 139.534 500.411 139.534C500.411 139.534 503.697 142.289 503.156 142.184C502.616 142.075 484.682 140.443 473.583 150.074C473.579 150.074 467.793 147.142 467.025 143.493Z" fill="#51A755"/>
<path opacity="0.5" d="M438.084 140.62C438.27 140.283 439.806 163.662 458.963 168.225C458.963 168.225 455.818 184.423 458.035 183.173C458.035 183.173 444.678 172.983 441.329 165.88C437.984 158.785 435.021 146.187 438.084 140.62Z" fill="#51A755"/>
<path opacity="0.5" d="M499.311 77.7385C497.803 72.5256 496.453 66.8628 498.352 61.7772C500.679 55.5508 507.16 52.0149 513.314 49.5107C517.018 48.0064 520.986 46.6566 524.944 47.2292C528.671 47.77 531.925 49.947 535.425 51.3423C537.583 52.2058 539.924 52.8148 541.669 54.3464C542.81 55.3508 543.605 56.6779 544.382 57.9822C545.664 60.1365 546.959 62.3089 547.809 64.6677C550.186 71.2486 548.382 79.5474 542.555 83.4241C542.66 80.629 542.728 77.6704 541.378 75.2207C540.142 72.9756 537.892 71.494 535.67 70.2214C532.039 68.1444 528.226 66.3856 524.29 64.9676C521.467 63.9496 518.536 63.0997 515.536 63.077C512.537 63.0543 509.433 63.9405 507.26 66.0084C504.861 68.2899 503.879 71.6758 503.37 74.948C503.143 76.4024 503.343 81.3426 501.943 82.1652C500.252 83.1696 499.67 78.9838 499.311 77.7385Z" fill="#51A755"/>
<path opacity="0.5" d="M572.865 142.047C572.738 141.82 580.318 138.493 578.932 132.403C578.932 132.403 594.012 142.475 593.307 152.941C592.603 163.408 587.381 176.865 570.751 178.124C570.751 178.129 584.895 163.29 572.865 142.047Z" fill="#51A755"/>
<path opacity="0.5" d="M475.51 168.226C475.51 168.226 486.886 184.728 516.414 186.014C516.573 186.023 516.736 186.028 516.895 186.032C516.895 186.032 508.528 192.095 508.056 191.618C507.578 191.141 479.178 187.618 479.178 187.618C479.178 187.618 470.025 187.968 471.652 179.933C473.279 171.902 475.51 168.226 475.51 168.226Z" fill="#51A755"/>
<path opacity="0.5" d="M505.165 108.361L503.811 119.351C503.811 119.351 504.461 126.154 505.165 126.118C505.87 126.082 509.878 130.008 509.878 130.008L518.236 130.517L524.262 126.759L526.889 121.732L527.726 116.238C527.726 116.238 527.63 112.034 526.417 112.034C525.203 112.034 518.054 114.86 517.741 115.129C517.427 115.397 507.229 111.061 507.229 111.061L505.165 108.361Z" fill="#51A755"/>
<path opacity="0.5" d="M486.545 154.527C486.545 154.527 490.463 149.705 495.971 150.51C501.479 151.314 544.137 157.977 550.891 156.254C557.644 154.532 556.381 143.597 555.349 142.838C555.349 142.838 556.913 142.37 557.213 142.529C557.517 142.688 563.566 150.51 563.562 154.3C563.557 158.091 562.925 171.693 556.035 173.852L537.061 168.366L506.197 157.95L498.421 156.154C498.421 156.154 492.867 156.059 492.981 166.721L489.836 164.462C489.836 164.462 490.99 159.686 489.836 158.463C488.681 157.245 486.613 153.496 486.545 154.527Z" fill="#51A755"/>
<path opacity="0.5" d="M177.779 392.666C177.779 392.666 162.277 401.078 167.594 419.112C167.594 419.112 173.921 416.322 181.283 417.008C181.283 417.008 183.601 406.405 187.573 404.033C187.573 404.033 189.437 400.756 189.051 400.292C188.664 399.829 187.583 400.792 185.556 400.12C183.524 399.442 177.779 392.666 177.779 392.666Z" fill="#51A755"/>
<path opacity="0.5" d="M338.979 191.377C338.979 191.377 347.228 191.377 352.337 195.249C362.049 202.616 369.502 205.961 379.856 203.712C380.156 203.648 371.779 218.037 358.409 216.151C357.954 216.087 338.979 191.377 338.979 191.377Z" fill="#51A755"/>
<path opacity="0.5" d="M351.355 150.633L359.049 146.979C359.049 146.979 367.53 158.713 367.534 158.768C367.539 158.822 364.521 163.035 364.521 163.035C364.521 163.035 358.19 151.796 351.355 150.633Z" fill="#51A755"/>
<path opacity="0.5" d="M357.895 146.806C355.254 148.738 350.878 147.256 349.955 144.116C349.587 142.861 349.696 141.466 349.083 140.307C348.405 139.026 347.001 138.321 346.047 137.235C344.647 135.64 344.338 133.285 344.87 131.231C345.401 129.177 346.674 127.386 348.128 125.841C348.428 125.523 348.755 125.182 348.828 124.75C348.942 124.087 348.442 123.496 348.065 122.937C346.247 120.233 347.319 116.047 350.214 114.552C351.619 113.825 353.409 113.602 354.305 112.302C355.377 110.752 354.555 108.648 354.727 106.771C354.995 103.894 358.136 101.649 360.945 102.322C361.817 102.531 362.753 102.967 363.553 102.572C364.635 102.04 364.585 100.531 364.708 99.3357C364.962 96.8633 366.748 94.6181 369.098 93.8092C371.448 93.0002 374.238 93.6819 375.956 95.4771C376.461 96.0043 377.02 96.6769 377.742 96.586C378.356 96.5042 378.742 95.9043 379.051 95.368C380.187 93.4047 381.705 91.355 383.937 90.955C385.664 90.646 387.45 91.4504 388.713 92.6684C389.977 93.891 390.804 95.4816 391.545 97.0769C393.954 95.9543 396.667 95.4953 399.312 95.7589C401.257 95.9543 402.534 95.9952 403.434 97.7313C404.334 99.4675 404.407 101.535 404.057 103.458C403.925 104.167 403.77 104.994 404.257 105.53C404.87 106.207 405.961 105.88 406.861 105.712C409.774 105.158 412.933 107.235 413.578 110.13C414.087 112.42 413.174 114.765 412.278 116.938C415.332 118.328 418.8 120.26 419.218 123.587C419.295 124.209 419.255 124.85 419.4 125.464C419.645 126.518 420.409 127.368 421.172 128.136C422.845 129.818 424.845 131.945 424.09 134.194C423.454 136.09 421.013 137.162 420.927 139.162C420.9 139.766 421.109 140.357 421.309 140.925C422.4 144.048 423.177 147.892 420.963 150.351C419.395 152.092 416.573 152.755 415.814 154.973C415.332 156.369 415.878 157.937 415.523 159.373C414.832 162.19 411.306 163.072 408.415 163.277C407.565 163.336 406.647 163.408 405.988 163.954C405.52 164.345 405.257 164.917 404.952 165.445C403.884 167.312 402.143 168.79 400.13 169.549C398.839 170.035 397.317 170.203 396.135 169.494C395.222 168.949 394.663 167.981 393.908 167.231C393.154 166.485 391.936 165.958 391.049 166.544C390.7 166.776 390.468 167.144 390.213 167.485C388.641 169.594 385.864 170.721 383.26 170.353C380.655 169.985 378.315 168.158 377.288 165.735C377.047 165.172 376.824 164.517 376.265 164.263C375.856 164.077 375.379 164.167 374.929 164.213C371.152 164.604 367.503 160.941 367.907 157.164C370.102 159.127 373.229 159.791 376.165 159.527C379.097 159.264 381.887 158.159 384.569 156.946C386.782 155.946 388.968 154.855 390.927 153.419C395.812 149.829 398.912 144.361 401.862 139.066C402.339 138.207 402.825 137.33 402.98 136.362C403.166 135.203 402.866 134.026 402.571 132.89C401.643 129.336 400.644 125.646 398.248 122.86C395.372 119.515 390.804 117.969 386.396 117.969C381.06 117.974 375.802 120.074 371.748 123.537C367.689 127 364.821 131.772 363.385 136.908C362.84 138.862 362.481 140.893 361.567 142.707C360.681 144.525 359.536 145.606 357.895 146.806Z" fill="#51A755"/>
<path opacity="0.5" d="M186.705 378.695C186.705 378.695 190.437 390.616 180.615 396.466L184.006 400.251H186.124L205.453 393.13L196.245 384.031L186.705 378.695Z" fill="#51A755"/>
<path opacity="0.5" d="M314.315 240.62C314.315 240.62 290.795 230.717 284.142 223.899C284.142 223.899 258.618 237.084 253.61 267.83C248.606 298.58 249.242 328.966 238.962 344.423C228.681 359.88 215.21 371.447 198.608 375.537C198.608 375.537 204.866 394.589 216.124 394.68C217.092 394.689 247.22 383.068 263.108 359.476C278.997 335.884 283.887 292.017 284.837 288.963C285.787 285.909 293.259 271.779 293.259 271.779C293.259 271.779 305.339 268.598 304.902 269.011C304.466 269.434 314.315 240.62 314.315 240.62Z" fill="#51A755"/>
<path opacity="0.5" d="M337.198 386.422C337.198 386.422 337.198 405.337 338.03 405.233C338.861 405.128 341.347 408.369 346.088 407.864C350.828 407.364 355.427 405.851 355.427 405.851C355.427 405.851 357.295 394.093 357.286 390.062C357.277 386.031 354.823 385.976 354.482 386.417C354.141 386.858 336.725 386.217 337.198 386.422Z" fill="#51A755"/>
<path opacity="0.5" d="M323.591 240.62L314.187 241.006C314.187 241.006 313.792 271.852 290.632 275.983C290.632 275.983 317.405 294.258 321.764 313.723C326.118 333.189 330.372 384.5 330.372 384.5C330.372 384.5 353.573 390.008 368.357 379.378L366.53 321.404C366.53 321.404 357.286 328.558 346.978 287.795C342.597 270.461 329.29 258.009 325.722 255.136C323.309 253.191 321.623 250.46 321.136 247.396C320.741 244.933 321.114 242.311 323.591 240.62Z" fill="#51A755"/>
<path opacity="0.5" d="M337.716 190.667C337.716 190.667 338.961 211.128 327.813 220.74C319.4 227.994 317.591 233.075 317.591 233.075C317.591 233.075 327.767 235.033 327.422 234.27C327.077 233.506 342.206 219.858 355.441 211.937L337.716 190.667Z" fill="#51A755"/>
<path opacity="0.5" d="M366.53 217.341L387.872 205.011C387.872 205.011 397.185 215.418 397.358 215.6C397.53 215.782 403.675 240.578 442.128 247.023C442.128 247.023 435.279 257.785 435.125 256.844C434.97 255.904 393.703 252.736 366.53 217.341Z" fill="#51A755"/>
<path opacity="0.5" d="M614.254 197.28C623.326 186.427 625.657 171.625 627.643 157.622C633.143 165.703 644.523 170.916 654.112 169.02C650.517 169.729 636.328 186.186 633.62 189.586C627.721 196.985 623.453 202.102 615.872 207.81C612.073 210.674 609.082 222.913 597.266 213.501C592.189 209.46 610.814 201.393 614.254 197.28Z" fill="#51A755"/>
<path d="M602.038 374.629C663.257 295.558 652.553 219.255 621.808 201.717" stroke="#009245" stroke-width="2.72689" stroke-miterlimit="10"/>
<path d="M549.836 177.656C538.742 179.02 525.74 182.569 510.773 189.586C450.218 217.973 372.634 317.318 395.34 424.235C395.34 424.235 448.946 449.236 507.406 437.892" stroke="#009245" stroke-width="2.72689" stroke-miterlimit="10"/>
<path d="M510.773 189.587C450.218 217.974 372.634 317.319 395.34 424.236" stroke="#009245" stroke-width="2.72689" stroke-miterlimit="10"/>
<path d="M599.715 189.587C599.715 189.587 589.344 180.957 572.574 177.734" stroke="#009245" stroke-width="2.72689" stroke-miterlimit="10"/>
<path d="M626.671 146.329L592.494 202.794C592.494 202.794 592.494 217.951 607.314 216.606L654.112 169.021" stroke="#009245" stroke-width="2.72689" stroke-miterlimit="10"/>
<path d="M656.363 167.254C660.254 162.315 657.07 153.317 649.25 147.156C641.431 140.995 631.937 140.004 628.046 144.943C624.155 149.882 627.339 158.88 635.158 165.041C642.978 171.202 652.471 172.193 656.363 167.254Z" fill="#A8BF7D"/>
<path d="M655.722 167.524C659.614 162.585 656.429 153.586 648.61 147.425C640.79 141.264 631.297 140.274 627.405 145.213C623.514 150.152 626.698 159.15 634.518 165.311C642.337 171.472 651.831 172.463 655.722 167.524Z" stroke="#009245" stroke-width="2.72689" stroke-miterlimit="10"/>
<path d="M598.329 193.436C598.329 193.436 550.677 179.42 503.447 216.692" stroke="#009245" stroke-width="2.72689" stroke-miterlimit="10"/>
<path d="M592.494 202.793C592.494 202.793 539.683 224.972 511.946 259.208" stroke="#009245" stroke-width="2.72689" stroke-miterlimit="10"/>
<path d="M616.536 207.134C615.922 207.761 635.192 242.751 616.522 285.346" stroke="#009245" stroke-width="2.72689" stroke-miterlimit="10"/>
<path d="M601.356 216.137C601.356 216.137 594.407 246.714 572.919 277.701" stroke="#009245" stroke-width="2.72689" stroke-miterlimit="10"/>
<path d="M395.344 424.235C394.231 379.164 411.01 331.543 424.567 309.023" stroke="#009245" stroke-width="2.72689" stroke-miterlimit="10"/>
<path d="M394.999 422.727C393.94 422.195 445.733 433.821 493.653 423.168" stroke="#009245" stroke-width="2.72689" stroke-miterlimit="10"/>
<path d="M397.362 422.335C393.772 422.662 433.63 417.472 485.427 370.605" stroke="#009245" stroke-width="2.72689" stroke-miterlimit="10"/>
<path d="M397.362 422.335C397.362 422.335 422.927 347.795 482.014 290.035" stroke="#009245" stroke-width="2.72689" stroke-miterlimit="10"/>
<path d="M524.848 485.799L530.884 489.426L530.784 513.668C530.784 513.668 529.134 525.884 486.585 528.666C444.037 531.447 406.619 528.997 387.313 518.944C387.313 518.944 378.632 517.803 376.723 508.95C374.815 500.097 377.287 486.749 377.287 486.749L437.438 504.705L506.342 505.428L522.417 496.256L524.848 485.799Z" fill="#FDC6FF"/>
<path d="M531.338 491.543C531.573 480.993 497.231 471.67 454.631 470.72C412.032 469.77 377.308 477.552 377.072 488.102C376.837 498.653 411.18 507.975 453.779 508.925C496.378 509.876 531.103 502.093 531.338 491.543Z" fill="#FDC6FF"/>
<path d="M531.338 491.543C531.573 480.993 497.231 471.67 454.631 470.72C412.032 469.77 377.308 477.552 377.072 488.102C376.837 498.653 411.18 507.975 453.779 508.925C496.378 509.876 531.103 502.093 531.338 491.543Z" stroke="#51A755" stroke-width="2.72689" stroke-miterlimit="10"/>
<path opacity="0.5" d="M508.953 489.224C509.118 481.813 484.992 475.264 455.066 474.597C425.14 473.929 400.746 479.396 400.581 486.806C400.415 494.217 424.541 500.766 454.468 501.433C484.394 502.101 508.788 496.634 508.953 489.224Z" fill="#51A755"/>
<path d="M508.953 489.224C509.118 481.813 484.992 475.264 455.066 474.597C425.14 473.929 400.746 479.396 400.581 486.806C400.415 494.217 424.541 500.766 454.468 501.433C484.394 502.101 508.788 496.634 508.953 489.224Z" stroke="#51A755" stroke-width="2.72689" stroke-miterlimit="10"/>
<path d="M531.311 491.571L530.979 512.396C530.743 522.944 496.02 530.725 453.426 529.775C410.828 528.825 376.492 519.504 376.723 508.955L377.055 488.131" stroke="#51A755" stroke-width="2.72689" stroke-miterlimit="10"/>
<path d="M381.559 494.775L381.568 515.836" stroke="#51A755" stroke-width="2.72689" stroke-miterlimit="10"/>
<path d="M390.594 499.332L390.608 520.288" stroke="#51A755" stroke-width="2.72689" stroke-miterlimit="10"/>
<path d="M399.634 502.141L399.647 523.097" stroke="#51A755" stroke-width="2.72689" stroke-miterlimit="10"/>
<path d="M408.669 504.324L408.683 525.217" stroke="#51A755" stroke-width="2.72689" stroke-miterlimit="10"/>
<path d="M426.744 507.135L426.757 528" stroke="#51A755" stroke-width="2.72689" stroke-miterlimit="10"/>
<path d="M435.779 508.021L435.792 528.873" stroke="#51A755" stroke-width="2.72689" stroke-miterlimit="10"/>
<path d="M444.814 508.26L444.827 529.466" stroke="#51A755" stroke-width="2.72689" stroke-miterlimit="10"/>
<path d="M453.849 508.951L453.863 529.785" stroke="#51A755" stroke-width="2.72689" stroke-miterlimit="10"/>
<path d="M462.888 509.018L462.898 529.842" stroke="#51A755" stroke-width="2.72689" stroke-miterlimit="10"/>
<path d="M471.924 508.822L471.933 529.633" stroke="#51A755" stroke-width="2.72689" stroke-miterlimit="10"/>
<path d="M480.959 507.928L480.968 528.652" stroke="#51A755" stroke-width="2.72689" stroke-miterlimit="10"/>
<path d="M489.994 507.527L490.003 528.315" stroke="#51A755" stroke-width="2.72689" stroke-miterlimit="10"/>
<path d="M417.718 526.801L417.708 505.918" stroke="#51A755" stroke-width="2.72689" stroke-miterlimit="10"/>
<path d="M499.029 506.336L499.038 527.106" stroke="#51A755" stroke-width="2.72689" stroke-miterlimit="10"/>
<path d="M508.064 504.604L508.073 525.396" stroke="#51A755" stroke-width="2.72689" stroke-miterlimit="10"/>
<path d="M517.094 502.223L517.108 522.933" stroke="#51A755" stroke-width="2.72689" stroke-miterlimit="10"/>
<path d="M526.13 498.256L526.143 518.867" stroke="#51A755" stroke-width="2.72689" stroke-miterlimit="10"/>
<path d="M337.253 190.214C345.274 197.999 351.723 205.321 358.949 216.151C358.949 216.151 378.424 214.061 387.873 192.727C387.873 192.727 386.068 191.041 378.124 179.661C369.834 167.79 356.395 152.824 341.915 157.896" stroke="#009245" stroke-width="2.72689" stroke-miterlimit="10"/>
<path d="M367.507 166.857C360.822 152.245 344.592 147.823 344.592 147.823L338.257 153.759C338.257 153.759 343.188 155.086 345.106 157.09" stroke="#009245" stroke-width="2.72689" stroke-miterlimit="10"/>
<path d="M338.261 153.76C338.261 153.76 315.201 155.819 285.537 207.375C285.537 207.375 290.009 230.045 327.081 233.503C327.081 233.503 341.484 219.66 355.441 211.933" stroke="#009245" stroke-width="2.72689" stroke-miterlimit="10"/>
<path d="M314.315 240.62C314.315 240.62 310.652 267.13 293.159 271.911" stroke="#009245" stroke-width="2.72689" stroke-miterlimit="10"/>
<path d="M306.148 238.674C306.148 238.674 304.18 257.103 293.259 271.787" stroke="#009245" stroke-width="2.72689" stroke-miterlimit="10"/>
<path d="M365.576 214.377C365.576 214.377 390.045 252.772 436.12 256.267" stroke="#009245" stroke-width="2.72689" stroke-miterlimit="10"/>
<path d="M384.66 198.733C384.66 198.733 404.707 234.365 445.965 242.75" stroke="#009245" stroke-width="2.72689" stroke-miterlimit="10"/>
<path d="M290.832 274.955C290.832 274.955 317.646 294.42 323.591 319.735C329.404 344.486 330.372 384.498 330.372 384.498C354.109 390.943 367.33 379.749 367.33 379.749C367.33 379.749 369.612 343.354 365.576 314.308C359.872 273.278 323.591 240.619 323.591 240.619C319.546 240.964 315.296 240.969 309.584 239.605C282.219 233.074 278.302 211.841 278.302 211.841C268.099 219.267 260.25 224.121 253.551 233.497C232.985 256.635 235.753 297.152 235.753 297.474C235.294 338.878 219.296 348.867 196.245 364.047C196.245 364.047 196.081 387.598 216.129 394.679C216.129 394.679 269.585 375.013 277.256 326.461C283.71 285.608 287.955 278.204 293.263 271.778" stroke="#009245" stroke-width="2.72689" stroke-miterlimit="10"/>
<path d="M303.734 265.12C303.734 265.12 327.068 284.399 333.312 308.514C341.234 339.101 340.647 386.953 340.647 386.953" stroke="#009245" stroke-width="2.72689" stroke-miterlimit="10"/>
<path d="M286.532 226.688C286.532 226.688 262.486 238.678 258.445 277.145C255.505 305.123 258.868 360.133 200.794 381.453" stroke="#009245" stroke-width="2.72689" stroke-miterlimit="10"/>
<path d="M293.159 232.476C293.159 232.476 283.26 248.796 267.876 246.346" stroke="#009245" stroke-width="2.72689" stroke-miterlimit="10"/>
<path d="M297.472 235.32C297.472 235.32 283.833 256.267 265.608 250.682" stroke="#009245" stroke-width="2.72689" stroke-miterlimit="10"/>
<path d="M345.506 198.733C345.506 198.733 326.836 207.818 312.397 229.129" stroke="#009245" stroke-width="2.72689" stroke-miterlimit="10"/>
<path d="M277.529 212.41L285.878 206.783" stroke="#009245" stroke-width="2.72689" stroke-miterlimit="10"/>
<path d="M323.591 240.619C323.591 240.619 324.959 236.915 327.081 233.502" stroke="#009245" stroke-width="2.72689" stroke-miterlimit="10"/>
<path d="M403.125 132.398C403.125 132.398 401.957 120.377 386.805 118.391C375.52 117.364 369.516 124.981 365.889 132.476C363.676 137.052 362.985 142.224 363.967 147.215C364.967 152.314 367.126 155.572 368.153 156.631C370.557 159.113 382.987 160.458 389.545 154.809C396.099 149.155 405.052 139.534 403.125 132.398Z" stroke="#009245" stroke-width="2.72689" stroke-miterlimit="10"/>
<path d="M363.985 138.134C363.985 138.134 360.254 149.128 350.587 150.241" stroke="#009245" stroke-width="2.72689" stroke-miterlimit="10"/>
<path d="M368.544 156.967L364.521 161.73" stroke="#009245" stroke-width="2.72689" stroke-miterlimit="10"/>
<path d="M371.216 138.702C371.216 138.702 381.883 143.806 384.269 151.846" stroke="#009245" stroke-width="2.72689" stroke-miterlimit="10"/>
<path d="M372.538 139.407C372.579 139.43 369.484 144.606 372.538 148.824C375.593 153.042 383.501 149.878 383.501 149.878" stroke="#009245" stroke-width="2.72689" stroke-miterlimit="10"/>
<path d="M377.742 128.68C377.983 128.68 383.473 128.203 384.587 132.82" stroke="#009245" stroke-width="2.72689" stroke-miterlimit="10"/>
<path d="M388.886 136.88C388.886 136.88 393.422 137.516 393.822 141.656" stroke="#009245" stroke-width="2.72689" stroke-miterlimit="10"/>
<path d="M356.532 148.032C356.532 148.032 348.655 148.019 349.374 140.284C349.428 139.697 349.101 139.147 348.565 138.907C347.047 138.216 344.233 136.443 344.233 132.821C344.233 129.244 346.219 127.563 348.219 126.735C349.105 126.367 349.369 125.245 348.724 124.531C347.469 123.136 346.047 120.914 346.428 118.291C346.951 114.733 350.505 113.442 353.378 113.601C354.296 113.651 355.005 112.819 354.805 111.924C354.382 110.047 354.118 107.252 355.436 105.007C357.022 102.312 360.377 102.362 362.803 103.093C363.722 103.371 364.64 102.657 364.562 101.703C364.408 99.7075 364.78 96.9215 367.498 95.1172C370.68 93.0039 374.129 94.6218 375.979 95.8398C376.651 96.2852 377.565 96.0489 377.947 95.3353C378.792 93.7583 380.683 91.5223 384.65 91.3814C389 91.2268 390.59 93.9174 391.118 95.9807C391.336 96.8351 392.295 97.2669 393.076 96.8579C395.053 95.8262 398.467 94.7491 402.016 96.876C405.357 98.8803 405.138 102.184 404.457 104.466C404.161 105.452 405.025 106.407 406.034 106.216C408.274 105.784 411.397 105.734 413.224 108.079C415.31 110.76 414.06 114.501 413.042 116.632C412.651 117.446 413.137 118.409 414.024 118.582C415.86 118.941 418.464 119.664 419.155 120.959C419.723 122.023 419.705 123.468 419.555 124.622C419.414 125.713 419.95 126.772 420.909 127.317C422.54 128.249 424.663 130.09 424.222 133.235C423.877 135.693 422.604 137.225 421.395 138.148C420.332 138.961 420.168 140.493 420.995 141.547C422.3 143.21 423.618 145.592 422.822 147.769C421.795 150.573 419.586 151.764 417.896 152.264C416.737 152.609 415.982 153.714 416.06 154.922C416.164 156.659 415.937 159.085 414.342 161.094C412.456 163.471 409.079 163.339 407.029 162.989C406.179 162.844 405.397 163.444 405.288 164.298C405.057 166.194 403.998 169.057 399.812 169.684C395.694 170.302 393.363 167.816 392.222 165.975C391.877 165.416 391.045 165.466 390.759 166.062C390.022 167.598 388.473 170.416 384.569 170.661C376.929 171.138 375.852 164.185 375.852 164.185C367.28 165.725 367.489 158.19 367.489 158.19" stroke="#009245" stroke-width="2.72689" stroke-miterlimit="10"/>
<path d="M367.975 217.84C367.975 217.84 378.633 219.181 390.609 207.691L384.664 198.733C384.664 198.733 376.611 211.959 365.58 214.377L367.975 217.84Z" fill="#009245"/>
<path d="M281.701 220.308L288.678 214.377" stroke="#009245" stroke-width="2.72689" stroke-miterlimit="10"/>
<path d="M283.26 221.868L290.236 215.937" stroke="#009245" stroke-width="2.72689" stroke-miterlimit="10"/>
<path d="M289.359 229.475L295.395 222.585" stroke="#009245" stroke-width="2.72689" stroke-miterlimit="10"/>
<path d="M291.127 230.789L297.163 223.899" stroke="#009245" stroke-width="2.72689" stroke-miterlimit="10"/>
<path d="M300.699 236.692L305.08 228.652" stroke="#009245" stroke-width="2.72689" stroke-miterlimit="10"/>
<path d="M302.712 237.589L307.093 229.549" stroke="#009245" stroke-width="2.72689" stroke-miterlimit="10"/>
<path d="M314.188 241.01L316.183 232.07" stroke="#009245" stroke-width="2.72689" stroke-miterlimit="10"/>
<path d="M316.374 241.315L318.369 232.375" stroke="#009245" stroke-width="2.72689" stroke-miterlimit="10"/>
<path d="M356.255 205.015C359.163 208.623 361.599 211.991 362.563 214.377" stroke="#009245" stroke-width="2.72689" stroke-miterlimit="10"/>
<path d="M350.928 198.652C351.396 199.198 351.869 199.748 352.337 200.302" stroke="#009245" stroke-width="2.72689" stroke-miterlimit="10"/>
<path d="M347.651 194.834C348.701 196.061 349.81 197.347 350.928 198.652" stroke="#009245" stroke-width="2.72689" stroke-miterlimit="10"/>
<path d="M342.706 188.813C343.288 189.586 343.974 190.445 344.733 191.377" stroke="#009245" stroke-width="2.72689" stroke-miterlimit="10"/>
<path d="M339.357 181.95C340.034 184.254 341.084 186.654 342.706 188.817" stroke="#009245" stroke-width="2.72689" stroke-miterlimit="10"/>
<path d="M357.154 384.726L356.241 403.446C356.136 405.577 354.605 407.359 352.519 407.795C349.701 408.386 345.57 408.763 341.484 407.391C339.702 406.791 338.471 405.164 338.343 403.291L337.198 386.425" stroke="#009245" stroke-width="2.72689" stroke-miterlimit="10"/>
<path d="M209.648 391.425C198.786 395.965 186.124 400.251 186.124 400.251C186.124 400.251 174.598 396.334 178.638 383.931L197.245 371.851" stroke="#009245" stroke-width="2.72689" stroke-miterlimit="10"/>
<path d="M187.574 378.132C187.574 378.132 188.592 390.449 204.808 393.389L209.648 391.426C209.648 391.426 197.677 380.686 196.909 371.451L187.574 378.132Z" fill="#009245"/>
<path d="M337.402 394.684C337.402 394.684 351.314 396.152 357.195 388.04C357.195 388.04 357.409 383.895 357.172 384.372C356.932 384.849 346.06 387.844 336.671 385.913L337.402 394.684Z" fill="#009245"/>
<path d="M317.596 241.011C318.114 240.756 316.396 272.638 296.431 279.532L290.832 274.956L293.259 271.788C293.259 271.788 307.548 269.42 314.188 241.011C314.887 238.029 315.187 242.192 317.596 241.011Z" fill="#009245"/>
<path d="M358.454 146.514C358.454 146.514 358.84 155.013 366.667 158.622L368.148 156.631C368.148 156.631 360.49 145.646 364.094 138.029C362.258 141.983 360.39 145.001 358.454 146.514Z" fill="#009245"/>
<path d="M179.766 382.417C179.766 382.417 177.389 379.976 175.566 382.417C173.744 384.857 171.508 390.316 164.509 391.434L161.582 391.906C159.364 392.261 157.864 394.361 158.246 396.569C159.382 403.164 161.405 416.471 160.964 425.602C160.75 430.006 163.045 434.182 166.954 436.214C168.272 436.9 169.612 437.4 170.808 437.477C174.862 437.741 178.302 432.019 192.305 434.455C193.823 434.718 195.073 433.273 194.595 431.81C193.027 426.974 188.855 418.384 178.784 417.189C178.784 417.189 171.026 415.953 165.981 420.97" stroke="#009245" stroke-width="2.72689" stroke-miterlimit="10"/>
<path d="M188.66 399.375C188.66 399.375 188.801 403.334 187.573 404.033C186.346 404.733 181.493 408.465 181.261 417.654" stroke="#009245" stroke-width="2.72689" stroke-miterlimit="10"/>
<path d="M162.877 391.702C162.877 391.702 161.155 390.039 159.896 390.461C158.637 390.879 154.542 391.525 153.46 392.42C149.324 395.838 156.751 418.48 155.133 428.751C154.587 432.205 155.66 435.732 158.064 438.273C161.159 441.545 165.504 445.176 169.131 444.622C175.566 443.64 183.379 440.368 189.387 440.732C190.31 440.786 194.627 441.627 195.295 441.741C197.286 442.077 199.099 440.518 199.063 438.5C199.026 436.673 198.767 434.592 197.945 433.037C197.109 431.465 194.4 431.21 194.4 431.21" stroke="#009245" stroke-width="2.72689" stroke-miterlimit="10"/>
<path d="M169.131 444.617C169.131 444.617 182.574 445.363 196.032 441.781" stroke="#009245" stroke-width="2.72689" stroke-miterlimit="10"/>
<path d="M356.241 403.446C356.241 403.446 359.718 404.21 359.967 406.936C360.217 409.663 360.331 415.385 361.817 417.244C363.303 419.103 366.685 425.179 380.306 425.593C390.141 425.893 392.295 432.183 392.667 434.355C392.74 434.787 392.595 435.232 392.281 435.542C390.886 436.923 386.227 441.009 378.924 442.159C369.471 443.645 353.264 436.632 347.069 435.714C344.015 435.26 341.116 434.792 338.889 434.414C336.425 434.001 334.603 431.901 334.535 429.406C334.353 422.671 333.967 410.113 333.553 407.873C332.694 403.242 337.807 402.76 337.807 402.76" stroke="#009245" stroke-width="2.72689" stroke-miterlimit="10"/>
<path d="M334.535 429.398C334.535 429.398 333.099 430.18 332.517 431.694C331.935 433.207 332.517 438.447 332.517 438.447C332.517 438.447 334.612 441.729 339.852 442.36C345.092 442.992 362.817 447.655 367.762 448.841C378.274 451.364 388.577 447.973 394.308 442.583C395.381 441.574 396.012 440.188 396.072 438.715C396.172 436.134 396.149 434.566 394.667 433.734C393.308 432.971 391.872 432.766 391.872 432.766" stroke="#009245" stroke-width="2.72689" stroke-miterlimit="10"/>
<path d="M343.397 407.869C343.397 407.869 345.129 424.694 358.845 429.398C372.566 434.106 380.751 432.488 382.81 441.21" stroke="#009245" stroke-width="2.72689" stroke-miterlimit="10"/>
<path d="M167.722 419.541C161.818 400.202 177.78 392.667 177.78 392.667" stroke="#009245" stroke-width="2.72689" stroke-miterlimit="10"/>
<path d="M170.244 418.209C170.244 418.209 175.362 422.04 176.443 427.967C177.525 433.893 178.625 434.888 178.625 434.888" stroke="#009245" stroke-width="2.72689" stroke-miterlimit="10"/>
<path d="M711.282 201.911C711.282 201.911 712.923 197.48 716.177 196.298C719.431 195.116 753.294 182.05 775.805 191.267" stroke="#009245" stroke-width="2.72689" stroke-miterlimit="10"/>
<path d="M628.384 207.132C650.19 225.211 703.201 225.825 715.486 226.515C718.435 226.684 721.212 225.079 722.517 222.425C723.635 220.144 724.516 216.935 724.071 212.79C723.648 208.872 722.18 206.177 720.626 204.368C718.763 202.205 715.877 201.269 713.059 201.732C680.214 207.132 634.452 192.429 632.611 190.848" stroke="#009245" stroke-width="2.72689" stroke-miterlimit="10"/>
<path d="M714.822 226.693C714.822 226.693 715.668 229.479 718.69 230.538C721.712 231.597 745.15 225.629 766.479 226.693" stroke="#009245" stroke-width="2.72689" stroke-miterlimit="10"/>
<path d="M757.989 187.989C757.989 187.989 762.561 184.694 767.42 184.408C772.278 184.122 782.708 185.122 785.281 186.835C787.853 188.548 785.853 199.124 785.853 199.124" stroke="#009245" stroke-width="2.72689" stroke-miterlimit="10"/>
<path d="M781.277 194.947C781.277 194.947 790.566 200.124 791.852 209.273C791.852 209.273 793.22 218.108 788.662 233.378C784.522 247.267 780.377 284.339 796.474 304.868C799.042 308.14 798.024 312.935 794.338 314.876C781.636 321.557 754.13 330.678 733.611 320.602C697.725 302.982 711.586 278.426 714.818 268.346C716.786 262.206 722.821 245.386 720.749 231.283" stroke="#009245" stroke-width="2.72689" stroke-miterlimit="10"/>
<path d="M705.524 225.766C705.524 225.766 707.073 233.129 704.728 238.569C703.978 240.305 702.133 241.296 700.261 241.014C691.103 239.637 656.558 232.911 646.459 216.69" stroke="#009245" stroke-width="2.72689" stroke-miterlimit="10"/>
<path d="M698.643 240.76C698.643 240.76 699.552 245.491 702.556 245.723C705.56 245.954 713.454 244.323 720.313 244.905" stroke="#009245" stroke-width="2.72689" stroke-miterlimit="10"/>
<path d="M663.693 340.296C663.693 340.296 668.338 333.142 681.713 334.96C695.089 336.778 731.261 346.204 731.261 346.204" stroke="#009245" stroke-width="2.72689" stroke-miterlimit="10"/>
<path d="M641.637 295.324C665.061 279.377 709.473 290.207 709.473 290.207" stroke="#009245" stroke-width="2.72689" stroke-miterlimit="10"/>
<path d="M673.655 334.96C673.655 334.96 671.919 340.673 672.097 350.112C672.274 359.566 678.205 392.738 678.205 392.738C660.907 404.814 637.601 394.547 637.601 394.547C637.601 394.547 628.08 361.443 627.866 333.347" stroke="#009245" stroke-width="2.72689" stroke-miterlimit="10"/>
<path d="M731.529 319.538C731.529 319.538 724.607 409.58 763.47 429.782C784.563 440.748 850.108 428.827 850.108 428.827C850.108 428.827 859.566 412.825 850.108 391.478C849.158 389.337 809.436 394.35 794.175 391.478" stroke="#009245" stroke-width="2.72689" stroke-miterlimit="10"/>
<path d="M794.343 314.877C794.343 314.877 798.501 326.007 796.238 341.864C793.979 357.716 786.444 395.647 803.019 400.792" stroke="#009245" stroke-width="2.72689" stroke-miterlimit="10"/>
<path d="M723.926 314.877C723.926 314.877 720.19 342.582 727.121 345.145" stroke="#009245" stroke-width="2.72689" stroke-miterlimit="10"/>
<path d="M795.82 320.603C757.303 340.387 733.615 320.603 733.615 320.603C733.615 320.603 754.049 329.775 776.423 321.881L794.343 314.877L795.911 321.09" fill="#009245"/>
<path d="M774.364 328.238C774.064 328.297 764.229 387.834 780.995 404.668C795.82 419.553 832.888 408.582 854.312 410.268" stroke="#009245" stroke-width="2.72689" stroke-miterlimit="10"/>
<path d="M763.243 329.389C764.065 333.343 766.261 340.124 772.014 344.968" stroke="#009245" stroke-width="2.72689" stroke-miterlimit="10"/>
<path d="M758.166 329.389C758.662 333.075 761.038 344.618 771.764 349.968" stroke="#009245" stroke-width="2.72689" stroke-miterlimit="10"/>
<path d="M778.477 195.688C779.504 196.084 787.748 213.513 775.805 221.976" stroke="#009245" stroke-width="2.72689" stroke-miterlimit="10"/>
<path d="M759.248 226.585C759.248 226.585 755.657 256.126 756.939 271.997C758.221 287.867 763.97 309.819 774.228 322.467" stroke="#009245" stroke-width="2.72689" stroke-miterlimit="10"/>
<path d="M705.083 314.187C713.263 316.1 719.835 318.527 722.485 319.563" stroke="#009245" stroke-width="2.72689" stroke-miterlimit="10"/>
<path d="M685.699 311.728C689.958 311.759 694.566 312.205 699.47 313.064" stroke="#009245" stroke-width="2.72689" stroke-miterlimit="10"/>
<path d="M666.615 315.258C667.97 314.672 669.401 314.163 670.906 313.735" stroke="#009245" stroke-width="2.72689" stroke-miterlimit="10"/>
<path d="M651.2 376.977C649.936 369.323 649.132 361.97 648.845 355.312" stroke="#009245" stroke-width="2.72689" stroke-miterlimit="10"/>
<path d="M657.349 399.318C656.153 394.773 655.09 390.21 654.167 385.697" stroke="#009245" stroke-width="2.72689" stroke-miterlimit="10"/>
<path d="M722.921 326.293C722.921 326.293 679.1 307.823 661.452 326.293C652.226 335.951 655.322 369.564 662.893 398.342" stroke="#009245" stroke-width="2.72689" stroke-miterlimit="10"/>
<path d="M650.027 397.965C650.027 397.965 653.349 411.595 652.649 414.408C652.213 416.144 649.831 417.953 648.077 419.076C647.073 419.721 646.977 421.157 647.891 421.925C651.699 425.134 661.793 430.983 678.632 422.502" stroke="#009245" stroke-width="2.72689" stroke-miterlimit="10"/>
<path d="M650.849 401.559C650.849 401.559 655.999 409.585 674.687 406.758L671.992 396.092C671.992 396.092 659.207 400.191 650.027 397.969L650.849 401.559Z" fill="#009245"/>
<path d="M852.408 397.725C852.726 398.116 860.175 397.716 867.206 390.594C867.206 390.594 870.496 387.472 876.3 394.212C879.99 398.493 884.094 401.652 886.594 403.379C888.371 404.61 889.593 406.501 889.948 408.633C890.666 412.909 889.512 416.25 886.448 418.645C885.167 419.645 883.44 419.872 881.949 419.227C867.765 413.05 853.671 416.109 853.671 416.109" stroke="#009245" stroke-width="2.72689" stroke-miterlimit="10"/>
<path d="M862.529 394.176C862.793 394.289 872.569 404.152 867.801 415.618" stroke="#009245" stroke-width="2.72689" stroke-miterlimit="10"/>
<path d="M859.806 395.947C860.038 395.829 863.256 409.154 856.202 415.712L854.012 415.74C854.012 415.74 855.384 404.15 852.744 397.815C852.744 397.815 858.598 396.57 859.806 395.947Z" fill="#009245"/>
<path d="M770.946 170.233C771.233 171.819 769.796 179.955 765.747 183.195C761.488 186.599 754.544 185.781 748.327 182.077C742.182 178.418 738.364 166.975 736.619 160.389C735.878 157.603 737.183 154.681 739.746 153.358C743.673 151.331 749.249 148.577 751.649 147.955C755.544 146.946 756.553 150.55 756.553 150.55L757.525 152.658C758.312 154.363 759.73 155.663 761.457 156.39C762.943 157.017 764.906 158.689 766.62 162.948C766.62 162.948 765.524 157.553 768.474 156.122C771.423 154.69 775.727 159.326 775.809 163.284C775.891 167.243 773.832 168.561 770.205 169.32" stroke="#009245" stroke-width="2.72689" stroke-miterlimit="10"/>
<path d="M738.501 166.561C738.501 166.561 732.315 164.139 730.243 154.035C728.17 143.932 743.323 122.304 767.674 131.889C792.02 141.474 783.476 172.037 772.982 176.828" stroke="#009245" stroke-width="2.72689" stroke-miterlimit="10"/>
<path d="M770.678 168.983C770.678 168.983 774.778 183.381 776.418 185.027" stroke="#009245" stroke-width="2.72689" stroke-miterlimit="10"/>
<path d="M754.799 184.903C755.08 185.444 755.398 189.307 755.212 187.989" stroke="#009245" stroke-width="2.72689" stroke-miterlimit="10"/>
<path d="M746.091 177.414C746.313 177.414 754.012 177.414 760.47 171.569" stroke="#009245" stroke-width="2.72689" stroke-miterlimit="10"/>
<path d="M748.059 177.259C748.059 177.259 750.249 180.9 754.18 180.336C758.112 179.773 759.575 176.069 758.83 172.919" stroke="#009245" stroke-width="2.72689" stroke-miterlimit="10"/>
<path d="M727.193 223.189C727.193 223.189 749.817 220.14 767.833 220.703" stroke="#009245" stroke-width="2.72689" stroke-miterlimit="10"/>
<path d="M740.85 166.925C740.85 166.925 744.623 165.925 747.472 167.543" stroke="#009245" stroke-width="2.72689" stroke-miterlimit="10"/>
<path d="M750.708 165.615C750.708 165.615 750.554 160.225 755.789 159.303" stroke="#009245" stroke-width="2.72689" stroke-miterlimit="10"/>
<path d="M864.656 392.884C864.656 392.884 855.512 383.895 858.243 382.186C860.975 380.477 870.491 385.031 874.25 387.694C878.009 390.357 919.803 419.771 921.893 421.953C924.575 424.753 924.966 430.493 921.893 432.883C921.893 432.883 933.469 424.066 920.589 415.163C912.199 409.364 877.15 382.509 867.246 379.945C857.343 377.382 858.025 382.509 858.025 382.509" stroke="#009245" stroke-width="2.72689" stroke-miterlimit="10"/>
<path d="M880.849 418.762C880.849 418.762 879.517 423.979 883.09 424.234C885.626 424.415 894.665 425.77 898.787 426.947C902.914 428.124 913.881 439.054 921.893 432.882" stroke="#009245" stroke-width="2.72689" stroke-miterlimit="10"/>
<path d="M890.157 403.727C890.157 403.727 907.109 415.034 908.841 416.22C910.572 417.406 920.512 423.424 921.516 425.614" stroke="#009245" stroke-width="2.72689" stroke-miterlimit="10"/>
<path d="M649.395 418.171C649.395 418.171 647.868 415.598 644.828 417.062C641.787 418.525 626.857 425.988 619.395 427.646C611.932 429.305 608.615 434.418 609.028 435.527C609.442 436.632 613.037 439.258 617.6 439.122C622.163 438.986 659.498 437.959 659.498 437.959C659.498 437.959 666.529 438.136 671.988 437.959C677.45 437.781 681.286 433.918 680.232 429.174C679.177 424.429 671.988 396.092 671.988 396.092" stroke="#009245" stroke-width="2.72689" stroke-miterlimit="10"/>
<path d="M609.696 433.624C609.696 433.624 605.288 434.419 605.438 436.614C605.519 437.846 605.715 440.227 610.551 441.473C615.386 442.718 654.358 441.241 660.312 441.473C694.889 442.822 691.307 431.156 680.409 428.643" stroke="#009245" stroke-width="2.72689" stroke-miterlimit="10"/>
<path d="M605.533 435.955C605.533 435.955 603.502 439.373 605.433 443.095C605.433 443.095 606.597 448.244 625.094 447.045C643.591 445.845 670.224 447.226 679.655 445.227C688.894 443.268 693.962 435.305 685.476 430.811" stroke="#009245" stroke-width="2.72689" stroke-miterlimit="10"/>
<path d="M647.205 420.199C647.205 420.199 648.209 433.747 658.185 437.997" stroke="#009245" stroke-width="2.72689" stroke-miterlimit="10"/>
<path d="M721.153 239.209C721.153 239.209 748.149 229.615 764.274 226.611C764.274 226.611 734.774 226.334 720.758 231.283L721.153 239.209Z" fill="#009245"/>
<path d="M513.759 63.9389C508.892 64.4388 504.488 68.8018 503.979 73.6648C503.152 81.5819 502.338 91.4168 502.711 93.7483C503.388 98.0023 508.706 109.887 516.005 112.373C530.171 117.195 538.779 101.275 540.301 97.316C541.16 95.0754 541.828 87.7719 542.246 81.85C542.587 76.9734 540.292 72.2922 536.252 69.5426C536.184 69.4972 536.111 69.4472 536.043 69.4017C529.607 64.9933 521.808 63.0708 514.055 63.9116C513.955 63.9207 513.855 63.9298 513.759 63.9389Z" stroke="#009245" stroke-width="2.72689" stroke-miterlimit="10"/>
<path d="M508.628 91.8352C508.628 91.8352 525.376 89.3992 535.125 96.0982" stroke="#009245" stroke-width="2.72689" stroke-miterlimit="10"/>
<path d="M512.887 91.4668C512.887 91.4668 514.109 101.574 521.872 101.27C529.634 100.965 532.516 94.5891 532.516 94.5891" stroke="#009245" stroke-width="2.72689" stroke-miterlimit="10"/>
<path d="M508.628 80.8683C508.628 80.8683 514.078 76.9825 520.504 80.2138" stroke="#009245" stroke-width="2.72689" stroke-miterlimit="10"/>
<path d="M526.898 80.869C526.898 80.869 534.207 79.3465 536.947 84.8275" stroke="#009245" stroke-width="2.72689" stroke-miterlimit="10"/>
<path d="M504.547 99.2803C504.547 99.2803 506.488 106.452 504.32 114.633C503.397 118.109 503.747 121.823 505.32 125.054C506.815 128.122 509.46 130.962 514.114 130.962C514.546 130.962 518.009 131.276 521.563 129.062C525.68 126.499 527.816 121.686 527.18 116.882C526.985 115.41 526.835 113.696 526.894 112.119" stroke="#009245" stroke-width="2.72689" stroke-miterlimit="10"/>
<path d="M505.306 104.87C505.306 104.87 501.007 108.174 499.461 109.619C497.475 111.478 491.244 130.98 502.615 142.074C502.615 142.074 508.624 133.412 515.555 130.962C520.477 135.938 520.477 135.938 524.267 142.074" stroke="#009245" stroke-width="2.72689" stroke-miterlimit="10"/>
<path d="M529.03 111.065C529.03 111.065 532.534 116.01 533.638 117.91C535.125 120.469 536.306 134.985 528.576 142.052" stroke="#009245" stroke-width="2.72689" stroke-miterlimit="10"/>
<path d="M533.634 117.908C533.634 117.908 590.203 124.403 593.153 151.94C595.489 173.75 570.356 178.268 570.356 178.268" stroke="#009245" stroke-width="2.72689" stroke-miterlimit="10"/>
<path d="M548.918 142.074C548.918 142.074 551.727 138.351 553.831 138.115C555.935 137.883 569.043 138.588 569.043 138.588C569.043 138.588 579.573 144.196 576.764 161.748C574.905 173.36 570.897 178.214 568.397 180.164C567.311 181.014 565.916 181.355 564.552 181.141L555.499 179.732C553.018 179.346 550.909 177.714 549.909 175.41C549.554 174.587 549.209 173.601 548.918 172.429" stroke="#009245" stroke-width="2.72689" stroke-miterlimit="10"/>
<path d="M474.451 149.6C483.818 141.21 498.139 142.074 498.139 142.074H555.217C556.785 142.074 558.244 142.865 559.094 144.178C561.053 147.214 564.134 153.25 563.475 160.349C563.025 165.189 561.398 168.648 559.771 170.965C558.021 173.46 554.808 174.465 551.931 173.47C541.569 169.897 513.864 160.376 501.311 156.358C497.984 155.295 494.421 157.231 493.562 160.621C493.108 162.412 492.821 164.503 492.981 166.721" stroke="#009245" stroke-width="2.72689" stroke-miterlimit="10"/>
<path d="M568.174 138.542C568.802 138.624 574.21 137.52 574.21 133.452" stroke="#009245" stroke-width="2.72689" stroke-miterlimit="10"/>
<path d="M497.721 113.273C497.721 113.273 457.008 115.414 442.36 133.457C427.712 151.5 442.619 172.574 457.522 182.85" stroke="#009245" stroke-width="2.72689" stroke-miterlimit="10"/>
<path d="M463.948 136.002C463.948 136.002 466.262 147.387 475.51 150.986" stroke="#009245" stroke-width="2.72689" stroke-miterlimit="10"/>
<path d="M477.928 187.417C475.747 190.271 474.292 190.294 473.788 190.462C473.447 190.575 466.434 188.567 461.971 187.267C459.535 186.558 457.735 184.472 457.417 181.954C456.986 178.527 457.167 174.459 458.481 169.769C461.958 157.366 471.588 152.444 475.997 150.795C477.342 150.29 478.846 150.454 480.055 151.231C483.246 153.29 489.581 157.489 489.831 158.462C490.167 159.761 490.84 162.616 489.831 164.461" stroke="#009245" stroke-width="2.72689" stroke-miterlimit="10"/>
<path d="M506.76 191.558C493.417 190.203 479.664 187.899 475.574 186.836C472.738 186.099 470.843 183.404 471.152 180.491C472.22 170.506 476.669 165.716 479.91 163.516C481.732 162.28 484.086 162.153 486.031 163.184C490.444 165.525 517.082 176.878 534.279 180.259" stroke="#009245" stroke-width="2.72689" stroke-miterlimit="10"/>
<path d="M502.616 84.8274C502.616 84.8274 493.662 70.7157 499.393 60.0036C505.124 49.2915 526.544 42.8151 540.992 53.2773C555.44 63.7394 553.249 81.1324 542.401 88.645" stroke="#009245" stroke-width="2.72689" stroke-miterlimit="10"/>
<path d="M503.829 117.909C503.211 118.836 518.836 122.617 526.894 112.337C526.894 112.337 510.823 115.813 505.015 100.252C505.015 100.247 505.833 114.904 503.829 117.909Z" fill="#009245"/>
<path d="M458.154 184.214L463.271 223.899" stroke="#009245" stroke-width="2.72689" stroke-miterlimit="10"/>
<path d="M641.864 296.907C642.741 296.907 642.741 295.544 641.864 295.544C640.987 295.544 640.987 296.907 641.864 296.907Z" fill="#009245"/>
<path d="M642.105 295.548C642.1 295.543 642.1 295.539 642.096 295.534C642.06 295.489 642.023 295.434 641.987 295.389C641.982 295.384 641.973 295.375 641.969 295.371C641.919 295.33 641.869 295.289 641.814 295.253C641.81 295.248 641.8 295.244 641.796 295.244C641.646 295.171 641.528 295.13 641.36 295.13C641.282 295.13 641.205 295.144 641.132 295.157C641.123 295.157 641.114 295.162 641.105 295.166C641.041 295.189 640.982 295.216 640.923 295.244C640.914 295.248 640.91 295.253 640.901 295.257C640.896 295.262 640.891 295.262 640.887 295.266C640.841 295.303 640.787 295.339 640.742 295.375C640.737 295.38 640.728 295.389 640.723 295.393C640.682 295.443 640.637 295.493 640.605 295.548C640.555 295.625 640.528 295.712 640.523 295.803C640.505 295.893 640.505 295.984 640.537 296.075C640.56 296.166 640.601 296.243 640.66 296.307C640.71 296.38 640.773 296.439 640.851 296.484C640.905 296.507 640.96 296.53 641.014 296.552C641.137 296.584 641.255 296.584 641.378 296.552C641.432 296.53 641.487 296.507 641.541 296.484C641.646 296.425 641.723 296.343 641.787 296.239C641.791 296.234 641.791 296.23 641.796 296.225C641.76 296.271 641.723 296.316 641.691 296.362C641.7 296.352 641.71 296.343 641.719 296.334C641.673 296.371 641.628 296.407 641.582 296.439C641.596 296.43 641.61 296.421 641.623 296.416C641.569 296.439 641.514 296.462 641.46 296.484C641.478 296.48 641.491 296.475 641.51 296.471C641.45 296.48 641.387 296.489 641.328 296.493C641.346 296.489 641.369 296.489 641.387 296.493C641.328 296.484 641.264 296.475 641.205 296.471C641.223 296.475 641.241 296.48 641.26 296.484C641.205 296.462 641.151 296.439 641.096 296.416C641.11 296.421 641.123 296.43 641.137 296.439C641.091 296.402 641.046 296.366 641.001 296.334C641.01 296.343 641.019 296.352 641.028 296.362C640.991 296.316 640.955 296.271 640.923 296.225C640.928 296.23 640.928 296.234 640.932 296.239C640.973 296.316 641.032 296.384 641.11 296.43C641.173 296.489 641.251 296.53 641.341 296.552C641.432 296.58 641.523 296.584 641.614 296.566C641.705 296.561 641.791 296.534 641.869 296.484C641.914 296.448 641.959 296.412 642.005 296.38C642.091 296.293 642.146 296.193 642.182 296.08C642.191 296.021 642.2 295.957 642.205 295.898C642.2 295.771 642.169 295.653 642.105 295.548Z" fill="#009245"/>
<path d="M404.179 99.0211C404.179 99.0211 417.505 95.9307 421.818 106.525C425.404 115.332 419.477 121.804 419.477 121.804" stroke="#009245" stroke-width="2.72689" stroke-miterlimit="10"/>
<path d="M524.435 346.387C524.435 346.387 503.352 341.964 492.431 354.767C481.509 367.575 490.145 387.599 490.145 387.599" stroke="#009245" stroke-width="2.72689" stroke-miterlimit="10"/>
<path d="M487.022 374.205C487.022 374.205 475.869 387.235 479.064 402.428C482.259 417.622 493.603 424.021 499.707 425.884" stroke="#009245" stroke-width="2.72689" stroke-miterlimit="10"/>
<path d="M497.675 408.828C497.675 408.828 493.603 448.014 533.729 445.346" stroke="#009245" stroke-width="2.72689" stroke-miterlimit="10"/>
<path d="M580.537 416.027C580.537 416.027 587.222 442.683 559.894 448.546C532.561 454.408 521.804 433.62 521.804 433.62" stroke="#009245" stroke-width="2.72689" stroke-miterlimit="10"/>
<path d="M515.641 345.646C515.641 345.646 519.104 332.52 531.025 329.852C542.946 327.185 557.567 336.851 557.567 336.851" stroke="#009245" stroke-width="2.72689" stroke-miterlimit="10"/>
<path d="M551.531 340.06C551.531 340.06 563.662 329.13 581.259 340.06C591.18 346.223 595.23 356.958 596.875 365.157" stroke="#009245" stroke-width="2.72689" stroke-miterlimit="10"/>
<path d="M557.567 348.854C557.567 348.854 581.541 346.245 594.203 361.384C607.228 376.955 604.519 390.625 599.575 399.142" stroke="#009245" stroke-width="2.72689" stroke-miterlimit="10"/>
<path d="M592.23 384.477C597.425 391.198 600.929 399.302 600.602 408.828C599.993 426.448 589.058 432.842 578.8 434.942" stroke="#009245" stroke-width="2.72689" stroke-miterlimit="10"/>
<path d="M524.435 362.448C524.435 362.448 505.188 369.106 501.343 388.49" stroke="#009245" stroke-width="2.72689" stroke-miterlimit="10"/>
<path d="M536.606 366.624C536.606 366.624 523.904 378.309 521.808 395.538" stroke="#009245" stroke-width="2.72689" stroke-miterlimit="10"/>
<path d="M545.555 365.153C545.555 365.153 563.712 371.848 570.329 389.859" stroke="#009245" stroke-width="2.72689" stroke-miterlimit="10"/>
<path d="M541.347 365.925C551.77 364.686 559.497 357.596 558.605 350.089C557.712 342.582 548.539 337.5 538.116 338.739C527.692 339.977 519.966 347.067 520.858 354.575C521.75 362.082 530.923 367.164 541.347 365.925Z" stroke="#009245" stroke-width="2.72689" stroke-miterlimit="10"/>
<path d="M557.567 356.949C557.567 356.949 570.87 358.372 576.882 365.153" stroke="#009245" stroke-width="2.72689" stroke-miterlimit="10"/>
<path d="M849.162 300.312C849.162 300.312 858.252 295.736 855.752 286.119C853.253 276.502 838.259 273.298 828.034 286.119C817.808 298.94 821.671 321.146 835.078 327.327C848.485 333.508 866.655 325.268 866.428 315.192C866.219 305.957 858.947 300.453 850.212 302.739C848.835 303.098 847.867 301.308 848.994 300.43C849.049 300.385 849.103 300.349 849.162 300.312Z" stroke="#009245" stroke-width="2.72689" stroke-miterlimit="10"/>
<path d="M897.015 398.521C897.81 390.803 905.154 340.338 892.629 321.204C882.726 306.079 866.105 312.246 866.105 312.246" stroke="#009245" stroke-width="2.72689" stroke-miterlimit="10"/>
<path d="M853.375 419.582C855.066 420.382 856.534 420.873 857.711 421.005C868.101 422.168 863.297 428.722 881.085 426.531C883.408 426.245 885.385 425.613 887.071 424.718" stroke="#009245" stroke-width="2.72689" stroke-miterlimit="10"/>
<path d="M827.679 321.205C827.679 321.205 798.27 335.221 806.346 363.136C809.223 373.08 815.249 383.133 822.284 392.009" stroke="#009245" stroke-width="2.72689" stroke-miterlimit="10"/>
<path d="M846.176 329.437C846.176 329.437 837.8 339.294 840.109 350.343" stroke="#009245" stroke-width="2.72689" stroke-miterlimit="10"/>
<path d="M855.934 327.322C855.934 327.322 872.236 327.322 876.572 342.016" stroke="#009245" stroke-width="2.72689" stroke-miterlimit="10"/>
<path d="M888.125 324.449C890.089 326.722 891.925 329.671 893.497 333.48" stroke="#009245" stroke-width="2.72689" stroke-miterlimit="10"/>
<path d="M865.883 318.391C865.883 318.391 874.959 314.787 883.558 320.413" stroke="#009245" stroke-width="2.72689" stroke-miterlimit="10"/>
<path d="M835.078 327.322C835.078 327.322 821.584 333.476 819.621 342.016" stroke="#009245" stroke-width="2.72689" stroke-miterlimit="10"/>
<path d="M854.312 417.35C856.048 418.731 857.861 420.067 859.752 421.335" stroke="#009245" stroke-width="2.72689" stroke-miterlimit="10"/>
<path d="M817.758 359.663C817.758 359.663 821.412 374.806 831.783 391.527" stroke="#009245" stroke-width="2.72689" stroke-miterlimit="10"/>
<path d="M896.947 397.836C896.969 398.331 896.974 398.786 896.96 399.195" stroke="#009245" stroke-width="2.72689" stroke-miterlimit="10"/>
<path d="M892.111 374.058C892.111 374.058 896.597 390.419 896.947 397.836" stroke="#009245" stroke-width="2.72689" stroke-miterlimit="10"/>
<path d="M841.191 370.243C841.191 370.243 843.695 381.96 846.913 390.936" stroke="#009245" stroke-width="2.72689" stroke-miterlimit="10"/>
<path d="M844.331 293.8C844.331 293.8 836.5 305.466 846.176 311.006C851.717 314.174 858.152 310.366 861.402 305.435" stroke="#009245" stroke-width="2.72689" stroke-miterlimit="10"/>
<path d="M228.086 389.012C227.822 403.187 237.403 412.672 243.057 413.708" stroke="#009245" stroke-width="2.72689" stroke-miterlimit="10"/>
<path d="M284.214 321.403C284.214 321.403 279.761 330.734 274.434 338.033" stroke="#009245" stroke-width="2.72689" stroke-miterlimit="10"/>
<path d="M225.018 390.638C226.382 398.014 229.277 401.504 230.972 402.291" stroke="#009245" stroke-width="2.72689" stroke-miterlimit="10"/>
<path d="M293.468 328.557C292.895 334.992 292.241 351.149 298.894 355.035C307.152 359.852 322.795 369.483 321.709 391.598C320.623 413.708 299.099 420.716 296.49 421.153" stroke="#009245" stroke-width="2.72689" stroke-miterlimit="10"/>
<path d="M290.336 330.002C288.605 336.36 285.605 350.399 291.073 355.907C296.29 361.166 316.21 382.79 307.511 408.014C300.412 428.593 274.048 425.27 272.307 424.616" stroke="#009245" stroke-width="2.72689" stroke-miterlimit="10"/>
<path d="M247.847 375.54C245.924 379.394 244.206 383.771 242.843 388.752C235.889 414.148 248.929 423.774 254.791 425.969C260.659 428.16 282.819 429.478 290.205 399.482" stroke="#009245" stroke-width="2.72689" stroke-miterlimit="10"/>
<path d="M281.297 334.233C281.297 334.233 278.752 343.646 272.312 348.681C271.198 349.549 269.798 350.558 268.208 351.758" stroke="#009245" stroke-width="2.72689" stroke-miterlimit="10"/>
<path d="M290.209 364.23C290.209 364.23 292.854 374.015 292.472 384.709" stroke="#009245" stroke-width="2.72689" stroke-miterlimit="10"/>
<path d="M293.451 328.575C294.606 327.092 293.476 324.281 290.928 322.296C288.379 320.311 285.377 319.904 284.222 321.387C283.066 322.87 284.196 325.681 286.744 327.667C289.293 329.652 292.295 330.059 293.451 328.575Z" stroke="#009245" stroke-width="2.72689" stroke-miterlimit="10"/>
<path d="M277.529 270.569C277.529 270.569 274.425 276.559 272.316 295.866C270.207 315.172 265.544 334.538 260.218 342.996" stroke="#009245" stroke-width="2.72689" stroke-miterlimit="10"/>
<path d="M352.437 385.7C352.437 385.7 355.173 362.657 354.318 352.313" stroke="#009245" stroke-width="2.72689" stroke-miterlimit="10"/>
<path d="M311.047 251.632C311.047 251.632 322.882 263.153 325.686 271.915" stroke="#009245" stroke-width="2.72689" stroke-miterlimit="10"/>
<path d="M463.494 223.835C463.162 223.062 458.39 186.031 458.39 186.031L467.039 188.726L473.788 190.462C473.788 190.462 478.828 187.576 478.169 187.763C477.51 187.945 506.224 191.853 505.783 191.63C505.342 191.412 481.191 208.155 481.191 208.155L463.494 223.835Z" fill="#009245"/>
<path d="M646.459 216.687C646.459 216.687 678.423 227.23 705.523 225.763C705.523 225.763 708.796 237.411 702.446 240.756C696.097 244.101 658.175 227.394 656.867 226.526C655.558 225.663 648.613 221.872 646.459 216.687Z" fill="#009245"/>
<path d="M674.082 335.175C673.655 334.961 662.893 335.861 664.384 356.808C665.874 377.76 665.647 388.395 662.357 392.967L663.425 400.943L670.26 396.584L678.205 392.735C678.205 392.735 672.996 363.612 672.569 355.745C672.146 347.877 674.082 335.175 674.082 335.175Z" fill="#009245"/>
<path d="M656.649 426.33C661.325 426.971 666.27 427.407 670.592 425.517C673.155 424.394 675.355 422.503 678.014 421.631C678.377 423.444 678.745 425.258 679.109 427.066C679.568 429.357 679.995 431.879 678.841 433.911C677.986 435.415 676.373 436.365 674.701 436.806C673.028 437.247 671.274 437.233 669.547 437.22C666.111 437.192 662.68 437.165 659.244 437.138C657.998 437.129 656.703 437.106 655.59 436.551C654.126 435.82 653.245 434.306 652.449 432.879C651.74 431.607 646.882 424.799 648.282 423.594C648.9 423.058 650.968 424.921 651.813 425.258C653.358 425.858 655.022 426.103 656.649 426.33Z" fill="#009245"/>
<path d="M868.096 390.58C868.501 390.321 868.923 390.053 869.4 390.008C870.014 389.944 870.596 390.248 871.137 390.544C873.109 391.616 875.136 392.739 876.536 394.493C877.304 395.452 877.854 396.575 878.645 397.516C881.29 400.661 885.407 401.91 887.821 405.319C889.348 407.478 890.152 410.218 889.679 412.818C889.211 415.422 887.357 417.813 884.839 418.617C883.153 419.153 881.326 418.981 879.576 418.713C875.69 418.117 871.873 417.09 868.214 415.654C870.55 410.786 869.346 404.769 866.328 400.288C865.337 398.82 862.997 396.638 862.892 394.78C862.797 393.048 866.783 391.426 868.096 390.58Z" fill="#009245"/>
<path d="M486.94 143.492C486.94 143.492 490.345 139.438 491.463 138.902C492.581 138.365 499.657 138.429 499.657 138.429C499.657 138.429 511.082 142.624 507.124 158.172C507.124 158.172 505.924 160.64 504.642 160.935C503.365 161.23 495.966 158.172 495.966 158.172C498.202 156.558 499.393 153.841 499.007 151.109C498.08 144.533 492.544 142.051 492.544 142.051" fill="#FDC6FF"/>
<path opacity="0.5" d="M495.307 143.997C495.307 143.997 505.274 141.483 506.933 146.105C507.088 146.537 507.956 154.536 507.956 154.536L505.788 160.953H501.634L497.075 158.617L496.585 157.581L498.848 154.741L499.007 151.109L498.162 148.064L495.307 143.997Z" fill="#51A755"/>
<path d="M486.94 143.492C486.94 143.492 490.345 139.438 491.463 138.902C492.581 138.365 499.657 138.429 499.657 138.429C499.657 138.429 511.082 142.624 507.124 158.172C507.124 158.172 505.924 160.64 504.642 160.935C503.365 161.23 495.966 158.172 495.966 158.172C498.202 156.558 499.393 153.841 499.007 151.109C498.08 144.533 492.544 142.051 492.544 142.051" stroke="#009245" stroke-width="2.72689" stroke-miterlimit="10"/>
<path d="M770.41 174.765C770.128 175.937 769.842 177.114 769.369 178.223C768.814 179.532 768.015 180.714 767.215 181.891C766.619 182.773 765.96 183.704 764.96 184.072C768.592 183.632 772.25 183.432 775.909 183.468C774.259 181.136 773.491 178.332 772.9 175.574C772.718 174.728 772.714 172.551 771.85 172.106C770.76 171.542 770.41 173.992 770.41 174.765Z" fill="#009245"/>
<path d="M881.121 418.172C880.294 420.294 880.985 422.917 882.749 424.362C882.985 424.553 883.258 424.762 883.303 425.062C883.376 425.553 882.821 425.88 882.358 426.043C876.313 428.18 869.246 427.139 864.074 423.357C862.842 422.458 861.733 421.399 860.483 420.526C859.793 420.044 854.28 416.404 854.016 415.745C853.062 413.368 861.315 416.154 862.574 416.086C864.078 416.004 881.435 417.367 881.121 418.172Z" fill="#009245"/>
</svg>
