<svg width="481" height="192" viewBox="0 0 481 192" fill="none" xmlns="http://www.w3.org/2000/svg">
<path d="M320.907 57.6353C320.907 57.6353 320.904 57.897 320.974 58.351C321.47 61.69 325.693 75.4836 361.513 73.7709C361.513 73.7709 382.365 73.4367 391.457 61.1498C391.457 61.1498 392.425 69.3151 392.09 69.3875C391.755 69.4599 391.39 75.7788 372.019 81.8248C352.644 87.8708 326.44 78.3186 323.085 72.9521C319.73 67.5857 320.907 57.8942 320.907 57.8942" fill="#FDC6FF"/>
<path d="M333.18 47.0442C333.18 47.0442 316.598 50.4585 321.933 62.4892C327.268 74.5199 363.858 76.7283 377.835 70.7186C391.813 64.7088 392.583 59.0304 391.813 57.0782C391.046 55.1232 387.577 48.5397 378.867 46.3452C378.867 46.3452 382.32 51.8788 377.33 53.0763C372.338 54.2738 371.806 50.4084 371.806 50.4084C371.806 50.4084 363.272 54.2515 356.185 50.9904C356.185 50.9904 356.386 63.8538 348.424 66.7529L348.282 68.0534L347.272 68.3876L346.249 67.3488L340.632 64.046L336.256 58.3481C335.347 58.6043 332.263 47.2921 333.18 47.0442Z" fill="#FDC6FF"/>
<g opacity="0.5">
<path opacity="0.5" d="M334.449 88.0682C334.449 88.0682 335.952 80.407 338.281 80.9389C340.61 81.4708 359.248 87.255 384.584 77.0596C384.584 77.0596 376.497 88.1713 357.24 85.7707C357.24 85.7707 351.86 85.4282 350.555 92.563C350.555 92.5603 338.214 92.3737 334.449 88.0682Z" fill="#51A755"/>
</g>
<g opacity="0.5">
<path d="M256.367 16.7503C256.367 16.7503 260.643 16.508 259.94 11.9658C259.237 7.42369 250.491 6.85 250.491 6.85C250.224 -1.58821 223.041 -1.79429 216.37 13.6591C207.537 34.1308 224.315 44.2483 224.315 44.2483L224.655 44.0004C224.929 52.149 228.671 59.9717 241.266 60.189C264.101 60.5816 255.263 34.8715 255.263 34.8715C256.158 32.9945 255.885 27.5891 255.801 26.2579C257.173 26.7787 258.339 26.6923 259.134 25.5756C262.405 20.9638 256.367 16.7503 256.367 16.7503ZM228.033 27.8035C227.065 30.1289 226.097 32.4543 225.129 34.7796C225.099 34.8521 225.062 34.9356 224.993 34.9746C224.906 35.0191 224.8 34.9913 224.711 34.9523C223.333 34.387 222.856 32.6938 221.783 31.6689C221.214 31.1259 220.472 30.7666 219.99 30.1484C219.041 28.9314 219.39 27.188 219.786 25.7009C220.126 24.4199 220.533 23.0386 221.607 22.2616C222.541 21.5848 223.824 21.5264 224.92 21.894C226.365 22.3785 228.615 23.8879 228.621 25.6062C228.627 26.3665 228.325 27.0989 228.033 27.8035ZM246.305 52.3356C245.346 52.8174 244.28 53.0346 243.226 53.2462C242.314 53.4245 241.38 53.5999 240.468 53.4328C238.887 53.1404 237.676 51.8705 236.751 50.5588C235.95 49.4198 235.278 48.1945 234.74 46.9106C234.282 45.8134 233.432 44.4543 235.044 44.7161C236.332 44.925 237.632 45.6686 238.959 45.9192C240.315 46.1782 241.692 46.3147 243.067 46.4344C244.47 46.5569 245.887 46.66 247.273 46.4316C248.659 46.206 250.031 45.6129 250.946 44.5462C250.388 47.6319 249.111 50.9264 246.305 52.3356ZM252.53 35.4257C251.523 37.7706 249.752 39.9568 247.304 40.678C245.856 41.1013 244.311 40.9816 242.805 40.8591C241.779 40.7727 240.736 40.6836 239.776 40.3021C238.279 39.7033 237.152 38.4473 235.761 37.6286C235.275 37.3417 234.748 37.1022 234.349 36.704C233.942 36.2974 233.702 35.7571 233.49 35.2224C232.043 31.5742 231.505 27.5751 231.904 23.6707C231.984 22.9077 231.954 21.3815 232.386 20.7355C232.868 20.0086 233.245 20.3762 234.04 20.8663C235.328 21.6656 236.368 22.8882 237.869 23.3198C238.544 23.5148 239.258 23.5231 239.961 23.5343C241.308 23.551 242.855 23.4786 243.684 22.4175C244.35 21.5626 244.292 20.3539 244.041 19.3012C243.96 18.9587 243.862 18.5939 243.99 18.2653C244.211 17.6971 245.011 17.5663 245.555 17.842C246.099 18.1149 246.45 18.6524 246.799 19.1509C248.126 21.0362 249.797 22.6793 251.71 23.9659C252.156 24.2667 252.628 24.5619 252.929 25.0103C253.149 25.3389 253.258 25.726 253.347 26.1103C254.072 29.1987 253.779 32.5127 252.53 35.4257Z" fill="#51A755"/>
</g>
<path d="M466.193 134.075C454.466 133.966 367.161 133.158 283.408 132.384V148.929C283.408 148.929 270.772 164.034 244.289 160.804C217.803 157.573 211.406 153.126 207.429 147.272V131.68C158.292 131.223 121.914 130.889 121.861 130.889C115.681 130.889 108.55 132.727 102.863 135.15L17.3625 173.205C17.223 173.266 17.2649 173.47 17.4155 173.472L357.165 176.837C357.316 176.839 357.469 176.839 357.617 176.839C363.797 176.839 369.816 175.611 375.502 173.188L466.296 134.604C466.575 134.49 466.491 134.075 466.193 134.075Z" fill="#CAFFBF"/>
<path d="M278.583 150.444C278.583 157.089 267.23 163.608 217.884 162.475C184.37 161.706 171.156 157.153 171.156 150.508C171.156 143.864 184.359 138.414 217.884 138.414C251.408 138.414 278.583 143.802 278.583 150.444Z" fill="#009245"/>
<path d="M344.869 106.605C344.777 106.774 332.944 128.589 314.138 128.407C296.686 128.243 285.24 116.95 283.611 115.246C283.475 115.107 283.408 115.032 283.408 115.032V148.932C283.408 148.932 270.772 164.037 244.289 160.807C217.803 157.576 211.405 153.129 207.428 147.275V109.88C207.428 109.88 194.005 126.675 178.455 126.316C162.901 125.954 150.368 119.713 144.991 114.163C140.286 109.306 135.032 102.062 133.794 100.33C133.618 100.082 133.523 99.9459 133.523 99.9459C133.523 99.9459 143.474 99.6173 149.707 93.3541C151.219 91.8363 152.51 89.9705 153.388 87.6757C153.388 87.6757 153.472 87.8261 153.634 88.0906C155.65 91.388 169.965 112.595 190.006 86.6509C190.006 86.6509 202.074 59.6235 223.261 56.4738C223.261 56.4738 223.559 52.8312 226.378 53.1097C226.378 53.1097 231.454 71.1947 244.291 68.4126C257.126 65.6333 255.536 53.6416 255.536 53.6416C255.536 53.6416 259.223 53.6527 258.98 56.4738C258.735 59.2949 260.11 56.5239 260.11 56.5239C260.11 56.5239 283.994 57.9442 296.917 82.0558C309.841 106.165 319.214 103.243 324.663 96.1752C324.669 96.1835 324.672 96.1975 324.68 96.2058C324.772 96.4008 325.313 97.4785 326.342 98.8877C326.644 99.2998 326.984 99.7343 327.369 100.188C327.882 100.793 328.47 101.416 329.137 102.037C332.38 105.048 337.478 107.852 344.715 106.635C344.763 106.621 344.819 106.613 344.869 106.605Z" fill="#FDC6FF"/>
<g opacity="0.5">
<path opacity="0.5" d="M233.828 105.023C233.828 105.023 232.068 122.139 245.684 125.728C259.299 129.318 268.187 113.127 268.187 113.127C268.187 113.127 264.151 124.286 244.289 119.02C240.633 118.042 235.075 110.038 233.828 105.023Z" fill="#51A755"/>
</g>
<g opacity="0.5">
<path opacity="0.5" d="M479.596 132.064L283.408 130.12V132.384C367.161 133.161 454.466 133.966 466.193 134.074C466.491 134.077 466.575 134.489 466.299 134.606L375.505 173.191C369.818 175.614 363.803 176.842 357.62 176.842C357.469 176.842 357.319 176.842 357.168 176.839L17.4183 173.475C17.2677 173.472 17.2259 173.266 17.3653 173.208L102.866 135.152C108.553 132.729 115.687 130.891 121.864 130.891C121.914 130.891 158.292 131.225 207.432 131.682V129.368L122.316 128.524C115.444 128.457 108.631 129.813 102.311 132.506L1.18996 175.611C0.233378 176.018 0.517826 177.441 1.55807 177.452L357.126 180.975C363.998 181.042 370.806 179.685 377.128 176.992L479.828 133.217C480.425 132.96 480.246 132.072 479.596 132.064Z" fill="#51A755"/>
</g>
<path d="M357.625 181.579C357.455 181.579 357.288 181.579 357.118 181.576L1.54947 178.054C0.790901 178.045 0.18293 177.544 0.0323312 176.8C-0.115478 176.057 0.252645 175.361 0.949859 175.063L102.068 131.958C108.508 129.215 115.321 127.862 122.315 127.928L208.025 128.778V132.29L207.42 132.284C158.791 131.833 122.05 131.493 121.855 131.493C116.303 131.493 109.289 133.066 103.095 135.704L19.5348 172.896L357.168 176.238C357.324 176.241 357.469 176.241 357.614 176.241C363.711 176.241 369.651 175.029 375.262 172.637L464.631 134.657L282.803 132.975V129.513L283.408 129.519L479.599 131.462C480.173 131.471 480.65 131.866 480.765 132.429C480.876 132.991 480.589 133.54 480.062 133.768L377.359 177.544C371.079 180.223 364.441 181.579 357.625 181.579ZM121.808 129.123C115.154 129.123 108.675 130.446 102.542 133.061L1.42397 176.163C1.18134 176.266 1.19528 176.477 1.21201 176.564C1.22875 176.65 1.29847 176.851 1.56062 176.853L357.129 180.376C363.953 180.446 370.602 179.12 376.888 176.441L479.588 132.665L479.593 132.064L479.588 132.663L284.005 130.724V131.788L466.196 133.473C466.614 133.476 466.965 133.766 467.049 134.18C467.13 134.593 466.918 134.996 466.527 135.158L375.736 173.743C369.974 176.196 363.878 177.441 357.617 177.441C357.464 177.441 357.305 177.441 357.148 177.435L17.4069 174.071C17.0527 174.066 16.7571 173.821 16.6902 173.475C16.6205 173.13 16.7989 172.79 17.1224 172.651L102.618 134.598C108.962 131.897 116.152 130.287 121.861 130.287C121.914 130.287 158.113 130.621 206.826 131.073V129.959L122.304 129.12C122.14 129.123 121.972 129.123 121.808 129.123ZM17.6133 173.751L17.6049 173.754C17.6077 173.754 17.6105 173.751 17.6133 173.751Z" fill="#51A755"/>
<path d="M357.63 191.574C357.46 191.574 357.29 191.574 357.119 191.571L1.7185 188.054C0.678254 188.043 0.0730736 187.241 0.0117188 186.456L0.100964 186.447H0.0145103V176.452H1.21651V186.408C1.23882 186.534 1.33086 186.851 1.72966 186.857L357.131 190.371C363.958 190.435 370.609 189.115 376.892 186.436L479.589 142.658V142.343V132.638H480.791V142.349L480.786 142.791C480.741 143.226 480.471 143.588 480.061 143.763L377.364 187.542C371.086 190.218 364.449 191.571 357.63 191.574Z" fill="#51A755"/>
<g opacity="0.5">
<path opacity="0.5" d="M342.841 180.813H338.307V190.808H342.841V180.813Z" fill="#51A755"/>
</g>
<path d="M343.444 191.407H337.707V180.212H343.444V191.407ZM338.906 190.207H342.242V181.412H338.906V190.207Z" fill="#51A755"/>
<g opacity="0.5">
<path opacity="0.5" d="M33.5659 177.747H29.0312V187.748H33.5659V177.747Z" fill="#51A755"/>
</g>
<path d="M34.1703 188.346H28.4336V177.146H34.1703V188.346ZM29.6328 187.149H32.9683V178.349H29.6328V187.149Z" fill="#51A755"/>
<path d="M327.101 188.725C327.095 188.725 327.09 188.725 327.084 188.725L315.697 188.661C314.886 188.656 314.127 188.338 313.555 187.762C312.987 187.185 312.674 186.422 312.68 185.614C312.685 184.804 313.003 184.047 313.581 183.478C314.152 182.913 314.908 182.604 315.714 182.604C315.72 182.604 315.725 182.604 315.731 182.604L327.118 182.668C328.791 182.676 330.144 184.044 330.135 185.715C330.13 186.525 329.812 187.283 329.234 187.851C328.66 188.413 327.904 188.725 327.101 188.725ZM315.711 183.799C315.226 183.799 314.769 183.985 314.423 184.328C314.074 184.67 313.882 185.13 313.879 185.62C313.876 186.11 314.063 186.57 314.409 186.918C314.755 187.266 315.212 187.458 315.703 187.461L327.09 187.525C327.093 187.525 327.098 187.525 327.101 187.525C327.586 187.525 328.044 187.338 328.389 186.996C328.738 186.653 328.93 186.194 328.933 185.704C328.939 184.695 328.122 183.868 327.109 183.863L315.722 183.799C315.72 183.799 315.714 183.799 315.711 183.799Z" fill="#51A755"/>
<path d="M386.852 180.844C386.414 180.844 385.979 180.716 385.606 180.465C384.987 180.053 384.613 179.36 384.607 178.616L384.602 177.786C384.591 176.338 385.452 175.049 386.797 174.503L395.489 170.972C396.083 170.729 396.753 170.802 397.285 171.161C397.815 171.52 398.13 172.116 398.125 172.757L398.111 174.495C398.102 175.686 397.383 176.747 396.276 177.196L387.703 180.68C387.427 180.791 387.14 180.844 386.852 180.844ZM396.209 172.03C396.117 172.03 396.028 172.047 395.938 172.083L387.245 175.614C386.359 175.973 385.793 176.823 385.801 177.778L385.806 178.608C385.809 178.959 385.979 179.273 386.272 179.468C386.565 179.663 386.922 179.699 387.248 179.569L395.821 176.085C396.477 175.82 396.901 175.191 396.906 174.486L396.92 172.748C396.923 172.506 396.808 172.292 396.608 172.155C396.485 172.072 396.348 172.03 396.209 172.03Z" fill="#51A755"/>
<path d="M308.577 188.605C308.572 188.605 308.566 188.605 308.561 188.605L297.174 188.541C295.501 188.533 294.148 187.166 294.156 185.495C294.162 184.684 294.48 183.927 295.057 183.356C295.634 182.788 296.401 182.487 297.207 182.481L308.594 182.545C309.406 182.551 310.164 182.869 310.736 183.445C311.305 184.021 311.617 184.782 311.612 185.592C311.601 187.258 310.242 188.605 308.577 188.605ZM297.188 183.682C296.703 183.682 296.245 183.868 295.899 184.211C295.551 184.553 295.358 185.013 295.355 185.503C295.353 185.993 295.54 186.453 295.885 186.801C296.228 187.149 296.689 187.341 297.179 187.344L308.566 187.408C308.569 187.408 308.575 187.408 308.577 187.408C309.584 187.408 310.404 186.595 310.41 185.587C310.413 185.099 310.226 184.637 309.88 184.289C309.534 183.941 309.077 183.749 308.586 183.746L297.199 183.682C297.196 183.682 297.193 183.682 297.188 183.682Z" fill="#51A755"/>
<path d="M177.593 101.483C171.923 101.483 166.05 100.311 160.885 96.9327C154.953 93.0561 152.814 88.1603 152.725 87.9514L154.052 87.3861L153.388 87.6674L154.052 87.3833C154.072 87.4306 156.147 92.1371 161.747 95.7714C169.173 100.589 179.442 101.347 191.442 97.9659L191.833 99.3527C187.702 100.52 182.73 101.483 177.593 101.483Z" fill="#009245"/>
<path d="M175.103 127.032C169.785 127.032 164.631 126.085 159.714 124.199C154.418 122.169 149.393 119.053 144.777 114.937C136.932 107.941 133.045 100.586 132.883 100.277L134.16 99.6116C134.199 99.684 138.112 107.075 145.773 113.895C150.255 117.886 155.13 120.902 160.255 122.865C166.653 125.313 173.475 126.118 180.533 125.258C197.517 123.186 206.704 111.113 213.45 99.5781L214.694 100.305C207.769 112.144 198.318 124.539 180.706 126.686C178.824 126.917 176.955 127.032 175.103 127.032Z" fill="#009245"/>
<path d="M308.906 104.878V103.438C314.763 103.438 319.8 100.79 323.877 95.5652L325.015 96.4508C320.65 102.043 315.229 104.878 308.906 104.878Z" fill="#009245"/>
<path d="M331.307 84.1836L329.938 83.7325C330.888 80.8529 331.271 78.7977 331.273 78.7754L332.69 79.0344C332.673 79.1207 332.289 81.201 331.307 84.1836Z" fill="#009245"/>
<path d="M351.162 93.0615L349.773 92.6744L349.779 92.6494C350.63 89.6166 351.299 87.2188 353.759 85.2109L354.671 86.3249C352.562 88.046 351.977 90.1402 351.165 93.0365L351.162 93.0615Z" fill="#009245"/>
<path d="M311.547 129.137C307.171 129.137 302.782 128.243 298.409 126.452C290.221 123.102 284.813 117.683 282.869 115.508L283.946 114.55C285.823 116.649 291.046 121.885 298.955 125.121C306.892 128.368 314.891 128.541 322.73 125.639C333.774 121.548 340.523 112.837 344.241 106.251L345.496 106.958C341.661 113.753 334.686 122.746 323.232 126.99C319.367 128.421 315.463 129.137 311.547 129.137Z" fill="#009245"/>
<path d="M153.634 88.0876C152.964 89.7251 151.798 91.6411 149.768 93.5097L149.765 93.5125C149.765 93.5153 149.763 93.5153 149.763 93.5153C148.541 94.6432 147.004 95.7544 145.08 96.7764C140.532 99.1965 136.672 100.085 133.796 100.327C130.249 100.625 128.199 99.9428 128.199 99.9428C128.199 99.9428 125.703 96.7764 125.555 95.3116C125.419 93.9581 126.975 91.5492 127.215 91.1844C127.234 91.1537 127.245 91.137 127.245 91.137C127.271 91.1454 127.296 91.1537 127.321 91.1621C133.766 93.2368 139.235 90.8223 142.581 88.5833C143.638 87.8759 144.483 87.188 145.077 86.6589C147.573 84.4589 147.721 80.4681 147.721 80.4681C147.721 80.4681 150.716 79.1342 151.899 80.4542L154.504 83.6123C154.501 83.6123 154.682 85.5115 153.634 88.0876Z" fill="#FDC6FF"/>
<path d="M132.042 101.129C129.546 101.129 128.095 100.667 127.967 100.623L127.764 100.556L127.63 100.386C127.362 100.046 125 97.0077 124.835 95.3814C124.668 93.7049 126.444 91.0314 126.645 90.7334L126.949 90.285L127.465 90.4549C135.218 92.9919 141.527 88.8285 144.597 86.1216C146.825 84.1583 146.996 80.4794 146.996 80.4404L147.012 79.9948L147.422 79.811C147.779 79.6523 150.939 78.31 152.431 79.9754L152.451 79.9976L155.192 83.3284L155.212 83.5484C155.242 83.8853 155.873 91.8473 145.409 97.4143C139.733 100.433 135.101 101.129 132.042 101.129ZM128.617 99.3136C129.772 99.606 135.952 100.817 144.737 96.1416C153.516 91.4714 153.82 85.1385 153.792 83.8881L151.352 80.925C150.805 80.3346 149.324 80.6437 148.401 80.9723C148.276 82.1587 147.746 85.2694 145.551 87.1994C143.445 89.0541 138.534 92.6633 132.24 92.6633C130.748 92.6633 129.178 92.46 127.549 91.9838C126.927 92.9975 126.191 94.479 126.266 95.2365C126.355 96.1054 127.699 98.1189 128.617 99.3136Z" fill="#009245"/>
<g opacity="0.5">
<path opacity="0.5" d="M334.449 88.0682C334.449 88.0682 335.952 80.407 338.281 80.9389C340.61 81.4708 359.248 87.255 384.584 77.0596C384.584 77.0596 376.497 88.1713 357.24 85.7707C357.24 85.7707 351.86 85.4282 350.555 92.563C350.555 92.5603 338.214 92.3737 334.449 88.0682Z" fill="#51A755"/>
</g>
<path d="M130.232 88.6309C128.469 88.6309 126.824 88.3163 125.491 87.6033C123.714 86.6509 122.705 85.4534 122.493 84.0442C122.32 82.908 122.716 81.8887 123.132 81.1702C120.979 80.7776 119.576 79.917 118.948 78.6081C118.19 77.018 118.831 75.2607 119.28 74.3584C117.604 73.0885 116.734 71.6543 116.689 70.092C116.633 68.1202 117.933 66.5078 118.759 65.6918C118.215 65.1237 117.579 64.2158 117.314 63.0629C116.979 61.598 117.359 60.1081 118.407 58.7602C121.165 55.2123 130.792 54.4604 131.378 54.4186C132.22 54.3267 139.017 53.689 140.439 56.7941C141.136 58.3147 141.014 59.9884 140.099 61.3864C137.508 65.3549 129.468 66.0789 123.184 65.9842L123.207 64.5445C128.057 64.6141 136.543 64.1991 138.894 60.6011C139.801 59.2142 139.363 57.8969 139.131 57.3956C138.375 55.747 134.064 55.5743 131.523 55.8528L131.495 55.8556C128.846 56.045 121.531 57.0921 119.548 59.643C118.792 60.615 118.508 61.6148 118.694 62.6201C118.959 64.032 120.033 64.9566 120.184 65.0485L121.218 65.5665L120.284 66.2599C120.262 66.2767 118.064 67.9866 118.128 70.0613C118.167 71.2922 119.007 72.4675 120.624 73.5536L121.218 73.9546L120.822 74.5506C120.811 74.5673 119.542 76.525 120.251 77.9982C120.75 79.037 122.217 79.697 124.492 79.9087L126.001 80.0507L124.939 81.1312C124.928 81.1424 123.698 82.429 123.918 83.8437C124.063 84.7767 124.822 85.6177 126.174 86.3418C130.55 88.6894 139.591 85.7932 142.188 82.1338C143.306 80.5576 143.114 79.1206 141.597 77.7393L142.567 76.6754C144.625 78.5497 144.91 80.7831 143.362 82.9637C141.131 86.1051 135.224 88.6309 130.232 88.6309Z" fill="#009245"/>
<path d="M126.994 74.5056C125.388 74.5056 123.675 74.372 121.871 74.074L122.105 72.6537C128.681 73.7426 137.525 72.4587 140.966 67.9417C141.382 67.3958 142.018 66.3403 141.599 65.438C141.145 64.4606 139.533 63.8312 137.179 63.7114L137.252 62.2744C141.031 62.4666 142.411 63.7699 142.905 64.8309C143.451 66.0062 143.17 67.4209 142.113 68.8105C140.174 71.3615 134.806 74.5056 126.994 74.5056Z" fill="#009245"/>
<path d="M127.289 82.1586L127.191 80.7216C137.413 80.0226 143.411 77.2572 143.236 73.3221C143.155 71.4925 141.666 70.036 140.723 70.036C140.717 70.036 140.712 70.036 140.703 70.036L140.676 68.5962C140.69 68.5962 140.703 68.5962 140.717 68.5962C142.427 68.5962 144.558 70.6542 144.675 73.2581C144.803 76.121 142.472 77.9729 141.069 78.8223C138.127 80.613 133.489 81.7353 127.289 82.1586Z" fill="#009245"/>
<path d="M148.424 80.6243L147.015 80.3152C147.665 77.3688 144.489 66.9477 142.149 61.9628C140.52 58.4928 138.886 51.5584 137.572 45.9886C137.092 43.9529 136.677 42.1956 136.328 40.8784C136.25 40.5887 136.169 40.3102 136.083 40.0457C135.656 38.734 134.543 38.1742 133.645 38.0879C132.742 37.9988 131.531 38.3385 130.854 39.5528C127.697 45.2089 129.1 54.8279 129.116 54.9226L127.691 55.137C127.674 55.034 127.309 52.5693 127.351 49.3305C127.407 44.9415 128.163 41.4158 129.596 38.8482C130.447 37.3248 132.053 36.4838 133.788 36.6537C135.514 36.8208 136.92 37.9514 137.458 39.6001C137.553 39.8897 137.642 40.1933 137.726 40.508C138.083 41.8475 138.498 43.6131 138.981 45.6572C140.277 51.163 141.895 58.0138 143.459 61.3501C145.607 65.9396 149.218 77.0151 148.424 80.6243Z" fill="#009245"/>
<path d="M126.535 86.7263L125.168 87.1855L126.574 91.356L127.94 90.8967L126.535 86.7263Z" fill="#009245"/>
<path d="M141.241 110.562C140.864 110.562 140.647 110.545 140.613 110.542L140.739 109.108C140.769 109.111 143.759 109.339 147.599 107.791C151.141 106.362 156.158 103.076 159.954 95.5457L161.243 96.1918C157.224 104.162 151.858 107.64 148.062 109.155C144.944 110.397 142.379 110.562 141.241 110.562Z" fill="#009245"/>
<path d="M351.116 96.796L348.188 103.942C347.608 105.36 346.342 106.345 344.869 106.604V106.607C344.816 106.616 344.763 106.624 344.71 106.629C344.462 106.666 344.208 106.677 343.952 106.671C336.971 106.443 332.319 104.276 329.263 101.792L329.235 101.77L328.764 101.372L328.725 101.338C327.774 100.505 326.995 99.6477 326.357 98.8262C325.621 97.8766 325.074 96.9715 324.675 96.2056C324.67 96.1973 324.667 96.1833 324.658 96.175C324.003 94.8967 324.017 93.379 324.689 92.1118L327.96 85.9517C328.507 84.9213 329.444 84.1471 330.56 83.8045L330.682 83.7683C331.748 85.5284 333.039 86.9403 334.447 88.0737C341.168 93.4904 350.553 92.5658 350.553 92.5658L350.846 93.0671C351.518 94.1977 351.615 95.5762 351.116 96.796Z" fill="#FDC6FF"/>
<path d="M344.095 107.39C344.039 107.39 343.984 107.39 343.928 107.387C331.275 106.972 326.023 100.386 324.021 96.4982C323.257 95.0139 323.271 93.2483 324.054 91.7695L327.326 85.6093C327.967 84.4007 329.041 83.5123 330.352 83.1113L331.013 82.908L331.303 83.3897C337.131 93.0227 350.353 91.8586 350.484 91.8475L350.942 91.8029L351.469 92.6996C352.244 94.0197 352.361 95.6544 351.781 97.0719L348.853 104.215C348.066 106.131 346.17 107.39 344.095 107.39ZM330.379 84.6318C329.615 84.9632 328.993 85.5397 328.597 86.2832L325.326 92.4434C324.763 93.5072 324.752 94.7772 325.301 95.841C327.161 99.4502 332.058 105.56 343.975 105.95C345.515 105.992 346.94 105.084 347.52 103.667L350.448 96.5233C350.861 95.5207 350.777 94.3622 350.228 93.4265L350.161 93.3123C349.065 93.3708 346.176 93.4265 342.768 92.6718C337.296 91.4576 333.026 88.6838 330.379 84.6318Z" fill="#009245"/>
<path d="M346.198 87.2886L345.551 86.002C345.699 85.9268 349.26 84.1807 354.341 85.0579C360.415 86.1078 366.841 85.7931 372.433 84.1751C377.916 82.5877 382.012 79.9281 383.964 76.6865L385.2 77.4301C380.785 84.7543 367.12 88.7256 354.093 86.4782C349.48 85.6817 346.228 87.2747 346.198 87.2886Z" fill="#009245"/>
<path d="M223.829 157.27L222.387 157.237C222.39 157.156 222.568 149.06 222.535 138.305L223.976 138.299C224.01 149.077 223.831 157.189 223.829 157.27Z" fill="#009245"/>
<path d="M222.444 128.419C222.385 124.6 222.296 120.941 222.182 117.541L223.623 117.493C223.738 120.902 223.827 124.57 223.886 128.396L222.444 128.419Z" fill="#009245"/>
<path d="M221.916 110.985C221.271 97.6009 220.156 88.5891 218.6 84.1973C216.542 78.388 212.911 74.2413 207.807 71.8714C203.981 70.0946 200.706 70.0389 200.676 70.0389L200.69 68.5991C200.832 68.5991 204.257 68.652 208.356 70.5402C212.138 72.2807 217.222 75.9791 219.961 83.7183C221.564 88.2409 222.705 97.3921 223.358 110.916L221.916 110.985Z" fill="#009245"/>
<path d="M246.025 161.522C231.408 161.522 221.734 157.999 216.103 154.953C209.611 151.441 206.956 147.846 206.844 147.695L206.71 147.509L206.708 147.28C206.708 147.188 206.616 137.94 206.571 128.752C206.479 109.918 206.624 109.734 206.864 109.431L207.996 110.325C208.094 110.202 208.116 110.088 208.119 110.074C207.884 111.325 208.007 132.76 208.149 147.021C208.755 147.765 211.429 150.803 216.884 153.736C222.657 156.841 232.814 160.458 248.407 160.049C256.966 159.826 268.793 158.517 276.532 153.541C280.674 150.878 281.864 148.272 282.062 147.779L282.743 112.28C282.615 101.06 284.165 93.4679 285.091 88.9286C286.533 81.8745 291.439 73.7454 291.645 73.4028L292.878 74.1492C292.827 74.2299 287.894 82.4119 286.502 89.2154C285.588 93.6963 284.054 101.196 284.182 112.283L283.499 148.027L283.468 148.124C283.426 148.258 282.4 151.424 277.478 154.644C271.044 158.852 261.277 161.155 248.446 161.486C247.623 161.511 246.817 161.522 246.025 161.522Z" fill="#009245"/>
<path d="M259.696 114.878C254.684 114.878 250.147 109.378 249.394 102.188C249.017 98.5895 249.628 95.0945 251.117 92.3514C252.654 89.5192 254.938 87.8065 257.551 87.5363C260.164 87.2634 262.752 88.4665 264.841 90.92C266.866 93.2983 268.188 96.59 268.564 100.188C269.351 107.716 265.692 114.291 260.407 114.842C260.167 114.867 259.93 114.878 259.696 114.878ZM258.27 88.9371C258.081 88.9371 257.891 88.9483 257.699 88.9678C255.574 89.1905 253.686 90.6359 252.383 93.0365C251.033 95.5289 250.478 98.726 250.827 102.037C251.533 108.777 255.758 113.873 260.256 113.408C264.752 112.94 267.833 107.075 267.128 100.336C266.782 97.0216 265.577 94.0084 263.742 91.8501C262.127 89.9564 260.206 88.9371 258.27 88.9371Z" fill="#009245"/>
<path d="M256.193 121.114C252.325 121.114 248.568 119.459 245.481 116.371C242.061 112.945 239.872 108.153 239.323 102.878C238.771 97.6035 239.92 92.4626 242.558 88.4078C245.227 84.3029 249.098 81.7909 253.454 81.337C257.81 80.8803 262.119 82.5401 265.58 86.0073C268.999 89.4327 271.188 94.2255 271.738 99.5001C272.29 104.775 271.141 109.916 268.505 113.97C265.837 118.075 261.966 120.587 257.609 121.041C257.132 121.091 256.661 121.114 256.193 121.114ZM254.86 82.7016C254.441 82.7016 254.02 82.7239 253.602 82.7657C249.683 83.175 246.192 85.4559 243.763 89.1904C241.306 92.9723 240.235 97.779 240.754 102.728C241.272 107.676 243.311 112.16 246.499 115.352C249.644 118.504 253.532 120.016 257.453 119.607C261.372 119.198 264.863 116.917 267.292 113.182C269.749 109.4 270.82 104.594 270.301 99.6449C269.783 94.6961 267.744 90.2124 264.554 87.021C261.748 84.2082 258.346 82.7016 254.86 82.7016Z" fill="#009245"/>
<path d="M255.735 114.878C250.723 114.878 246.186 109.378 245.433 102.188C245.056 98.5895 245.667 95.0944 247.156 92.3513C248.693 89.5191 250.977 87.8064 253.59 87.5362L253.665 87.5334H257.626V88.9732H253.704C251.593 89.2072 249.719 90.6497 248.425 93.0392C247.075 95.5316 246.52 98.7287 246.866 102.04C247.572 108.779 251.797 113.876 256.295 113.411L256.371 113.408H260.331V114.848H256.407C256.181 114.867 255.955 114.878 255.735 114.878Z" fill="#009245"/>
<path d="M250.129 121.115C241.748 121.115 234.324 113.256 233.239 102.88C232.093 91.9325 238.432 82.269 247.371 81.336L247.446 81.3333H253.531V82.773H247.485C239.358 83.6475 233.613 92.5898 234.676 102.732C235.738 112.889 243.226 120.458 251.378 119.612L251.453 119.609H257.539V121.049H251.49C251.03 121.093 250.578 121.115 250.129 121.115Z" fill="#009245"/>
<path d="M348.858 67.4568L348.094 66.2371C350.581 64.6803 356.304 60.0825 355.679 51.0538C354.748 37.5806 347.856 30.8021 347.787 30.7381C346.127 29.1925 345.843 28.5993 344.987 25.9759C344.348 24.0154 343.157 23.3804 342.268 23.1938L342.566 21.7847C343.598 22.0019 345.461 22.7789 346.356 25.5303C347.148 27.9616 347.335 28.3487 348.768 29.6854C350.813 31.5903 356.298 39.129 357.115 50.9536C357.796 60.762 351.568 65.7636 348.858 67.4568Z" fill="#009245"/>
<path d="M347.41 69.1305C346.478 69.1305 345.929 68.4398 345.678 67.88C340.973 65.6271 333.32 59.996 332.668 47.0936C332.261 39.0342 334.146 34.9376 335.521 31.9466C336.293 30.2673 336.901 28.9417 336.937 27.3933C336.999 24.6781 338.176 23.2745 339.152 22.5755L339.994 23.7451C338.962 24.4859 338.418 25.7252 338.379 27.4267C338.337 29.2731 337.64 30.7909 336.831 32.5482C335.445 35.5642 333.719 39.3154 334.11 47.024C334.737 59.4251 342.178 64.6774 346.559 66.7048L346.869 66.8496L346.952 67.181C346.952 67.181 347.094 67.7213 347.44 67.6934C347.675 67.6795 347.733 67.6043 347.753 67.5793C347.842 67.4623 347.856 67.2284 347.847 67.0724C337.492 51.5467 340.022 30.5876 341.595 22.2803L343.012 22.5476C341.467 30.7073 338.971 51.3127 349.139 66.4124L349.22 66.5294L349.247 66.6686C349.27 66.7772 349.445 67.7408 348.899 68.4537C348.681 68.7378 348.269 69.0831 347.532 69.1305C347.491 69.1277 347.452 69.1305 347.41 69.1305Z" fill="#009245"/>
<path d="M345.737 67.8662C341.018 61.1463 338.316 52.6747 337.699 42.6881C337.2 34.6175 338.182 27.2737 339.094 22.5283C339.18 21.9741 339.632 20.9269 340.767 20.8044C341.531 20.7209 342.242 20.952 342.669 21.4227C342.979 21.7652 343.104 22.208 343.012 22.6424L341.601 22.3445C341.595 22.364 341.601 22.389 341.606 22.4002C341.567 22.3333 341.316 22.1941 340.92 22.2358C340.6 22.272 340.519 22.7399 340.516 22.7594L340.51 22.7873C339.612 27.4492 338.647 34.6732 339.136 42.6017C339.735 52.321 342.354 60.542 346.916 67.0419L345.737 67.8662Z" fill="#009245"/>
<path d="M376.195 53.3735C374.63 53.3735 372.979 52.9502 371.878 52.201C371.239 51.7666 369.755 51.9727 368.037 52.2122C364.869 52.655 360.53 53.2565 356.003 50.881L356.673 49.6083C360.789 51.7694 364.864 51.2013 367.836 50.7863C369.931 50.4939 371.587 50.2628 372.686 51.0119C374.717 52.3904 378.021 52.0924 378.866 51.1316C379.625 50.2711 379.539 48.0014 378.292 46.3695C376.75 44.3477 376.103 39.3014 376.075 39.087C374.926 27.0814 362.083 18.9467 356.104 19.448C352.534 19.746 350.191 18.9801 348.309 18.3647C346.769 17.8634 345.657 17.4986 344.491 17.9581C342.837 18.6069 341.763 20.6566 341.554 21.8374L340.135 21.5896C340.405 20.0439 341.772 17.4818 343.961 16.6213C345.609 15.9724 347.068 16.4487 348.755 17.0001C350.515 17.5737 352.707 18.2895 355.981 18.0165C359.54 17.7186 364.604 19.8824 368.877 23.5223C371.785 26.0008 376.772 31.2977 377.503 38.9311C377.67 40.2594 378.348 44.0747 379.432 45.4978C381.019 47.5781 381.254 50.5942 379.943 52.0841C379.165 52.9725 377.72 53.3735 376.195 53.3735Z" fill="#009245"/>
<path d="M364.4 48.4805C361.162 48.4805 357.696 47.4696 355.099 45.5508L355.956 44.3923C359.838 47.2607 366.104 47.8985 369.638 45.7819C372.047 44.3394 373.054 41.7606 372.546 38.3212C371.314 29.9693 360.119 22.9264 355.359 23.1241C352.221 23.2633 349.547 22.7481 348.805 22.5894C348.141 22.4446 347.45 22.5978 346.906 23.0043C346.373 23.4026 346.044 24.0097 345.997 24.6697C345.994 24.7254 345.991 24.7616 345.991 24.7727L344.549 24.7978C344.549 24.7978 344.546 24.7143 344.558 24.5722C344.63 23.4973 345.171 22.5058 346.038 21.857C346.917 21.197 348.035 20.9547 349.109 21.1858C349.812 21.3362 352.33 21.8236 355.295 21.6899C358.044 21.5673 362.412 23.4388 366.14 26.3434C372.134 31.0137 373.62 35.7229 373.972 38.1124C374.727 43.2421 372.435 45.7875 370.38 47.0184C368.731 48.0043 366.62 48.4805 364.4 48.4805Z" fill="#009245"/>
<path d="M379.193 52.463C377.029 52.2346 371.861 47.9069 370.33 46.5868L371.262 45.4868L371.273 45.4952C374.349 48.1464 378.108 50.8979 379.346 51.0287L379.193 52.463Z" fill="#009245"/>
<path d="M380.062 51.1455C379.655 51.1455 378.472 50.7306 371.564 45.1608L372.471 44.0413C375.734 46.673 379.507 49.5136 380.168 49.7169C380.168 49.7169 380.098 49.6974 379.992 49.7085L380.163 51.1372C380.135 51.1399 380.101 51.1455 380.062 51.1455Z" fill="#009245"/>
<path d="M341.071 20.7765C340.714 20.5843 337.543 18.8577 336.533 17.6936L337.624 16.7495C338.332 17.5683 340.848 19.0192 341.757 19.5093L341.071 20.7765Z" fill="#009245"/>
<path d="M342.29 19.3841C341.911 19.2978 340.798 18.7436 338.643 15.4713L339.847 14.6804C340.913 16.2957 342.21 17.8413 342.622 17.9833L342.29 19.3841Z" fill="#009245"/>
<path d="M337.335 18.1087C336.987 18.1087 336.683 17.9889 336.465 17.755C335.885 17.1395 336.169 16.0283 337.14 15.1149C338.11 14.2015 339.24 13.9842 339.82 14.6025C340.4 15.2179 340.116 16.3291 339.145 17.2426C338.763 17.6018 338.325 17.8747 337.912 18.0112C337.709 18.0752 337.516 18.1087 337.335 18.1087ZM338.378 15.9587C338.3 16.0172 338.214 16.084 338.13 16.1648C338.044 16.2456 337.971 16.3263 337.907 16.4015C337.985 16.343 338.071 16.2762 338.158 16.1954C338.241 16.1147 338.314 16.0339 338.378 15.9587Z" fill="#009245"/>
<path d="M356.447 74.6475C346.848 74.6475 337.809 73.0072 331.002 70.0302C324.005 66.9696 320.15 62.8284 320.15 58.3671C320.15 53.4963 324.864 48.9374 333.082 45.8629L333.587 47.2108C325.962 50.0625 321.589 54.1285 321.589 58.3671C321.589 62.2213 325.137 65.8946 331.579 68.7101C338.208 71.6092 347.041 73.2077 356.447 73.2077C365.854 73.2077 374.684 71.6092 381.316 68.7101C387.758 65.8918 391.305 62.2186 391.305 58.3671C391.305 54.0282 386.76 49.8982 378.834 47.0353L379.324 45.6819C387.856 48.762 392.747 53.3849 392.747 58.3671C392.747 62.8257 388.893 66.9696 381.896 70.0302C375.085 73.0072 366.047 74.6475 356.447 74.6475Z" fill="#009245"/>
<path d="M356.447 83.8153C346.848 83.8153 337.809 82.175 331.002 79.198C324.005 76.1374 320.15 71.9963 320.15 67.5349V58.3643H321.592V67.5349C321.592 71.3892 325.14 75.0624 331.582 77.878C338.211 80.777 347.043 82.3756 356.45 82.3756C365.857 82.3756 374.686 80.777 381.318 77.878C387.761 75.0597 391.308 71.3864 391.308 67.5349V58.3643H392.75V67.5349C392.75 71.9935 388.896 76.1374 381.898 79.198C375.085 82.175 366.047 83.8153 356.447 83.8153Z" fill="#009245"/>
<path d="M323.527 73.9292C323.521 70.9466 323.513 67.8637 323.502 65.0036L324.944 64.998C324.955 67.8609 324.963 70.9438 324.969 73.9264L323.527 73.9292Z" fill="#009245"/>
<path d="M328.562 77.519C328.559 74.684 328.553 71.615 328.545 68.6352L329.987 68.6296C329.995 71.6123 330.003 74.6812 330.003 77.5162L328.562 77.519Z" fill="#009245"/>
<path d="M333.59 79.7187C333.59 76.8893 333.585 73.7089 333.576 70.5509L335.018 70.5481C335.026 73.7089 335.032 76.8893 335.032 79.7187H333.59Z" fill="#009245"/>
<path d="M340.056 81.2866H338.615C338.617 78.5101 338.612 75.2824 338.604 72.0157L340.045 72.0129C340.054 75.2796 340.059 78.5073 340.056 81.2866Z" fill="#009245"/>
<path d="M345.085 82.0277L343.643 82.0249C343.646 79.3625 343.643 76.224 343.635 73.0074L345.077 73.0046C345.085 76.224 345.088 79.3653 345.085 82.0277Z" fill="#009245"/>
<path d="M350.109 82.643L348.668 82.6402C348.67 80.2341 348.67 77.2515 348.662 73.7704L350.104 73.7676C350.112 77.2515 350.115 80.2369 350.109 82.643Z" fill="#009245"/>
<path d="M355.138 83.0969L353.696 83.0942C353.702 80.7242 353.699 77.6831 353.693 74.0516L355.135 74.0488C355.141 77.6831 355.141 80.727 355.138 83.0969Z" fill="#009245"/>
<path d="M360.169 82.8463L358.727 82.8435C358.733 80.4736 358.73 77.516 358.725 74.0516L360.167 74.0488C360.172 77.516 360.172 80.4764 360.169 82.8463Z" fill="#009245"/>
<path d="M365.195 82.699L363.754 82.6962C363.756 80.29 363.756 77.2072 363.748 73.5311L365.19 73.5283C365.198 77.2072 365.201 80.2928 365.195 82.699Z" fill="#009245"/>
<path d="M370.226 81.8244L368.784 81.8216C368.787 79.1871 368.784 76.107 368.775 72.9518L370.217 72.949C370.223 76.107 370.228 79.1899 370.226 81.8244Z" fill="#009245"/>
<path d="M375.252 80.9389H373.81C373.813 78.1708 373.807 74.9849 373.799 71.7711L375.241 71.7683C375.246 74.9849 375.252 78.1708 375.252 80.9389Z" fill="#009245"/>
<path d="M378.836 79.3682C378.836 76.522 378.831 73.3444 378.822 70.2003L380.264 70.1975C380.272 73.3417 380.278 76.522 380.278 79.3682H378.836Z" fill="#009245"/>
<path d="M383.865 77.0593C383.862 74.0655 383.854 70.8378 383.846 67.7382L385.288 67.7327C385.296 70.8322 385.304 74.0627 385.307 77.0565L383.865 77.0593Z" fill="#009245"/>
<path d="M388.886 73.3721C388.881 70.2419 388.87 67.017 388.861 64.0678L390.303 64.0623C390.314 67.0142 390.323 70.2391 390.328 73.3693L388.886 73.3721Z" fill="#009245"/>
<path d="M223.943 45.0835C223.764 44.9777 219.559 42.4045 216.413 37.2246C213.504 32.4374 211.022 24.4531 215.707 13.5948C218.407 7.33995 223.968 4.15682 228.157 2.58615C233.138 0.720271 238.925 0.138229 243.632 1.03218C248.005 1.86208 250.696 3.80314 251.145 6.4098C253.245 6.64373 259.978 7.72705 260.653 12.0798C260.901 13.6839 260.616 15.004 259.808 16.001C259.255 16.6833 258.55 17.0898 257.922 17.3349C258.965 18.3152 260.393 19.9833 260.745 22.0107C261.001 23.4812 260.655 24.8959 259.721 26.2104C259.191 26.9567 258.491 27.3828 257.641 27.483C256.475 27.6167 255.136 27.0959 253.708 26.2104C253.837 26.6615 253.943 27.1266 254.021 27.5638C254.375 29.5745 254.47 32.6936 252.905 36.1246C251.497 39.2102 248.022 41.207 243.836 41.3351C239.184 41.4688 235.093 39.2965 233.154 35.6456C231.085 31.7523 231.526 23.4867 231.81 20.1142C231.849 19.6659 232.148 19.2843 232.574 19.1423C233.004 19.0003 233.478 19.1256 233.782 19.4654C235.935 21.8826 238.598 23.2723 240.893 23.1693C242.054 23.1191 242.993 22.693 243.537 21.9662C244.078 21.2449 244.02 20.2869 243.364 19.1228C243.058 18.577 243.175 17.9142 243.646 17.5048C244.112 17.1038 244.778 17.0815 245.269 17.4574C246.357 18.2873 247.545 19.3372 248.805 20.4484C251.753 23.0523 255.429 26.2911 257.476 26.0544C257.917 26.0043 258.257 25.7898 258.547 25.3805C259.261 24.3751 259.515 23.3558 259.328 22.2642C258.876 19.6408 255.984 17.5856 255.953 17.5633L254.258 16.3741L256.327 16.2572C256.338 16.2572 257.847 16.1458 258.695 15.0903C259.233 14.4219 259.412 13.4834 259.227 12.3026C258.725 9.04987 252.715 7.94427 250.443 7.79389L249.79 7.74933L249.77 7.09766C249.701 4.93381 247.308 3.19882 243.367 2.44969C238.905 1.60308 233.411 2.16006 228.667 3.93682C224.74 5.40724 219.534 8.37871 217.035 14.1657C213.479 22.4062 213.674 29.8948 217.618 36.4253C220.574 41.3212 224.651 43.8276 224.69 43.8526L223.943 45.0835ZM233.191 20.9469C232.962 24.0938 232.636 31.6047 234.426 34.9716C236.437 38.7507 240.59 39.9955 243.791 39.8981C247.425 39.7867 250.415 38.1157 251.592 35.5314C254.001 30.2484 252.141 25.5865 251.592 24.7121C250.359 23.7485 249.096 22.6318 247.849 21.529C246.814 20.6155 245.827 19.7438 244.923 19.017C245.718 20.8188 245.258 22.072 244.692 22.8295C243.883 23.9072 242.556 24.5394 240.955 24.609C238.37 24.7177 235.567 23.392 233.191 20.9469Z" fill="#009245"/>
<path d="M241.779 61.133C241.603 61.133 241.43 61.1303 241.252 61.1275C234.173 61.0049 229.173 58.5292 226.39 53.7726C223.266 48.434 223.565 41.2183 224.767 35.4118C223.45 34.5513 219.669 31.7915 218.955 28.043C218.573 26.049 219.114 24.1052 220.564 22.2671C221.479 21.1058 222.689 20.56 224.067 20.6853C226.114 20.8719 228.175 22.579 228.986 24.1219C229.499 25.0966 229.494 26.2495 228.972 27.2103C226.644 31.5074 222.954 45.0475 227.634 53.0457C230.146 57.34 234.737 59.5763 241.277 59.6877C247.089 59.7963 251.252 58.1532 253.673 54.8308C258.785 47.8101 254.624 35.4452 254.582 35.3227L254.488 35.0442L254.613 34.7796C255.386 33.1616 255.199 28.0597 255.062 26.2328L256.498 26.1242C256.548 26.8093 256.956 32.6659 256.03 35.1194C256.652 37.0577 260.015 48.5676 254.836 55.6774C252.203 59.3006 247.811 61.133 241.779 61.133ZM223.679 22.1084C222.901 22.1084 222.251 22.4537 221.696 23.1583C220.519 24.651 220.073 26.2022 220.371 27.7701C220.91 30.6023 223.693 32.8943 225.11 33.8996C225.91 30.6051 226.953 27.9177 227.706 26.528C227.996 25.9905 227.999 25.3417 227.712 24.7958C227.09 23.615 225.425 22.2588 223.938 22.1223C223.849 22.114 223.763 22.1084 223.679 22.1084Z" fill="#009245"/>
<path d="M249.125 31.1395C249.072 31.081 247.809 29.7387 246.007 30.1258L245.703 28.7194C248.333 28.1541 250.118 30.0923 250.193 30.1759L249.125 31.1395Z" fill="#009245"/>
<path d="M236.256 32.2147L235.127 31.3179C237.492 28.3492 241.739 28.4551 241.921 28.4606L241.873 29.9004C241.837 29.9004 238.164 29.8197 236.256 32.2147Z" fill="#009245"/>
<path d="M242.448 47.3645C239.291 47.3645 235.526 46.4706 231.895 43.4128L232.823 42.3127C241.681 49.7735 251.539 43.3209 251.64 43.254L252.443 44.4488C252.331 44.5239 249.701 46.2645 245.856 47.0248C244.846 47.2253 243.694 47.3645 242.448 47.3645Z" fill="#009245"/>
<path d="M242.269 54.3546C240.721 54.3546 239.268 53.8979 237.986 52.9984C235.11 50.9821 233.615 47.1418 233.406 44.2288L234.845 44.1257C235.029 46.6962 236.326 50.0743 238.814 51.8176C240.392 52.926 242.219 53.1961 244.247 52.628C250.084 50.9849 249.955 44.9055 249.947 44.6465L251.389 44.5964C251.392 44.6716 251.578 52.0599 244.64 54.0149C243.831 54.2405 243.039 54.3546 242.269 54.3546Z" fill="#009245"/>
<path d="M178.555 97.7903L178.352 96.3644C178.413 96.3561 184.565 95.4343 189.549 91.3767L190.461 92.4907C185.156 96.8128 178.823 97.7541 178.555 97.7903Z" fill="#009245"/>
<path d="M308.825 121.086C306.525 121.086 304.227 120.771 301.945 120.136L302.333 118.749C310.167 120.927 317.928 119.234 325.402 113.711C331.028 109.554 334.366 104.669 334.396 104.622L335.59 105.426C335.451 105.632 332.107 110.537 326.292 114.842C320.706 118.978 314.768 121.086 308.825 121.086Z" fill="#009245"/>
<path d="M316.082 101.917C312.239 101.917 308.817 100.347 305.696 97.1719C302.188 93.6017 299.48 88.4664 296.864 83.4981C294.535 79.0785 292.332 74.9012 289.68 71.9186C282.934 64.327 274.955 60.7289 269.45 59.044C264.817 57.6293 261.108 57.2923 259.65 57.2116C259.014 65.7055 256.791 73.79 241.12 73.79C232.687 73.79 228.08 69.0863 225.695 65.1401C223.782 61.9681 222.979 58.8296 222.689 57.3842L220.321 58.0749C211.427 60.6676 203.61 66.0954 198.309 73.3556C196.987 75.1657 195.821 77.079 194.839 79.0423C188.21 92.3262 179.487 99.7563 169.614 100.531C169.452 100.544 169.268 100.558 169.215 100.567L168.875 99.1687C169.02 99.1325 169.201 99.1186 169.5 99.0935C176.012 98.5811 185.471 94.5764 193.548 78.3962C194.563 76.3605 195.774 74.3776 197.143 72.5034C202.631 64.987 210.719 59.3699 219.917 56.688L223.863 55.5378L223.972 56.3705C223.977 56.4095 224.538 60.4587 226.95 64.4356C230.138 69.6879 234.901 72.3502 241.115 72.3502C248.02 72.3502 252.63 70.7294 255.21 67.3931C257.555 64.3576 258.013 60.1357 258.255 56.4179L258.3 55.7439H258.975C259.162 55.7439 263.638 55.7662 269.815 57.646C275.513 59.381 283.768 63.0988 290.754 70.9578C293.52 74.0713 295.763 78.321 298.133 82.8214C303.251 92.5295 308.541 102.569 319.356 100.079L319.68 101.483C318.444 101.773 317.245 101.917 316.082 101.917Z" fill="#009245"/>
<path d="M242.896 69.3566C242.732 69.3566 242.564 69.3539 242.397 69.3511C242.338 69.3511 242.28 69.3511 242.221 69.3511C236.755 69.3511 232.165 66.5718 228.93 61.3C227.086 58.2951 226.18 55.3125 225.837 53.9729C224.141 54.4491 223.873 55.1732 223.977 56.4097L222.54 56.5294C222.295 53.6025 224.269 52.8005 226.23 52.3995L226.938 52.2546L227.081 52.9648C227.089 53.0038 227.873 56.8358 230.179 60.5815C233.21 65.5024 237.313 67.9753 242.391 67.9113H242.416C246.34 68.0115 249.397 66.9199 251.503 64.6752C255.382 60.5397 254.818 53.7696 254.813 53.7028L254.749 52.9954L255.457 52.923C256.718 52.7921 257.683 53.0149 258.408 53.6053C259.133 54.1929 259.565 55.1342 259.693 56.3986L258.26 56.5434C258.171 55.6717 257.917 55.059 257.499 54.7193C257.203 54.4798 256.804 54.3517 256.288 54.3266C256.336 56.3345 256.115 61.8542 252.562 65.65C250.261 68.1118 247.01 69.3566 242.896 69.3566Z" fill="#009245"/>
<path d="M219.191 105.977L211.602 110.322L212.319 111.571L219.908 107.226L219.191 105.977Z" fill="#009245"/>
<path d="M188.405 115.661L187.789 114.36C198.509 109.289 203.909 97.9434 203.964 97.832L205.272 98.4391C205.044 98.9209 199.608 110.361 188.405 115.661Z" fill="#009245"/>
<path d="M176.522 118.257C171.993 118.257 167.726 117.488 163.816 115.965L164.341 114.622C168.435 116.218 172.953 116.948 177.763 116.797C177.981 116.789 178.199 116.781 178.413 116.769L178.494 118.206C178.265 118.22 178.037 118.229 177.805 118.237C177.379 118.248 176.949 118.257 176.522 118.257Z" fill="#009245"/>
<path d="M158.244 113.124C153.542 110.088 151.347 106.85 151.258 106.713L152.457 105.914C152.477 105.944 154.593 109.052 159.028 111.915L158.244 113.124Z" fill="#009245"/>
<g opacity="0.5">
<path opacity="0.5" d="M283.408 147.729V148.929C283.408 148.929 270.772 164.034 244.289 160.804C217.803 157.573 211.406 153.126 207.429 147.272V109.879C207.429 109.879 194.006 126.675 178.455 126.316C162.902 125.954 150.369 119.713 144.992 114.163C140.287 109.306 135.033 102.062 133.794 100.33C130.247 100.628 128.197 99.9458 128.197 99.9458C128.197 99.9458 125.701 96.7793 125.553 95.3145C125.417 93.961 126.973 91.5521 127.213 91.1873L127.319 91.165C133.764 93.2397 139.233 90.8252 142.579 88.5862C144.306 88.3551 146.406 88.2743 147.189 89.0568C148.414 90.2794 149.446 92.7162 149.705 93.3567C149.747 93.457 149.766 93.5127 149.766 93.5127L149.764 93.5155C149.764 93.5182 149.761 93.5182 149.761 93.5182C149.652 93.6881 147.32 97.3196 149.766 100.405C152.271 103.563 168.334 117.953 185.581 111.467C192.659 108.804 197.389 103.107 200.507 97.314C202.294 93.9917 205.047 91.2597 208.438 89.5971C213.475 87.1269 220.394 86.7148 225.355 98.1384C234.068 118.198 232.11 162.99 282.781 147.921C282.99 147.851 283.199 147.79 283.408 147.729Z" fill="#51A755"/>
</g>
<g opacity="0.5">
<path opacity="0.5" d="M283.223 124.714L283.407 120.208V124.954L283.223 124.714Z" fill="#51A755"/>
</g>
<g opacity="0.5">
<path opacity="0.5" d="M351.116 96.7961L348.187 103.942C347.607 105.36 346.341 106.345 344.869 106.604V106.607C344.777 106.777 332.944 128.588 314.138 128.407C296.686 128.243 285.24 116.95 283.611 115.246L284.342 97.3614C284.342 97.3614 293.372 114.711 312.719 112.703C312.719 112.703 324.039 111.23 329.128 102.032C329.173 101.951 329.218 101.873 329.259 101.792L329.232 101.77L328.76 101.372L328.721 101.338L327.36 100.185L326.222 99.2217C326.222 99.2217 326.261 99.102 326.334 98.8875C326.339 98.8681 326.345 98.8486 326.353 98.8263C327.009 96.9158 329.996 88.7227 333.328 88.1741C333.618 88.1267 333.998 88.0933 334.444 88.071C341.165 93.4877 350.55 92.5631 350.55 92.5631L350.842 93.0643C351.517 94.1978 351.615 95.5763 351.116 96.7961Z" fill="#51A755"/>
</g>
<g opacity="0.5">
<path opacity="0.5" d="M132.751 55.0281C132.751 55.0281 117.501 55.4458 117.934 62.2966L119.855 65.6775C119.855 65.6775 114.236 69.5234 120.229 74.1435C120.229 74.1435 116.048 80.4346 124.432 80.6184C124.432 80.6184 120.469 86.2773 128.068 88.171C128.955 88.391 139.695 87.2548 141.659 83.7848C143.622 80.3149 139.171 79.3179 139.171 79.3179C139.171 79.3179 141.659 71.7458 136.653 71.885C136.653 71.885 138.619 65.7248 133.97 64.0678C133.967 64.0678 137.944 58.9102 132.751 55.0281Z" fill="#51A755"/>
</g>
<g opacity="0.5">
<path opacity="0.5" d="M133.52 37.3582C133.52 37.3582 131.245 46.1946 134.572 55.0283H128.4C128.4 55.0283 125.594 38.2577 133.52 37.3582Z" fill="#51A755"/>
</g>
</svg>
