<svg width="616" height="751" viewBox="0 0 616 751" fill="none" xmlns="http://www.w3.org/2000/svg">
<g opacity="0.5">
<g opacity="0.5">
<path opacity="0.5" d="M85.8592 213.808C85.1244 214.025 78.624 220.254 70.8616 218.904C63.0991 217.554 33.9684 211.896 25.402 247.801C25.402 247.801 31.4445 244.392 32.7324 247.074L41.7309 250.673L50.47 244.98L64.197 237.869L80.3528 239.694L84.5193 241.502L87.5534 226.916C87.5534 226.916 91.3308 216.949 91.7543 216.594C92.1692 216.231 85.8592 213.808 85.8592 213.808Z" fill="#51A755"/>
</g>
</g>
<path d="M243.647 156.967C244.157 153.273 244.901 149.604 245.877 146.005C246.301 144.448 246.768 142.899 247.554 141.498C248.816 139.257 250.83 137.544 252.628 135.701C258.04 130.147 261.938 122.896 268.611 118.943C269.83 118.225 271.179 117.567 271.913 116.364C272.631 115.179 272.613 113.691 272.492 112.315C271.835 104.494 268.992 97.0452 266.174 89.7172C265.499 87.9695 264.773 86.1353 263.321 84.9501C260.477 82.6227 256.026 83.8253 253.303 86.2997C250.588 88.7741 248.989 92.2175 246.794 95.1677C244.598 98.118 241.279 100.748 237.631 100.341C236.481 98.4208 237.657 95.9897 238.815 94.0777C242.662 87.7186 246.5 81.3596 250.346 75.0006C251.436 73.201 252.533 71.3842 254.029 69.9134C256.441 67.5429 259.699 66.2451 262.923 65.2328C275.328 61.3569 288.786 60.9243 301.415 64.0043C304.812 64.8349 308.201 65.9336 311.114 67.8802C315.056 70.519 317.856 74.5075 320.571 78.4008C323.674 82.865 326.777 87.3379 329.759 91.8801C332.11 95.4619 334.41 99.1648 335.456 103.318C336.899 109.045 335.793 115.179 333.485 120.612C331.177 126.046 327.736 130.917 324.322 135.727C322.948 137.665 321.539 139.646 319.602 141.022C315.574 143.885 310.154 143.626 305.504 145.304C302.383 146.429 299.669 148.41 296.8 150.089C288.674 154.839 279.114 157.079 269.718 156.569C260.935 156.102 252.464 156.431 243.647 156.967Z" fill="#FDFFB6"/>
<path d="M338.1 142.267C348.741 145.624 358.603 151.317 369.46 153.886C372.373 154.578 375.39 155.054 378.07 156.378C387.337 160.963 389.1 173.05 393.137 182.567C397.433 172.548 409.223 168.179 416.147 159.761C421.437 153.333 423.607 144.741 423.486 136.41C423.365 128.078 421.109 119.928 418.36 112.064C413.485 98.1173 406.483 84.1274 394.373 75.6661C389.186 72.041 383.481 69.2378 377.275 68.0006C365.968 65.7512 354.048 66.1146 343.148 69.8521C338.774 71.3489 334.348 73.4166 329.75 72.9235C325.151 72.4303 320.596 67.966 322.082 63.5882C323.284 60.0583 327.442 58.6654 331.063 57.7743C338.385 55.9834 345.732 54.3309 353.115 52.7996C363.678 50.6107 374.526 48.6814 385.21 50.1695C403.216 52.6785 417.911 63.8651 429.52 77.5781C434.213 83.1239 438.44 89.1022 441.587 95.6516C444.681 102.097 446.678 109.001 448.666 115.871C450.853 123.432 453.057 131.158 452.677 139.014C452.349 145.78 450.101 152.294 447.707 158.636C439.564 180.127 420.979 199.42 406.319 216.776C404.823 218.549 403.276 220.383 402.645 222.616C402.187 224.216 402.239 225.921 402.334 227.582C403.605 250.336 411.782 272.173 414.168 294.84C415.525 307.723 413.96 322.82 403.293 330.156C397.156 334.37 389.333 335.01 381.899 335.521C378.96 335.72 376.021 335.919 373.091 336.118C365.208 336.654 357.324 337.19 349.467 338.012C340.2 338.981 329.404 341.49 325.799 350.081C317.829 350.341 309.704 350.575 302.037 348.403C294.361 346.223 287.074 341.196 284.204 333.747C282.371 328.98 282.458 323.633 280.548 318.892C279.242 315.656 277.064 312.862 275.508 309.738C271.549 301.805 271.886 292.522 271.125 283.688C270.244 273.522 267.789 263.486 263.856 254.073C262.957 251.919 261.963 249.548 262.672 247.316C263.112 245.923 264.158 244.833 265.066 243.683C273.416 233.101 270.045 217.797 266.267 204.845C265.023 200.58 263.735 196.228 261.211 192.568C256.932 186.356 249.455 182.887 241.96 182.056C234.5 181.234 226.799 182.818 220.264 186.512C216.486 178.734 220.073 168.871 226.686 163.299C233.299 157.736 242.194 155.712 250.812 155.037C255.782 154.648 260.882 154.656 265.619 156.196C269.613 157.494 273.183 159.821 276.701 162.114C287.108 168.914 297.887 176.087 304.206 186.797C305.875 189.627 307.604 192.983 310.81 193.684C312.081 193.961 313.395 193.753 314.683 193.554C328.66 191.322 343.191 188.865 354.731 180.663C348.602 174.547 341.609 169.304 334.046 165.099C326.508 160.903 317.838 159.475 310.37 155.547C302.728 151.524 304.993 144.819 312.176 141.635C320.051 138.157 330.225 139.775 338.1 142.267Z" fill="#FDFFB6"/>
<path d="M513.519 572.137C514.876 572.941 516.259 573.754 517.297 574.948C518.524 576.359 519.181 578.21 519.406 580.07C520.02 585.054 517.807 589.907 515.637 594.441C507.961 610.533 500.294 626.625 492.618 642.717C487.89 652.632 482.159 663.481 471.768 667.037C469.339 667.868 466.703 668.274 464.585 669.719C463.695 670.325 462.848 671.138 461.776 671.259C460.566 671.398 459.468 670.619 458.509 669.875C453.91 666.31 449.38 662.365 446.778 657.166C442.992 649.595 443.857 640.632 444.816 632.214C445.897 622.714 446.977 613.215 448.058 603.715C448.896 596.335 449.519 588.108 444.955 582.25C442.396 578.963 438.575 576.964 435.368 574.3C429.957 569.801 426.413 563.502 422.999 557.351C421.996 555.551 420.967 553.674 420.82 551.615C420.682 549.642 421.356 547.713 422.031 545.853C424.287 539.598 426.871 532.633 432.386 528.506C436.846 525.158 444.885 522.337 450.02 525.53C456.538 529.588 461.871 537.054 467.905 541.959C474.526 547.349 481.51 552.272 488.659 556.927C496.793 562.248 505.152 567.205 513.519 572.137Z" fill="#FDFFB6"/>
<g opacity="0.5">
<g opacity="0.5">
<path opacity="0.5" d="M502.644 592.382C507.13 590.885 512.117 590.729 516.18 588.298C515.558 592.944 513.725 597.322 511.919 601.648C507.484 612.229 503.05 622.81 498.149 633.174C495.737 638.279 493.187 643.366 489.859 647.917C486.782 652.122 483.091 655.807 479.235 659.285C477.852 660.54 475.873 661.665 474.663 663.057C473.625 664.251 473.228 665.757 472.139 666.864C471.248 667.764 469.658 668.318 468.638 669.365C467.687 670.342 466.027 671.103 465.05 670.16C464.437 669.572 464.428 668.612 464.471 667.764C465.094 655.807 467.834 643.755 474.04 633.512C476.789 628.978 480.16 624.86 483.021 620.405C488.865 611.303 490.862 596.301 502.644 592.382Z" fill="#51A755"/>
</g>
</g>
<path d="M339.861 606.328C342.843 609.867 345.116 613.959 348.185 617.42C356.198 626.469 368.637 630.233 377.8 638.123C381.326 641.16 384.421 644.837 388.596 646.87C390.792 647.943 393.221 648.514 395.33 649.742C402.236 653.783 403.464 663.62 400.914 671.207C398.355 678.795 393.031 685.093 389.279 692.17C386.349 697.699 384.386 703.686 381.845 709.413C375.69 723.273 366.044 735.559 354.046 744.816C351.314 746.927 348.228 748.96 344.779 749.004C339.152 749.073 334.908 743.942 332.323 738.942C325.581 725.886 324.051 710.218 328.157 696.107C329.514 691.435 331.467 686.927 332.531 682.178C333.594 677.428 333.706 672.237 331.502 667.902C330.447 665.826 328.909 664.035 327.387 662.261C319.322 652.9 311.214 643.504 301.758 635.553C300.625 634.602 299.415 633.59 298.966 632.171C298.421 630.44 299.156 628.589 299.873 626.919C302.829 620.102 305.864 613.163 310.765 607.591C319.573 597.581 330.923 595.73 339.861 606.328Z" fill="#FDFFB6"/>
<g opacity="0.5">
<g opacity="0.5">
<path opacity="0.5" d="M365.39 734.738C367.776 732.627 370.145 730.412 371.709 727.635C373.49 724.486 374.129 720.791 375.876 717.625C377.665 714.38 380.561 711.785 381.9 708.333C383.119 705.21 382.938 701.688 384.07 698.539C385.056 695.805 386.966 693.53 388.625 691.142C393.466 684.186 396.379 675.906 396.95 667.454C390.588 666.658 383.906 669.418 379.947 674.461C374.138 681.859 369.038 689.801 364.336 697.942C359.988 705.461 354.845 712.01 351.854 720.142C350.367 724.183 348.5 728.093 346.278 731.779C344.748 734.314 342.985 737.083 343.495 740.007C343.841 741.945 341.61 747.067 342.916 748.537C343.771 749.506 348.318 747.023 349.606 747.101C350.695 747.17 351.698 746.548 352.588 745.925C357.213 742.689 361.163 738.475 365.39 734.738Z" fill="#51A755"/>
</g>
</g>
<path d="M225.484 184.038C229.919 180.257 236.212 178.795 241.856 180.222C245.953 181.261 249.558 183.674 253.059 186.045C255.635 187.784 258.254 189.566 260.138 192.032C261.694 194.065 262.688 196.47 263.605 198.858C266.224 205.676 268.411 212.727 269.12 220.003C269.828 227.279 268.99 234.823 265.8 241.39C260.89 251.495 251.105 258.2 241.536 264.092C231.276 270.417 220.687 276.395 209.242 280.184C198.86 283.628 188.168 284.735 177.319 285.159C171.925 285.367 166.021 283.541 160.697 282.546C154.749 281.439 148.82 280.288 142.89 279.094C133.744 277.252 124.392 275.218 116.551 270.166C114.987 269.153 113.465 268.02 111.711 267.397C109.748 266.705 107.613 266.679 105.625 266.073C103.663 265.468 101.926 264.309 100.154 263.27C96.3761 261.055 92.3305 259.308 88.1208 258.088C87.291 257.846 86.366 257.569 85.9079 256.833C85.2855 255.838 85.8042 254.558 86.2018 253.451C87.7059 249.22 87.1526 244.565 87.6799 240.11C88.6654 231.804 93.3677 224.459 98.0096 217.503C99.7471 214.898 101.528 212.268 103.957 210.296C106.386 208.323 109.593 207.077 112.653 207.709C120.009 206.541 126.267 212.061 133.355 214.336C137.98 215.824 142.907 215.997 147.722 216.655C159.193 218.238 170.94 222.685 182.013 219.268C185.22 218.281 188.194 216.663 191.141 215.054C194.53 213.203 197.927 211.36 201.263 209.413C206.588 206.307 212.06 202.639 214.541 196.989C215.587 194.61 216.062 191.937 217.661 189.886C219.036 188.13 221.067 187.048 223.038 186.019C224.248 185.413 224.438 184.929 225.484 184.038Z" fill="#FFD6A5"/>
<path d="M269.164 275.712C274.973 295.801 275.665 317.232 282.917 336.845C275.189 339.423 267.263 341.405 259.224 342.746C258.653 342.841 258.057 342.936 257.503 342.763C256.924 342.59 256.458 342.157 256.077 341.69C253.804 338.887 254.003 334.916 253.735 331.317C253.415 326.922 252.248 322.639 251.211 318.356C247.891 304.678 245.808 290.732 243.742 276.811C243.362 274.241 242.973 271.672 242.592 269.102C242.454 268.194 242.325 267.259 242.515 266.36C242.774 265.157 243.595 264.162 244.382 263.219C246.534 260.641 258.299 245.267 262.18 248.892C263.174 249.826 262.975 253.65 263.235 254.991C263.667 257.275 264.237 259.525 264.868 261.757C266.191 266.446 267.807 271.032 269.164 275.712Z" fill="#FFD6A5"/>
<path d="M412.228 227.678C413.516 233.172 417.544 237.524 421.425 241.616C422.575 242.827 423.742 244.056 425.151 244.964C426.897 246.08 428.928 246.669 430.959 247.066C442.318 249.281 454.636 245.743 463.098 237.844C464.135 236.875 465.164 235.802 466.435 235.214C466.314 230.256 465.787 225.299 464.576 221.146C462.389 213.627 456.174 206.637 450.677 201.636C450.417 201.974 450.115 202.268 449.743 202.475C449.173 202.796 448.507 202.882 447.859 202.951C443.208 203.496 438.532 204.015 433.847 203.894C430.026 203.799 426.283 202.484 422.514 202.458C414.985 202.398 412.522 211.646 412.02 217.599C411.735 220.964 411.45 224.399 412.228 227.678Z" fill="#FFD6A5"/>
<path d="M281.937 336.299C282.542 336.126 283.182 335.953 283.787 336.118C284.409 336.282 284.885 336.767 285.343 337.208C295.232 346.837 310.22 348.36 323.99 349.355C325.443 349.459 326.99 349.545 328.278 348.879C329.687 348.152 330.517 346.673 331.64 345.557C333.767 343.446 336.853 342.71 339.775 342.053C350.796 339.596 361.826 337.13 372.847 334.664C374.014 334.405 375.207 334.145 376.382 334.318C378.941 334.69 380.921 337.026 383.496 337.242C384.551 337.338 385.631 337.061 386.66 337.303C389.893 338.082 389.876 342.624 389.357 345.911C388.086 353.871 388.268 362.064 389.884 369.963C390.654 373.701 391.743 377.421 391.639 381.236C391.553 384.42 390.636 387.526 390.265 390.693C389.236 399.518 392.495 408.247 396.082 416.371C398.079 420.887 400.223 425.455 400.767 430.37C401.096 433.38 400.819 436.443 401.346 439.419C402.003 443.174 403.896 446.583 405.764 449.905C408.305 454.439 410.881 459.015 414.425 462.822C419.473 468.238 425.922 471.958 430.659 477.677C436.761 485.04 442.536 492.705 448.465 500.215C450.713 503.061 453.029 506.037 453.799 509.585C454.827 514.326 452.934 519.153 451.076 523.635C449.459 519.127 444.567 515.442 440.003 516.861C438.257 517.406 436.796 518.591 435.378 519.75C430.901 523.419 426.371 527.156 423.034 531.889C419.698 536.621 417.658 542.565 418.79 548.24C419.395 551.277 420.839 554.591 419.3 557.29C417.338 560.734 412.307 560.275 408.452 559.358C404.026 558.302 399.557 557.221 395.52 555.127C383.211 548.734 377.411 534.45 367.401 524.846C364.695 522.251 361.679 520.001 359.12 517.267C356.492 514.464 354.4 511.202 352.317 507.967C347.139 499.912 341.97 491.857 336.792 483.794C328.589 471.015 321.726 457.977 317.127 443.503C315.355 437.94 313.782 432.117 310.134 427.558C306.702 427.722 303.789 430.196 301.81 433.008C299.83 435.82 298.499 439.047 296.485 441.833C293.9 445.424 290.296 448.131 287.374 451.454C283.156 456.247 280.467 462.164 277.952 468.03C275.272 474.268 272.688 480.679 272.057 487.436C271.071 498.061 274.978 508.46 278.825 518.418C280.165 521.896 281.513 525.383 283.32 528.644C288.921 538.767 298.793 548.855 307.904 555.871C311.828 558.891 316.046 561.599 319.383 565.258C323.766 570.069 326.385 576.289 330.768 581.091C332.142 582.596 333.698 583.981 334.597 585.806C336.498 589.673 334.951 594.276 333.386 598.299C333.093 599.043 332.781 599.831 332.159 600.332C330.378 601.795 327.82 600.09 325.52 599.865C322.443 599.554 319.859 602.019 317.749 604.295C310.333 612.298 303.694 622.602 300.331 633.166C299.415 636.029 298.343 639.464 295.448 640.269C294.203 640.615 292.88 640.364 291.636 640.061C282.49 637.812 274.373 632.629 266.447 627.533C262.272 624.843 258.088 622.152 253.904 619.461C238.034 609.252 229.156 593.325 216.389 579.949C213.389 576.808 210.053 573.953 207.451 570.475C205.437 567.785 203.898 564.765 202.377 561.772C199.689 556.494 197.009 551.208 194.32 545.93C192.013 541.397 189.704 536.846 187.941 532.07C182.547 517.44 182.556 501.426 183.325 485.844C183.628 479.65 187.492 473.801 189.004 467.598C192.471 453.426 197.467 439.679 203.008 426.208C207.676 414.866 212.706 401.49 220.469 391.869C222.716 389.084 225.482 386.748 227.799 384.022C233.34 377.499 236.063 369.098 240.324 361.675C243.894 355.446 249.461 347.426 255.892 343.844C263.145 339.786 273.906 338.592 281.937 336.299Z" fill="#FFD6A5"/>
<g opacity="0.5">
<g opacity="0.5">
<path opacity="0.5" d="M428.249 536.544C428.249 536.544 493.166 576.325 483.26 598.941L461.2 635.918L449.764 661.891C449.764 661.891 440.308 651.059 444.102 632.648C447.897 614.237 456.783 592.98 442.944 579.993C429.105 567.007 414.228 554.038 414.228 554.038L428.249 536.544Z" fill="#51A755"/>
</g>
</g>
<g opacity="0.5">
<g opacity="0.5">
<path opacity="0.5" d="M303.909 402.131C303.909 402.131 318.518 407.124 328.726 431.876C331.847 439.438 336.472 449.084 342.185 459.163C359.499 489.678 383.444 524.588 426.526 510.425C432.369 508.504 438.541 512.086 442.975 515.279L421.564 539.408L419.982 557.923C419.982 557.923 408.952 566.289 391.413 552.135C373.875 537.981 337.077 487.567 337.077 487.567L317.066 447.371L305.967 412.358L303.909 402.131Z" fill="#51A755"/>
</g>
</g>
<g opacity="0.5">
<g opacity="0.5">
<path opacity="0.5" d="M311.141 611.079C311.141 611.079 373.516 654.442 368.451 674.35L350.229 702.84L332.613 739.324C332.613 739.324 320.762 728.241 328.04 704.414C335.318 680.596 338.776 660.239 309.948 642.71L300.534 628.764L311.141 611.079Z" fill="#51A755"/>
</g>
</g>
<g opacity="0.5">
<g opacity="0.5">
<path opacity="0.5" d="M256.314 344.569L283.137 333.425L288.141 339.404L266.134 359.562L244.238 385.024L228.532 408.401C228.532 408.401 206.057 444.306 202.245 471.143C198.433 497.99 206.049 536.014 218.28 549.268C230.511 562.523 275.841 616.604 305.974 598.289L306.113 618.023L305.257 632.03C305.257 632.03 296.794 640.838 291.711 640.18C286.629 639.532 237.332 603.29 237.332 603.29L200.724 559.512C200.724 559.512 180.298 521.661 182.77 498.846C185.242 476.04 198.001 438.128 206.368 418.48C217.035 393.416 256.314 344.569 256.314 344.569Z" fill="#51A755"/>
</g>
</g>
<g opacity="0.5">
<g opacity="0.5">
<path opacity="0.5" d="M261.533 245.688C261.533 245.688 276.514 330.933 288.166 339.403C288.166 339.403 280.663 335.51 271.941 338.443C263.219 341.376 254.748 345.503 255.543 345.035C256.338 344.568 245.836 292.796 245.836 292.796L241.289 264.436L261.533 245.688Z" fill="#51A755"/>
</g>
</g>
<g opacity="0.5">
<g opacity="0.5">
<path opacity="0.5" d="M270.165 188.035C270.165 188.035 248.607 181.546 236.531 198.703C224.455 215.859 202.119 245.387 158.751 241.087C118.937 237.134 95.8656 221.033 95.8656 221.033C95.8656 221.033 108.062 205.944 110.353 206.922C115.401 209.085 155.735 229.416 188.461 218.186C188.461 218.186 208.645 208.375 215.707 195.363C222.77 182.351 239.522 176.182 254.744 180.378C269.966 184.574 270.165 188.035 270.165 188.035Z" fill="#51A755"/>
</g>
</g>
<g opacity="0.5">
<g opacity="0.5">
<path opacity="0.5" d="M351.794 177.402C353.445 179.833 355.096 182.265 356.747 184.687C351.034 188.485 343.574 187.793 336.831 189.065C327.66 190.795 319.094 196.384 309.784 195.631C309.387 195.597 308.98 195.554 308.626 195.372C307.891 194.991 307.554 194.126 307.269 193.347C302.86 181.443 293.542 171.441 281.985 166.207C278.76 164.745 275.251 163.56 272.822 160.981C272.9 159.268 274.015 157.737 275.415 156.751C276.816 155.764 278.467 155.211 280.1 154.683C285.762 152.84 291.709 150.98 297.57 152.009C300.31 152.494 302.929 153.593 305.695 153.913C307.77 154.155 309.888 153.939 311.937 154.371C313.959 154.795 315.8 155.816 317.607 156.828C320.892 158.663 324.176 160.497 327.461 162.331C333.581 165.748 339.71 169.166 345.83 172.592C349.002 174.366 352.469 176.494 353.419 180.006" fill="#51A755"/>
</g>
</g>
<g opacity="0.5">
<g opacity="0.5">
<path opacity="0.5" d="M380.815 312.716C381.342 308.987 381.87 305.181 381.239 301.469C380.746 298.588 379.579 295.88 378.542 293.155C375.827 286.06 373.908 278.654 372.837 271.127C369.863 271.205 366.414 271.136 363.631 272.183C350.82 277.01 333.782 274.597 322.13 281.778C322.995 284.339 324.136 287.998 324.118 290.706C324.11 292.601 324.732 294.444 325.346 296.235C327.196 301.616 329.046 306.989 330.895 312.37C332.011 315.597 333.134 318.971 332.685 322.363C332.486 323.851 331.993 325.278 331.777 326.767C330.93 332.425 334.111 338.126 333.16 343.767C342.582 341.838 352.013 339.9 361.435 337.97C365.697 337.097 370.598 336.733 374.652 335.141C377.582 333.991 378.083 331.724 378.542 328.817C379.371 323.462 380.054 318.08 380.815 312.716Z" fill="#51A755"/>
</g>
</g>
<g opacity="0.5">
<g opacity="0.5">
<path opacity="0.5" d="M384.474 235.344C384.474 235.344 368.267 219.598 390.3 201.957C412.334 184.316 441.871 156.544 432.752 117.404C423.632 78.2724 384.44 42.9301 354.609 51.132C324.778 59.3338 322.125 68.0287 322.125 68.0287L334.33 72.6142C334.33 72.6142 378.164 53.9091 403.5 85.4014C428.836 116.894 426.433 138.869 415.118 158.024C403.811 177.179 372.943 200.936 372.943 200.936L359.139 212.313L347.011 220.827L343.095 235.483L350.494 243.278L356.718 246.064L369.045 236.599C369.053 236.599 380.55 238.156 384.474 235.344Z" fill="#51A755"/>
</g>
</g>
<g opacity="0.5">
<path opacity="0.5" d="M263.787 83.956L273.745 110.474L270.789 116.772L254.624 129.992L247.242 140.85L241.77 126.964L241.148 112.126L243.291 100.939L249.083 92.3568L254.408 86.2141L261.367 83.0476L263.787 83.956Z" fill="#51A755"/>
</g>
<path d="M267.169 158.748L306.715 155.919L306.343 150.745L271.439 153.237C271.871 151.134 273.781 147.717 279.633 142.439C285.632 137.032 293.68 131.599 300.016 127.463C307.839 122.359 312.031 121.71 313.76 121.71L318.359 139.082L306.655 141.955L307.891 146.999L324.721 142.863L318.082 117.817L317.183 117.272C315.835 116.458 310.415 114.477 297.172 123.111C279.357 134.731 263.313 146.852 266.529 156.81L267.169 158.748Z" fill="#009245"/>
<path d="M266.112 158.368C268.308 158.368 270.399 157.702 271.808 156.992L269.483 152.355C269.457 152.372 265.351 154.345 263.527 152.07C263.432 151.94 263.208 151.23 263.441 149.742C264.478 143.176 272.111 131.496 286.417 121.373C302.668 109.875 315.089 106.752 321.391 112.592C324.926 115.871 322.627 129.48 319.861 138.097L324.797 139.689C326.076 135.701 332.11 115.456 324.909 108.785C314.285 98.9481 296.487 107.894 283.426 117.143C267.59 128.347 259.387 141.324 258.28 149.206C257.917 151.819 258.315 153.886 259.482 155.331C261.314 157.607 263.77 158.368 266.112 158.368Z" fill="#009245"/>
<path d="M245.668 157.92C245.988 146.768 250.353 140.721 250.397 140.66L251.624 138.999L250.284 137.416C240.11 125.563 244.709 103.89 244.761 103.665L245.375 100.853L242.513 100.533C241.684 100.438 241.225 99.9278 241.027 99.6336C240.828 99.3395 240.534 98.7252 240.767 97.9292C243.672 87.9538 253.759 64.8623 284.48 65.7535C300.939 66.238 314.129 73.0988 323.672 86.1542C330.268 95.1866 332.792 104.245 333.198 105.82C333.501 126.471 319.964 138.93 319.834 139.051L323.309 142.91C323.949 142.339 338.869 128.6 338.384 105.43L338.376 105.171L338.315 104.911C338.212 104.47 335.774 93.9927 327.977 83.2559C320.725 73.2718 307.326 61.2286 284.636 60.5624C250.302 59.5675 239.038 85.341 235.797 96.4757C235.2 98.5348 235.538 100.732 236.722 102.515C237.379 103.51 238.26 104.306 239.28 104.859C238.312 110.976 236.653 127.804 245.15 139.302C243.551 142.148 240.75 148.412 240.482 157.79L245.668 157.92Z" fill="#009245"/>
<path d="M249.817 141.462C256.257 132.066 265.524 125.232 271.652 120.715L272.949 119.755C276.061 117.445 277.375 113.396 276.208 109.684L269.016 86.7486C268.048 83.66 265.584 81.3586 262.438 80.6059C259.274 79.8532 256.024 80.7962 253.75 83.1322C243.084 94.0766 239.937 101.82 239.807 102.14L244.631 104.061L242.219 103.1L244.622 104.069C244.648 104 247.604 96.8625 257.459 86.7573C258.453 85.745 259.862 85.3297 261.236 85.6585C262.61 85.9873 263.648 86.9563 264.071 88.3059L271.263 111.242C271.765 112.842 271.203 114.59 269.863 115.585L268.575 116.537C262.161 121.26 252.471 128.407 245.538 138.529L249.817 141.462Z" fill="#009245"/>
<path d="M390.73 185.121L395.795 184.014C390.099 157.86 377.331 151.414 349.567 142.936C322.779 134.76 316.105 139.259 315.034 140.245L318.552 144.06C318.552 144.06 318.509 144.121 318.388 144.199C318.439 144.164 324.196 140.626 348.054 147.91C374.366 155.939 385.595 161.554 390.73 185.121Z" fill="#009245"/>
<path d="M330.247 352.65C334.863 348.194 336.047 337.275 335.719 331.029C335.408 325.215 326.418 293.904 323.565 284.085L370.468 271.427C372.266 277.795 377.081 295.029 379.501 305.1C382.259 316.572 373.675 331.306 373.589 331.453L371.998 334.152L386.053 339.214L390.764 337.795C404.759 333.59 414.838 321.088 415.832 306.692C416.36 299.13 415.677 290.669 413.81 281.532C406.402 245.282 401.587 220.884 401.535 220.642L396.444 221.645C396.495 221.888 401.31 246.311 408.718 282.571C410.49 291.248 411.139 299.243 410.646 306.328C409.799 318.588 401.198 329.229 389.26 332.82L386.183 333.746L379.501 331.34C382.112 326.08 387.022 314.253 384.532 303.88C381.515 291.309 374.816 267.776 374.747 267.543L374.047 265.086L317.091 280.46L317.834 283.003C322.805 299.969 330.299 326.833 330.532 331.314C330.869 337.673 329.391 346.265 326.642 348.921L330.247 352.65Z" fill="#009245"/>
<path d="M329.518 353.604L330.252 348.465C321.193 347.167 313.811 340.289 311.875 331.343L287.455 218.464C287.205 216.128 284.318 193.097 267.885 183.182C250.796 172.861 232.125 175.145 223.904 183.182C223.982 180.517 224.561 176.174 225.469 171.909C244.053 155.367 265.655 155.462 289.703 172.194C301.571 180.457 305.141 193.711 305.176 193.841L305.729 195.952L307.907 195.77C313.275 195.321 360.533 190.969 366.964 177.238C367.949 175.145 368.537 171.814 365.762 167.843C352.649 149.034 310.051 143.029 308.245 142.779L305.746 142.441L303.646 155.09L305.738 155.791C316.439 159.39 344.1 170.689 351.698 181.988C340.366 186.245 322.55 189.178 309.524 190.406C307.925 185.907 303.24 175.274 292.668 167.921C266.485 149.7 241.832 149.942 221.371 168.613L220.766 169.166L220.585 169.962C220.55 170.127 219.694 173.968 219.15 178.043C218.208 185.12 218.752 188.347 221.095 189.558C222.901 190.493 224.89 189.775 226.999 187.421C233.43 180.258 250.32 178.623 265.197 187.612C279.901 196.489 282.278 218.888 282.304 219.113L282.347 219.407L306.792 332.424C309.195 343.499 318.323 352.003 329.518 353.604ZM310.017 148.324C319.231 149.89 351.361 156.284 361.501 170.819C362.953 172.895 362.668 174.167 362.253 175.032C361.432 176.78 359.391 178.406 356.487 179.903C348.024 166.19 317.813 154.606 309.472 151.612L310.017 148.324Z" fill="#009245"/>
<path d="M182.499 287.064C193.65 287.064 204.757 285.429 214.992 281.25C262.067 262.044 273.469 232.039 273.936 230.776L269.06 228.994C268.957 229.28 257.823 258.168 213.029 276.449C166.308 295.508 98.2967 258.886 88.5289 253.392C87.336 228.328 105.999 212.348 110.243 209.744C118.1 213.421 154.094 226.494 179.421 223.145C191.592 221.536 203.132 214.71 212.813 203.411C220.04 194.967 223.67 187.076 223.826 186.748L219.106 184.593C219.072 184.671 215.571 192.25 208.785 200.14C199.847 210.531 189.742 216.544 178.747 217.998C152.469 221.476 114.945 206.413 111.816 204.752C110.373 203.783 108.756 204.639 108.211 204.934C103.691 207.339 81.2248 225.758 83.4463 255.148L83.5501 256.498L84.7083 257.19C84.8985 257.302 104.235 268.705 129.692 277.323C144.594 282.349 163.594 287.064 182.499 287.064ZM108.791 208.957C108.895 209.034 109.067 209.138 109.309 209.268C109.145 209.199 108.964 209.095 108.791 208.957ZM111.859 204.778C111.92 204.821 111.963 204.856 111.998 204.882C111.954 204.838 111.911 204.804 111.859 204.778Z" fill="#009245"/>
<path d="M170.769 286.545L173.034 285.636C174.149 284.313 174.175 284.287 169.611 267.796C169.118 266.005 169.464 264.119 170.571 262.623C171.694 261.109 173.415 260.217 175.308 260.174C195.837 259.69 209.469 252.552 217.283 246.652C218.709 245.579 220.525 245.207 222.262 245.631C224.034 246.063 225.495 247.257 226.282 248.901L235.271 267.753L239.957 265.521L230.967 246.669C229.506 243.615 226.792 241.4 223.498 240.595C220.239 239.799 216.834 240.5 214.163 242.516C206.953 247.958 194.342 254.551 175.186 255C171.686 255.078 168.487 256.739 166.404 259.543C164.338 262.328 163.681 265.85 164.606 269.198C168.038 281.587 168.436 283.698 168.479 284.053C168.436 283.664 168.539 282.833 169.205 282.158L171.037 283.975L170.769 286.545Z" fill="#009245"/>
<path d="M388.301 337.91C388.759 337.209 399.582 320.519 397.015 304.436C394.586 289.192 387.817 265.218 387.532 264.205L386.84 261.757L371.627 265.737L372.941 270.755L383.227 268.064C385.034 274.657 389.961 293.094 391.897 305.249C394.145 319.317 384.074 334.899 383.971 335.054L388.301 337.91Z" fill="#009245"/>
<path d="M375.052 330.227L376.361 335.25L332.897 346.592L331.589 341.569L375.052 330.227Z" fill="#009245"/>
<path d="M223.088 221.423L235.483 207.225L233.339 205.538C228.17 201.463 213.726 196.757 212.101 196.229L210.519 201.169C214.037 202.302 222.863 205.408 227.807 208.125L221.851 214.942C203.803 205.798 201.097 207.796 200.051 208.575L203.137 212.745C202.843 212.961 202.61 212.996 202.61 212.996C204.624 212.736 213.89 216.655 221.281 220.48L223.088 221.423Z" fill="#009245"/>
<path d="M232.554 195.77C233.453 195.77 234.386 195.684 235.372 195.485C245.874 193.408 250.041 181.919 249.902 179.194C249.807 177.455 248.545 176.555 247.413 176.451L246.946 181.625C245.399 181.486 244.681 180.085 244.725 179.375C244.621 180.915 241.466 188.996 234.369 190.398C226.944 191.868 223.884 183.719 223.763 183.372L218.879 185.12C220.279 189.065 224.809 195.77 232.554 195.77Z" fill="#009245"/>
<path d="M334.145 602.574C346.083 589.432 335.07 578.73 334.958 578.618L334.811 578.488C334.301 578.073 283.482 536.588 275.305 506.29C267.508 477.393 290.25 450.893 306.856 431.539C308.222 429.947 309.544 428.407 310.798 426.919L306.838 423.562C305.585 425.041 304.271 426.573 302.914 428.156C285.557 448.384 261.777 476.095 270.291 507.648C278.806 539.192 328.233 579.829 331.448 582.45C332.416 583.419 338.459 590.116 330.307 599.088L334.145 602.574Z" fill="#009245"/>
<path d="M453.851 525.851C462.4 510.33 451.189 498.062 434.229 479.504C428.792 473.552 422.629 466.812 416.206 459C384.292 420.214 392.522 336.422 392.608 335.583L387.447 335.047C387.421 335.263 385.252 356.892 387.162 383.141C389.755 418.622 398.175 445.252 412.195 462.296C418.704 470.212 424.92 477.012 430.4 483.008C446.945 501.116 456.055 511.091 449.304 523.351L453.851 525.851Z" fill="#009245"/>
<path d="M290.835 642.822C296.549 642.822 300.758 639.551 302.617 637.042L298.459 633.936C297.915 634.654 292.858 640.788 284.032 635.485C283.764 635.329 260.823 621.954 237.337 599.727C215.822 579.37 189.414 547.203 185.81 509.551C182.196 471.794 202.017 429.487 219.279 400.651C238.106 369.211 258.074 346.5 258.273 346.275L259.189 345.237L258.835 343.896C250.822 313.494 244.053 264.188 243.984 263.686L238.85 264.387C238.919 264.88 245.54 313.096 253.484 343.887C249.326 348.741 231.658 369.912 214.888 397.9C197.203 427.428 176.898 470.851 180.658 510.044C184.418 549.331 211.673 582.588 233.871 603.577C257.789 626.184 281.18 639.819 281.413 639.949C284.845 642.034 288.026 642.822 290.835 642.822Z" fill="#009245"/>
<path d="M258.164 346.362C259.901 344.917 273.317 340.531 284.753 337.286L283.335 332.294C271.32 335.703 256.539 340.297 254.326 342.875L258.259 346.258C258.241 346.293 258.207 346.327 258.164 346.362Z" fill="#009245"/>
<path d="M276.41 312.524L277.957 317.479L252.1 325.564L250.553 320.609L276.41 312.524Z" fill="#009245"/>
<path d="M387.57 359.246L390.431 354.911C389.376 354.21 364.464 337.884 346.493 337.884C346.432 337.884 346.372 337.884 346.311 337.884L346.346 343.076C346.398 343.076 346.45 343.076 346.502 343.076C362.917 343.076 387.328 359.081 387.57 359.246Z" fill="#009245"/>
<path d="M387.87 381.649L391.198 377.661C390.196 376.821 366.243 357.052 329.065 348.253L328.883 348.219L303.695 344.161C292.872 342.422 284.306 334.376 281.877 323.674L264.053 245.108L258.996 246.258L276.82 324.825C279.716 337.603 289.942 347.207 302.874 349.283L327.967 353.323C363.84 361.845 387.637 381.45 387.87 381.649Z" fill="#009245"/>
<path d="M227.441 592.443C237.105 574.655 250.97 560.76 268.673 551.157C279.02 545.542 287.932 542.972 292.315 541.934L291.131 536.881C286.489 537.971 277.084 540.688 266.201 546.589C247.608 556.676 233.034 571.272 222.886 589.96L227.441 592.443Z" fill="#009245"/>
<path d="M214.283 577.311C235.219 543.335 265.594 530.012 281.836 525.097L280.332 520.131C263.381 525.262 231.692 539.165 209.866 574.594L214.283 577.311Z" fill="#009245"/>
<path d="M368.05 527.303C377.714 509.515 391.579 495.62 409.282 486.017C416.751 481.968 423.476 479.528 427.798 478.196L426.276 473.229C421.73 474.631 414.659 477.192 406.81 481.449C388.217 491.537 373.643 506.132 363.494 524.82L368.05 527.303Z" fill="#009245"/>
<path d="M354.921 512.18C372.78 483.197 397.493 469.155 415.084 462.485L413.243 457.631C394.9 464.587 369.123 479.226 350.504 509.455L354.921 512.18Z" fill="#009245"/>
<path d="M185.867 515.268C197.242 497.445 214.6 489.044 237.455 490.282C254.812 491.233 268.989 497.67 269.135 497.731L271.305 493.015C270.7 492.739 256.212 486.137 237.896 485.108C213.312 483.724 193.802 493.18 181.493 512.473L185.867 515.268Z" fill="#009245"/>
<path d="M326.034 465.618C354.17 429.505 405.438 452.597 405.957 452.83L408.127 448.115C407.565 447.855 394.175 441.756 376.87 440.354C353.66 438.468 334.661 446.099 321.945 462.425L326.034 465.618Z" fill="#009245"/>
<path d="M246.363 417.634C248.611 417.634 250.85 417.141 252.95 416.146C256.693 414.381 259.519 411.267 260.92 407.373C262.32 403.48 262.121 399.275 260.358 395.529C258.594 391.783 255.483 388.954 251.593 387.552C247.703 386.151 243.502 386.349 239.759 388.114C236.017 389.879 233.19 392.994 231.789 396.887C228.902 404.925 233.086 413.819 241.116 416.709C242.819 417.331 244.591 417.634 246.363 417.634ZM246.346 391.826C247.522 391.826 248.697 392.034 249.838 392.44C252.423 393.375 254.497 395.252 255.664 397.744C256.831 400.236 256.969 403.03 256.036 405.617C255.102 408.204 253.218 410.28 250.737 411.448C248.248 412.616 245.456 412.755 242.871 411.82C237.529 409.9 234.746 403.982 236.673 398.635C237.607 396.048 239.491 393.972 241.972 392.804C243.355 392.155 244.851 391.826 246.346 391.826Z" fill="#009245"/>
<path d="M293.797 622.319L296.476 617.872C253.316 591.839 224.756 562.406 211.574 530.403C199.3 500.589 200.657 469.408 215.62 437.726C221.549 425.172 228.456 412.921 236.149 401.293L231.827 398.43C223.996 410.257 216.968 422.732 210.935 435.502C178.502 504.18 207.935 570.521 293.797 622.319Z" fill="#009245"/>
<path d="M241.662 392.84C265.416 359.955 289.464 341.665 289.697 341.483L286.577 337.33C285.574 338.083 261.691 356.226 237.453 389.794L241.662 392.84Z" fill="#009245"/>
<path d="M295.061 221.242L300.23 220.818C300.126 219.598 297.637 190.883 284.628 179.99C275.88 172.662 252.282 156.83 222.174 168.12L223.99 172.982C251.547 162.652 273.243 177.231 281.291 183.979C292.649 193.47 295.044 220.965 295.061 221.242Z" fill="#009245"/>
<path d="M429.72 253.694C436.557 253.694 442.651 252.111 447.57 250.147C459.386 245.432 466.906 237.758 467.218 237.438L467.779 236.858L467.918 236.062C467.961 235.803 472.119 210.021 450.552 200.824L449.8 200.504L448.996 200.677C448.84 200.711 433.013 203.973 420.859 198.86L418.845 203.644C430.956 208.74 445.556 206.586 449.229 205.92C456.214 209.138 460.622 214.874 462.351 222.989C463.431 228.068 463.112 232.627 462.913 234.41C458.651 238.476 433.264 260.564 404.686 239.826L401.644 244.03C411.593 251.246 421.231 253.694 429.72 253.694Z" fill="#009245"/>
<path d="M356.026 247.206L371.724 240.025L369.571 235.301L355.032 241.954C353.346 241.738 348.065 240.578 345.489 234.479C342.818 228.155 347.477 223.829 348.428 223.024L358.853 217.773L356.519 213.135L345.463 218.75C342.247 221.164 337.113 227.973 340.709 236.495C345.074 246.825 355.006 247.18 355.43 247.188L356.026 247.206Z" fill="#009245"/>
<path d="M467.642 238.339C471.16 238.339 477.556 237.681 482.89 233.554C487.523 229.955 490.306 224.591 491.154 217.601C492.39 207.426 488.742 198.186 481.161 192.26C474.859 187.337 466.846 185.485 461.228 187.648C452.713 190.927 448.287 196.819 448.771 204.242L453.949 203.905C453.534 197.537 458.695 194.18 463.095 192.493C466.405 191.222 472.577 192.139 477.98 196.352C481.576 199.164 487.402 205.575 486.019 216.969C485.345 222.532 483.227 226.728 479.726 229.445C473.779 234.056 465.774 233.061 465.697 233.053L465.014 238.2C465.126 238.218 466.12 238.339 467.642 238.339Z" fill="#009245"/>
<path d="M456.832 209.708C466.496 207.008 470.421 196.73 470.585 196.298L465.727 194.481L468.156 195.389L465.727 194.472C465.692 194.559 462.529 202.726 455.441 204.707L456.832 209.708Z" fill="#009245"/>
<path d="M42.1407 253.279C44.1807 253.279 46.1862 252.673 47.8199 250.995C51.9864 246.712 64.5895 233.761 85.4217 244.714L87.8335 240.12C71.7295 231.658 57.0259 234.089 44.1375 247.344C42.1407 249.403 36.5221 246.556 34.2574 244.947L32.8137 243.918L31.3356 244.895C28.9844 246.444 27.7655 246.003 27.3592 245.856C25.2846 245.112 23.9277 241.902 23.6684 241.08L22.1384 236.105L19.2512 240.102C19.1388 240.197 18.8018 240.422 18.2658 240.396C17.5829 240.362 16.1134 239.921 13.8832 237.334C13.1744 236.512 12.8544 233.96 13.7448 230.135C16.2429 219.433 26.0022 205.521 39.8241 199.655C58.6423 191.67 102.234 213.585 102.675 213.81L105.018 209.181C103.142 208.229 58.8238 185.951 37.7927 194.871C21.6542 201.715 11.3937 217.34 8.6881 228.95C7.82368 232.653 7.33958 237.697 9.9501 240.717C12.7335 243.944 15.5514 245.579 18.3435 245.587C18.914 245.587 19.4413 245.518 19.9081 245.406C20.9713 247.344 22.778 249.732 25.5787 250.735C27.1778 251.315 29.6154 251.6 32.6495 250.095C34.7068 251.341 38.4929 253.279 42.1407 253.279Z" fill="#009245"/>
<path d="M35.0277 248.315C37.811 243.202 46.7749 230.008 54.9089 230.008C54.9521 230.008 54.9953 230.008 55.0385 230.008L55.125 224.817C42.3837 224.583 31.6478 243.661 30.4723 245.832L35.0277 248.315Z" fill="#009245"/>
<path d="M23.6929 242.533C23.7794 242.23 32.3197 211.906 54.1805 214.787L54.8547 209.639C28.4991 206.178 18.7833 240.82 18.6882 241.174L23.6929 242.533L21.1949 241.849L23.6929 242.533Z" fill="#009245"/>
<path d="M14.9254 218.419L18.6078 214.76C15.7639 211.887 14.8648 209.266 17.847 202.898C26.0502 185.396 54.8178 197.958 55.1031 198.088L57.2122 193.347C56.875 193.2 48.914 189.687 39.6216 188.675C26.6468 187.256 17.4927 191.417 13.1447 200.692C9.54875 208.383 10.0674 213.514 14.9254 218.419Z" fill="#009245"/>
<path d="M375.373 240.613C375.443 240.613 375.52 240.613 375.589 240.613C385.124 240.5 392.048 232.653 392.342 232.316C392.515 232.117 412.845 209.484 432.614 189.732C455.08 167.281 461.053 133.409 447.845 103.44C439.556 84.6307 423.702 60.2415 395.272 50.8284C369.988 42.4535 340.218 47.8349 306.8 66.8168L309.359 71.333C341.445 53.1038 369.798 47.8695 393.638 55.7599C408.333 60.6222 428.846 73.2104 443.1 105.542C455.443 133.539 449.894 165.144 428.949 186.064C409.077 205.919 388.659 228.656 388.452 228.89C388.374 228.976 382.686 235.361 375.494 235.43C371.466 235.448 367.568 233.475 363.937 229.504C360.583 225.827 359.114 222.133 359.581 218.525C360.359 212.477 366.15 208.29 367.905 207.156C368.182 206.975 368.622 206.715 369.184 206.369C372.374 204.44 379.851 199.906 386.412 193.885C389.342 191.194 392.67 188.053 396.197 184.731L396.785 184.177C416.58 165.516 426.287 147.494 426.477 129.092C426.659 111.373 417.643 93.4295 399.68 75.7627C397.943 73.7468 391.659 67.3359 379.497 64.2732C362.641 60.0252 342.206 63.7887 318.755 75.4599L321.063 80.1059C372.59 54.4621 393.535 76.55 395.747 79.1455C395.869 79.284 395.946 79.3618 395.972 79.3877C412.932 96.051 421.455 112.757 421.291 129.031C421.118 145.945 411.938 162.747 393.232 180.397L392.644 180.95C389.135 184.264 385.815 187.387 382.911 190.052C376.722 195.728 369.565 200.062 366.505 201.922C365.882 202.303 365.398 202.597 365.087 202.796C362.226 204.647 355.475 209.83 354.437 217.859C353.772 223.058 355.682 228.154 360.108 232.999C364.724 238.052 369.858 240.613 375.373 240.613Z" fill="#009245"/>
<path d="M352.467 261.809C355.025 261.809 357.506 261.272 359.814 260.182C367.015 256.791 370.299 247.101 370.369 238.994L365.182 238.951C365.13 245.224 362.736 253.071 357.601 255.484C353.85 257.249 349.338 256.929 344.895 254.576C340.201 252.093 336.199 247.698 333.614 242.204C331.03 236.71 330.2 230.818 331.272 225.619C332.292 220.687 334.919 217.002 338.671 215.237C343.598 212.918 349.537 215.912 353.66 218.836L356.659 214.596C349.13 209.267 342.154 207.865 336.467 210.539C331.202 213.022 327.555 217.997 326.198 224.563C324.892 230.853 325.86 237.904 328.92 244.41C331.98 250.916 336.795 256.159 342.466 259.161C345.794 260.926 349.191 261.809 352.467 261.809Z" fill="#009245"/>
<path d="M343.957 265.821C346.464 265.821 348.919 265.302 351.227 264.22L359.81 260.171L357.597 255.473L349.014 259.522C341.001 263.295 330.239 257.342 325.027 246.242C319.805 235.142 322.079 223.047 330.083 219.275L338.667 215.234L336.454 210.536L327.87 214.577C317.273 219.569 313.893 234.77 320.324 248.457C325.372 259.168 334.95 265.821 343.957 265.821Z" fill="#009245"/>
<path d="M410.784 563.312C414.613 563.312 418.192 562.239 421.425 560.085L418.555 555.759C413.498 559.125 407.335 558.891 400.23 555.05C394.559 551.987 390.453 547.722 390.41 547.678C344.337 500.362 323.41 458.929 313.962 432.489C312.432 428.198 311.472 424.08 310.452 419.728C309.865 417.193 309.251 414.563 308.482 411.691L303.468 413.032C304.211 415.835 304.817 418.413 305.404 420.913C306.459 425.421 307.453 429.678 309.078 434.246C318.699 461.17 339.963 503.33 386.676 551.295C386.84 551.468 391.292 556.105 397.654 559.566C402.227 562.057 406.652 563.312 410.784 563.312Z" fill="#009245"/>
<path d="M344.213 751C345.051 751 345.89 750.87 346.711 750.602C353.194 748.508 363.602 740.324 370.923 731.568C379.438 721.385 401.169 670.66 403.295 664.734C405.119 659.655 401.316 652.985 397.806 648.278C396.726 646.825 395.187 645.778 393.38 645.242C375.064 639.817 344.377 608.904 332.034 595.875C326.519 590.044 317.736 588.478 310.691 592.06C299.307 597.848 294.112 608.671 291.752 616.734C289.704 623.733 292.063 631.26 297.751 635.906C305.436 642.179 319.361 653.893 326.225 661.784C333.002 669.587 330.858 679.234 327.616 693.83C326.423 699.194 325.075 705.276 323.995 712.076C320.381 734.882 335.102 746.588 339.701 749.624C341.075 750.533 342.64 751 344.213 751ZM318.748 595.33C322.248 595.33 325.749 596.757 328.282 599.439C364.838 638.043 383.846 647.82 391.919 650.216C392.654 650.433 393.251 650.839 393.666 651.384C397.331 656.29 399.198 660.841 398.428 662.978C396.406 668.601 374.943 718.686 366.955 728.237C360.403 736.076 350.61 743.897 345.121 745.662C344.265 745.939 343.331 745.809 342.571 745.299C337.514 741.95 326.086 732.096 329.129 712.889C330.184 706.236 331.515 700.24 332.691 694.954C336.148 679.398 338.646 668.16 330.149 658.375C323.389 650.597 310.588 639.67 301.045 631.883C296.973 628.561 295.288 623.188 296.748 618.188C298.814 611.111 303.326 601.628 313.06 596.68C314.84 595.771 316.794 595.33 318.748 595.33Z" fill="#009245"/>
<path d="M332.218 742.829L336.894 740.588C336.229 739.195 335.745 733.995 345.677 715.861C352.143 704.06 360.501 691.273 366.613 681.947C369.932 676.877 372.326 673.208 373.416 671.245C377.063 664.635 393.185 658.007 399.089 656.009L397.429 651.095C395.06 651.891 374.142 659.184 368.869 668.736C367.875 670.535 365.403 674.316 362.265 679.109C340.681 712.098 328.121 734.272 332.218 742.829Z" fill="#009245"/>
<path d="M460.677 673.684C467.895 673.684 480.965 662.627 488.105 654.088C496.619 643.905 518.35 593.18 520.477 587.253C522.301 582.175 518.497 575.504 514.988 570.798C513.907 569.344 512.377 568.297 510.562 567.761C492.28 562.345 461.654 531.51 449.327 518.515C443.709 512.58 434.814 510.997 427.7 514.674C416.497 520.453 411.336 531.138 408.985 539.089C406.885 546.184 409.27 553.823 415.062 558.547C422.712 564.793 436.569 576.456 443.397 584.32C450.174 592.124 448.031 601.771 444.789 616.366C443.596 621.73 442.248 627.804 441.167 634.613C438.92 648.81 443.821 658.578 448.324 664.271C453.208 670.448 458.637 673.243 458.862 673.364L459.199 673.537L459.57 673.606C459.934 673.658 460.297 673.684 460.677 673.684ZM445.567 522.08C482.054 560.589 501.028 570.348 509.093 572.736C509.827 572.952 510.424 573.359 510.839 573.904C514.504 578.809 516.371 583.36 515.601 585.497C513.579 591.121 492.116 641.205 484.128 650.757C475.597 660.957 464.316 668.51 460.85 668.51H460.841C458.11 666.962 442.844 657.211 446.302 635.409C447.356 628.756 448.688 622.76 449.863 617.474C453.321 601.918 455.819 590.671 447.322 580.894C440.588 573.151 427.847 562.267 418.347 554.507C414.18 551.106 412.46 545.621 413.964 540.543C416.03 533.569 420.499 524.208 430.077 519.268C435.151 516.664 441.522 517.815 445.567 522.08Z" fill="#009245"/>
<path d="M449.363 665.348L454.039 663.108C453.373 661.715 452.889 656.515 462.821 638.381C469.287 626.58 477.646 613.801 483.757 604.466C487.077 599.396 489.471 595.728 490.56 593.755C494.208 587.145 510.329 580.518 516.233 578.519L514.573 573.605C512.205 574.401 491.286 581.695 486.013 591.246C485.019 593.046 482.547 596.826 479.409 601.619C457.825 634.617 445.265 656.783 449.363 665.348Z" fill="#009245"/>
<path d="M458.138 670.696L463.298 670.22C462.408 660.634 481.018 627.87 496.785 602.071C497.745 600.505 498.471 599.311 498.912 598.567C501.98 593.402 514.143 589.846 518.577 588.92L517.505 583.842C515.647 584.231 499.214 587.899 494.451 595.92C494.019 596.646 493.302 597.823 492.36 599.363C477.137 624.263 457.031 658.757 458.138 670.696Z" fill="#009245"/>
<path d="M340.358 748.772L345.518 748.296C344.827 740.786 355.822 718.673 378.202 682.56C379.446 680.553 380.389 679.031 380.916 678.148C383.976 673 396.147 669.436 400.581 668.501L399.509 663.423C397.651 663.812 381.227 667.48 376.456 675.501C375.937 676.366 375.021 677.854 373.793 679.826C357.663 705.842 339.286 737.205 340.358 748.772Z" fill="#009245"/>
<path d="M65.3531 238.059L70.5222 237.67C68.7588 214.12 85.5543 206.1 86.2717 205.771L84.128 201.047C83.9206 201.142 63.3044 210.789 65.3531 238.059Z" fill="#009245"/>
<path d="M330.055 421.062C346.79 421.062 360.327 416.658 369.766 412.185C384.4 405.246 392.422 396.811 392.759 396.456L388.982 392.892C388.679 393.212 357.88 425.041 308.03 413.241L306.837 418.293C315.118 420.248 322.881 421.062 330.055 421.062Z" fill="#009245"/>
<path d="M305.429 420.093L310.572 419.444C310.512 418.96 308.964 407.366 298.98 395.081C282.487 374.784 256.045 368.702 236.768 367.179L236.362 372.353C262.407 374.412 282.608 383.323 294.762 398.118C303.925 409.27 305.412 419.989 305.429 420.093Z" fill="#009245"/>
<path d="M303.799 601.077L306.72 596.786C306.124 596.379 246.67 555.266 240.42 503.961C234.179 452.64 289.389 390.166 289.951 389.543L286.087 386.082C285.94 386.246 271.608 402.364 258.279 424.798C240.264 455.131 232.519 481.977 235.277 504.584C238.7 532.72 257.19 557.481 272.092 573.296C288.144 590.34 303.168 600.644 303.799 601.077Z" fill="#009245"/>
<path d="M302.389 402.208C310.16 387.708 338.841 358.456 342.013 356.839C342.004 356.839 341.373 357.159 340.5 356.882L342.082 351.942C340.673 351.492 338.737 350.869 321.043 370.136C315.735 375.916 302.847 390.373 297.816 399.76L302.389 402.208Z" fill="#009245"/>
<path d="M288.953 388.066C303.907 361.756 321.991 350.465 322.155 350.379C321.714 350.612 320.608 350.854 319.588 350.119L321.109 348.025L323.676 348.449L321.982 345.568C320.72 345.118 320.037 345.309 316.191 348.19C314.315 349.6 311.324 352.005 307.702 355.457C301.539 361.34 292.497 371.333 284.449 385.496L288.953 388.066Z" fill="#009245"/>
<path d="M438.447 572.476C444.134 547.117 463.756 539.288 464.595 538.967L462.745 534.114C461.812 534.468 439.709 543.163 433.39 571.334L438.447 572.476Z" fill="#009245"/>
<path d="M428.18 563.086C433.894 537.616 454.112 529.656 454.32 529.578L452.479 524.724C451.545 525.079 429.434 533.774 423.123 561.944L428.18 563.086Z" fill="#009245"/>
<path d="M317.75 647.018C323.438 621.66 343.06 613.83 343.899 613.51L342.049 608.657C341.115 609.011 319.004 617.706 312.694 645.876L317.75 647.018Z" fill="#009245"/>
<path d="M308.642 639.042C314.33 613.684 333.952 605.854 334.79 605.534L332.94 600.681C332.007 601.035 309.895 609.73 303.585 637.9L308.642 639.042Z" fill="#009245"/>
<path d="M510.564 599.712L512.286 604.608L489.569 612.61L487.847 607.714L510.564 599.712Z" fill="#009245"/>
<path d="M503.898 613.585L505.62 618.482L480.734 627.251L479.012 622.354L503.898 613.585Z" fill="#009245"/>
<path d="M498.019 627.098L499.741 631.995L472.172 641.706L470.45 636.809L498.019 627.098Z" fill="#009245"/>
<path d="M490.833 641.094L492.555 645.99L466.258 655.254L464.536 650.357L490.833 641.094Z" fill="#009245"/>
<path d="M478.42 657.026L480.142 661.922L462.652 668.085L460.93 663.189L478.42 657.026Z" fill="#009245"/>
<path d="M395.388 674.46L397.11 679.356L374.393 687.359L372.671 682.462L395.388 674.46Z" fill="#009245"/>
<path d="M388.855 688.235L390.577 693.131L365.691 701.898L363.969 697.001L388.855 688.235Z" fill="#009245"/>
<path d="M382.878 701.845L384.6 706.741L357.031 716.453L355.309 711.556L382.878 701.845Z" fill="#009245"/>
<path d="M375.681 715.848L377.403 720.745L351.106 730.008L349.384 725.112L375.681 715.848Z" fill="#009245"/>
<path d="M364.663 731.209L366.385 736.105L344.94 743.66L343.218 738.763L364.663 731.209Z" fill="#009245"/>
<path d="M381.189 315.072L382.255 320.152L333.178 330.461L332.113 325.381L381.189 315.072Z" fill="#009245"/>
<path d="M316.474 118.908L321.565 142.051L308.538 144.586L306.559 153.333L269.554 157.148L269.104 151.983L277.325 141.065L294.189 129.048L306.204 121.079L316.474 118.908Z" fill="#009245"/>
<path d="M266.266 265.631C266.266 265.631 256.247 279.362 244.422 281.68C244.422 281.68 240.999 263.849 241.267 264.437C241.535 265.026 260.414 246.987 260.414 246.987L266.266 265.631Z" fill="#009245"/>
<path d="M80.3596 239.696C79.815 239.515 76.8675 218.828 89.5571 205.141L103.837 211.509C103.837 211.509 87.5429 227.766 86.6179 242.422L80.3596 239.696Z" fill="#009245"/>
<path d="M351.157 262.109L340.464 263.562L326.521 253.596C326.521 253.596 321.681 241.994 321.119 241.682C320.557 241.379 318.733 232.2 318.794 231.828C318.854 231.456 321.032 226.031 321.197 225.616C321.361 225.201 323.504 221.437 323.712 221.178C323.919 220.918 328.985 216.93 328.985 216.93L331.725 216.627C331.725 216.627 326.815 228.506 327.083 229.353C327.351 230.201 329.391 243.932 330.23 245.03C331.068 246.129 337.058 253.743 337.681 254.028C338.303 254.314 343.913 257.671 343.913 257.671C343.913 257.671 350.595 261.399 351.019 261.33C351.459 261.252 351.157 262.109 351.157 262.109Z" fill="#009245"/>
<path d="M323.024 593.316C323.024 593.316 330.51 599.468 330.942 599.182C331.374 598.897 333.855 601.484 333.855 601.484L322.765 610.187L311.112 624.809L304.249 637.06L299.426 633.884C299.426 633.884 294.628 627.3 294.412 626.539C294.187 625.778 294.325 617.264 294.472 616.797C294.619 616.33 297.446 609.296 297.965 608.362C298.483 607.427 305.995 598.283 305.995 598.283L310.628 594.917L316.04 592.962L323.024 593.316Z" fill="#009245"/>
<path d="M453.739 527.885C453.653 527.591 445.259 533.422 444.507 533.656C443.755 533.889 435.44 542.705 435.094 543.423C434.748 544.142 428.239 551.764 428.386 552.568C428.533 553.373 426.329 564.56 426.052 564.326C425.775 564.092 414.443 555.951 414.625 555.311C414.806 554.671 411.202 547.118 410.769 546.867C410.337 546.616 411.366 537.523 411.297 536.883C411.227 536.243 417.736 526.726 417.927 526.475C418.117 526.215 424.807 519.519 425.127 519.294C425.447 519.069 431.913 516.413 432.639 516.421C433.365 516.43 439.226 515.66 439.45 515.712C439.675 515.764 443.591 518.732 443.902 518.922C444.213 519.112 448.942 521.855 449.452 522.391C449.962 522.91 453.739 527.885 453.739 527.885Z" fill="#009245"/>
<path d="M447.706 247.282C447.706 247.282 426.321 244.401 421.117 230.29C415.913 216.188 426.718 203.323 426.718 203.323C426.718 203.323 417.089 199.62 417.383 200.45C417.668 201.281 398.02 220.912 398.668 221.811C399.317 222.711 401.581 240.915 402.904 241.797C404.226 242.68 422.932 253.633 428.75 252.231C434.567 250.838 447.706 247.282 447.706 247.282Z" fill="#009245"/>
<path d="M347.49 67.4405C347.49 67.4405 332.501 62.509 330.055 58.3562L309.292 69.7332C309.292 69.7332 318.264 79.9336 319.63 78.5839C320.996 77.2342 346.254 68.0029 346.254 68.0029" fill="#009245"/>
<path d="M269.797 238.372C273.575 219.563 271.552 204.319 263.781 193.071C254.281 179.333 239.75 176.815 239.136 176.711L238.298 181.833C238.427 181.859 251.368 184.16 259.571 196.091C266.469 206.127 268.207 220.013 264.723 237.342L269.797 238.372Z" fill="#009245"/>
<path d="M318.797 148.86C321.468 149.465 324.208 149.725 326.879 150.339C330.267 151.118 333.491 152.45 336.698 153.783C341.53 155.781 346.362 157.78 351.194 159.778C353.701 160.817 356.225 161.863 358.429 163.447C360.729 165.099 362.63 167.314 363.901 169.849C364.809 171.657 365.414 173.725 364.956 175.697C364.463 177.808 362.795 179.496 360.893 180.525C358.983 181.555 356.839 182.03 354.721 182.489C352.776 179.305 350.14 176.545 347.054 174.452C344.685 172.851 342.075 171.64 339.654 170.126C336.88 168.387 334.382 166.241 331.581 164.545C324.614 160.341 316.143 159.138 309.202 154.881C308.354 154.362 307.499 153.748 307.101 152.84C306.799 152.13 306.816 151.334 306.902 150.564C307.179 147.917 307.378 145.295 310.213 145.78C313.04 146.282 315.892 148.202 318.797 148.86Z" fill="#009245"/>
<path d="M383.435 265.399C383.971 265.226 384.602 265.062 385.052 265.399C385.346 265.624 385.467 265.996 385.57 266.351C388.993 277.962 392.079 289.659 394.845 301.442C395.502 304.246 396.142 307.075 396.289 309.956C396.799 319.801 391.604 328.929 386.573 337.408C383.79 335.703 381.006 333.999 378.223 332.294C377.842 332.061 377.428 331.793 377.298 331.36C377.16 330.901 377.384 330.426 377.592 329.993C381.041 322.994 382.432 314.991 381.559 307.23C381.153 303.64 380.271 300.119 379.398 296.606C377.6 289.408 375.759 282.218 374.004 275.011C373.494 272.926 372.552 270.478 374.281 268.739C376.2 266.809 380.903 266.23 383.435 265.399Z" fill="#009245"/>
<path d="M2.31836 119.098C2.22817 120.729 2.24994 122.42 2.82534 123.497C4.61684 126.84 10.8529 124.565 13.6334 124.026C19.0173 122.986 24.3544 121.701 29.6201 120.172C35.6135 118.432 41.5137 116.381 47.2925 114.024C55.1365 110.827 62.8562 107.004 69.2011 101.388C77.9253 93.6713 83.5113 83.0841 88.5468 72.5777C94.9694 59.1732 100.863 45.2861 102.95 30.5679C103.174 28.9958 103.355 27.402 103.921 25.9171C104.496 24.4073 105.448 23.0687 106.465 21.8141C108.798 18.9377 111.538 16.3944 114.576 14.2807C115.737 13.4744 116.996 12.6713 117.631 11.4043C118.803 9.06021 117.345 6.26161 115.656 4.25684C113.821 2.08397 111.283 0.0636438 108.459 0.37183C105.603 0.683129 103.575 3.22645 102.008 5.63279C98.2756 11.37 95.2245 17.5493 92.9353 23.9994C90.6866 18.393 83.869 16.1703 77.8351 15.9835C68.4297 15.6971 59.1207 18.6949 50.9812 23.4142C42.8417 28.1366 35.7815 34.5245 29.3153 41.3637C25.9158 44.9592 22.6438 48.7135 19.9939 52.8942C17.7638 56.4088 15.9879 60.2004 13.7143 63.687C11.6709 66.8218 9.2231 69.7137 7.54357 73.0602C4.81589 78.5048 4.3058 84.7557 3.84549 90.8292C3.42871 96.3267 1.18623 101.597 0.931188 107.107C0.760125 110.802 2.18461 115.173 2.53918 118.921C2.93107 123.067 4.54528 126.747 8.29002 128.882C11.7144 130.837 15.7764 131.239 19.7077 131.538C34.1113 132.63 49 132.805 62.5171 127.699C67.8201 125.695 72.7965 122.918 77.6485 119.982C92.8949 110.759 100.459 97.0832 106.543 80.7213C110.602 69.8102 114.275 58.0805 111.846 46.6963C110.99 42.6961 109.407 38.892 107.83 35.1159C106.888 32.8621 105.949 30.6114 105.006 28.3576C104.689 27.5981 104.319 26.7794 103.591 26.3902C102.757 25.9482 101.734 26.2159 100.86 26.5646C91.9805 30.0947 87.623 39.8757 83.757 48.6201C80.4757 56.0415 76.9362 63.3477 73.1448 70.52C69.9475 76.5716 66.5356 82.5735 62.0351 87.7286C57.1986 93.2666 51.2301 97.6777 45.3144 102.042C36.8141 108.315 28.1396 114.678 18.1433 118.093C12.3365 120.079 5.54368 121.48 2.37123 126.738" fill="#FFD6A5"/>
<g opacity="0.5">
<g opacity="0.5">
<path opacity="0.5" d="M1.79557 123.857C1.79557 123.857 68.4916 102.359 90.7298 32.3385C90.7298 32.3385 98.5521 37.0453 103.668 28.3788C103.668 28.3788 125.767 50.0078 105.833 85.9722C85.8996 121.937 53.9046 136.085 34.3411 133.691C14.7715 131.297 1.03356 122.435 1.79557 123.857Z" fill="#51A755"/>
</g>
</g>
<g opacity="0.5">
<g opacity="0.5">
<path opacity="0.5" d="M99.7702 25.3435C103.764 20.5619 104.79 14.0402 105.664 7.87024C108.084 11.4284 112.718 13.3305 116.939 12.4962C115.356 12.8075 111.365 20.5339 110.171 22.0344C107.574 25.2937 104.719 28.3911 101.381 30.9095C99.708 32.1703 93.1018 37.4344 91.8515 33.3502C91.0211 30.6138 98.2586 27.1553 99.7702 25.3435Z" fill="#51A755"/>
</g>
</g>
<path d="M37.8828 134.304C35.8611 134.304 33.8177 134.226 31.7494 134.07C15.0536 132.822 2.43846 126.851 2.31094 126.789L1.89729 126.59L1.80085 126.142C-0.590924 114.87 -0.600244 103.211 1.77287 91.4941C3.89717 81.0127 7.86583 70.6901 13.5669 60.8126C23.5974 43.4421 38.7568 28.4593 53.1323 21.7166C67.1471 15.1419 77.2834 15.503 83.3203 16.963C89.9545 18.5693 93.2047 21.7664 93.3415 21.9002L92.0228 23.2232C91.9917 23.1921 88.925 20.2099 82.7512 18.7468C77.0252 17.3895 67.3741 17.0969 53.9254 23.4069C39.8796 29.9971 25.0344 44.6873 15.1842 61.7465C9.58269 71.4496 5.68556 81.5824 3.6017 91.8646C1.31256 103.171 1.28768 114.415 3.53017 125.295C5.80997 126.313 17.265 131.126 31.9485 132.212C41.5218 132.922 50.5788 131.932 58.8676 129.267C69.2123 125.942 78.3968 119.984 86.1631 111.557C96.4487 100.397 103.823 88.5088 108.084 76.2312C111.692 65.8307 112.868 55.5952 111.48 46.636C110.131 37.9259 106.451 31.2734 101.382 28.3783L102.305 26.7565C107.873 29.9348 111.888 37.076 113.325 46.3496C114.759 55.6108 113.555 66.1576 109.848 76.8444C105.503 89.368 97.9945 101.474 87.5347 112.824C79.5383 121.503 70.0738 127.636 59.4026 131.057C52.672 133.218 45.4562 134.304 37.8828 134.304Z" fill="#009245"/>
<path d="M95.2128 35.4369C93.44 35.4369 91.9688 34.9139 90.8305 33.8741C88.5849 31.8196 88.5569 28.5198 88.5569 28.3797V28.112L105.156 1.4679L106.739 2.45473L90.4386 28.6288C90.4915 29.3167 90.7589 31.2841 92.0995 32.5044C92.9517 33.2796 94.1273 33.6344 95.5985 33.5597L117.296 11.2551L118.633 12.5595L96.4476 35.3653L96.1055 35.3964C95.7975 35.4244 95.5021 35.4369 95.2128 35.4369Z" fill="#009245"/>
<path d="M114.018 15.1706C111.962 15.1706 109.574 14.2989 107.418 12.5992C103.512 9.52049 102.069 5.05334 104.131 2.43221C105.163 1.11853 106.887 0.517738 108.98 0.735647C110.914 0.937991 112.973 1.8314 114.774 3.25093C118.681 6.32967 120.124 10.7968 118.062 13.4179C117.138 14.5947 115.689 15.1706 114.018 15.1706ZM108.162 2.55985C107.023 2.55985 106.128 2.91471 105.599 3.59023C104.23 5.32728 105.593 8.78272 108.575 11.133C111.558 13.4833 115.231 14.0032 116.6 12.263C117.968 10.526 116.606 7.07055 113.623 4.72025C112.096 3.51552 110.379 2.75908 108.79 2.59409C108.572 2.5723 108.364 2.55985 108.162 2.55985Z" fill="#009245"/>
<path d="M50.8804 35.236L49.7234 33.7698C60.6528 25.1375 71.6351 22.7623 78.9224 22.2891C86.841 21.7754 92.1129 23.2946 92.3337 23.3599L91.8081 25.153C91.7552 25.1375 86.5704 23.6526 78.9628 24.16C71.9585 24.6238 61.4024 26.9243 50.8804 35.236Z" fill="#009245"/>
<path d="M54.7621 53.8236L53.3127 52.647C65.5298 37.5552 88.1755 27.9205 89.1335 27.5189L89.855 29.2404C89.628 29.3369 66.6806 39.0992 54.7621 53.8236Z" fill="#009245"/>
<path d="M100.934 65.1282L99.2233 64.378C103.839 53.8374 103.938 42.7925 99.5219 31.5422C99.1362 30.5585 98.959 30.1103 99.4162 29.6433L100.754 30.9476C101.012 30.6799 101.04 30.3313 100.996 30.1601C101.018 30.2472 101.142 30.5585 101.261 30.8605C106.999 45.4666 104.249 57.5574 100.934 65.1282Z" fill="#009245"/>
<path d="M81.6525 61.9156L80.1191 60.8509C89.3566 47.518 92.4637 34.1851 92.4948 34.0513L94.3143 34.4653C94.2832 34.6023 91.1045 48.2714 81.6525 61.9156Z" fill="#009245"/>
<path d="M1.77939 125.971C1.26309 105.067 9.26886 83.8581 14.7771 74.7028L16.3758 75.6647C10.9795 84.6332 3.13857 105.419 3.64553 125.921L1.77939 125.971Z" fill="#009245"/>
<path d="M25.5249 128.393C19.5097 128.393 11.8616 127.914 3.0969 126.314C2.77344 126.255 2.56506 126.214 2.48108 126.205C2.84187 126.248 3.30219 126.015 3.44215 125.545L2.55884 125.277L2.13896 126.115L1.66309 124.978C1.92435 124.197 2.55573 124.312 3.43281 124.474C15.9266 126.756 26.1065 126.725 32.442 126.298C50.158 125.103 63.4076 119.425 71.8208 109.423L73.2484 110.627C64.4931 121.034 50.8049 126.933 32.5664 128.163C30.579 128.297 28.2152 128.393 25.5249 128.393Z" fill="#009245"/>
<path d="M3.55252 126.047C2.72208 126.047 2.58834 125.3 2.58523 125.265C2.51992 124.87 2.635 124.356 3.54319 124.142C9.68904 122.685 31.6505 115.662 56.2463 86.5398L57.6708 87.7445C32.7079 117.302 10.2582 124.465 3.97241 125.957C3.88221 125.978 3.82311 125.991 3.7889 126C4.16213 125.897 4.51358 125.471 4.42649 124.957C4.34252 124.462 3.89776 124.167 3.52142 124.179L3.68937 126.037C3.6396 126.047 3.59606 126.047 3.55252 126.047Z" fill="#009245"/>
<path d="M4.48243 125.415L2.71582 124.808C2.82779 124.478 14.3419 91.4616 40.2098 66.153L41.5129 67.4884C15.9748 92.4795 4.5944 125.088 4.48243 125.415Z" fill="#009245"/>
<path d="M72.9103 360.918C78.2124 361.692 83.8709 360.319 87.9544 357.266C92.0379 354.214 94.4716 349.541 94.4181 344.845C94.3968 342.929 93.962 340.971 92.8004 339.345C88.4034 333.182 76.755 334.741 71.2498 329.306C78.4797 328.1 83.3186 320.536 80.7067 314.526C79.089 310.803 75.1836 308.057 70.84 306.855C66.4964 305.653 61.7715 305.867 57.3424 306.809C53.6722 307.59 50.0769 308.892 47.2405 311.067C42.6475 314.587 40.5416 319.94 39.1662 325.14C37.9404 329.776 37.1423 334.58 37.887 339.295C38.6317 344.01 41.069 348.664 45.3556 351.599C22.8108 357.195 13.304 380.944 18.5385 399.075C21.2572 408.498 26.7019 417.335 32.9519 425.317C35.7063 428.833 38.8883 429.989 42.537 432.625C50.4475 438.334 57.2497 445.021 63.685 451.947C69.3292 458.021 77.0472 458.36 84.612 461.577C93.62 465.411 103.686 466.898 113.574 465.086C117.989 464.276 122.507 462.704 125.162 459.519C127.122 457.169 127.842 454.219 128.501 451.37C131.811 437.043 134.843 422.51 134.084 407.909C133.732 401.172 132.574 394.46 132.727 387.716C132.941 378.262 135.627 368.304 131.198 359.681C128.661 354.741 124.05 350.875 119.414 347.28C116.528 345.044 113.514 342.822 109.929 341.581C106.341 340.34 102.029 340.23 98.8152 342.091C92.6401 345.665 93.2921 354.224 87.8974 358.661C82.8874 362.78 74.9378 361.753 68.221 360.455" fill="#FFADAD"/>
<g opacity="0.5">
<g opacity="0.5">
<path opacity="0.5" d="M70.4547 361.364C69.6922 361.481 90.7974 363.532 97.7315 384.249C104.666 404.966 132.01 459.878 99.6556 466.587C99.6556 466.587 126.811 467.935 129.01 453.616C131.208 439.297 137.743 387.798 133.403 372.897C129.063 357.997 126.067 336.991 92.6396 342.875C92.6396 342.875 93.6337 357.811 70.4547 361.364Z" fill="#51A755"/>
</g>
</g>
<path d="M66.4836 362.402C62.0972 362.402 57.6147 361.674 53.3958 359.987C45.4568 356.813 39.4848 349.48 37.4181 340.372C35.1946 330.582 37.7281 320.542 44.1883 313.517C52.4729 304.508 62.6816 302.971 69.4732 304.536C75.1352 305.842 79.3363 309.355 80.7082 313.934C83.9543 324.765 72.8048 330.197 71.9176 330.61C71.8855 330.628 71.8535 330.65 71.825 330.667C71.6397 330.792 71.6682 330.86 71.6967 330.931C71.7715 331.11 72.0637 331.352 72.5162 331.249C78.5203 329.886 84.3213 330.939 88.4333 334.141C91.9823 336.902 94.0027 341.039 94.1274 345.789C94.2272 349.559 91.8861 353.304 87.5354 356.335C82.4363 359.887 74.6328 362.402 66.4836 362.402ZM64.5701 306.138C58.8119 306.138 51.7638 308.434 45.7597 314.965C39.777 321.473 37.4359 330.792 39.5026 339.897C41.4125 348.321 46.9035 355.087 54.1904 358.001C65.4218 362.491 79.1225 359.591 86.3132 354.58C90.051 351.973 92.0678 348.871 91.9895 345.846C91.8826 341.748 90.1544 338.193 87.122 335.832C83.516 333.025 78.3635 332.115 72.9901 333.335C71.4472 333.685 70.1858 332.818 69.7369 331.784C69.2808 330.728 69.6371 329.569 70.6277 328.899C70.7239 328.834 70.8237 328.774 70.927 328.717L71.0054 328.677C71.433 328.488 81.4778 323.945 78.6628 314.551C77.5155 310.717 73.8988 307.757 68.9957 306.626C67.6524 306.312 66.1594 306.138 64.5701 306.138Z" fill="#009245"/>
<path d="M103.462 468.287C96.1534 468.287 93.6235 466.64 90.9831 464.921C88.8879 463.558 86.9139 462.271 82.0322 461.797C75.0696 461.119 61.1479 452.57 48.1777 441.004C26.9869 422.11 19.4221 406.093 16.796 398.229C12.5165 385.411 15.9194 373.221 26.6342 362.978C34.6301 355.332 43.7343 351.52 44.1155 351.363L44.9315 353.342C44.8424 353.381 35.7739 357.183 28.0666 364.569C17.8828 374.33 14.7721 385.426 18.8199 397.555C21.3784 405.219 28.7757 420.844 49.5958 439.41C62.0566 450.523 75.7823 459.043 82.2353 459.671C87.6372 460.195 89.9284 461.69 92.1448 463.134C95.2555 465.16 98.1952 467.075 111.29 465.673C129.541 463.723 129.962 446.347 130.143 438.929C130.161 438.155 130.179 437.488 130.215 436.974C130.257 436.354 130.436 435.077 130.699 433.148C131.701 425.829 133.789 410.604 133.863 394.605C133.96 374.912 130.981 360.914 125.005 353C120.074 346.47 113.214 342.903 104.609 342.404C98.1168 342.026 93.0178 343.631 92.9643 343.645L92.3122 341.609C92.5332 341.537 97.7854 339.879 104.655 340.264C113.817 340.778 121.442 344.736 126.708 351.712C132.969 360.008 136.094 374.441 135.998 394.616C135.919 410.758 133.821 426.075 132.812 433.44C132.563 435.263 132.381 436.579 132.342 437.131C132.31 437.591 132.292 438.237 132.274 438.982C132.096 446.276 131.629 465.652 111.511 467.802C108.308 468.138 105.667 468.287 103.462 468.287Z" fill="#009245"/>
<path d="M59.0542 384.246C57.8106 379.078 58.7834 373.333 61.8692 367.634C64.1746 363.375 66.8185 360.654 66.929 360.54L68.4541 362.038L67.6915 361.289L68.4541 362.038C68.3543 362.141 58.4128 372.477 61.128 383.747L59.0542 384.246Z" fill="#009245"/>
<path d="M104.737 375.294C99.6165 360.237 80.1005 360.062 79.9045 360.062V357.922C80.1219 357.922 85.2566 357.947 91.1395 359.976C99.0286 362.698 104.43 367.755 106.761 374.606L104.737 375.294Z" fill="#009245"/>
<path d="M125.973 366.139C124.177 362.366 121.986 359.167 119.456 356.628L120.97 355.115C123.671 357.826 126.005 361.225 127.904 365.219L125.973 366.139Z" fill="#009245"/>
<path d="M113.975 352.416C103.773 346.627 92.8231 350.265 92.7127 350.301L92.0178 348.279C92.4989 348.111 103.965 344.277 115.029 350.554L113.975 352.416Z" fill="#009245"/>
<path d="M35.4717 375.222L33.405 374.673C35.9706 364.99 52.693 358.274 53.4021 357.996L54.1895 359.986C54.0221 360.05 37.7593 366.584 35.4717 375.222Z" fill="#009245"/>
<path d="M84.1378 462.019C63.0041 449.69 49.6989 431.972 42.2624 419.279C34.2023 405.527 31.088 394.507 31.0559 394.4L33.1155 393.826C33.144 393.933 36.2048 404.735 44.1402 418.259C51.4449 430.713 64.5042 448.092 85.2139 460.171L84.1378 462.019Z" fill="#009245"/>
<path d="M132.346 437.096L130.211 436.996C130.525 430.191 124.254 410.269 124.189 410.07L126.228 409.424C126.491 410.259 132.677 429.91 132.346 437.096Z" fill="#009245"/>
<path d="M71.471 436.156C65.784 427.543 60.6173 406.747 60.3999 405.866L62.4773 405.353C62.5307 405.567 67.7723 426.669 73.2562 434.975L71.471 436.156Z" fill="#009245"/>
<path d="M73.0886 343.585C71.111 343.585 69.1227 343.168 67.2234 342.226C63.6958 340.475 61.5436 338.007 60.8274 334.893C59.3985 328.663 64.3265 322.197 64.5367 321.926L66.2257 323.235C66.1509 323.335 61.7075 329.202 62.9083 334.419C63.4749 336.873 65.2423 338.856 68.1677 340.304C74.4782 343.435 82.0217 339.683 85.9128 334.565L87.616 335.86C84.3521 340.165 78.7542 343.585 73.0886 343.585ZM66.2293 323.238L65.3848 322.582L66.2293 323.238Z" fill="#009245"/>
<path d="M578.664 281.201C579.685 278.47 578.995 275.179 576.96 273.092C574.925 271.005 571.654 270.229 568.901 271.183C568.083 271.467 567.301 271.898 566.705 272.525C565.856 273.419 565.445 274.626 565.014 275.779C562.602 282.216 558.805 288.127 553.954 292.996C553.189 293.761 552.387 294.513 551.434 295.026C550.13 295.727 548.631 295.939 547.169 296.169C541.27 297.089 535.428 298.438 529.792 300.414C525.497 301.921 521.34 303.786 517.186 305.647C514.05 307.053 510.869 308.486 508.201 310.654C502.306 315.446 498.583 323.272 495.74 330.154C492.664 337.599 490.858 345.752 492.179 353.804C493.062 359.178 495.272 364.229 497.461 369.213C498.593 371.792 499.759 374.422 501.649 376.51C504.128 379.251 507.787 380.984 509.461 384.282C509.936 385.216 510.233 386.244 510.836 387.097C511.449 387.967 512.338 388.594 513.204 389.208C516.586 391.595 519.989 394.07 522.529 397.344C523.317 398.363 524.025 399.458 524.965 400.338C525.756 401.08 526.696 401.65 527.677 402.112C535.415 405.747 544.423 402.503 552.957 401.97C555.982 401.782 559.058 401.943 561.999 401.215C565.172 400.429 567.999 398.659 570.761 396.913C573.743 395.031 576.721 393.15 579.702 391.272C581.528 390.118 583.377 388.948 584.846 387.364C586.804 385.253 587.966 382.538 588.973 379.838C591.372 373.408 593.093 366.721 594.1 359.934C594.488 357.314 594.774 354.67 594.677 352.027C594.319 342.211 588.869 333.404 583.586 325.126C580.767 320.706 579.945 315.183 577.303 310.654C576.397 309.1 575.43 307.535 575.036 305.778C574.669 304.153 574.814 302.461 574.992 300.805C575.71 294.216 576.343 287.402 578.664 281.201Z" fill="#F9F9D9"/>
<g opacity="0.5">
<g opacity="0.5">
<path opacity="0.5" d="M506.466 383.867C506.466 383.867 495.069 350.402 515.882 326.967C531.813 309.029 548.651 307.033 559.644 297.427C565.657 292.17 559.138 296.142 560.166 296.479C561.884 297.039 554.718 308.493 535.718 320.008C518.513 330.434 507.264 373.775 516.552 391.686C516.549 391.69 511.354 384.41 506.466 383.867Z" fill="#51A755"/>
</g>
</g>
<g opacity="0.5">
<g opacity="0.5">
<path opacity="0.5" d="M574.824 370.39C574.824 370.39 576.488 389.259 573.096 394.448C573.096 394.448 601.637 361.374 574.164 313.197C574.164 313.197 569.259 295.087 574.989 282.975C574.989 282.975 581.548 280.507 580.251 280.831C578.954 281.155 573.119 308.77 585.83 314.468C598.541 320.167 620.219 338.82 614.728 360.47C609.237 382.121 595.539 405.697 552.155 402.018C552.158 402.021 569.976 395.224 574.824 370.39Z" fill="#51A755"/>
</g>
</g>
<path d="M514.921 389.288C508.895 388.192 502.935 381.793 499.698 375.936C496.44 370.038 491.946 357.704 498.478 341.364C503.046 329.931 510.66 320.486 521.103 313.291C529.873 307.252 538.669 304.156 543.395 302.494C553.071 299.092 566.196 271.989 566.327 271.716L568.15 272.593C567.597 273.739 554.523 300.727 544.066 304.402C539.43 306.034 530.799 309.069 522.252 314.956C512.146 321.919 504.778 331.057 500.358 342.113C494.139 357.677 498.384 369.371 501.47 374.955C505.617 382.46 511.539 386.614 515.285 387.296L514.921 389.288Z" fill="#009245"/>
<path d="M499.369 374.847C497.068 373.792 494.06 368.805 492.217 362.985C489.788 355.317 487.201 339.895 497.163 322.776C503.257 312.303 514.708 304.258 530.272 299.513C541.965 295.949 552.011 295.474 552.112 295.467L552.2 297.487C552.102 297.49 542.272 297.962 530.814 301.459C520.324 304.662 506.272 311.136 498.908 323.787C489.337 340.235 491.813 355.017 494.141 362.368C496.125 368.633 498.935 372.416 500.208 372.999L499.369 374.847Z" fill="#009245"/>
<path d="M582.956 398.66L582.623 396.664C584.071 396.421 591.51 394.209 598.864 388.494C608.162 381.271 613.161 371.827 613.724 360.423C614.306 348.645 611.018 338.395 603.947 329.962C597.712 322.524 589.657 317.854 585.328 315.345C576.37 310.156 577.185 289.645 577.95 281.067L579.965 281.246C579.638 284.918 579.2 292.096 579.968 298.904C580.834 306.602 583.04 311.683 586.342 313.595C590.779 316.164 599.032 320.949 605.497 328.66C612.905 337.498 616.351 348.217 615.745 360.521C615.337 368.785 612.292 380.624 600.104 390.092C592.416 396.064 584.502 398.4 582.956 398.66Z" fill="#009245"/>
<path d="M560.31 403.797C555.927 403.797 552.696 403.305 551.803 402.968L552.514 401.073C553.491 401.44 567.997 403.565 580.452 397.715C587.961 394.188 593.126 388.496 595.797 380.801C600.389 367.577 599.126 353.641 592.048 339.382C586.685 328.578 579.199 320.274 575.214 316.288C571.993 313.065 570.585 307.454 571.033 299.618C571.39 293.339 572.855 286.96 574.021 282.711L575.972 283.247C574.833 287.402 573.401 293.633 573.054 299.732C572.643 306.968 573.849 312.06 576.649 314.858C581.621 319.835 588.645 327.975 593.864 338.481C601.194 353.247 602.491 367.709 597.714 381.466C594.858 389.696 589.339 395.779 581.318 399.545C574.152 402.904 566.195 403.797 560.31 403.797Z" fill="#009245"/>
<path d="M538.427 406C534.576 406 531.443 405.346 529.614 404.665C527.488 403.876 520.188 400.612 515.418 391.73C510.489 382.552 509.963 370.741 513.854 356.623C521.859 327.581 539.333 314.708 548.719 307.795C549.793 307.003 550.72 306.322 551.542 305.685C559.327 299.635 562.538 288.151 562.568 288.036L564.519 288.569C564.384 289.065 561.109 300.816 552.782 307.283C551.943 307.934 550.959 308.658 549.918 309.424C540.728 316.195 523.621 328.795 515.805 357.162C512.055 370.761 512.527 382.07 517.2 390.776C521.633 399.034 528.361 402.045 530.318 402.77C534.664 404.382 544.413 405.046 553.455 400.265C563.326 395.045 570.185 384.913 573.843 370.151L575.804 370.64C572.001 385.985 564.798 396.556 554.399 402.055C548.725 405.049 543.059 406 538.427 406Z" fill="#009245"/>
<path d="M578.697 351.841L576.675 351.767C577.154 338.617 573.879 326.424 573.845 326.303L575.796 325.77C575.833 325.898 579.185 338.388 578.697 351.841Z" fill="#009245"/>
<path d="M576.188 283.309C574.261 283.309 571.97 282.476 569.868 280.865C566.132 277.995 564.623 273.898 566.432 271.538C568.241 269.178 572.587 269.576 576.323 272.445C580.059 275.315 581.568 279.411 579.759 281.772C578.968 282.807 577.688 283.309 576.188 283.309ZM569.936 272.014C569.12 272.014 568.443 272.243 568.036 272.772C566.86 274.306 568.706 277.425 571.101 279.263C573.493 281.101 576.98 282.078 578.159 280.544C579.335 279.01 577.489 275.891 575.093 274.054C573.524 272.846 571.485 272.014 569.936 272.014Z" fill="#009245"/>
</svg>
