<svg width="1049" height="671" viewBox="0 0 1049 671" fill="none" xmlns="http://www.w3.org/2000/svg">
<g clip-path="url(#clip0)">
<path d="M965.814 41.0835C964.824 39.4556 963.998 37.8364 963.344 36.2588L963.337 36.2407C963.131 35.7409 962.941 35.2466 962.77 34.7562L962.758 34.7249C962.758 34.7249 962.758 34.7249 962.759 34.7241C962.55 34.1234 962.369 33.5324 962.213 32.9484L962.212 32.9492L962.208 32.933C961.951 31.9598 961.768 31.0135 961.666 30.1015L961.663 30.0832L961.663 30.081C961.297 26.7937 961.957 23.9547 963.791 21.956L966.266 18.5391C966.559 18.0193 966.905 17.5347 967.311 17.0929C972.757 11.1601 986.477 14.8883 997.957 25.4206C1008.93 35.4937 1013.89 48.1425 1009.53 54.4169C1009.34 54.7038 1009.12 54.9769 1008.88 55.2356C1008.62 55.516 1008.35 55.774 1008.05 56.011C1008.05 56.011 1010.07 59.285 1017.24 68.41C1022.99 75.7256 1036.27 86.5754 1042.68 88.9456C1044.07 88.0303 1045.5 87.8216 1046.22 88.539C1047.14 89.4614 1046.54 91.5633 1044.88 93.232C1043.21 94.9007 1041.11 95.5072 1040.18 94.5856L1004.05 61.2432C1004.01 61.2682 1003.97 61.2905 1003.93 61.3155L1003.93 61.3177C1003.93 61.3177 1003.94 61.3169 1003.93 61.3155C999 64.493 989.491 62.587 980.273 56.2174C978.7 55.8241 976.261 53.5833 973.83 50.9423C970.58 47.8256 967.899 44.4924 965.882 41.1962C965.832 41.128 965.806 41.0918 965.806 41.0918L965.814 41.0835ZM1006.95 56.7803C1006.97 56.766 1006.98 56.7532 1006.99 56.7389L1006.97 56.7626C1006.99 56.7474 1007.01 56.7327 1007.03 56.7174C1006.95 56.7643 1006.86 56.8099 1006.78 56.854C1006.63 57.0133 1006.48 57.1897 1006.34 57.3795C1006.53 57.1705 1006.73 56.9694 1006.95 56.7803ZM1001.46 58.131C1002.06 58.102 1002.61 58.0401 1003.12 57.9561C1002.57 58.023 1001.99 58.057 1001.39 58.0572L1001.46 58.131Z" fill="#CAFFBF"/>
<g opacity="0.5">
<path opacity="0.5" d="M966.546 30.6758C966.576 30.7573 962.804 34.9255 962.804 34.9255L963.388 36.4588L967.298 32.4939L966.546 30.6758Z" fill="#51A755"/>
</g>
<g opacity="0.5">
<path opacity="0.5" d="M965.244 25.5659L961.707 30.2862L962.257 33.1522L965.947 28.8956L965.323 25.9757L965.244 25.5659Z" fill="#51A755"/>
</g>
<g opacity="0.5">
<path opacity="0.5" d="M969.761 37.1054L965.849 41.2919C965.849 41.2919 976.135 55.3749 980.316 56.4175L984.397 52.0036C984.398 52.005 974.339 45.1261 969.761 37.1054Z" fill="#51A755"/>
</g>
<g opacity="0.5">
<path opacity="0.5" d="M1008.1 56.2102C1008.1 56.2102 1010.12 59.4841 1017.29 68.6091C1023.03 75.9255 1036.32 86.7753 1042.72 89.1455C1042.72 89.1455 1038.9 92.4273 1040.23 94.7854L1004.09 61.4431C1004.09 61.4445 1005.33 57.7035 1008.1 56.2102Z" fill="#BDB2FF"/>
</g>
<path d="M1007.29 57.346C1008.04 56.915 1008.7 56.3864 1009.28 55.7584C1009.53 55.4855 1009.76 55.193 1009.97 54.8889C1012.18 51.7083 1012.18 46.9071 1009.98 41.3681C1007.81 35.8917 1003.67 30.1738 998.323 25.2707C992.716 20.1262 986.401 16.4148 980.541 14.8235C974.574 13.2002 969.765 13.9625 967.004 16.97C964.244 19.9775 963.895 24.8321 966.023 30.6383C968.112 36.3399 972.35 42.3132 977.957 47.4577C983.564 52.6022 989.879 56.3137 995.74 57.9049C1000.46 59.1892 1004.46 58.9801 1007.29 57.346ZM969.474 16.2031C975.574 12.6813 987.513 16.6449 997.678 25.972C1008.37 35.7777 1013.42 48.2408 1009.19 54.3435C1009 54.6126 1008.79 54.8715 1008.57 55.1113C1008.06 55.6708 1007.46 56.1417 1006.8 56.5226C1000.71 60.0458 988.766 56.0808 978.601 46.7537C967.335 36.4158 962.447 23.3444 967.707 17.6144C968.221 17.0549 968.814 16.584 969.474 16.2031Z" fill="#009245"/>
<g opacity="0.5">
<path opacity="0.5" d="M981.635 42.7535C972.791 34.6384 969.022 24.3543 973.218 19.7834C977.414 15.2125 987.985 18.0857 996.829 26.2008C1005.67 34.3159 1009.44 44.6 1005.25 49.1709C1001.05 53.7418 990.48 50.8686 981.635 42.7535Z" fill="#51A755"/>
</g>
<path d="M1004.04 50.736C1004.63 50.3988 1005.15 49.9843 1005.6 49.4919C1007.76 47.1441 1008.03 43.3644 1006.38 38.8489C1004.76 34.4415 1001.49 29.8235 997.155 25.8481C992.824 21.8727 987.942 19.0059 983.411 17.7742C978.772 16.5133 975.029 17.1139 972.873 19.4603C970.717 21.8081 970.44 25.5879 972.094 30.1033C973.71 34.5107 976.986 39.1288 981.317 43.1042C985.649 47.0796 990.531 49.9463 995.061 51.1781C998.729 52.174 1001.84 52.0098 1004.04 50.736ZM974.905 19.0432C976.887 17.8989 979.744 17.7676 983.159 18.6947C987.545 19.8867 992.288 22.6778 996.509 26.5515C1000.73 30.4253 1003.92 34.9099 1005.48 39.1779C1007.01 43.3399 1006.8 46.7737 1004.9 48.847C1002.99 50.9203 999.589 51.4207 995.311 50.2578C990.924 49.0658 986.182 46.2761 981.96 42.4009C977.738 38.5272 974.552 34.0426 972.988 29.7746C971.463 25.6125 971.671 22.1788 973.574 20.1055C973.958 19.6871 974.404 19.3326 974.905 19.0432Z" fill="#009245"/>
<path d="M1004.41 61.7299C1005.27 60.0036 1006.27 58.4994 1007.39 57.2595L1006.68 56.6205C1005.5 57.9251 1004.45 59.5021 1003.55 61.3063L1004.41 61.7299Z" fill="#009245"/>
<path d="M1009.7 54.5496L1046.46 88.2732L1045.81 88.9761L1009.05 55.2525L1009.7 54.5496Z" fill="#009245"/>
<path d="M1004.3 61.1688L1040.69 94.5527L1040.05 95.2557L1003.66 61.8717L1004.3 61.1688Z" fill="#009245"/>
<path d="M1005.68 48.9754C1002.84 42.5316 999.303 37.0579 995.184 32.71C991.879 29.2227 988.192 26.4465 984.226 24.4592C980.691 22.6874 977.581 21.8837 975.595 21.5196C973.429 21.1235 972.111 21.1501 972.055 21.1514L972.077 22.1059L972.066 21.6293L972.077 22.1059C972.09 22.1059 973.383 22.0822 975.472 22.4679C977.398 22.8243 980.416 23.6114 983.85 25.3387C987.71 27.2811 991.301 29.9919 994.521 33.3974C998.553 37.6615 1002.02 43.0326 1004.81 49.3626L1005.68 48.9754Z" fill="#009245"/>
<path d="M1005.25 49.1684C992.858 21.1341 972.063 21.6289 972.063 21.6289C972.063 21.6289 977.096 11.6409 992.336 22.6143C1008.26 34.0774 1007.11 45.3865 1006.66 46.5762C1006.21 47.7658 1005.25 49.1684 1005.25 49.1684Z" fill="#009245"/>
<path d="M1003.89 62.1298C1004.05 62.0376 1004.2 61.9415 1004.36 61.8404L1003.83 61.0475C1001.03 62.9151 996.62 63.0545 991.398 61.4398C985.933 59.7485 980.137 56.2623 975.083 51.623C969.586 46.5802 965.436 40.739 963.399 35.1781C961.401 29.7232 961.681 25.2145 964.188 22.4823L964.224 22.4396L967.743 17.5715L966.971 17.0132L963.466 21.8584C960.722 24.8669 960.38 29.7127 962.503 35.5062C964.592 41.2079 968.831 47.1812 974.438 52.3257C979.597 57.0591 985.519 60.619 991.116 62.3514C996.344 63.9679 1000.85 63.8848 1003.89 62.1298Z" fill="#009245"/>
<g opacity="0.5">
<path opacity="0.5" d="M1040.23 94.7854C1039.31 93.8633 1039.91 91.7622 1041.58 90.0924C1043.24 88.4226 1045.34 87.8164 1046.27 88.7384C1047.19 89.6605 1046.59 91.7616 1044.92 93.4314C1043.26 95.1012 1041.16 95.7074 1040.23 94.7854Z" fill="#51A755"/>
</g>
<path d="M1043.68 94.9979C1044.22 94.6862 1044.75 94.2749 1045.26 93.7687C1046.12 92.9055 1046.75 91.8998 1047.02 90.9366C1047.33 89.8762 1047.18 88.9756 1046.6 88.4027C1045.47 87.2767 1043.12 87.8723 1041.23 89.757C1039.35 91.6416 1038.76 93.9992 1039.89 95.1252C1040.72 95.9472 1042.2 95.8487 1043.68 94.9979ZM1043.3 89.3643C1044.33 88.7703 1045.39 88.5465 1045.93 89.0765C1046.24 89.3901 1046.31 89.9718 1046.1 90.6734C1045.87 91.483 1045.33 92.3439 1044.58 93.0942C1043.31 94.3643 1041.35 95.2316 1040.57 94.447C1039.78 93.661 1040.64 91.6986 1041.91 90.4293C1042.32 90.0178 1042.8 89.6489 1043.3 89.3643Z" fill="#009245"/>
<path d="M1007.4 56.5391C1007.4 56.5391 999.082 63.3033 982.603 50.6828L978.733 55.2778C978.733 55.2778 993.73 67.0601 1004.09 61.4462C1004.09 61.4448 1005.87 57.6426 1007.4 56.5391Z" fill="#009245"/>
<path d="M1006.21 57.8812C1006.21 57.8812 1010.48 66.3711 1039.96 92.6243C1039.96 92.6243 1039.45 93.8856 1040.23 94.787L1003.64 60.923L1006.21 57.8812Z" fill="#009245"/>
</g>
<g clip-path="url(#clip1)">
<path d="M836.225 524.597C833.387 524.173 833.211 520.031 831.167 518.019C829.153 516.039 825.156 517.006 824.271 519.686C824.163 520.013 824.094 520.369 824.181 520.703C824.285 521.112 824.594 521.436 824.897 521.73C827.311 524.101 829.948 526.246 832.764 528.121C833.243 529.99 832.218 531.922 830.948 533.377C829.678 534.829 828.113 536.058 827.159 537.735C825.544 540.57 825.976 544.073 825.436 547.288C824.296 554.11 820.209 558.96 817.907 565.291C816.924 567.989 816.554 570.874 816.331 573.737C815.385 585.887 816.986 598.231 821 609.742C822.184 613.134 823.62 616.525 826.019 619.198C828.012 621.415 830.581 623.035 833.229 624.407C836.492 626.099 840.021 627.526 842.525 630.209C843.507 631.258 844.327 632.498 845.543 633.267C846.759 634.032 848.579 634.136 849.468 633.008C849.759 632.638 849.914 632.185 850.119 631.761C850.9 630.141 852.364 628.977 853.706 627.774C862.764 619.654 867.736 607.195 866.743 595.081C870.78 596.913 876.054 596.927 880.482 596.762C887.426 596.503 894.43 596.5 901.247 597.825C904.672 598.49 908.13 599.496 911.587 599.033C915.044 598.569 918.559 596.097 918.814 592.623C919.052 589.354 916.472 586.634 915.278 583.577C914.155 580.703 914.278 577.52 913.968 574.452C913.389 568.686 911.256 563.207 909.148 557.807C907.532 553.669 905.845 549.418 902.78 546.199C900.283 543.573 896.988 541.763 894.718 538.942C892.844 536.614 891.718 533.654 889.394 531.772C887.958 530.611 886.188 529.964 884.451 529.339C878.09 527.044 871.607 524.726 864.851 524.414C861.653 524.267 858.422 524.572 855.253 524.101C851.63 523.562 848.216 522.028 844.597 521.454C840.988 520.879 838.423 521.669 836.225 524.597Z" fill="#FFD6A5"/>
<g opacity="0.5">
<g opacity="0.5">
<g opacity="0.5">
<path opacity="0.5" d="M841.921 537.081C842.705 534.671 845.029 533.015 847.479 532.364C849.932 531.718 852.519 531.922 855.041 532.192C859.516 532.67 863.974 533.345 868.391 534.211C869.737 534.473 871.089 534.757 872.356 535.289C874.133 536.032 875.676 537.232 877.374 538.141C880.019 539.557 883.008 540.243 885.638 541.68C887.94 542.937 889.491 544.816 891.502 546.372C893.732 548.096 895.258 550.816 897.114 552.982C900.715 557.182 903.748 561.242 904.385 566.746C904.64 568.948 904.626 571.215 904 573.345C903.449 575.217 902.446 576.92 901.73 578.738C901.025 580.527 900.579 582.463 899.449 584.023C898.629 585.158 897.485 586.027 896.265 586.717C890.304 590.091 882.897 589.257 876.216 587.719C872.122 586.778 867.862 585.485 864.995 582.417C866.092 586.854 867.384 591.244 868.873 595.566C874.691 595.594 880.353 598.282 886.138 597.653C888.498 597.398 890.775 596.593 893.139 596.414C897.204 596.105 901.147 597.642 905.115 598.598C909.08 599.55 913.634 599.809 916.868 597.326C917.631 596.741 918.304 595.997 918.667 595.106C919.315 593.514 918.908 591.7 918.347 590.076C916.505 584.73 913.109 579.977 911.673 574.506C910.878 571.481 910.709 568.323 910.062 565.262C909.522 562.704 908.648 560.225 907.777 557.757C905.068 550.069 898.841 542.373 893.099 536.697C888.843 532.49 883.843 528.88 878.133 527.072C872.971 525.434 867.47 525.33 862.106 524.568C857.203 523.871 852.4 522.621 847.587 521.472C846.507 521.213 845.399 520.958 844.295 521.062C843.093 521.173 841.967 521.705 840.917 522.298C837.301 524.324 834.028 527.41 832.948 531.412C834.384 531.621 835.65 532.436 836.866 533.23C838.913 534.57 840.956 535.91 843.003 537.25" fill="#51A755"/>
</g>
</g>
</g>
<g opacity="0.5">
<g opacity="0.5">
<g opacity="0.5">
<path opacity="0.5" d="M832.509 527.773C832.535 528.035 832.589 528.355 832.84 528.434C832.97 528.474 833.11 528.43 833.236 528.384C834.377 527.96 835.409 527.245 836.204 526.322C836.395 526.102 836.578 525.851 836.603 525.564C836.65 525.064 836.236 524.655 835.859 524.324C833.779 522.528 831.7 520.728 829.617 518.932C829.559 518.881 829.495 518.827 829.419 518.824C829.308 518.817 829.214 518.906 829.142 518.993C827.354 521.062 829.268 521.382 830.599 523.067C831.664 524.407 832.351 526.059 832.509 527.773Z" fill="#51A755"/>
</g>
</g>
</g>
<g opacity="0.5">
<g opacity="0.5">
<g opacity="0.5">
<path opacity="0.5" d="M836.214 533.496C836.214 533.496 830.951 563.512 833.621 580.735C836.294 597.958 843.381 625.801 850.565 629.767C850.565 629.767 872.301 618.63 865.772 585.991C859.242 553.352 844.992 546.886 844.992 546.886C844.992 546.886 843.726 534.358 836.214 533.496Z" fill="#FCADAD"/>
</g>
</g>
</g>
<path d="M787.827 640.481C787.065 641.878 786.356 643.463 786.726 645.011C787.072 646.455 788.266 647.508 789.209 648.661C792.929 653.209 793.029 660.021 797.048 664.311C801.135 668.672 807.869 669.017 813.838 668.64C841.175 666.926 867.124 656.561 892.527 646.322C896.484 644.727 900.456 643.125 904.176 641.041C906.733 639.608 909.169 637.944 911.838 636.73C915.922 634.869 918.936 633.752 922.904 631.657C928.873 628.506 934.528 623.013 940.288 619.489C944.144 617.129 948.688 615.835 952.059 612.821C954.836 610.339 956.57 606.897 959.157 604.217C962.154 601.113 966.625 598.26 966.259 593.963C965.985 590.73 963.899 586.132 961.959 583.527C958.171 578.44 957.106 573.338 952.232 569.279C949.303 566.839 945.281 566.221 941.471 566.049C930.977 565.571 920.372 567.802 910.964 572.465C913.303 577.423 915.328 582.528 917.022 587.737C917.746 589.958 918.404 592.393 917.569 594.574C916.235 598.059 911.734 599.173 908.036 598.623C904.337 598.073 900.837 596.385 897.099 596.266C894.732 596.191 892.397 596.755 890.055 597.129C882.356 598.357 874.338 597.517 867.063 594.718C866.768 601.58 866.067 608.539 863.466 614.894C860.865 621.249 856.123 627.001 849.709 629.469C850.907 630.385 849.953 632.53 848.482 632.875C847.011 633.22 845.536 632.422 844.258 631.621C839.909 628.887 835.847 625.701 832.145 622.14C830.242 620.308 828.433 618.379 826.731 616.36C825.584 614.998 823.957 611.636 822.213 611.071C819.284 610.127 812.478 616.216 810.136 617.822C805.955 620.689 801.904 623.775 798.224 627.271C794.152 631.143 790.533 635.53 787.827 640.481Z" fill="#9BF6FF"/>
<path d="M850.258 631.248L849.111 629.423C854.619 625.977 867.282 615.799 865.904 595.824C865.134 584.687 862.389 574.265 857.745 564.849C854.068 557.394 850.215 552.727 848.517 551.147C844.981 547.849 844.373 546.584 842.534 540.954C841.067 536.453 838.296 534.987 836.231 534.552L836.678 532.443C841.678 533.5 843.776 537.814 844.585 540.29C846.351 545.704 846.765 546.57 849.985 549.573C854.41 553.697 866.282 570.019 868.052 595.681C869.52 616.812 856.097 627.594 850.258 631.248Z" fill="#009245"/>
<path d="M847.367 634.819C845.489 634.819 844.409 633.335 843.963 632.218C838.826 629.778 831.649 625.255 825.788 617.351C819.673 609.103 816.269 598.95 815.676 587.177C814.794 569.702 818.878 560.821 821.856 554.337C823.565 550.622 824.914 547.687 824.99 544.202C825.116 538.479 827.576 535.537 829.616 534.071L830.875 535.82C828.487 537.534 827.235 540.369 827.148 544.249C827.062 548.175 825.558 551.448 823.817 555.235C820.77 561.867 816.974 570.123 817.831 587.066C819.212 614.398 835.628 625.984 845.291 630.457L845.755 630.673L845.881 631.169C845.895 631.226 846.32 632.728 847.456 632.659C848.19 632.613 848.421 632.318 848.496 632.221C848.831 631.786 848.834 631.043 848.795 630.64C826.209 596.884 831.728 551.208 835.153 533.112L837.275 533.514C833.89 551.387 828.425 596.528 850.727 629.642L850.845 629.818L850.889 630.026C850.932 630.238 851.281 632.139 850.219 633.525C849.809 634.064 849.018 634.722 847.6 634.811C847.518 634.819 847.442 634.819 847.367 634.819Z" fill="#009245"/>
<path d="M844.107 632.275C833.861 617.678 827.986 599.27 826.648 577.56C825.565 559.988 827.702 543.994 829.688 533.665C829.85 532.591 830.721 530.543 832.908 530.306C834.419 530.141 835.815 530.586 836.639 531.491C837.214 532.127 837.441 532.918 837.272 533.719L835.16 533.273C835.171 533.223 835.196 533.108 835.038 532.936C834.75 532.619 834.052 532.346 833.142 532.443C832.037 532.562 831.825 533.974 831.821 533.988L831.814 534.042C829.85 544.249 827.735 560.06 828.807 577.423C830.12 598.731 835.865 616.769 845.881 631.036L844.107 632.275Z" fill="#009245"/>
<path d="M909.928 600.452C906.877 600.452 903.6 599.679 901.053 597.951C899.495 596.895 896.171 597.358 892.322 597.894C885.472 598.849 876.086 600.153 866.347 595.041L867.351 593.133C876.474 597.922 885.461 596.672 892.023 595.76C896.491 595.138 900.02 594.646 902.265 596.169C904.348 597.585 907.287 598.357 910.335 598.289C913.04 598.228 915.425 597.466 916.404 596.349C918.22 594.283 918.08 589.131 915.173 585.323C911.885 581.012 910.489 570.123 910.432 569.663C907.899 543.192 879.529 525.265 866.3 526.357C858.609 526.997 853.547 525.344 849.478 524.019C846.021 522.891 843.521 522.075 840.808 523.142C837.031 524.626 834.57 529.293 834.099 531.98L831.973 531.606C832.545 528.348 835.419 522.941 840.02 521.13C843.456 519.779 846.557 520.792 850.151 521.964C854.036 523.232 858.868 524.805 866.124 524.205C873.776 523.57 884.684 528.244 893.915 536.111C900.207 541.475 911 552.932 912.579 569.422C912.59 569.498 913.954 580.164 916.893 584.015C920.224 588.38 920.742 594.678 918.026 597.768C916.533 599.467 913.374 600.452 909.928 600.452Z" fill="#009245"/>
<path d="M884.442 589.749C877.485 589.749 870.023 587.569 864.436 583.441L865.721 581.709C874.341 588.079 888.27 589.48 896.135 584.773C901.578 581.515 903.855 575.709 902.718 567.989C902.006 563.16 898.966 553.622 886.612 543.997C879.05 538.105 870.031 534.164 864.685 534.394C857.889 534.692 852.111 533.582 850.5 533.234C848.909 532.889 847.251 533.252 845.952 534.229C844.675 535.188 843.884 536.643 843.772 538.224C843.761 538.375 843.761 538.468 843.761 538.49L841.603 538.522C841.603 538.522 841.599 538.36 841.617 538.077C841.768 535.871 842.876 533.841 844.654 532.504C846.456 531.154 848.751 530.651 850.953 531.128C852.5 531.463 858.047 532.533 864.584 532.242C876.046 531.743 901.919 547.816 904.848 567.68C906.459 578.612 901.599 584.015 897.239 586.627C893.721 588.729 889.198 589.749 884.442 589.749Z" fill="#009245"/>
<path d="M916.796 598.44C912.091 597.94 900.078 587.766 897.715 585.729L899.104 584.08L899.125 584.098C905.687 589.756 914.087 595.986 917.023 596.295L916.796 598.44Z" fill="#009245"/>
<path d="M918.595 595.558C917.937 595.558 916.444 595.002 908.626 589.045C904.464 585.873 900.442 582.636 900.402 582.6L901.759 580.922C909.058 586.807 917.404 593.083 918.743 593.403C918.743 593.403 918.667 593.385 918.548 593.399L918.8 595.54C918.739 595.551 918.674 595.558 918.595 595.558Z" fill="#009245"/>
<path d="M833.757 529.314C833.447 529.149 826.173 525.211 823.989 522.697L825.619 521.285C827.216 523.128 832.774 526.336 834.778 527.417L833.757 529.314Z" fill="#009245"/>
<path d="M836.293 526.228C833.922 525.689 829.832 519.715 828.634 517.897L830.436 516.711C832.67 520.106 835.75 523.893 836.771 524.126L836.293 526.228Z" fill="#009245"/>
<path d="M825.364 523.433C824.749 523.433 824.216 523.235 823.828 522.819C822.756 521.683 823.367 519.553 825.281 517.753C827.195 515.957 829.361 515.475 830.433 516.611C830.778 516.981 831.275 517.814 830.695 519.273C830.372 520.085 829.764 520.94 828.976 521.676C827.76 522.822 826.44 523.433 825.364 523.433ZM828.789 518.156C828.418 518.202 827.623 518.515 826.76 519.323C825.9 520.131 825.54 520.907 825.468 521.274C825.839 521.227 826.634 520.915 827.497 520.106C828.361 519.298 828.72 518.522 828.789 518.156Z" fill="#009245"/>
<path d="M851.18 544.155C847.798 538.921 848.989 535.752 850 534.33C850.942 533.004 852.917 532.253 854.407 531.858L854.961 533.942C853.389 534.358 852.191 534.969 851.759 535.576C850.079 537.94 852.061 541.547 852.993 542.984L851.18 544.155Z" fill="#009245"/>
<path d="M848.396 548.014L846.291 547.543C846.615 546.102 847.633 544.788 849.399 543.523C853.364 540.688 859.796 538.766 864.872 542.686L863.552 544.392C859.411 541.199 854.019 542.873 850.655 545.276C849.353 546.203 848.593 547.126 848.396 548.014Z" fill="#009245"/>
<path d="M864.491 548.962C863.229 546.81 862.009 541.831 866.427 538.378C872.996 533.241 879.878 537.135 880.17 537.304L879.083 539.169C878.846 539.032 873.158 535.856 867.758 540.078C863.704 543.246 866.243 547.687 866.355 547.874L864.491 548.962Z" fill="#009245"/>
<path d="M875.187 555.677C875.119 555.609 868.445 548.851 861.574 549.393C858.419 549.641 855.649 551.423 853.339 554.689L851.576 553.446C854.274 549.63 857.584 547.543 861.412 547.245C869.298 546.631 876.435 553.87 876.734 554.179L875.187 555.677L875.96 554.926L875.187 555.677Z" fill="#009245"/>
<path d="M868.174 574.851C866.89 574.851 865.501 574.448 864.141 573.658C861.112 571.894 858.993 568.765 858.871 565.873C858.835 565.054 858.911 564.209 859.094 563.361C859.756 560.283 862.296 557.732 865.721 556.701C869.038 555.702 872.761 556.126 876.564 557.843C872.527 552.224 871.786 547.349 874.43 543.728C876.981 540.229 882.162 539.284 886.741 541.486C890.871 543.469 894.541 548.29 892.465 555.871L890.382 555.303C892.555 547.367 887.428 544.209 885.806 543.43C882.223 541.709 878.082 542.384 876.175 545C872.24 550.399 879.546 558.58 883.27 562.183C883.968 562.772 884.658 563.401 885.342 564.073L886.076 564.791L884.712 566.329L883.903 565.679C883.885 565.664 882.924 564.881 881.575 563.573C874.143 557.398 868.534 558.109 866.34 558.767C863.667 559.571 861.695 561.504 861.202 563.814C861.058 564.486 861.001 565.147 861.026 565.783C861.116 567.938 862.843 570.41 865.224 571.797C866.872 572.756 868.484 572.961 869.653 572.361L870.639 574.279C869.894 574.664 869.056 574.851 868.174 574.851Z" fill="#009245"/>
<path d="M877.802 588.564C877.457 588.564 877.09 588.538 876.694 588.481C876.269 588.538 875.622 588.459 874.629 588.082C873.596 587.691 871.65 586.699 870.215 584.486C868.707 582.158 868.161 579.133 868.592 575.497C868.992 572.149 870.377 569.534 872.719 567.726C877.151 564.303 883.36 565.1 883.425 565.111C884.828 565.301 890.235 568.52 890.793 576.047L888.641 576.205C888.185 570.019 883.932 567.482 883.108 567.241C882.677 567.195 877.572 566.706 874.043 569.429C872.179 570.87 871.067 572.997 870.74 575.749C870.305 579.406 870.967 582.248 872.701 584.195C873.938 585.582 875.392 586.117 876.086 586.279L876.136 586.203L876.809 586.315C879.119 586.699 879.845 585.855 881.292 584.173C881.659 583.746 882.076 583.265 882.547 582.772L884.098 584.27C883.67 584.712 883.292 585.151 882.928 585.575C881.619 587.109 880.367 588.564 877.802 588.564Z" fill="#009245"/>
<path d="M900.891 569.523L899.269 568.1C900.751 566.415 900.449 561.95 898.625 558.551C897.581 556.607 896.279 555.54 895.139 555.691C892.16 556.09 889.929 557.272 888.505 559.205C885.958 562.665 886.735 567.407 886.745 567.457L884.619 567.82C884.58 567.59 883.684 562.115 886.771 557.93C888.555 555.504 891.278 554.032 894.858 553.554C896.955 553.273 899.024 554.721 900.531 557.531C902.51 561.238 903.215 566.875 900.891 569.523Z" fill="#009245"/>
<path d="M891.538 588.291C887.102 588.291 883.461 585.7 883.292 585.578L883.134 585.463L883.026 585.302C882.975 585.23 881.828 583.477 882.407 580.911C883.022 578.181 885.285 575.63 889.134 573.331L889.89 572.878L895.639 579.169C897.189 580.509 897.794 582.56 897.218 584.54C896.643 586.516 895.027 587.913 892.998 588.19C892.509 588.258 892.02 588.291 891.538 588.291ZM884.742 583.954C885.566 584.49 889.03 586.559 892.71 586.056C893.898 585.894 894.811 585.104 895.15 583.944C895.416 583.024 895.308 581.709 894.196 580.771L894.095 580.674L889.498 575.648C886.667 577.477 884.951 579.453 884.515 581.389C884.227 582.675 884.576 583.606 884.742 583.954Z" fill="#009245"/>
<path d="M897.908 583.893C896.876 583.893 896.074 583.606 895.94 583.556L896.699 581.536C896.714 581.54 897.984 581.996 899.027 581.508C899.588 581.245 899.998 580.746 900.275 579.984C901.387 576.916 900.416 571.905 898.39 569.889C896.761 569.914 893.282 570.292 891.667 571.908C891.041 572.537 890.749 573.295 890.774 574.229L888.616 574.29C888.573 572.753 889.087 571.438 890.141 570.381C892.918 567.608 898.595 567.73 898.836 567.737L899.207 567.748L899.495 567.985C902.43 570.41 903.797 576.6 902.304 580.721C901.826 582.039 901.024 582.966 899.919 583.476C899.225 583.789 898.527 583.893 897.908 583.893Z" fill="#009245"/>
<path d="M901.352 570.985L899.269 570.417C899.305 570.284 899.661 569.084 900.905 568.463C901.895 567.967 903.096 567.992 904.481 568.538L903.69 570.543C902.909 570.238 902.28 570.184 901.87 570.389C901.492 570.583 901.352 570.981 901.352 570.985Z" fill="#009245"/>
<path d="M801.182 651.557C791.443 651.557 787.756 648.841 786.536 646.063C784.78 642.069 787.335 636.604 794.13 629.818C800.361 623.592 810.003 616.46 822.011 609.192L823.13 611.035C799.314 625.445 785.727 638.857 788.515 645.194C792.432 654.111 829.994 649.035 879.669 627.271C929.344 605.506 958.521 581.342 954.603 572.426C952.049 566.616 935.788 566.846 912.155 573.029L911.608 570.945C923.664 567.791 952.174 561.54 956.578 571.56C958.348 575.591 956.506 583.347 937.662 597.391C923.34 608.064 903.05 619.378 880.533 629.243C858.012 639.108 835.938 646.358 818.374 649.653C811.197 651.003 805.574 651.557 801.182 651.557Z" fill="#009245"/>
<path d="M811.075 671C801.337 671 797.653 668.284 796.43 665.507L798.405 664.641C800.405 669.193 811.421 670.069 827.872 666.983C845.281 663.718 867.186 656.522 889.56 646.717C911.933 636.917 932.072 625.69 946.264 615.109C959.679 605.111 966.493 596.424 964.493 591.872L966.468 591.007C968.238 595.038 966.396 602.794 947.556 616.838C933.234 627.511 912.944 638.824 890.427 648.69C867.906 658.555 845.831 665.805 828.268 669.099C821.087 670.447 815.464 671 811.075 671Z" fill="#009245"/>
<path d="M788.493 645.137L786.568 646.113L796.461 665.554L798.385 664.578L788.493 645.137Z" fill="#009245"/>
<path d="M956.552 571.498L954.628 572.475L964.52 591.916L966.444 590.94L956.552 571.498Z" fill="#009245"/>
<path d="M800.601 649.942L798.678 650.921L808.23 669.632L810.153 668.653L800.601 649.942Z" fill="#009245"/>
<path d="M825.677 646.74L823.754 647.719L833.676 667.154L835.599 666.175L825.677 646.74Z" fill="#009245"/>
<path d="M849.023 640.164L847.1 641.143L857.005 660.545L858.928 659.566L849.023 640.164Z" fill="#009245"/>
<path d="M871.469 631.82L869.546 632.799L879.466 652.23L881.389 651.251L871.469 631.82Z" fill="#009245"/>
<path d="M893.548 622.785L891.625 623.764L901.231 642.584L903.154 641.605L893.548 622.785Z" fill="#009245"/>
<path d="M914.355 611.198L912.432 612.177L921.946 630.815L923.87 629.836L914.355 611.198Z" fill="#009245"/>
<path d="M934.58 598.498L932.657 599.477L942.574 618.901L944.497 617.922L934.58 598.498Z" fill="#009245"/>
<path d="M953.389 583.029L951.466 584.008L961.004 602.69L962.927 601.711L953.389 583.029Z" fill="#009245"/>
</g>
<path d="M40.9251 294.79L44.8312 290.897L63.2272 295.608C63.2272 295.608 72.1918 299.196 66.176 332.059C60.1573 364.919 51.1484 392.881 39.823 405.629C39.823 405.629 37.2967 412.007 30.2083 411.764C23.12 411.522 13.4521 407.095 13.4521 407.095L38.5878 364.821L52.3037 312.603L48.4094 298.635L40.9251 294.79Z" fill="#FDFFB6"/>
<path d="M44.8945 353.222C53.755 321.038 54.4793 293.168 46.5123 290.974C38.5453 288.779 24.9039 313.09 16.0434 345.274C7.18286 377.458 6.45854 405.328 14.4255 407.522C22.3926 409.717 36.034 385.406 44.8945 353.222Z" fill="#FDFFB6"/>
<path d="M15.4818 408.555C15.0238 408.555 14.6043 408.493 14.2172 408.387C11.1857 407.55 7.65778 403.274 8.06553 387.63C8.37282 375.802 10.9139 360.681 15.2159 345.046C19.5209 329.414 25.0788 315.121 30.87 304.806C38.5286 291.161 43.7467 289.293 46.7782 290.129C49.8098 290.966 53.3376 295.242 52.9299 310.886C52.6226 322.714 50.0816 337.835 45.7795 353.47C41.4745 369.102 35.9167 383.395 30.1254 393.709C23.4448 405.617 18.6168 408.555 15.4818 408.555ZM45.5166 291.734C43.6935 291.734 41.7079 293.265 40.2838 294.651C37.8195 297.054 35.1721 300.763 32.4153 305.675C26.695 315.872 21.1933 330.02 16.9267 345.519C7.46868 379.866 8.13347 404.873 14.69 406.678C14.95 406.749 15.2218 406.785 15.5025 406.785C22.3013 406.785 34.9918 385.981 44.0717 352.997C48.3383 337.498 50.8557 322.525 51.16 310.839C51.3078 305.205 50.9295 300.666 50.0431 297.338C49.4551 295.136 48.3294 292.393 46.3084 291.838C46.0484 291.767 45.7854 291.734 45.5166 291.734Z" fill="#51A755"/>
<g opacity="0.5">
<path opacity="0.5" d="M39.3361 351.267C45.5606 328.657 46.0688 309.079 40.4712 307.537C34.8736 305.995 25.2899 323.073 19.0654 345.683C12.8409 368.292 12.3327 387.871 17.9303 389.413C23.5279 390.955 33.1116 373.876 39.3361 351.267Z" fill="#51A755"/>
</g>
<path d="M18.6936 390.407C18.3686 390.407 18.0465 390.366 17.7245 390.277C13.7031 389.169 13.0471 381.594 13.2097 375.434C13.4253 367.105 15.213 356.459 18.2445 345.456C21.2731 334.452 25.1881 324.392 29.2656 317.127C32.2824 311.754 36.7173 305.58 40.7417 306.691C44.763 307.799 45.419 315.374 45.2565 321.534C45.0408 329.862 43.2532 340.508 40.2216 351.512C37.1901 362.515 33.2781 372.576 29.2006 379.841C26.4261 384.786 22.4432 390.407 18.6936 390.407ZM39.7548 308.331C35.178 308.331 26.2134 323.186 19.9494 345.926C16.9562 356.793 15.1923 367.289 14.9795 375.479C14.7816 383.065 15.9842 387.957 18.1943 388.566C18.3568 388.61 18.5252 388.634 18.6995 388.634C20.9215 388.634 24.2101 385.105 27.6523 378.972C31.6619 371.828 35.5178 361.91 38.5109 351.042C41.504 340.174 43.268 329.679 43.4807 321.489C43.6787 313.902 42.4761 309.011 40.266 308.402C40.1035 308.355 39.9321 308.331 39.7548 308.331Z" fill="#51A755"/>
<path d="M31.2368 412.787C30.7788 412.787 30.3592 412.725 29.9722 412.618L14.2236 408.386L14.6846 406.675L30.439 410.907C30.699 410.978 30.9709 411.014 31.2516 411.014C38.0533 411.016 50.7436 390.212 59.8264 357.225C64.0929 341.726 66.6103 326.754 66.9147 315.067C67.0624 309.434 66.6842 304.894 65.7978 301.566C65.2098 299.364 64.0841 296.622 62.0631 296.066L46.3146 291.834L46.7755 290.122L62.5299 294.355C65.5673 295.191 69.0952 299.471 68.6875 315.112C68.3802 326.94 65.8392 342.06 61.5371 357.695C57.2322 373.327 51.6744 387.62 45.8832 397.935C39.1997 409.849 34.3717 412.787 31.2368 412.787Z" fill="#51A755"/>
<path d="M20.577 404.56L20.1455 406.28L36.1479 410.297L36.5794 408.577L20.577 404.56Z" fill="#51A755"/>
<path d="M25.7665 398.561L25.335 400.281L41.2545 404.278L41.686 402.558L25.7665 398.561Z" fill="#51A755"/>
<path d="M29.6297 392.234L29.1982 393.954L45.1173 397.951L45.5488 396.231L29.6297 392.234Z" fill="#51A755"/>
<path d="M33.0116 385.781L32.5801 387.501L48.4534 391.486L48.8849 389.766L33.0116 385.781Z" fill="#51A755"/>
<path d="M38.6083 372.59L38.1768 374.31L54.0273 378.288L54.4588 376.568L38.6083 372.59Z" fill="#51A755"/>
<path d="M41.0057 365.893L40.5742 367.613L56.4159 371.59L56.8474 369.87L41.0057 365.893Z" fill="#51A755"/>
<path d="M42.911 359.071L42.4795 360.791L58.5878 364.834L59.0193 363.114L42.911 359.071Z" fill="#51A755"/>
<path d="M45.1639 352.339L44.7324 354.059L60.5599 358.032L60.9914 356.312L45.1639 352.339Z" fill="#51A755"/>
<path d="M46.9393 345.485L46.5078 347.205L62.3268 351.176L62.7583 349.456L46.9393 345.485Z" fill="#51A755"/>
<path d="M48.5145 338.579L48.083 340.299L63.8927 344.268L64.3241 342.548L48.5145 338.579Z" fill="#51A755"/>
<path d="M49.5624 331.541L49.1309 333.261L64.8751 337.214L65.3066 335.494L49.5624 331.541Z" fill="#51A755"/>
<path d="M50.9881 324.602L50.5566 326.322L66.3466 330.286L66.7781 328.566L50.9881 324.602Z" fill="#51A755"/>
<path d="M35.952 379.222L35.5205 380.941L51.3847 384.924L51.8162 383.204L35.952 379.222Z" fill="#51A755"/>
<path d="M51.8046 317.506L51.373 319.226L67.1528 323.187L67.5844 321.467L51.8046 317.506Z" fill="#51A755"/>
<path d="M52.2235 310.316L51.792 312.036L67.5915 316.001L68.023 314.282L52.2235 310.316Z" fill="#51A755"/>
<path d="M52.1405 302.995L51.709 304.715L67.4416 308.664L67.8731 306.944L52.1405 302.995Z" fill="#51A755"/>
<path d="M50.8504 295.375L50.4189 297.095L66.0774 301.026L66.5089 299.306L50.8504 295.375Z" fill="#51A755"/>
<defs>
<clipPath id="clip0">
<rect width="46.9214" height="106.291" fill="white" transform="matrix(-0.866025 0.5 0.5 0.866025 995.635 0)"/>
</clipPath>
<clipPath id="clip1">
<rect width="181" height="155" fill="white" transform="translate(786 516)"/>
</clipPath>
</defs>
</svg>
