<svg width="362" height="352" viewBox="0 0 362 352" fill="none" xmlns="http://www.w3.org/2000/svg">
<path d="M65.1247 133.305L50.3659 137.144L45.6019 179.801C45.6019 179.801 44.4376 201.569 117.513 220.283C190.589 238.998 256.47 246.951 293.365 235.779C293.365 235.779 308.838 236.631 315.08 221.862C321.319 207.102 321.434 183.1 321.434 183.1L210.897 194.683L90.828 173.459L65.9041 152.275L65.1247 133.305Z" fill="#FDC6FF"/>
<path d="M321.347 185.554C324.42 167.146 266.604 142.299 192.211 130.055C117.817 117.811 55.0179 122.808 51.9443 141.216C48.8706 159.623 106.687 184.471 181.08 196.714C255.473 208.958 318.273 203.961 321.347 185.554Z" fill="#FDC6FF"/>
<path d="M321.347 185.554C324.42 167.146 266.604 142.299 192.211 130.055C117.817 117.811 55.0179 122.808 51.9443 141.216C48.8706 159.623 106.687 184.471 181.08 196.714C255.473 208.958 318.273 203.961 321.347 185.554Z" stroke="#51A755" stroke-width="3.08303" stroke-miterlimit="10"/>
<path opacity="0.5" d="M280.892 175.632C283.052 162.699 242.436 145.242 190.175 136.641C137.913 128.04 93.7963 131.552 91.6367 144.485C89.4772 157.417 130.093 174.874 182.354 183.475C234.616 192.076 278.732 188.565 280.892 175.632Z" fill="#51A755"/>
<path d="M280.892 175.632C283.052 162.699 242.436 145.242 190.175 136.641C137.913 128.04 93.7963 131.552 91.6367 144.485C89.4772 157.417 130.093 174.874 182.354 183.475C234.616 192.076 278.732 188.565 280.892 175.632Z" stroke="#51A755" stroke-width="3.08303" stroke-miterlimit="10"/>
<path d="M98.1314 214.137C73.3164 213.552 55.1671 220.518 53.8527 228.382C51.4191 242.955 97.1971 262.637 156.107 272.331C215.011 282.028 264.739 278.074 267.175 263.492C268.39 256.203 257.557 247.641 239.049 239.687" stroke="#51A755" stroke-width="3.08303" stroke-miterlimit="10"/>
<path d="M98.1314 214.137C73.3164 213.552 55.1671 220.518 53.8527 228.382C51.4191 242.955 97.1971 262.637 156.107 272.331C215.011 282.028 264.739 278.074 267.175 263.492C268.39 256.203 257.557 247.641 239.049 239.687" stroke="#51A755" stroke-width="3.08303" stroke-miterlimit="10"/>
<path d="M98.1314 214.137C73.3164 213.552 55.1671 220.518 53.8527 228.382C51.4191 242.955 97.1971 262.637 156.107 272.331C215.011 282.028 264.739 278.074 267.175 263.492C268.39 256.203 257.557 247.641 239.049 239.687" stroke="#51A755" stroke-width="3.08303" stroke-miterlimit="10"/>
<path d="M101.717 260.365C91.7825 261.559 85.4655 264.188 84.814 268.088C83.3572 276.805 110.733 288.567 145.956 294.37C181.179 300.173 210.913 297.801 212.37 289.085C212.987 285.396 208.45 281.17 200.345 277.078" stroke="#51A755" stroke-width="3.08303" stroke-miterlimit="10"/>
<path opacity="0.5" d="M200.341 277.073C208.446 281.165 212.981 285.399 212.366 289.08C210.909 297.797 181.177 300.16 145.952 294.365C110.727 288.57 83.3535 276.8 84.8103 268.083C85.4618 264.183 91.7788 261.554 101.713 260.36L161.384 273.16" fill="#51A755"/>
<path d="M51.9768 141.222L45.6777 177.522C42.604 195.932 100.418 220.781 174.808 233.027C249.198 245.272 312.002 240.274 315.078 221.869L321.378 185.57" stroke="#51A755" stroke-width="3.08303" stroke-miterlimit="10"/>
<path d="M311.354 195.649L304.376 232.252" stroke="#51A755" stroke-width="3.08303" stroke-miterlimit="10"/>
<path d="M294.129 200.63L287.19 237.04" stroke="#51A755" stroke-width="3.08303" stroke-miterlimit="10"/>
<path d="M277.482 202.557L270.541 238.975" stroke="#51A755" stroke-width="3.08303" stroke-miterlimit="10"/>
<path d="M261.054 203.401L254.132 239.709" stroke="#51A755" stroke-width="3.08303" stroke-miterlimit="10"/>
<path d="M228.69 202.398L221.776 238.651" stroke="#51A755" stroke-width="3.08303" stroke-miterlimit="10"/>
<path d="M212.683 200.987L205.774 237.224" stroke="#51A755" stroke-width="3.08303" stroke-miterlimit="10"/>
<path d="M196.887 198.449L189.865 235.296" stroke="#51A755" stroke-width="3.08303" stroke-miterlimit="10"/>
<path d="M180.945 196.698L174.045 232.901" stroke="#51A755" stroke-width="3.08303" stroke-miterlimit="10"/>
<path d="M165.213 193.876L158.313 230.058" stroke="#51A755" stroke-width="3.08303" stroke-miterlimit="10"/>
<path d="M149.56 190.586L142.67 226.748" stroke="#51A755" stroke-width="3.08303" stroke-miterlimit="10"/>
<path d="M134.147 186.084L127.278 222.093" stroke="#51A755" stroke-width="3.08303" stroke-miterlimit="10"/>
<path d="M118.561 182.44L111.679 218.556" stroke="#51A755" stroke-width="3.08303" stroke-miterlimit="10"/>
<path d="M237.889 239.51L244.804 203.227" stroke="#51A755" stroke-width="3.08303" stroke-miterlimit="10"/>
<path opacity="0.5" d="M98.8768 214.364C98.8768 214.364 191.973 243.425 237.892 239.51L239.055 239.683C257.558 247.64 268.396 256.199 267.181 263.488C264.747 278.062 215.022 282.022 156.113 272.328C97.2084 262.63 51.4253 242.952 53.8589 228.378C55.1712 220.523 73.3174 213.552 98.1376 214.133L98.8768 214.364Z" fill="#51A755"/>
<path d="M103.25 177.421L96.3654 213.509" stroke="#51A755" stroke-width="3.08303" stroke-miterlimit="10"/>
<path d="M88.1082 171.462L81.2161 207.597" stroke="#51A755" stroke-width="3.08303" stroke-miterlimit="10"/>
<path d="M73.1806 164.38L66.3171 200.364" stroke="#51A755" stroke-width="3.08303" stroke-miterlimit="10"/>
<path d="M58.7849 154.526L51.9549 190.342" stroke="#51A755" stroke-width="3.08303" stroke-miterlimit="10"/>
</svg>
