<svg width="361" height="316" viewBox="0 0 361 316" fill="none" xmlns="http://www.w3.org/2000/svg">
<path d="M141.535 164.029C127.793 165.997 93.1571 174.526 68.4021 180.831C50.2506 185.456 32.2045 172.652 30.8292 154.013C30.5807 150.649 30.5158 147.398 30.5753 144.333C30.8373 130.831 40.1319 119.178 53.2417 115.814C78.1507 109.42 119.914 98.8216 137.758 94.9131" stroke="#51A755" stroke-width="1.83722" stroke-miterlimit="10"/>
<path d="M135.2 123.249C135.2 123.249 133.911 147.616 139.112 157.679C144.311 167.741 146.181 179.537 170.925 180.574C170.925 180.574 184.429 181.267 193.078 164.717L187.661 163.582C187.661 163.582 179.263 169.439 170.925 167.226C162.587 165.013 159.258 151.91 159.258 151.91C159.258 151.91 156.886 128.933 157.767 124.92L135.2 123.249Z" fill="#FCADAD"/>
<path d="M139.812 92.8236C139.812 92.8236 150.822 77.6666 164.027 77.238C177.231 76.8094 186.939 79.1087 188.487 83.1816C190.035 87.2546 180.179 94.9126 180.179 94.9126C180.179 94.9126 168.363 109.307 166.823 113.881C165.286 118.455 162.287 125.599 155.591 125.229C148.893 124.857 133.33 124.601 131.669 122.267C130.007 119.933 126.308 117.418 130.65 107.557C134.992 97.6971 139.812 92.8236 139.812 92.8236Z" fill="#FCADAD"/>
<path d="M203.502 86.4705C194.699 70.3997 168.426 77.0685 168.426 77.0685C168.426 77.0685 184.608 77.0307 188.201 82.5997C188.201 82.5997 195.985 82.1657 200.225 86.5837L203.502 86.4705Z" fill="#FCADAD"/>
<path d="M258.989 115.628C251.164 114.472 245.62 113.881 245.62 113.881C258.054 120.084 259.867 136.624 259.867 136.624C260.386 153.937 244.326 152.387 244.326 152.387C244.326 152.387 244.326 163.242 233.704 163.242C223.083 163.242 222.048 155.49 222.048 155.49C214.796 170.992 188.374 163.757 188.374 163.757C181.436 162.056 173.071 161.592 164.281 161.894" stroke="#51A755" stroke-width="1.83722" stroke-miterlimit="10"/>
<path d="M280.729 95.8511C290.343 98.7892 299.805 102.517 308.964 107.17C308.964 107.17 318.408 111.555 316.854 117.758C316.06 120.928 310.118 127.578 291.21 122.151C285.258 120.442 278.538 118.992 272.121 117.804" stroke="#51A755" stroke-width="1.83722" stroke-miterlimit="10"/>
<path d="M187.621 87.3167C212.322 85.3921 240.225 86.0849 266.844 92.1364" stroke="#51A755" stroke-width="1.83722" stroke-miterlimit="10"/>
<path d="M155.59 125.227C158.768 125.521 161.786 123.804 163.153 120.928C166.657 113.572 174.604 99.1262 187.621 87.3144C188.94 86.1176 189.18 84.139 188.202 82.6538C187.216 81.1551 185.703 80.0796 183.96 79.6402C180.594 78.7884 174.579 77.4676 168.427 77.1226C162.512 76.791 156.652 78.4299 151.762 81.7643C145.304 86.1688 136.277 94.5276 129.835 109.364C128.449 112.558 128.452 116.124 129.744 119.221C130.678 121.464 132.778 123.009 135.199 123.246C141.621 123.877 155.59 125.227 155.59 125.227Z" stroke="#51A755" stroke-width="1.83722" stroke-miterlimit="10"/>
<path d="M129.833 109.369C129.833 109.369 129.02 112.671 131.398 113.647C133.176 114.378 146.828 115.809 153.608 116.485C155.842 116.709 157.987 115.574 159.055 113.607C162.37 107.504 170.713 93.9023 184.577 82.3977C185.415 81.7023 185.196 80.368 184.174 79.9852L181.975 79.1631" stroke="#51A755" stroke-width="1.83722" stroke-miterlimit="10"/>
<path d="M135.2 123.249C135.2 123.249 130.091 179.992 168.717 180.572C179.898 180.739 187.674 174.156 193.075 164.719" stroke="#51A755" stroke-width="1.83722" stroke-miterlimit="10"/>
<path d="M288 98.2366C288 98.2366 289.616 90.8966 283.069 89.6971C276.522 88.4976 273.972 85.7562 269.741 89.6971C265.509 93.638 258.671 100.539 258.89 113.008C258.89 113.008 256.888 121.318 262.848 123.24C268.808 125.16 273.637 126.294 276.147 124.82C278.657 123.348 281.61 120.531 281.61 120.531L279.133 118.119L273.442 119.402L274.277 107.253L280.27 96.3632L283.942 94.8429C283.942 94.8429 285.768 96.6085 286.379 96.6543C286.99 96.7028 286.379 98.746 286.379 98.746L288 98.2366Z" fill="#FCADAD"/>
<path d="M157.398 125.178C157.398 125.178 151.981 183.445 188.376 163.754" stroke="#51A755" stroke-width="1.83722" stroke-miterlimit="10"/>
<path d="M152.119 124.607C152.119 124.607 149.72 191.588 191.648 164.474" stroke="#51A755" stroke-width="1.83722" stroke-miterlimit="10"/>
<path d="M168.426 77.1251C168.426 77.1251 194.699 70.4564 203.502 86.5271" stroke="#51A755" stroke-width="1.83722" stroke-miterlimit="10"/>
<path d="M188.203 82.6562C188.203 82.6562 195.987 82.2223 200.227 86.6402" stroke="#51A755" stroke-width="1.83722" stroke-miterlimit="10"/>
<path d="M188.801 85.1602C188.822 85.0794 193.583 84.6427 197.906 86.7425" stroke="#51A755" stroke-width="1.83722" stroke-miterlimit="10"/>
<path d="M259.758 135.014C259.758 135.014 270.719 133.974 268.823 125.917C268.734 125.534 268.609 125.168 268.461 124.82" stroke="#51A755" stroke-width="1.83722" stroke-miterlimit="10"/>
<path d="M250.695 117.434C250.793 117.528 254.97 117.768 259.152 118.801" stroke="#51A755" stroke-width="1.83722" stroke-miterlimit="10"/>
<path d="M287.999 98.2363C287.999 98.2363 287.975 94.2335 286.389 91.7266C285.349 90.085 280.391 88.7265 277.092 87.9852C274.86 87.4838 272.517 87.8801 270.593 89.1173C265.86 92.1606 258.07 99.8995 258.956 117.598C259.089 120.24 261.075 122.448 263.595 123.264C266.081 124.07 269.542 124.949 273.444 125.24C276.651 125.48 279.34 123.119 282.209 119.868" stroke="#51A755" stroke-width="1.83722" stroke-miterlimit="10"/>
<path d="M286.381 97.6757C286.381 97.6757 286.208 95.2659 283.944 94.8427C280.877 94.2686 275.557 100.358 273.444 107.633C268.732 123.871 275.976 121.706 278.81 119.124" stroke="#51A755" stroke-width="1.83722" stroke-miterlimit="10"/>
<path d="M302.23 103.937C302.23 103.937 297.701 103.08 295.864 106.514C294.027 109.948 296.324 113.342 299.541 114.808C302.759 116.275 310.754 118.294 313.327 114.442C315.899 110.59 309.72 107.544 309.344 107.358" stroke="#51A755" stroke-width="1.83722" stroke-miterlimit="10"/>
<path d="M297.39 101.943L307.277 63.9571C308.355 59.8086 313.821 58.8436 316.263 62.3694L334.374 88.5107C338.478 94.4355 339.794 101.848 337.981 108.819L300.735 251.941C299.657 256.089 294.191 257.054 291.749 253.529L273.638 227.387C269.534 221.462 268.218 214.05 270.031 207.079L292.087 122.323" stroke="#51A755" stroke-width="1.83722" stroke-miterlimit="10"/>
<path opacity="0.5" d="M294.699 122.973L272.567 208.017C271.027 213.942 272.143 220.225 275.631 225.261L293.742 251.402C293.996 251.766 294.34 251.952 294.766 251.952C294.934 251.952 295.785 251.906 296.02 251L333.266 107.878C334.806 101.954 333.69 95.6703 330.202 90.635L312.091 64.4937C311.837 64.1298 311.494 63.9438 311.067 63.9438C310.9 63.9438 310.048 63.9897 309.813 64.8954L299.889 103.029C299.889 103.029 315.982 106.307 317.025 115.207C318.071 124.105 301.273 124.642 294.699 122.973Z" fill="#51A755"/>
<path d="M294.699 122.973L272.567 208.017C271.027 213.942 272.143 220.225 275.631 225.261L293.742 251.402C293.996 251.766 294.34 251.952 294.766 251.952C294.934 251.952 295.785 251.906 296.02 251L333.266 107.878C334.806 101.954 333.69 95.6703 330.202 90.635L312.091 64.4937C311.837 64.1298 311.494 63.9438 311.067 63.9438C310.9 63.9438 310.048 63.9897 309.813 64.8954L299.889 103.029" stroke="#51A755" stroke-width="1.83722" stroke-miterlimit="10"/>
<path d="M307.273 63.9548C307.273 63.9548 307.279 57.6876 319.735 55.5851C332.19 53.4826 336.989 59.9195 336.989 59.9195" stroke="#51A755" stroke-width="1.83722" stroke-miterlimit="10"/>
<path d="M336.352 59.1592C336.582 59.3856 336.798 59.6363 336.993 59.9193L355.104 86.0606C359.208 91.9854 360.524 99.3981 358.711 106.369L321.465 249.491" stroke="#51A755" stroke-width="1.83722" stroke-miterlimit="10"/>
<path d="M329.797 90.2497L328.678 94.2121C328.314 95.5033 326.601 95.7836 325.844 94.6731L315.031 78.8368C314.002 77.3273 313.694 75.4432 314.188 73.6857L315.425 69.3027" fill="#51A755"/>
<path d="M291.746 253.526C291.746 253.526 296.991 262.578 309.579 260.316C319.16 258.597 321.462 249.491 321.462 249.491" stroke="#51A755" stroke-width="1.83722" stroke-miterlimit="10"/>
<path d="M335.959 153.565L337.469 153.937C338.064 154.083 338.666 153.721 338.812 153.126L343.883 132.57C344.029 131.977 343.667 131.375 343.07 131.23L341.56 130.858C340.965 130.712 340.363 131.074 340.217 131.669L335.145 152.225C335 152.821 335.364 153.42 335.959 153.565Z" stroke="#51A755" stroke-width="1.83722" stroke-miterlimit="10"/>
<path d="M327.597 187.467L329.107 187.839C329.702 187.984 330.304 187.623 330.45 187.028L335.521 166.471C335.667 165.878 335.305 165.277 334.708 165.132L333.198 164.76C332.603 164.614 332.001 164.975 331.855 165.571L326.786 186.13C326.64 186.723 327.002 187.321 327.597 187.467Z" stroke="#51A755" stroke-width="1.83722" stroke-miterlimit="10"/>
<path d="M336.574 114.361C338.595 115.599 339.946 116.1 342.294 116.485L354.218 117.89C355.22 117.812 355.928 117.429 355.928 117.429" stroke="#51A755" stroke-width="1.83722" stroke-miterlimit="10"/>
<path d="M54.4718 270.168C45.288 271.093 31.9919 221.598 24.7696 159.619C17.5474 97.6409 19.1361 46.6467 28.32 45.7222C35.399 45.0106 44.9205 74.2625 52.2238 116.097C39.6545 119.79 30.8327 131.184 30.5788 144.333C30.5193 147.398 30.5842 150.648 30.8327 154.013C32.0054 169.927 45.3312 181.585 60.4998 181.774L60.6646 183.095C64.6013 232.326 62.2858 269.384 54.4718 270.168Z" fill="#51A755"/>
<path opacity="0.5" d="M54.0881 314.243C37.9847 315.888 16.6341 247.243 6.39657 160.921C-3.8383 74.5997 0.914381 3.28662 17.0178 1.64235C29.5277 0.364666 46.9551 55.5962 58.1356 114.561C56.4469 114.992 54.8123 115.413 53.2451 115.814C52.902 115.903 52.5616 115.995 52.2238 116.097C39.6545 119.79 30.8327 131.184 30.5787 144.333C30.5193 147.398 30.5842 150.649 30.8327 154.013C32.0054 169.927 45.3312 181.585 60.4998 181.774C62.3803 181.801 64.2906 181.65 66.209 181.308L66.2252 181.448C71.2075 250.084 67.7923 312.842 54.0881 314.243Z" fill="#51A755"/>
<path d="M54.0881 314.243C37.9847 315.888 16.6341 247.243 6.39657 160.921C-3.8383 74.5997 0.914381 3.28662 17.0178 1.64235C29.5277 0.364666 46.9551 55.5962 58.1356 114.561C56.4469 114.992 54.8123 115.413 53.2451 115.814C52.902 115.903 52.5616 115.995 52.2238 116.097C39.6545 119.79 30.8327 131.184 30.5787 144.333C30.5193 147.398 30.5842 150.649 30.8327 154.013C32.0054 169.927 45.3312 181.585 60.4998 181.774C62.3803 181.801 64.2906 181.65 66.209 181.308L66.2252 181.448C71.2075 250.084 67.7923 312.842 54.0881 314.243Z" stroke="#51A755" stroke-width="1.83722" stroke-miterlimit="10"/>
<path d="M216.738 132.631C216.738 132.631 223.817 143.599 222.242 156.285" stroke="#51A755" stroke-width="1.83722" stroke-miterlimit="10"/>
<path d="M233.359 125.254C233.359 125.254 243.648 137.912 244.324 152.387" stroke="#51A755" stroke-width="1.83722" stroke-miterlimit="10"/>
<path d="M195.764 133.944C195.764 133.944 191.93 148.107 200.225 153.034" stroke="#51A755" stroke-width="1.83722" stroke-miterlimit="10"/>
<path d="M195.108 144.46C195.108 144.46 175.981 142.724 176.832 156.288C176.986 158.743 178.921 161.978 181.663 162.533" stroke="#51A755" stroke-width="1.83722" stroke-miterlimit="10"/>
<path d="M173.636 161.892C173.655 160.794 164.909 143.389 169.756 125.046C170.359 122.766 172.158 120.99 174.455 120.429C177.057 119.795 180.583 118.326 182.863 114.933L203.495 87.1202L195.905 86.3627C195.905 86.3627 192.958 85.0662 189.837 85.0689C188.899 85.0689 164.36 112.253 162.423 123.248L157.39 125.178C157.39 125.178 155.285 152.452 164.663 162.471L173.636 161.892Z" fill="#51A755"/>
<path d="M280.728 95.8511L277.137 99.8701C271.96 106.075 272.09 116.663 272.117 117.715C272.033 117.725 271.984 117.733 271.984 117.733C271.984 117.733 272.155 120.62 274.162 120.839C275.808 121.017 277.607 120.874 278.62 119.68L285.878 120.736C280.333 113.884 286.377 97.6786 288.555 98.0938L280.728 95.8511Z" fill="#51A755"/>
<path d="M241.727 101.172C241.727 101.172 241.392 96.455 246.41 92.1367" stroke="#51A755" stroke-width="1.83722" stroke-miterlimit="10"/>
<path d="M246.408 104.671C246.408 104.671 245.906 98.4981 252.093 92.8267" stroke="#51A755" stroke-width="1.83722" stroke-miterlimit="10"/>
<path d="M231.22 120.863C231.22 120.863 230.85 115.817 236.416 113.881" stroke="#51A755" stroke-width="1.83722" stroke-miterlimit="10"/>
<path d="M207.098 156.288C207.098 156.288 213.22 158.053 215.447 156.288" stroke="#51A755" stroke-width="1.83722" stroke-miterlimit="10"/>
<path d="M217.672 127.68C217.672 127.68 218.599 124.119 224.724 123.771" stroke="#51A755" stroke-width="1.83722" stroke-miterlimit="10"/>
<path opacity="0.5" d="M32.3047 161.342C68.3969 161.541 97.8559 157.945 135.337 138.346C135.337 138.346 136.474 157.716 142.143 163.822L63.8442 181.779C53.4472 182.725 36.598 175.97 32.3047 161.342Z" fill="#51A755"/>
<path opacity="0.5" d="M129.326 110.758C129.326 110.758 126.167 119.127 133.26 122.755C133.26 122.755 155.47 126.284 158.79 125.181C162.111 124.079 164.092 118.48 166.82 113.884C169.549 109.288 177.523 96.3337 187.62 86.7457C187.62 86.7457 190.638 83.6863 186.431 80.8075L182.773 78.4731C182.773 78.4731 187.274 80.0743 184.577 82.3978C181.881 84.7214 168.252 97.4713 164.853 104.197C161.452 110.922 158.617 116.348 153.605 116.486C148.593 116.623 132.247 113.882 132.247 113.882C132.247 113.882 129.072 113.221 129.326 110.758Z" fill="#51A755"/>
<path opacity="0.5" d="M250.727 117.58C251.351 117.531 259.008 126.216 259.759 135.014C259.759 135.014 270.683 133.947 268.808 125.16C268.808 125.16 259.943 122.666 258.749 118.526L250.727 117.58Z" fill="#51A755"/>
<path d="M166.164 164.587C166.164 164.587 169.606 165.444 173.216 161.918" stroke="#51A755" stroke-width="1.83722" stroke-miterlimit="10"/>
<path d="M186.402 162.938C185.37 162.558 184.264 162.428 183.17 162.301C180.471 161.989 177.772 161.676 175.07 161.366C174.513 161.301 173.919 161.245 173.427 161.509C173.157 161.655 172.943 161.881 172.733 162.102C171.965 162.908 171.144 163.687 170.163 164.218C169.182 164.749 168.02 165.016 166.937 164.746C166.826 165.129 167.221 165.458 167.569 165.655C170.936 167.542 174.902 168.213 178.752 167.967C179.533 167.919 180.322 167.83 181.052 167.55C181.649 167.321 182.192 166.967 182.77 166.695C183.832 166.199 185.024 165.978 186.018 165.358C186.448 165.089 187.653 164.423 187.831 163.943C188.055 163.347 186.899 163.121 186.402 162.938Z" fill="#51A755"/>
</svg>
