<svg width="792" height="314" viewBox="0 0 792 314" fill="none" xmlns="http://www.w3.org/2000/svg">
<g clip-path="url(#clip0)">
<path d="M141.212 163.082C127.47 165.05 92.8339 173.579 68.0789 179.884C49.9274 184.509 31.8813 171.705 30.506 153.066C30.2574 149.702 30.1926 146.451 30.252 143.386C30.5141 129.884 39.8087 118.232 52.9184 114.867C77.8274 108.474 119.591 97.8748 137.434 93.9663" stroke="#51A755" stroke-width="1.83722" stroke-miterlimit="10"/>
<path d="M134.874 122.302C134.874 122.302 133.585 146.669 138.786 156.732C143.985 166.794 145.855 178.59 170.599 179.628C170.599 179.628 184.103 180.32 192.752 163.77L187.334 162.635C187.334 162.635 178.937 168.492 170.599 166.279C162.261 164.066 158.932 150.963 158.932 150.963C158.932 150.963 156.56 127.987 157.44 123.973L134.874 122.302Z" fill="#FCADAD"/>
<path d="M139.487 91.877C139.487 91.877 150.497 76.72 163.702 76.2915C176.906 75.8629 186.614 78.1622 188.162 82.2351C189.71 86.3081 179.854 93.9661 179.854 93.9661C179.854 93.9661 168.038 108.36 166.498 112.935C164.961 117.509 161.961 124.652 155.266 124.283C148.568 123.911 133.005 123.655 131.343 121.32C129.682 118.986 125.983 116.471 130.325 106.611C134.667 96.7506 139.487 91.877 139.487 91.877Z" fill="#FCADAD"/>
<path d="M203.176 85.524C194.373 69.4532 168.1 76.1219 168.1 76.1219C168.1 76.1219 184.281 76.0842 187.875 81.6532C187.875 81.6532 195.659 81.2192 199.899 85.6372L203.176 85.524Z" fill="#FCADAD"/>
<path d="M258.665 114.681C250.84 113.525 245.296 112.935 245.296 112.935C257.73 119.137 259.543 135.677 259.543 135.677C260.062 152.99 244.001 151.44 244.001 151.44C244.001 151.44 244.001 162.295 233.38 162.295C222.759 162.295 221.724 154.543 221.724 154.543C214.472 170.045 188.05 162.81 188.05 162.81C181.112 161.109 172.746 160.645 163.957 160.947" stroke="#51A755" stroke-width="1.83722" stroke-miterlimit="10"/>
<path d="M280.405 94.9043C290.019 97.8424 299.481 101.57 308.64 106.223C308.64 106.223 318.083 110.608 316.53 116.811C315.735 119.981 309.794 126.631 290.886 121.205C284.934 119.496 278.214 118.045 271.797 116.857" stroke="#51A755" stroke-width="1.83722" stroke-miterlimit="10"/>
<path d="M187.297 86.37C211.998 84.4454 239.901 85.1381 266.52 91.1896" stroke="#51A755" stroke-width="1.83722" stroke-miterlimit="10"/>
<path d="M155.265 124.28C158.442 124.574 161.46 122.857 162.828 119.981C166.332 112.625 174.278 98.1792 187.296 86.3674C188.615 85.1705 188.855 83.192 187.877 81.7068C186.891 80.2081 185.378 79.1326 183.635 78.6932C180.269 77.8414 174.254 76.5206 168.102 76.1756C162.187 75.844 156.327 77.4829 151.436 80.8173C144.979 85.2218 135.952 93.5806 129.51 108.417C128.124 111.611 128.127 115.177 129.418 118.274C130.353 120.517 132.453 122.062 134.874 122.299C141.296 122.93 155.265 124.28 155.265 124.28Z" stroke="#51A755" stroke-width="1.83722" stroke-miterlimit="10"/>
<path d="M129.511 108.422C129.511 108.422 128.698 111.724 131.076 112.7C132.853 113.431 146.506 114.862 153.285 115.539C155.52 115.762 157.665 114.628 158.732 112.66C162.048 106.557 170.391 92.9555 184.255 81.4509C185.092 80.7555 184.873 79.4212 183.852 79.0384L181.653 78.2163" stroke="#51A755" stroke-width="1.83722" stroke-miterlimit="10"/>
<path d="M134.875 122.302C134.875 122.302 129.766 179.045 168.392 179.625C179.573 179.792 187.349 173.21 192.75 163.773" stroke="#51A755" stroke-width="1.83722" stroke-miterlimit="10"/>
<path d="M287.676 97.2898C287.676 97.2898 289.292 89.9498 282.745 88.7503C276.198 87.5508 273.648 84.8095 269.416 88.7503C265.185 92.6912 258.347 99.5918 258.565 112.061C258.565 112.061 256.563 120.372 262.524 122.294C268.484 124.213 273.313 125.348 275.823 123.873C278.333 122.401 281.286 119.585 281.286 119.585L278.808 117.172L273.118 118.455L273.953 106.306L279.946 95.4164L283.618 93.8961C283.618 93.8961 285.444 95.6617 286.055 95.7075C286.665 95.756 286.055 97.7992 286.055 97.7992L287.676 97.2898Z" fill="#FCADAD"/>
<path d="M157.073 124.231C157.073 124.231 151.656 182.498 188.051 162.807" stroke="#51A755" stroke-width="1.83722" stroke-miterlimit="10"/>
<path d="M151.794 123.66C151.794 123.66 149.395 190.641 191.323 163.527" stroke="#51A755" stroke-width="1.83722" stroke-miterlimit="10"/>
<path d="M168.1 76.1786C168.1 76.1786 194.373 69.5098 203.176 85.5806" stroke="#51A755" stroke-width="1.83722" stroke-miterlimit="10"/>
<path d="M187.878 81.7095C187.878 81.7095 195.662 81.2755 199.901 85.6934" stroke="#51A755" stroke-width="1.83722" stroke-miterlimit="10"/>
<path d="M188.475 84.2137C188.496 84.1328 193.257 83.6962 197.58 85.796" stroke="#51A755" stroke-width="1.83722" stroke-miterlimit="10"/>
<path d="M259.436 134.068C259.436 134.068 270.397 133.027 268.5 124.97C268.411 124.588 268.287 124.221 268.138 123.873" stroke="#51A755" stroke-width="1.83722" stroke-miterlimit="10"/>
<path d="M250.37 116.488C250.467 116.582 254.645 116.822 258.827 117.854" stroke="#51A755" stroke-width="1.83722" stroke-miterlimit="10"/>
<path d="M287.676 97.2898C287.676 97.2898 287.652 93.2869 286.066 90.7801C285.025 89.1385 280.067 87.7799 276.768 87.0387C274.537 86.5373 272.194 86.9336 270.27 88.1708C265.536 91.2141 257.747 98.9529 258.633 116.652C258.765 119.293 260.751 121.501 263.272 122.318C265.758 123.124 269.219 124.003 273.121 124.294C276.328 124.534 279.016 122.172 281.886 118.921" stroke="#51A755" stroke-width="1.83722" stroke-miterlimit="10"/>
<path d="M286.055 96.7292C286.055 96.7292 285.882 94.3194 283.618 93.8962C280.551 93.322 275.231 99.4113 273.118 106.686C268.406 122.924 275.65 120.76 278.484 118.178" stroke="#51A755" stroke-width="1.83722" stroke-miterlimit="10"/>
<path d="M301.904 102.991C301.904 102.991 297.375 102.134 295.538 105.568C293.701 109.002 295.997 112.396 299.215 113.862C302.433 115.328 310.428 117.347 313 113.495C315.573 109.643 309.393 106.597 309.018 106.411" stroke="#51A755" stroke-width="1.83722" stroke-miterlimit="10"/>
<path d="M297.065 100.996L306.952 63.0105C308.03 58.8621 313.496 57.8971 315.938 61.4229L334.049 87.5641C338.153 93.4889 339.469 100.902 337.656 107.872L300.41 250.994C299.332 255.143 293.866 256.108 291.424 252.582L273.313 226.441C269.208 220.516 267.893 213.103 269.706 206.133L291.761 121.377" stroke="#51A755" stroke-width="1.83722" stroke-miterlimit="10"/>
<path opacity="0.5" d="M294.377 122.027L272.245 207.071C270.705 212.995 271.821 219.279 275.309 224.314L293.42 250.455C293.674 250.819 294.017 251.005 294.444 251.005C294.612 251.005 295.463 250.959 295.698 250.054L332.944 106.932C334.484 101.007 333.368 94.7235 329.88 89.6882L311.769 63.547C311.515 63.1831 311.172 62.9971 310.745 62.9971C310.577 62.9971 309.726 63.0429 309.491 63.9486L299.567 102.082C299.567 102.082 315.66 105.36 316.703 114.261C317.748 123.159 300.95 123.695 294.377 122.027Z" fill="#51A755"/>
<path d="M294.377 122.027L272.245 207.071C270.705 212.995 271.821 219.279 275.309 224.314L293.42 250.455C293.674 250.819 294.017 251.005 294.444 251.005C294.612 251.005 295.463 250.959 295.698 250.054L332.944 106.932C334.484 101.007 333.368 94.7235 329.88 89.6882L311.769 63.547C311.515 63.1831 311.172 62.9971 310.745 62.9971C310.577 62.9971 309.726 63.0429 309.491 63.9486L299.567 102.082" stroke="#51A755" stroke-width="1.83722" stroke-miterlimit="10"/>
<path d="M306.951 63.008C306.951 63.008 306.957 56.7409 319.412 54.6383C331.868 52.5358 336.667 58.9728 336.667 58.9728" stroke="#51A755" stroke-width="1.83722" stroke-miterlimit="10"/>
<path d="M336.027 58.2124C336.257 58.4388 336.473 58.6895 336.668 58.9725L354.779 85.1138C358.883 91.0386 360.199 98.4513 358.386 105.422L321.14 248.544" stroke="#51A755" stroke-width="1.83722" stroke-miterlimit="10"/>
<path d="M329.472 89.3029L328.353 93.2654C327.988 94.5565 326.275 94.8369 325.519 93.7263L314.706 77.8901C313.676 76.3806 313.368 74.4964 313.863 72.7389L315.1 68.356" fill="#51A755"/>
<path d="M291.424 252.579C291.424 252.579 296.668 261.631 309.257 259.369C318.838 257.65 321.14 248.544 321.14 248.544" stroke="#51A755" stroke-width="1.83722" stroke-miterlimit="10"/>
<path d="M335.635 152.619L337.146 152.991C337.74 153.136 338.343 152.775 338.489 152.179L343.56 131.623C343.706 131.03 343.344 130.429 342.747 130.283L341.237 129.911C340.642 129.766 340.04 130.127 339.894 130.723L334.822 151.279C334.676 151.875 335.041 152.473 335.635 152.619Z" stroke="#51A755" stroke-width="1.83722" stroke-miterlimit="10"/>
<path d="M327.272 186.52L328.782 186.892C329.376 187.037 329.979 186.676 330.125 186.081L335.196 165.524C335.342 164.931 334.98 164.33 334.383 164.185L332.873 163.813C332.278 163.667 331.676 164.028 331.53 164.624L326.461 185.183C326.315 185.776 326.677 186.374 327.272 186.52Z" stroke="#51A755" stroke-width="1.83722" stroke-miterlimit="10"/>
<path d="M336.251 113.415C338.272 114.652 339.623 115.153 341.971 115.539L353.894 116.943C354.897 116.865 355.605 116.482 355.605 116.482" stroke="#51A755" stroke-width="1.83722" stroke-miterlimit="10"/>
<path d="M54.1457 269.222C44.9618 270.146 31.6657 220.651 24.4435 158.672C17.2212 96.6941 18.81 45.7 27.9938 44.7754C35.0728 44.0638 44.5944 73.3157 51.8977 115.15C39.3283 118.843 30.5066 130.237 30.2526 143.386C30.1931 146.451 30.258 149.702 30.5066 153.066C31.6792 168.98 45.0051 180.638 60.1736 180.827L60.3385 182.148C64.2752 231.379 61.9596 268.437 54.1457 269.222Z" fill="#51A755"/>
<path opacity="0.5" d="M53.763 313.296C37.6595 314.941 16.3089 246.296 6.07138 159.974C-4.16349 73.6526 0.589185 2.3396 16.6926 0.695327C29.2025 -0.582356 46.6299 54.6491 57.8104 113.614C56.1217 114.045 54.4871 114.466 52.92 114.867C52.5768 114.956 52.2364 115.048 51.8986 115.15C39.3293 118.843 30.5075 130.237 30.2536 143.386C30.1941 146.451 30.259 149.702 30.5075 153.066C31.6802 168.98 45.006 180.638 60.1746 180.827C62.0551 180.854 63.9654 180.703 65.8838 180.361L65.9 180.501C70.8823 249.137 67.4671 311.895 53.763 313.296Z" fill="#51A755"/>
<path d="M53.763 313.296C37.6595 314.941 16.3089 246.296 6.07138 159.974C-4.16349 73.6526 0.589185 2.3396 16.6926 0.695327C29.2025 -0.582356 46.6299 54.6491 57.8104 113.614C56.1217 114.045 54.4871 114.466 52.92 114.867C52.5768 114.956 52.2364 115.048 51.8986 115.15C39.3293 118.843 30.5075 130.237 30.2536 143.386C30.1941 146.451 30.259 149.702 30.5075 153.066C31.6802 168.98 45.006 180.638 60.1746 180.827C62.0551 180.854 63.9654 180.703 65.8838 180.361L65.9 180.501C70.8823 249.137 67.4671 311.895 53.763 313.296Z" stroke="#51A755" stroke-width="1.83722" stroke-miterlimit="10"/>
<path d="M216.413 131.685C216.413 131.685 223.492 142.653 221.917 155.338" stroke="#51A755" stroke-width="1.83722" stroke-miterlimit="10"/>
<path d="M233.037 124.307C233.037 124.307 243.326 136.965 244.001 151.44" stroke="#51A755" stroke-width="1.83722" stroke-miterlimit="10"/>
<path d="M195.44 132.998C195.44 132.998 191.606 147.16 199.901 152.087" stroke="#51A755" stroke-width="1.83722" stroke-miterlimit="10"/>
<path d="M194.784 143.513C194.784 143.513 175.657 141.777 176.508 155.341C176.662 157.796 178.597 161.031 181.339 161.586" stroke="#51A755" stroke-width="1.83722" stroke-miterlimit="10"/>
<path d="M173.314 160.945C173.333 159.848 164.587 142.443 169.434 124.1C170.036 121.819 171.836 120.043 174.133 119.482C176.735 118.849 180.261 117.38 182.541 113.986L203.173 86.1736L195.583 85.4162C195.583 85.4162 192.635 84.1196 189.515 84.1223C188.577 84.1223 164.038 111.307 162.101 122.302L157.067 124.232C157.067 124.232 154.962 151.505 164.341 161.525L173.314 160.945Z" fill="#51A755"/>
<path d="M280.406 94.9043L276.815 98.9233C271.638 105.128 271.767 115.717 271.795 116.768C271.711 116.779 271.662 116.787 271.662 116.787C271.662 116.787 271.832 119.674 273.84 119.892C275.485 120.07 277.285 119.927 278.298 118.733L285.555 119.789C280.011 112.937 286.055 96.7319 288.233 97.147L280.406 94.9043Z" fill="#51A755"/>
<path d="M241.402 100.225C241.402 100.225 241.067 95.5079 246.085 91.1897" stroke="#51A755" stroke-width="1.83722" stroke-miterlimit="10"/>
<path d="M246.086 103.724C246.086 103.724 245.583 97.551 251.771 91.8796" stroke="#51A755" stroke-width="1.83722" stroke-miterlimit="10"/>
<path d="M230.895 119.916C230.895 119.916 230.525 114.87 236.091 112.935" stroke="#51A755" stroke-width="1.83722" stroke-miterlimit="10"/>
<path d="M206.772 155.341C206.772 155.341 212.895 157.106 215.121 155.341" stroke="#51A755" stroke-width="1.83722" stroke-miterlimit="10"/>
<path d="M217.348 126.733C217.348 126.733 218.274 123.172 224.4 122.825" stroke="#51A755" stroke-width="1.83722" stroke-miterlimit="10"/>
<path opacity="0.5" d="M31.9795 160.395C68.0717 160.594 97.5307 156.999 135.012 137.399C135.012 137.399 136.149 156.77 141.818 162.875L63.519 180.833C53.122 181.779 36.2728 175.024 31.9795 160.395Z" fill="#51A755"/>
<path opacity="0.5" d="M129.003 109.811C129.003 109.811 125.844 118.18 132.937 121.808C132.937 121.808 155.146 125.337 158.467 124.234C161.788 123.132 163.768 117.533 166.497 112.937C169.226 108.341 177.2 95.3867 187.297 85.7987C187.297 85.7987 190.315 82.7393 186.108 79.8605L182.449 77.5261C182.449 77.5261 186.951 79.1273 184.254 81.4508C181.558 83.7744 167.929 96.5242 164.53 103.25C161.129 109.975 158.294 115.401 153.282 115.539C148.27 115.676 131.923 112.935 131.923 112.935C131.923 112.935 128.749 112.274 129.003 109.811Z" fill="#51A755"/>
<path opacity="0.5" d="M250.403 116.633C251.027 116.584 258.685 125.269 259.436 134.068C259.436 134.068 270.36 133 268.485 124.213C268.485 124.213 259.62 121.719 258.425 117.579L250.403 116.633Z" fill="#51A755"/>
<path d="M422.183 113.028L413.468 110.45L397.921 130.761C397.921 130.761 390.634 141.515 422.183 173.536C453.732 205.557 484.917 229.873 507.186 235.514C507.186 235.514 514.823 240.706 522.55 235.086C530.273 229.47 537.711 217.253 537.711 217.253L477.724 189.18L422.958 141.429L416.748 122.952L422.183 113.028Z" fill="#FDC6FF"/>
<path d="M536.911 218.48C544.14 210.029 522.266 179.568 488.055 150.445C453.843 121.322 420.25 104.564 413.021 113.015C405.793 121.467 427.666 151.927 461.878 181.05C496.089 210.174 529.682 226.931 536.911 218.48Z" fill="#FDC6FF"/>
<path d="M536.911 218.48C544.14 210.029 522.266 179.568 488.055 150.445C453.843 121.322 420.25 104.564 413.021 113.015C405.793 121.467 427.666 151.927 461.878 181.05C496.089 210.174 529.682 226.931 536.911 218.48Z" stroke="#51A755" stroke-width="1.83722" stroke-miterlimit="10"/>
<path opacity="0.5" d="M519.311 200.977C524.389 195.039 509.024 173.64 484.99 153.181C460.957 132.722 437.357 120.95 432.278 126.888C427.199 132.826 442.565 154.225 466.598 174.684C490.632 195.143 514.232 206.914 519.311 200.977Z" fill="#51A755"/>
<path d="M519.311 200.977C524.389 195.039 509.024 173.64 484.99 153.181C460.957 132.722 437.357 120.95 432.278 126.888C427.199 132.826 442.565 154.225 466.598 174.684C490.632 195.143 514.232 206.914 519.311 200.977Z" stroke="#51A755" stroke-width="1.83722" stroke-miterlimit="10"/>
<path d="M414.178 164.44C401.69 156.512 390.283 154.487 387.195 158.097C381.472 164.788 398.789 188.91 425.88 211.971C452.967 235.033 479.568 248.303 485.294 241.609C488.156 238.261 485.258 230.56 478.256 220.809" stroke="#51A755" stroke-width="1.83722" stroke-miterlimit="10"/>
<path d="M414.178 164.44C401.69 156.512 390.283 154.487 387.195 158.097C381.472 164.788 398.789 188.91 425.88 211.971C452.967 235.033 479.568 248.303 485.294 241.609C488.156 238.261 485.258 230.56 478.256 220.809" stroke="#51A755" stroke-width="1.83722" stroke-miterlimit="10"/>
<path d="M414.178 164.44C401.69 156.512 390.283 154.487 387.195 158.097C381.472 164.788 398.789 188.91 425.88 211.971C452.967 235.033 479.568 248.303 485.294 241.609C488.156 238.261 485.258 230.56 478.256 220.809" stroke="#51A755" stroke-width="1.83722" stroke-miterlimit="10"/>
<path d="M401.794 189.14C396.355 186.695 392.322 186.095 390.791 187.885C387.367 191.887 397.725 206.309 413.921 220.101C430.117 233.893 446.025 241.824 449.449 237.823C450.898 236.129 449.881 232.577 447.002 227.996" stroke="#51A755" stroke-width="1.83722" stroke-miterlimit="10"/>
<path opacity="0.5" d="M447.002 227.993C449.881 232.573 450.894 236.129 449.449 237.819C446.025 241.821 430.121 233.886 413.921 220.097C397.721 206.308 387.367 191.884 390.791 187.882C392.323 186.091 396.355 186.692 401.794 189.137L428.319 214.017" fill="#51A755"/>
<path d="M413.034 113.028L398.658 129.621C391.429 138.074 413.301 168.534 447.51 197.658C481.719 226.781 515.315 243.539 522.545 235.09L536.921 218.497" stroke="#51A755" stroke-width="1.83722" stroke-miterlimit="10"/>
<path d="M528.706 220.561L513.89 237.1" stroke="#51A755" stroke-width="1.83722" stroke-miterlimit="10"/>
<path d="M518.381 217.807L503.645 234.259" stroke="#51A755" stroke-width="1.83722" stroke-miterlimit="10"/>
<path d="M509.293 213.672L494.553 230.128" stroke="#51A755" stroke-width="1.83722" stroke-miterlimit="10"/>
<path d="M500.644 209.052L485.947 225.458" stroke="#51A755" stroke-width="1.83722" stroke-miterlimit="10"/>
<path d="M484.433 198.589L469.758 214.97" stroke="#51A755" stroke-width="1.83722" stroke-miterlimit="10"/>
<path d="M476.696 192.948L462.028 209.321" stroke="#51A755" stroke-width="1.83722" stroke-miterlimit="10"/>
<path d="M469.415 186.796L454.502 203.446" stroke="#51A755" stroke-width="1.83722" stroke-miterlimit="10"/>
<path d="M461.814 181L447.16 197.359" stroke="#51A755" stroke-width="1.83722" stroke-miterlimit="10"/>
<path d="M454.65 174.722L440.003 191.071" stroke="#51A755" stroke-width="1.83722" stroke-miterlimit="10"/>
<path d="M447.672 168.229L433.036 184.571" stroke="#51A755" stroke-width="1.83722" stroke-miterlimit="10"/>
<path d="M441.188 161.193L426.61 177.462" stroke="#51A755" stroke-width="1.83722" stroke-miterlimit="10"/>
<path d="M434.352 154.541L419.734 170.861" stroke="#51A755" stroke-width="1.83722" stroke-miterlimit="10"/>
<path d="M477.719 220.363L492.405 203.967" stroke="#51A755" stroke-width="1.83722" stroke-miterlimit="10"/>
<path opacity="0.5" d="M414.489 164.784C414.489 164.784 453.076 208.242 477.72 220.363L478.261 220.809C485.26 230.559 488.161 238.261 485.299 241.608C479.576 248.299 452.975 235.032 425.884 211.971C398.797 188.91 381.476 164.788 387.199 158.097C390.284 154.491 401.691 156.511 414.182 164.439L414.489 164.784Z" fill="#51A755"/>
<path d="M428.078 147.271L413.468 163.577" stroke="#51A755" stroke-width="1.83722" stroke-miterlimit="10"/>
<path d="M422.182 139.573L407.554 155.9" stroke="#51A755" stroke-width="1.83722" stroke-miterlimit="10"/>
<path d="M416.739 131.369L402.172 147.627" stroke="#51A755" stroke-width="1.83722" stroke-miterlimit="10"/>
<path d="M412.419 121.913L397.92 138.096" stroke="#51A755" stroke-width="1.83722" stroke-miterlimit="10"/>
<path d="M165.839 163.64C165.839 163.64 169.281 164.497 172.891 160.972" stroke="#51A755" stroke-width="1.83722" stroke-miterlimit="10"/>
<path d="M186.079 161.991C185.047 161.611 183.942 161.481 182.848 161.354C180.149 161.042 177.449 160.729 174.748 160.419C174.191 160.354 173.596 160.298 173.105 160.562C172.835 160.708 172.621 160.934 172.41 161.155C171.643 161.961 170.822 162.74 169.841 163.271C168.86 163.802 167.698 164.069 166.615 163.799C166.504 164.182 166.898 164.511 167.247 164.708C170.614 166.595 174.58 167.266 178.43 167.02C179.211 166.972 180 166.883 180.73 166.603C181.327 166.374 181.87 166.02 182.448 165.748C183.51 165.252 184.701 165.031 185.696 164.411C186.125 164.142 187.33 163.476 187.509 162.996C187.733 162.4 186.577 162.174 186.079 161.991Z" fill="#51A755"/>
<path d="M694.322 78.5316L560.596 153.174C558.832 154.16 558.81 156.686 560.558 157.699L625.534 195.38C627.814 196.701 630.632 196.693 632.902 195.359L764.574 117.967C765.955 117.156 765.942 115.159 764.547 114.366L701.493 78.5586C699.272 77.2971 696.554 77.2863 694.322 78.5316Z" stroke="#51A755" stroke-width="1.83722" stroke-miterlimit="10"/>
<path d="M559.262 155.564V178.207C559.262 180.816 560.661 183.226 562.934 184.522L625.213 220.085C627.477 221.36 630.252 221.335 632.492 220.023L762.143 143.31C764.37 141.992 765.732 139.596 765.718 137.011L765.605 115.98" stroke="#51A755" stroke-width="1.83722" stroke-miterlimit="10"/>
<path opacity="0.5" d="M750.061 121.299L752.057 120.097L754.27 118.763C754.357 118.711 754.443 118.657 754.524 118.604L750.061 121.299Z" fill="#51A755"/>
<path opacity="0.5" d="M701.572 80.7825C699.321 79.4752 696.544 79.4617 694.28 80.7475L566.047 153.74C565.025 154.325 565.012 155.791 566.022 156.392L625.754 191.704C628.066 193.07 630.944 193.06 633.243 191.674L760.941 116.784C761.447 116.488 761.447 115.757 760.941 115.461L701.572 80.7825ZM737.7 125.445L649.212 175.622C627.675 165.234 614.333 179.703 614.333 179.703L589.283 165.282C593.498 153.662 586.006 147.241 586.006 147.241L684.796 90.4891C696.501 100.298 712.888 90.4891 712.888 90.4891L741.347 106.528C733.055 113.692 737.7 125.445 737.7 125.445Z" fill="#51A755"/>
<path d="M676.963 88.2219L673.891 86.5965C671.697 85.4374 669.062 85.4697 666.898 86.6827L604.63 121.622C602.347 122.905 600.928 125.31 600.912 127.924C600.904 129.393 600.912 130.671 600.966 130.641" stroke="#51A755" stroke-width="1.83722" stroke-miterlimit="10"/>
<path opacity="0.5" d="M609.471 121.525L666.922 88.7424C669.099 87.4997 671.763 87.4593 673.976 88.6372L675.119 89.2464L609.42 125.919C607.75 124.916 607.779 122.493 609.471 121.525Z" fill="#51A755"/>
<path d="M662.14 119.571C647.144 119.571 634.985 126.825 634.985 135.774C634.985 144.723 647.144 151.977 662.14 151.977C677.138 151.977 689.294 144.723 689.294 135.774C689.294 126.825 677.138 119.571 662.14 119.571ZM662.14 149.012C647.674 149.012 637.957 142.168 637.957 135.774C637.957 129.383 647.674 122.536 662.14 122.536C676.606 122.536 686.322 129.383 686.322 135.774C686.322 142.168 676.606 149.012 662.14 149.012Z" fill="#51A755"/>
<path d="M705.827 103.562C698.991 103.562 693.452 106.818 693.452 110.832C693.452 114.846 698.991 118.099 705.827 118.099C712.663 118.099 718.202 114.846 718.202 110.832C718.202 106.818 712.663 103.562 705.827 103.562ZM705.827 116.722C700.285 116.722 695.797 114.086 695.797 110.832C695.797 107.579 700.285 104.94 705.827 104.94C711.369 104.94 715.856 107.579 715.856 110.832C715.856 114.086 711.369 116.722 705.827 116.722Z" fill="#51A755"/>
<path opacity="0.5" d="M705.826 104.94C700.285 104.94 695.797 107.579 695.797 110.832C695.797 114.086 700.285 116.722 705.826 116.722C711.368 116.722 715.856 114.086 715.856 110.832C715.856 107.579 711.368 104.94 705.826 104.94ZM705.826 115.105C700.871 115.105 697.418 112.854 697.418 110.832C697.418 108.81 700.871 106.557 705.826 106.557C710.782 106.557 714.235 108.81 714.235 110.832C714.235 112.854 710.782 115.105 705.826 115.105Z" fill="#51A755"/>
<path d="M729.548 172.449C722.712 172.449 717.173 175.706 717.173 179.719C717.173 183.733 722.712 186.986 729.548 186.986C736.384 186.986 741.922 183.733 741.922 179.719C741.922 175.706 736.384 172.449 729.548 172.449ZM729.548 185.609C724.006 185.609 719.518 182.973 719.518 179.719C719.518 176.466 724.006 173.827 729.548 173.827C735.089 173.827 739.577 176.466 739.577 179.719C739.577 182.973 735.089 185.609 729.548 185.609Z" fill="#51A755"/>
<path opacity="0.5" d="M729.547 173.827C724.005 173.827 719.518 176.466 719.518 179.719C719.518 182.973 724.005 185.609 729.547 185.609C735.089 185.609 739.577 182.973 739.577 179.719C739.577 176.466 735.089 173.827 729.547 173.827ZM729.547 183.992C724.592 183.992 721.139 181.741 721.139 179.719C721.139 177.698 724.592 175.444 729.547 175.444C734.502 175.444 737.955 177.698 737.955 179.719C737.955 181.741 734.502 183.992 729.547 183.992Z" fill="#51A755"/>
<path d="M619.479 153.378C612.643 153.378 607.104 156.635 607.104 160.648C607.104 164.662 612.643 167.915 619.479 167.915C626.315 167.915 631.854 164.662 631.854 160.648C631.854 156.635 626.315 153.378 619.479 153.378ZM619.479 166.538C613.938 166.538 609.45 163.902 609.45 160.648C609.45 157.395 613.938 154.756 619.479 154.756C625.021 154.756 629.509 157.395 629.509 160.648C629.509 163.902 625.021 166.538 619.479 166.538Z" fill="#51A755"/>
<path opacity="0.5" d="M619.48 154.756C613.938 154.756 609.45 157.395 609.45 160.648C609.45 163.902 613.938 166.538 619.48 166.538C625.021 166.538 629.509 163.902 629.509 160.648C629.509 157.395 625.021 154.756 619.48 154.756ZM619.48 164.921C614.524 164.921 611.071 162.67 611.071 160.648C611.071 158.627 614.524 156.373 619.48 156.373C624.435 156.373 627.888 158.627 627.888 160.648C627.888 162.67 624.435 164.921 619.48 164.921Z" fill="#51A755"/>
<path opacity="0.5" d="M678.595 192.828L714.83 212.462C717.081 213.68 719.802 213.656 722.028 212.397L781.435 179.059C781.908 178.795 781.905 178.115 781.43 177.854L741.228 155.732L738.21 157.468L755.459 167.406C755.459 167.406 748.402 176.76 755.686 188.658L736.445 199.658C736.445 199.658 720.369 188.299 700.788 200.34C700.788 200.34 682.28 190.321 681.832 190.585C681.383 190.849 678.595 192.828 678.595 192.828Z" fill="#51A755"/>
<path d="M673.666 195.755L744.183 154.195L785.16 177.035C786.7 177.892 786.717 180.097 785.187 180.978L779.956 183.992L772.159 188.482L722.584 217.039C720.393 218.3 717.704 218.341 715.478 217.144L674.792 195.087L653.758 207.483L716.075 242.256C718.35 243.523 721.13 243.485 723.367 242.153L782.812 206.16C784.993 204.839 786.322 202.48 786.322 199.939V178.579" stroke="#51A755" stroke-width="1.83722" stroke-miterlimit="10"/>
<path d="M629.509 196.353V221.026" stroke="#51A755" stroke-width="1.83722" stroke-miterlimit="10"/>
<path d="M719.518 218.511V243.183" stroke="#51A755" stroke-width="1.83722" stroke-miterlimit="10"/>
<path d="M559.262 155.519C559.716 157.381 583.917 170.592 592.771 175.73C601.625 180.865 626.567 196.965 629.963 195.968V220.64C629.963 220.64 627.396 221.333 619.812 217.004C612.23 212.675 560.913 186.396 559.505 180.771L559.262 155.519Z" fill="#51A755"/>
<path opacity="0.5" d="M629.244 197.176L629.514 221.373L762.76 142.863C764.592 141.788 765.697 139.809 765.648 137.691C765.497 131.049 765.907 116.727 765.256 117.331C764.4 118.121 629.244 197.176 629.244 197.176Z" fill="#51A755"/>
<path d="M674.795 195.089C674.795 195.089 716.896 219.087 719.131 218.009C719.131 218.009 719.312 243.353 719.414 243.034C719.517 242.716 717.485 243.851 708.747 238.169C700.012 232.487 653.758 207.486 653.758 207.486L674.795 195.089Z" fill="#51A755"/>
<path opacity="0.5" d="M720.091 243.754C719.518 243.183 783.237 208.89 784.783 204.416C786.328 199.941 786.328 179.617 786.328 179.617L753.208 199.402L719.521 218.511L720.091 243.754Z" fill="#51A755"/>
</g>
<defs>
<clipPath id="clip0">
<rect width="792" height="314" fill="white"/>
</clipPath>
</defs>
</svg>
