<svg width="136" height="48" viewBox="0 0 136 48" fill="none" xmlns="http://www.w3.org/2000/svg">
<g clip-path="url(#clip0)">
<path d="M135.125 10.5772C132.71 9.93012 130.02 10.5568 128.124 12.4521C126.224 14.3526 125.602 17.0376 126.249 19.4578C128.664 20.1048 131.354 19.4781 133.25 17.5777C135.145 15.6824 135.772 12.9922 135.125 10.5772Z" fill="#0CC14C"/>
<path d="M52.8152 10.3223H48.352V13.2927C46.1662 11.4432 43.3436 10.3274 40.2611 10.3274C33.337 10.3274 27.707 15.9573 27.707 22.8814C27.707 29.8056 33.337 35.4406 40.2611 35.4406C43.3436 35.4406 46.1662 34.3197 48.352 32.4753V35.4406C48.352 36.6329 48.0921 37.7639 47.6285 38.7829C46.3598 41.5852 43.5321 43.5366 40.2611 43.5366C39.4867 43.5366 38.7377 43.4245 38.0346 43.2207C36.6946 42.8437 35.4973 42.1202 34.5394 41.1623L31.3856 44.3161C31.8544 44.7798 32.3588 45.2128 32.8937 45.6001C34.9623 47.1082 37.5098 47.9998 40.2611 47.9998C46.8591 47.9998 52.2904 42.8793 52.7795 36.4036C52.805 36.0877 52.8152 35.7667 52.8152 35.4406V22.9579C52.8152 22.9324 52.8203 22.9069 52.8203 22.8814C52.8203 22.856 52.8152 22.8305 52.8152 22.805V10.3223ZM48.352 22.9222C48.3316 27.365 44.7141 30.9774 40.2611 30.9774C35.7979 30.9774 32.1652 27.3447 32.1652 22.8814C32.1652 18.4182 35.7979 14.7906 40.2611 14.7906C44.7141 14.7906 48.3316 18.3978 48.352 22.8458V22.9222Z" fill="#0CC14C"/>
<path d="M123.253 22.8814V10.3274H118.79V22.9171C118.774 27.365 115.152 30.9825 110.699 30.9825C106.236 30.9825 102.603 27.3498 102.603 22.8865V10.3223H98.1396V22.8814C98.1396 29.8056 103.775 35.4406 110.699 35.4406C113.776 35.4406 116.599 34.3248 118.79 32.4753V35.354C118.79 35.354 118.79 35.354 118.785 35.354C118.79 35.3846 118.79 35.405 118.79 35.4355C118.79 36.6278 118.53 37.7588 118.066 38.7778C116.798 41.5801 113.975 43.5315 110.704 43.5366C109.935 43.5366 109.181 43.4296 108.477 43.2258C107.137 42.8437 105.94 42.1253 104.982 41.1674L101.834 44.3212C102.302 44.7899 102.802 45.2179 103.342 45.6052C105.41 47.1133 107.963 47.9998 110.709 47.9998C117.312 47.9947 122.733 42.8691 123.222 36.3934C123.248 36.0775 123.258 35.7616 123.258 35.4406V22.9426C123.253 22.9222 123.258 22.9018 123.253 22.8814Z" fill="#0CC14C"/>
<path d="M20.65 13.2929C18.4592 11.4434 15.6366 10.3276 12.5541 10.3276C5.62998 10.3276 0 15.9576 0 22.8817C0 29.8058 5.62998 35.4409 12.5541 35.4409C15.6366 35.4409 18.4592 34.32 20.65 32.4705V35.4409H25.1133V10.3276H20.65V13.2929ZM12.5541 30.9777C8.09086 30.9777 4.46322 27.3449 4.46322 22.8817C4.46322 18.4185 8.09086 14.7909 12.5541 14.7909C17.0173 14.7909 20.65 18.4185 20.65 22.8817C20.65 27.3449 17.0173 30.9777 12.5541 30.9777Z" fill="#0CC14C"/>
<path d="M60.182 13.2927V10.3274H55.7188V35.4406H60.182V25.1131V22.8814C60.182 18.4182 63.8147 14.7855 68.2779 14.7855H70.5095V10.3223H68.2779C65.1954 10.3274 62.3728 11.4432 60.182 13.2927Z" fill="#0CC14C"/>
<path d="M80.6943 12.5592V35.4408H85.1575V14.7908H95.4851V10.3276H85.4785C86.4517 6.94958 89.5647 4.46322 93.2535 4.46322H95.4851V0H93.2535C86.3294 0 80.6943 5.63507 80.6943 12.5592Z" fill="#0CC14C"/>
<path d="M73.2559 10.3223V23.9769V35.4406H77.7191V23.9769V12.6762V10.3223H77.4949H73.2559Z" fill="#0CC14C"/>
</g>
<defs>
<clipPath id="clip0">
<rect width="135.369" height="48" fill="white"/>
</clipPath>
</defs>
</svg>
