<svg width="154" height="141" viewBox="0 0 154 141" fill="none" xmlns="http://www.w3.org/2000/svg">
<path d="M39.1375 102.405C39.1375 66.5612 88.48 81.1951 88.48 63.2716C88.48 56.8592 82.5788 53.8997 66.0221 53.8997C47.8264 53.8997 37.0064 55.7087 37.0064 68.8621H0.940918C0.940918 31.3744 27.8255 23.3164 64.3815 23.3164C101.43 23.3164 124.544 31.3728 124.544 57.3511C124.544 91.2224 77.4955 83.4944 72.9059 102.403H39.1375V102.405ZM72.7429 114.244V140.059H38.973V114.244H72.7429Z" fill="#FDC6FF"/>
<path d="M73.6828 141.001H38.0326V113.302H73.6828V141.001ZM39.9129 139.115H71.8025V115.188H39.9129V139.115ZM73.6452 103.348H38.1971V102.405C38.1971 92.7143 41.6789 85.7203 48.8416 81.0257C54.9732 77.0054 62.9021 75.2844 69.897 73.7661C74.7531 72.7115 79.3396 71.7167 82.5927 70.1104C86.015 68.4208 87.5412 66.3132 87.5412 63.2736C87.5412 58.8965 84.9337 54.8447 66.0235 54.8447C52.7621 54.8447 48.1098 56.0345 45.0558 57.3201C40.1402 59.39 37.948 62.9498 37.948 68.8641V69.8071H0.000488281V68.8641C0.000488281 50.9108 6.04275 38.5982 18.4736 31.2224C28.6432 25.1871 43.2302 22.377 64.3813 22.377C84.4354 22.377 98.9582 24.7895 108.778 29.7528C114.23 32.508 118.393 36.1511 121.15 40.577C124.025 45.193 125.482 50.8385 125.482 57.3547C125.482 66.4845 122.164 73.5037 115.336 78.8112C109.433 83.3989 101.893 86.0409 94.6004 88.5949C89.5219 90.3741 84.7253 92.0542 80.9693 94.253C76.8983 96.6356 74.6262 99.298 73.8176 102.63L73.6452 103.348ZM40.0884 101.462H72.1911C74.5933 93.6039 84.0202 90.3033 93.9846 86.8126C101.135 84.3089 108.528 81.7188 114.188 77.3181C120.524 72.3925 123.605 65.8606 123.605 57.3531C123.605 45.2433 118.48 36.7657 107.934 31.4361C98.3815 26.6079 84.1361 24.2614 64.3828 24.2614C43.5828 24.2614 29.2998 26.9883 19.4326 32.8443C7.8385 39.7236 2.09397 51.2047 1.88713 67.9211H36.0833C36.2008 64.927 36.8934 62.4815 38.1893 60.465C39.5557 58.3401 41.563 56.7433 44.3255 55.5802C47.5598 54.2192 52.4268 52.9587 66.0203 52.9587C74.471 52.9587 80.131 53.7084 83.8322 55.3178C87.5913 56.9523 89.4184 59.555 89.4184 63.2736C89.4184 67.0221 87.4566 69.8118 83.42 71.8031C79.9602 73.5115 75.2639 74.53 70.2919 75.6097C63.4568 77.0934 55.7081 78.7751 49.8679 82.6037C43.5139 86.7718 40.3078 92.9469 40.0884 101.462Z" fill="#51A755"/>
<path d="M72.6456 62.8965L44.6751 85.3793C44.6751 85.3793 38.6 93.0067 39.1374 102.404L66.8306 79.5327C66.8306 79.5327 66.0346 69.004 72.6456 62.8965Z" fill="#FDC6FF"/>
<path d="M39.1375 15.2227L12.5663 36.3602C12.5663 36.3602 0.448897 48.1415 0.884517 68.3642L28.6952 46.4881C28.6952 46.4881 28.4837 25.3301 39.1375 15.2227Z" fill="#FDC6FF"/>
<g opacity="0.5">
<g opacity="0.5">
<path opacity="0.5" d="M39.1373 15.2227L12.5661 36.3602C12.5661 36.3602 0.917184 47.3022 0.884277 68.3642L28.8987 46.2004C28.8987 46.1989 26.3163 30.4994 39.1373 15.2227Z" fill="#51A755"/>
</g>
</g>
<g opacity="0.5">
<g opacity="0.5">
<path opacity="0.5" d="M72.6456 62.8965L44.6751 85.3793C44.6751 85.3793 38.6 93.0067 39.1374 102.404L66.8306 79.5327C66.8306 79.5327 66.0346 69.004 72.6456 62.8965Z" fill="#51A755"/>
</g>
</g>
<path d="M36.8091 67.8965L56.7723 51.4316L37.989 53.9746L31.1319 61.4809L30.6665 67.7441L36.8091 67.8965Z" fill="#FDC6FF"/>
<path d="M140.201 57.5664C140.201 57.5664 122.645 65.4751 118.293 66.2877C113.942 67.1002 102.967 72.3575 100.662 80.0304L89.1489 89.5312C89.1489 89.5312 105.239 83.9486 109.388 81.6147C113.537 79.2807 125.298 69.3068 125.298 69.3068L140.201 57.5664Z" fill="#FDC6FF"/>
<g opacity="0.5">
<g opacity="0.5">
<path opacity="0.5" d="M135.143 60.4688C135.143 60.4688 101.448 69.5373 100.637 80.132L88.198 89.9896C88.198 89.9896 106.709 84.6145 113.171 79.5332C119.633 74.452 135.143 60.4688 135.143 60.4688Z" fill="#51A755"/>
</g>
</g>
<path d="M39.338 114.119L66.7272 91.8691V117.682L38.9729 140.057L39.338 114.119Z" fill="#FDC6FF"/>
<g opacity="0.5">
<g opacity="0.5">
<path opacity="0.5" d="M39.338 114.119L66.7272 91.8691V117.682L38.9729 140.057L39.338 114.119Z" fill="#51A755"/>
</g>
</g>
<path d="M100.057 79.3965L72.0046 101.484L73.1658 102.968L101.218 80.88L100.057 79.3965Z" fill="#51A755"/>
<path d="M66.8917 80.0302C66.8917 44.1865 116.234 58.8204 116.234 40.897C116.234 34.4845 110.333 31.5251 93.7763 31.5251C75.5806 31.5251 64.7606 33.3341 64.7606 46.4875H28.6951C28.6951 8.99978 55.5797 0.943359 92.1357 0.943359C129.184 0.943359 152.298 8.99978 152.298 34.9781C152.298 68.8493 105.25 61.1214 100.66 80.0302H66.8917ZM100.497 91.8697V117.684H66.7271V91.8697H100.497Z" fill="#FDC6FF"/>
<path d="M28.8987 46.1992C28.8987 46.1992 -0.250235 69.7854 0.317011 69.075C0.884256 68.3646 37.0062 68.8628 37.0062 68.8628L63.2186 46.9332L28.8987 46.1992Z" fill="#51A755"/>
<path d="M101.437 118.626H65.787V90.9263H101.437V118.626ZM67.6673 116.74H99.5569V92.8123H67.6673V116.74ZM101.4 80.9729H65.9515V80.0299C65.9515 70.3389 69.4333 63.3449 76.596 58.6503C82.7276 54.63 90.6565 52.909 97.6514 51.3907C102.507 50.3361 107.094 49.3413 110.347 47.735C113.769 46.0455 115.296 43.9378 115.296 40.8966C115.296 36.5195 112.688 32.4677 93.7779 32.4677C80.5166 32.4677 75.8642 33.6575 72.8102 34.9431C67.8946 37.013 65.7024 40.5729 65.7024 46.4871V47.4301H27.7549V46.4871C27.7549 28.5338 33.7971 16.2213 46.228 8.8454C56.3977 2.81016 70.9862 0 92.1357 0C112.19 0 126.713 2.41253 136.533 7.37589C141.984 10.131 146.148 13.7742 148.904 18.2C151.78 22.8161 153.237 28.4615 153.237 34.9777C153.237 44.1076 149.918 51.1267 143.091 56.4342C137.188 61.0236 129.648 63.664 122.355 66.2179C117.276 67.9971 112.48 69.6772 108.724 71.876C104.653 74.2587 102.381 76.9211 101.572 80.253L101.4 80.9729ZM67.8428 79.0869H99.9439C102.346 71.2285 111.773 67.9279 121.737 64.4372C128.888 61.9336 136.281 59.3434 141.94 54.9427C148.277 50.0171 151.358 43.4852 151.358 34.9777C151.358 22.8679 146.232 14.3903 135.687 9.06073C126.136 4.23253 111.891 1.88601 92.1357 1.88601C71.3356 1.88601 57.0526 4.61288 47.1854 10.4689C35.5929 17.3482 29.8484 28.8293 29.6415 45.5457H63.8377C63.9552 42.5516 64.6478 40.1061 65.9437 38.0896C67.3101 35.9663 69.3174 34.3679 72.0799 33.2048C75.3142 31.8422 80.1812 30.5833 93.7747 30.5833C102.225 30.5833 107.885 31.333 111.587 32.9424C115.346 34.5769 117.173 37.1796 117.173 40.8982C117.173 44.6467 115.211 47.4364 111.174 49.4277C107.715 51.1361 103.018 52.1546 98.0463 53.2343C91.2112 54.718 83.4625 56.3997 77.6223 60.2283C71.2667 64.3964 68.0622 70.5715 67.8428 79.0869Z" fill="#51A755"/>
<path d="M0.000605094 68.8663C-0.0542391 56.8603 3.62972 48.1972 6.73077 43.0452C10.1092 37.4328 13.4797 34.6949 13.6223 34.5817L41.4346 12.1602L42.613 13.6297L14.7991 36.0544C14.7662 36.0811 11.5006 38.7451 8.29461 44.0998C5.33929 49.0333 1.82927 57.3334 1.88098 68.8585L0.000605094 68.8663Z" fill="#51A755"/>
<path d="M28.3175 45.462L0.301514 67.625L1.46603 69.1059L29.482 46.9429L28.3175 45.462Z" fill="#51A755"/>
<path d="M64.148 45.4721L36.4124 68.1348L37.6 69.597L65.3356 46.9343L64.148 45.4721Z" fill="#51A755"/>
<path d="M39.9913 102.9L40.0038 102.887L38.675 101.553C39.2031 101.023 61.7268 82.5088 66.2366 78.8027L67.429 80.2613C60.0251 86.3452 40.6682 102.269 39.9913 102.9Z" fill="#51A755"/>
<path d="M38.1973 102.406C38.1785 90.953 43.7585 84.9759 43.9951 84.7276L44.0374 84.682L44.086 84.6427L73.8194 60.7422L74.9946 62.2133L45.3177 86.0714C45.0967 86.3165 43.8933 87.7153 42.7055 90.1829C41.5021 92.6866 40.0683 96.8389 40.0777 102.404L38.1973 102.406Z" fill="#51A755"/>
<path d="M66.2265 90.4557L38.7354 113.398L39.938 114.848L67.4291 91.9055L66.2265 90.4557Z" fill="#51A755"/>
<path d="M66.2407 116.941L38.7493 139.316L39.9341 140.781L67.4255 118.406L66.2407 116.941Z" fill="#51A755"/>
<path d="M100.052 116.943L71.9998 139.316L73.1701 140.793L101.222 118.419L100.052 116.943Z" fill="#51A755"/>
<path d="M72.5847 140.056L100.635 117.682H66.8307L39.3381 140.056H72.5847Z" fill="#51A755"/>
<path d="M38.2128 113.592L37.8489 140.041L39.7291 140.067L40.093 113.618L38.2128 113.592Z" fill="#51A755"/>
<path d="M66.8917 80.0293L39.1375 102.404H53.3766L66.7272 91.8688L86.4178 92.2711L100.66 80.0293H66.8917Z" fill="#51A755"/>
<path d="M89.3731 90.4462L88.9233 88.6152C109.869 83.4381 118.856 73.9075 118.943 73.8116L118.987 73.7645L119.036 73.7236L140.972 55.6367L142.166 57.0937L120.275 75.1428C119.915 75.5216 117.599 77.8697 112.937 80.8009C108.374 83.6739 100.58 87.677 89.3731 90.4462Z" fill="#51A755"/>
<path d="M54.6191 54.3103L64.759 46.4896C64.759 46.4896 63.2093 35.9012 75.8188 33.2294C88.4282 30.5575 111.261 29.9776 114.674 36.2344C118.086 42.4913 116.842 50.3292 92.8675 53.3579L82.9219 56.3865C82.9234 56.3849 76.5756 52.2357 54.6191 54.3103Z" fill="#51A755"/>
</svg>
