<svg width="131" height="155" viewBox="0 0 131 155" fill="none" xmlns="http://www.w3.org/2000/svg">
<path d="M52.1965 114.699C52.3661 115.553 52.269 116.306 51.8541 116.898C51.6294 117.225 51.317 117.48 50.9428 117.662L50.8634 117.695C48.8812 118.605 45.1519 117.667 41.6622 115.221C38.4646 112.98 36.3916 110.119 36.1946 107.985C36.1927 107.955 36.1874 107.931 36.185 107.9C36.143 107.256 36.2756 106.679 36.6016 106.211C36.9549 105.707 37.5028 105.376 38.1926 105.206C38.6123 107.278 40.7676 109.928 43.746 112.014C46.7595 114.125 50.098 115.057 52.1965 114.699Z" fill="#0C3989"/>
<path d="M52.1967 114.699C50.0982 115.057 46.7597 114.125 43.744 112.015C40.7661 109.931 38.6116 107.28 38.1906 105.207C38.9319 105.027 39.8331 105.033 40.8307 105.216C42.633 105.548 44.7547 106.462 46.7929 107.891C49.0787 109.494 50.7948 111.413 51.6495 113.155C51.915 113.689 52.1015 114.212 52.1967 114.699Z" fill="#0A2A59"/>
<path d="M73.877 99.5664C73.8799 99.585 73.8791 99.6068 73.8769 99.6277" stroke="#95F4F4" stroke-width="2" stroke-miterlimit="10" stroke-linecap="round" stroke-linejoin="round"/>
<path d="M71.3927 89.3746C71.3877 89.3622 71.3794 89.355 71.373 89.3418" stroke="#95F4F4" stroke-width="2" stroke-miterlimit="10" stroke-linecap="round" stroke-linejoin="round"/>
<path d="M68.1349 84.9766C68.134 84.9725 68.1291 84.9746 68.127 84.9697" stroke="#95F4F4" stroke-width="2" stroke-miterlimit="10" stroke-linecap="round" stroke-linejoin="round"/>
<path d="M42.5968 77.3045C42.5791 77.3118 42.5605 77.3148 42.5428 77.3221" stroke="#95F4F4" stroke-width="2" stroke-miterlimit="10" stroke-linecap="round" stroke-linejoin="round"/>
<path d="M100.259 39.3173C99.4094 38.8145 98.5009 38.4708 97.5597 38.284C93.1347 37.4017 88.0207 39.9286 85.1235 44.8005C81.611 50.7107 82.6873 57.8358 87.5331 60.7181C87.6221 60.7693 87.712 60.8247 87.803 60.8697C91.4462 62.8637 96.1007 61.9343 99.6441 58.8584C100.792 57.8679 101.823 56.6476 102.668 55.2306C104.956 51.3877 105.299 47.0227 103.918 43.6512C103.179 41.8448 101.95 40.3227 100.259 39.3173ZM101.653 54.1236C99.2737 58.1285 94.6822 59.7918 91.3977 57.8396C91.3016 57.782 91.2032 57.7193 91.1131 57.6525L91.1087 57.6534C88.0731 55.5924 87.4582 50.9346 89.7649 47.0532C91.524 44.0981 94.4895 42.4153 97.2393 42.5287C98.2116 42.567 99.1578 42.8282 100.016 43.3382C103.301 45.2927 104.029 50.1197 101.653 54.1236Z" fill="#46EFF9"/>
<path d="M98.5827 53.1304C96.8236 56.0856 93.8663 57.7642 91.1113 57.6532L91.107 57.6542C88.0713 55.5932 87.4564 50.9353 89.7631 47.054C91.5222 44.0988 94.4878 42.4161 97.2375 42.5294C100.272 44.5861 100.89 49.2477 98.5827 53.1304Z" fill="#0A2A59"/>
<path d="M101.653 54.1226C99.2735 58.1275 94.6821 59.7908 91.3976 57.8385C91.3015 57.781 91.2031 57.7183 91.113 57.6514C93.8671 57.7638 96.8253 56.0838 98.5843 53.1287C100.892 49.246 100.275 44.5851 97.2405 42.5285C98.2128 42.5669 99.159 42.828 100.018 43.338C103.301 45.2917 104.029 50.1186 101.653 54.1226Z" fill="#0C3989"/>
<path d="M60.9185 111.803C60.7126 112.152 60.4481 112.459 60.1408 112.727C56.7538 114.962 53.6592 116.536 50.9412 117.66C51.3154 117.478 51.627 117.224 51.8526 116.897C52.2674 116.305 52.3667 115.551 52.1949 114.697C52.0997 114.21 51.9132 113.687 51.6486 113.152C51.6486 113.152 56.462 112.228 60.71 106.845C61.5904 108.708 61.7327 110.435 60.9185 111.803Z" fill="#0A2A59"/>
<path d="M87.8045 60.868C79.1218 77.1855 72.8406 82.5869 72.8177 82.5965C73.8499 83.3239 73.2012 86.1156 71.3932 89.3762C73.2477 92.7411 73.9553 96.7549 73.8787 99.5673C74.5479 99.3508 75.2609 99.177 76.0324 99.0463C76.0324 99.0463 76.0336 99.062 76.0399 99.0903C79.5843 95.1772 82.8706 90.6189 86.4763 85.1665C92.3271 76.3284 96.6736 67.1425 99.6461 58.8589C96.103 61.9313 91.4463 62.8611 87.8045 60.868ZM75.8789 91.6531C75.628 92.0055 75.142 92.0902 74.7862 91.8446C74.4338 91.5937 74.3447 91.1087 74.5947 90.7519C74.8456 90.3995 75.3306 90.3104 75.6874 90.5604C76.0385 90.8104 76.1223 91.2978 75.8789 91.6531Z" fill="#30B6F3"/>
<path d="M103.917 43.6492C103.179 41.8437 101.949 40.3207 100.259 39.3162C99.4094 38.8134 98.5009 38.4697 97.5597 38.2828C98.1844 36.5231 98.8252 34.48 99.4258 32.6113C102.856 36.3414 104.56 40.8222 103.917 43.6492Z" fill="#30B6F3"/>
<path d="M106.571 22.8987C106.391 28.0167 105.629 35.5532 103.919 43.651C104.564 40.8248 102.858 36.3431 99.4269 32.6122C98.4123 31.5052 97.2433 30.4643 95.9435 29.5495C90.7758 25.9195 83.6221 25.07 80.1281 26.816C80.1363 26.8119 80.1353 26.8075 80.1374 26.8014C80.1417 26.8004 80.1456 26.7973 80.149 26.792C80.1709 26.7723 80.1877 26.7605 80.1929 26.7583C86.8152 22.0625 93.0981 18.7642 97.652 16.802C101.957 14.9485 106.736 18.2145 106.571 22.8987Z" fill="#B5E1E8"/>
<path d="M71.3918 89.3742C70.9183 90.2224 70.3685 91.1079 69.7509 91.9914C66.7502 96.2662 63.2669 98.9896 61.961 98.0783C60.6613 97.1691 62.0309 92.9595 65.0287 88.6866C66.0381 87.2414 67.1054 85.9752 68.1278 84.9702C70.1305 82.982 71.9484 81.9906 72.8154 82.5958C73.8472 83.3211 73.1989 86.1149 71.3918 89.3742Z" fill="#46EFF9"/>
<path d="M95.9412 29.5495C90.7735 25.9196 83.6197 25.07 80.1257 26.816L80.1214 26.817C80.1214 26.817 80.1214 26.817 80.117 26.818C78.7621 27.9662 58.7914 45.2282 49.8984 59.5322C46.6471 64.7542 44.0302 69.8142 42.1177 74.2592C42.4012 75.3339 42.55 76.347 42.5983 77.3035C46.3746 76.0386 54.6318 74.8146 63.356 80.935C65.2015 82.2259 66.8413 83.64 68.1286 84.9676C70.1313 82.9794 71.9491 81.988 72.8162 82.5932C72.8383 82.5849 79.1204 77.1822 87.803 60.8647C87.712 60.8197 87.6221 60.7642 87.5331 60.7131C82.6873 57.8307 81.611 50.7057 85.1235 44.7955C88.0207 39.9236 93.1347 37.3966 97.5597 38.279C98.1844 36.5192 98.8252 34.4761 99.4258 32.6075C98.41 31.5053 97.2418 30.4631 95.9412 29.5495ZM48.4071 74.3499C48.1605 74.7014 47.6711 74.7914 47.3187 74.5405C46.9611 74.2919 46.8772 73.8046 47.1272 73.4478C47.3737 73.0963 47.8641 73.0107 48.2155 73.2572C48.5718 73.505 48.6557 73.9923 48.4071 74.3499ZM58.0135 75.0953C57.767 75.4468 57.2766 75.5324 56.9252 75.2859C56.5675 75.0373 56.4837 74.5499 56.7284 74.1954C56.9793 73.843 57.4705 73.756 57.8212 74.0039C58.1783 74.2504 58.2621 74.7377 58.0135 75.0953ZM66.9399 79.4352C66.6913 79.7928 66.204 79.8767 65.8516 79.6258C65.4971 79.381 65.4101 78.8898 65.6558 78.5397C65.9044 78.1821 66.3961 78.0973 66.7485 78.3482C67.1052 78.5925 67.1908 79.0828 66.9399 79.4352Z" fill="#87DDF4"/>
<path d="M73.8797 99.5658C66.5155 101.941 65.134 109.07 65.134 109.07L65.1539 109.103C63.4155 110.474 61.748 111.675 60.1458 112.728C60.4531 112.46 60.7176 112.154 60.9235 111.804C61.7377 110.436 61.5949 108.707 60.7155 106.849C59.4717 104.215 56.7465 101.312 53.1744 98.7935C52.8816 98.5899 52.5866 98.3868 52.2855 98.1874C49.0093 96.0197 45.1543 94.9884 41.9634 95.0333C39.2093 95.0705 36.9523 95.9147 35.9981 97.5167C36.2233 94.6737 36.667 91.5905 37.4147 88.3065L37.4419 88.3107C37.4419 88.3107 42.9333 84.4442 42.6012 77.3074C46.3775 76.0425 54.6347 74.8185 63.359 80.9389C65.2045 82.2298 66.8443 83.6438 68.1315 84.9715C67.1091 85.9765 66.041 87.244 65.0324 88.6879C62.036 92.9616 60.665 97.1704 61.9647 98.0796C63.2698 98.9922 66.7539 96.2674 69.7546 91.9927C70.3736 91.1101 70.9233 90.2245 71.3955 89.3755C73.2478 92.7409 73.9563 96.7533 73.8797 99.5658Z" fill="#87DDF4"/>
<path d="M41.9602 95.0321C39.3475 99.8274 40.8311 105.217 40.8311 105.217C39.8349 105.034 38.9324 105.027 38.1911 105.207C37.5021 105.376 36.9534 105.708 36.6001 106.212C36.2728 106.679 36.1424 107.256 36.1835 107.901C35.8304 104.973 35.6822 101.475 35.992 97.5231C35.992 97.5231 35.9963 97.5221 35.994 97.5169C36.9491 95.9136 39.206 95.0694 41.9602 95.0321Z" fill="#377BDD"/>
<path d="M42.1194 74.2611C42.4028 75.3358 42.5516 76.3489 42.6 77.3054C42.932 84.4422 37.4406 88.3087 37.4406 88.3087L37.4134 88.3045L23.8078 87.4607C22.6577 87.3932 21.9401 86.1782 22.4364 85.1388C23.1567 83.6457 24.2735 81.6537 25.7495 80.1132C28.4675 77.2703 42.1194 74.2611 42.1194 74.2611Z" fill="#B5E1E8"/>
<path d="M76.0297 99.0446C76.0297 99.0446 76.0309 99.0604 76.0372 99.0887C76.2131 99.9302 78.8298 112.851 77.3974 116.379C76.5947 118.357 75.2424 120.193 74.1698 121.461C73.4258 122.341 72.0267 122.18 71.4858 121.16L65.1481 109.103L65.1281 109.07C65.1281 109.07 66.5096 101.941 73.8738 99.5662C74.5452 99.3491 75.2582 99.1754 76.0297 99.0446Z" fill="#0C3989"/>
<path d="M75.8779 91.6529C75.627 92.0053 75.141 92.09 74.7852 91.8444C74.4327 91.5935 74.3437 91.1085 74.5936 90.7517C74.8445 90.3993 75.3296 90.3102 75.6863 90.5602C76.0374 90.8102 76.1213 91.2976 75.8779 91.6529Z" fill="#0C3989"/>
<path d="M66.9421 79.4346C66.6934 79.7922 66.2061 79.876 65.8537 79.6251C65.4992 79.3804 65.4122 78.8892 65.6579 78.539C65.9066 78.1814 66.3982 78.0966 66.7507 78.3475C67.1073 78.5918 67.193 79.0821 66.9421 79.4346Z" fill="#0C3989"/>
<path d="M58.0152 75.0949C57.7686 75.4464 57.2783 75.532 56.9268 75.2855C56.5692 75.0369 56.4854 74.5495 56.7301 74.1951C56.981 73.8426 57.4722 73.7557 57.8228 74.0035C58.1799 74.25 58.2638 74.7373 58.0152 75.0949Z" fill="#0C3989"/>
<path d="M48.4084 74.3495C48.1619 74.7009 47.6725 74.7909 47.3201 74.54C46.9624 74.2914 46.8786 73.8041 47.1285 73.4473C47.3751 73.0958 47.8654 73.0102 48.2169 73.2567C48.5732 73.5045 48.657 73.9918 48.4084 74.3495Z" fill="#0C3989"/>
<path d="M30.941 120.003C30.8365 120.176 30.5189 120.712 30.1131 121.536C30.3223 121.006 30.6023 120.491 30.941 120.003Z" fill="#0C3989"/>
<path d="M44.5732 128.673C44.5294 128.754 44.4794 128.832 44.4309 128.902C40.029 136.222 33.6214 138.291 30.6376 138.864C29.6821 139.051 28.7126 138.525 28.3989 137.597C26.1537 131.027 28.6783 124.46 30.1152 121.535C30.5196 120.71 30.8394 120.174 30.943 120.002C30.9651 119.968 30.9765 119.947 30.9765 119.947C33.537 116.289 38.5826 115.404 42.2395 117.965C45.7154 120.401 46.6898 125.078 44.5732 128.673Z" fill="#0C3989"/>
<path d="M53.1693 98.7922C52.6478 99.5368 47.0855 107.506 46.7915 107.891C44.7533 106.462 42.6316 105.549 40.8293 105.217C40.8293 105.217 39.3443 99.8264 41.9583 95.032C45.1492 94.9871 49.0042 96.0184 52.2804 98.1861C52.5815 98.3855 52.8773 98.5873 53.1693 98.7922Z" fill="#074EE8"/>
<path d="M60.7133 106.847C56.4645 112.231 51.652 113.153 51.652 113.153C50.7964 111.413 49.0811 109.492 46.7953 107.889C47.0888 107.502 52.6516 99.535 53.1732 98.7904C56.7444 101.311 59.4695 104.214 60.7133 106.847Z" fill="#0C3989"/>
<path d="M52.1965 114.699C52.3661 115.553 52.269 116.306 51.8541 116.898C51.6294 117.225 51.317 117.48 50.9428 117.662L50.8634 117.695C48.8812 118.605 45.1519 117.667 41.6622 115.221C38.4646 112.98 36.3916 110.119 36.1946 107.985C36.1927 107.955 36.1874 107.931 36.185 107.9C36.143 107.256 36.2756 106.679 36.6016 106.211C36.9549 105.707 37.5028 105.376 38.1926 105.206C38.6123 107.278 40.7676 109.928 43.746 112.014C46.7595 114.125 50.098 115.057 52.1965 114.699Z" fill="#FFADAD"/>
<path d="M52.1967 114.699C50.0982 115.057 46.7597 114.125 43.744 112.015C40.7661 109.931 38.6116 107.28 38.1906 105.207C38.9319 105.027 39.8331 105.033 40.8307 105.216C42.633 105.548 44.7547 106.462 46.7929 107.891C49.0787 109.494 50.7948 111.413 51.6495 113.155C51.915 113.689 52.1015 114.212 52.1967 114.699Z" fill="#009245"/>
<path d="M73.877 99.5664C73.8799 99.585 73.8791 99.6068 73.8769 99.6277" stroke="#95F4F4" stroke-width="2" stroke-miterlimit="10" stroke-linecap="round" stroke-linejoin="round"/>
<path d="M71.3927 89.3746C71.3877 89.3622 71.3794 89.355 71.373 89.3418" stroke="#95F4F4" stroke-width="2" stroke-miterlimit="10" stroke-linecap="round" stroke-linejoin="round"/>
<path d="M68.1349 84.9766C68.134 84.9725 68.1291 84.9746 68.127 84.9697" stroke="#95F4F4" stroke-width="2" stroke-miterlimit="10" stroke-linecap="round" stroke-linejoin="round"/>
<path d="M42.5968 77.3045C42.5791 77.3118 42.5605 77.3148 42.5428 77.3221" stroke="#95F4F4" stroke-width="2" stroke-miterlimit="10" stroke-linecap="round" stroke-linejoin="round"/>
<path d="M100.259 39.3173C99.4094 38.8145 98.5009 38.4708 97.5597 38.284C93.1347 37.4017 88.0207 39.9286 85.1235 44.8005C81.611 50.7107 82.6873 57.8358 87.5331 60.7181C87.6221 60.7693 87.712 60.8247 87.803 60.8697C91.4462 62.8637 96.1007 61.9343 99.6441 58.8584C100.792 57.8679 101.823 56.6476 102.668 55.2306C104.956 51.3877 105.299 47.0227 103.918 43.6512C103.179 41.8448 101.95 40.3227 100.259 39.3173ZM101.653 54.1236C99.2737 58.1285 94.6822 59.7918 91.3977 57.8396C91.3016 57.782 91.2032 57.7193 91.1131 57.6525L91.1087 57.6534C88.0731 55.5924 87.4582 50.9346 89.7649 47.0532C91.524 44.0981 94.4895 42.4153 97.2393 42.5287C98.2116 42.567 99.1578 42.8282 100.016 43.3382C103.301 45.2927 104.029 50.1197 101.653 54.1236Z" fill="#FFC6FF"/>
<path d="M98.5827 53.1304C96.8236 56.0856 93.8663 57.7642 91.1113 57.6532L91.107 57.6542C88.0713 55.5932 87.4564 50.9353 89.7631 47.054C91.5222 44.0988 94.4878 42.4161 97.2375 42.5294C100.272 44.5861 100.89 49.2477 98.5827 53.1304Z" fill="#009245"/>
<path d="M101.653 54.1226C99.2735 58.1275 94.6821 59.7908 91.3976 57.8385C91.3015 57.781 91.2031 57.7183 91.113 57.6514C93.8671 57.7638 96.8253 56.0838 98.5843 53.1287C100.892 49.246 100.275 44.5851 97.2405 42.5285C98.2128 42.5669 99.159 42.828 100.018 43.338C103.301 45.2917 104.029 50.1186 101.653 54.1226Z" fill="#FFADAD"/>
<path d="M60.9185 111.803C60.7126 112.152 60.4481 112.459 60.1408 112.727C56.7538 114.962 53.6592 116.536 50.9412 117.66C51.3154 117.478 51.627 117.224 51.8526 116.897C52.2674 116.305 52.3667 115.551 52.1949 114.697C52.0997 114.21 51.9132 113.687 51.6486 113.152C51.6486 113.152 56.462 112.228 60.71 106.845C61.5904 108.708 61.7327 110.435 60.9185 111.803Z" fill="#FFADAD"/>
<path d="M87.8045 60.868C79.1218 77.1855 72.8406 82.5869 72.8177 82.5965C73.8499 83.3239 73.2012 86.1156 71.3932 89.3762C73.2477 92.7411 73.9553 96.7549 73.8787 99.5673C74.5479 99.3508 75.2609 99.177 76.0324 99.0463C76.0324 99.0463 76.0336 99.062 76.0399 99.0903C79.5843 95.1772 82.8706 90.6189 86.4763 85.1665C92.3271 76.3284 96.6736 67.1425 99.6461 58.8589C96.103 61.9313 91.4463 62.8611 87.8045 60.868ZM75.8789 91.6531C75.628 92.0055 75.142 92.0902 74.7862 91.8446C74.4338 91.5937 74.3447 91.1087 74.5947 90.7519C74.8456 90.3995 75.3306 90.3104 75.6874 90.5604C76.0385 90.8104 76.1223 91.2978 75.8789 91.6531Z" fill="#009245"/>
<path d="M103.917 43.6492C103.179 41.8437 101.949 40.3207 100.259 39.3162C99.4094 38.8134 98.5009 38.4697 97.5597 38.2828C98.1844 36.5231 98.8252 34.48 99.4258 32.6113C102.856 36.3414 104.56 40.8222 103.917 43.6492Z" fill="#009245"/>
<path d="M106.571 22.8987C106.391 28.0167 105.629 35.5532 103.919 43.651C104.564 40.8248 102.858 36.3431 99.4269 32.6122C98.4123 31.5052 97.2433 30.4643 95.9435 29.5495C90.7758 25.9195 83.6221 25.07 80.1281 26.816C80.1363 26.8119 80.1353 26.8075 80.1374 26.8014C80.1417 26.8004 80.1456 26.7973 80.149 26.792C80.1709 26.7723 80.1877 26.7605 80.1929 26.7583C86.8152 22.0625 93.0981 18.7642 97.652 16.802C101.957 14.9485 106.736 18.2145 106.571 22.8987Z" fill="#FFC6FF"/>
<path d="M71.3918 89.3742C70.9183 90.2224 70.3685 91.1079 69.7509 91.9914C66.7502 96.2662 63.2669 98.9896 61.961 98.0783C60.6613 97.1691 62.0309 92.9595 65.0287 88.6866C66.0381 87.2414 67.1054 85.9752 68.1278 84.9702C70.1305 82.982 71.9484 81.9906 72.8154 82.5958C73.8472 83.3211 73.1989 86.1149 71.3918 89.3742Z" fill="#FFADAD"/>
<path d="M95.9412 29.5495C90.7735 25.9196 83.6197 25.07 80.1257 26.816L80.1214 26.817C80.1214 26.817 80.1214 26.817 80.117 26.818C78.7621 27.9662 58.7914 45.2282 49.8984 59.5322C46.6471 64.7542 44.0302 69.8142 42.1177 74.2592C42.4012 75.3339 42.55 76.347 42.5983 77.3035C46.3746 76.0386 54.6318 74.8146 63.356 80.935C65.2015 82.2259 66.8413 83.64 68.1286 84.9676C70.1313 82.9794 71.9491 81.988 72.8162 82.5932C72.8383 82.5849 79.1204 77.1822 87.803 60.8647C87.712 60.8197 87.6221 60.7642 87.5331 60.7131C82.6873 57.8307 81.611 50.7057 85.1235 44.7955C88.0207 39.9236 93.1347 37.3966 97.5597 38.279C98.1844 36.5192 98.8252 34.4761 99.4258 32.6075C98.41 31.5053 97.2418 30.4631 95.9412 29.5495ZM48.4071 74.3499C48.1605 74.7014 47.6711 74.7914 47.3187 74.5405C46.9611 74.2919 46.8772 73.8046 47.1272 73.4478C47.3737 73.0963 47.8641 73.0107 48.2155 73.2572C48.5718 73.505 48.6557 73.9923 48.4071 74.3499ZM58.0135 75.0953C57.767 75.4468 57.2766 75.5324 56.9252 75.2859C56.5675 75.0373 56.4837 74.5499 56.7284 74.1954C56.9793 73.843 57.4705 73.756 57.8212 74.0039C58.1783 74.2504 58.2621 74.7377 58.0135 75.0953ZM66.9399 79.4352C66.6913 79.7928 66.204 79.8767 65.8516 79.6258C65.4971 79.381 65.4101 78.8898 65.6558 78.5397C65.9044 78.1821 66.3961 78.0973 66.7485 78.3482C67.1052 78.5925 67.1908 79.0828 66.9399 79.4352Z" fill="#FFC6FF"/>
<path d="M73.8797 99.5658C66.5155 101.941 65.134 109.07 65.134 109.07L65.1539 109.103C63.4155 110.474 61.748 111.675 60.1458 112.728C60.4531 112.46 60.7176 112.154 60.9235 111.804C61.7377 110.436 61.5949 108.707 60.7155 106.849C59.4717 104.215 56.7465 101.312 53.1744 98.7935C52.8816 98.5899 52.5866 98.3868 52.2855 98.1874C49.0093 96.0197 45.1543 94.9884 41.9634 95.0333C39.2093 95.0705 36.9523 95.9147 35.9981 97.5167C36.2233 94.6737 36.667 91.5905 37.4147 88.3065L37.4419 88.3107C37.4419 88.3107 42.9333 84.4442 42.6012 77.3074C46.3775 76.0425 54.6347 74.8185 63.359 80.9389C65.2045 82.2298 66.8443 83.6438 68.1315 84.9715C67.1091 85.9765 66.041 87.244 65.0324 88.6879C62.036 92.9616 60.665 97.1704 61.9647 98.0796C63.2698 98.9922 66.7539 96.2674 69.7546 91.9927C70.3736 91.1101 70.9233 90.2245 71.3955 89.3755C73.2478 92.7409 73.9563 96.7533 73.8797 99.5658Z" fill="#FFC6FF"/>
<path d="M41.9602 95.0321C39.3475 99.8274 40.8311 105.217 40.8311 105.217C39.8349 105.034 38.9324 105.027 38.1911 105.207C37.5021 105.376 36.9534 105.708 36.6001 106.212C36.2728 106.679 36.1424 107.256 36.1835 107.901C35.8304 104.973 35.6822 101.475 35.992 97.5231C35.992 97.5231 35.9963 97.5221 35.994 97.5169C36.9491 95.9136 39.206 95.0694 41.9602 95.0321Z" fill="#FFADAD"/>
<path d="M42.1194 74.2611C42.4028 75.3358 42.5516 76.3489 42.6 77.3054C42.932 84.4422 37.4406 88.3087 37.4406 88.3087L37.4134 88.3045L23.8078 87.4607C22.6577 87.3932 21.9401 86.1782 22.4364 85.1388C23.1567 83.6457 24.2735 81.6537 25.7495 80.1132C28.4675 77.2703 42.1194 74.2611 42.1194 74.2611Z" fill="#FFC6FF"/>
<path d="M76.0297 99.0446C76.0297 99.0446 76.0309 99.0604 76.0372 99.0887C76.2131 99.9302 78.8298 112.851 77.3974 116.379C76.5947 118.357 75.2424 120.193 74.1698 121.461C73.4258 122.341 72.0267 122.18 71.4858 121.16L65.1481 109.103L65.1281 109.07C65.1281 109.07 66.5096 101.941 73.8738 99.5662C74.5452 99.3491 75.2582 99.1754 76.0297 99.0446Z" fill="#FFC6FF"/>
<path d="M75.8779 91.6529C75.627 92.0053 75.141 92.09 74.7852 91.8444C74.4327 91.5935 74.3437 91.1085 74.5936 90.7517C74.8445 90.3993 75.3296 90.3102 75.6863 90.5602C76.0374 90.8102 76.1213 91.2976 75.8779 91.6529Z" fill="#0C3989"/>
<path d="M66.9421 79.4346C66.6934 79.7922 66.2061 79.876 65.8537 79.6251C65.4992 79.3804 65.4122 78.8892 65.6579 78.539C65.9066 78.1814 66.3982 78.0966 66.7507 78.3475C67.1073 78.5918 67.193 79.0821 66.9421 79.4346Z" fill="#0C3989"/>
<path d="M58.0152 75.0949C57.7686 75.4464 57.2783 75.532 56.9268 75.2855C56.5692 75.0369 56.4854 74.5495 56.7301 74.1951C56.981 73.8426 57.4722 73.7557 57.8228 74.0035C58.1799 74.25 58.2638 74.7373 58.0152 75.0949Z" fill="#0C3989"/>
<path d="M30.941 120.003C30.8365 120.176 30.5189 120.712 30.1131 121.536C30.3223 121.006 30.6023 120.491 30.941 120.003Z" fill="#0C3989"/>
<path d="M44.5732 128.673C44.5294 128.754 44.4794 128.832 44.4309 128.902C40.029 136.222 33.6214 138.291 30.6376 138.864C29.6821 139.051 28.7126 138.525 28.3989 137.597C26.1537 131.027 28.6783 124.46 30.1152 121.535C30.5196 120.71 30.8394 120.174 30.943 120.002C30.9651 119.968 30.9765 119.947 30.9765 119.947C33.537 116.289 38.5826 115.404 42.2395 117.965C45.7154 120.401 46.6898 125.078 44.5732 128.673Z" fill="#FFADAD"/>
<path d="M53.1693 98.7922C52.6478 99.5368 47.0855 107.506 46.7915 107.891C44.7533 106.462 42.6316 105.549 40.8293 105.217C40.8293 105.217 39.3443 99.8264 41.9583 95.032C45.1492 94.9871 49.0042 96.0184 52.2804 98.1861C52.5815 98.3855 52.8773 98.5873 53.1693 98.7922Z" fill="#FFADAD"/>
<path d="M60.7133 106.847C56.4645 112.231 51.652 113.153 51.652 113.153C50.7964 111.413 49.0811 109.492 46.7953 107.889C47.0888 107.502 52.6516 99.535 53.1732 98.7904C56.7444 101.311 59.4695 104.214 60.7133 106.847Z" fill="#FFADAD"/>
<path d="M52.1965 114.699C52.3661 115.553 52.269 116.306 51.8541 116.898C51.6294 117.225 51.317 117.48 50.9428 117.662L50.8634 117.695C48.8812 118.605 45.1519 117.667 41.6622 115.221C38.4646 112.98 36.3916 110.119 36.1946 107.985C36.1927 107.955 36.1874 107.931 36.185 107.9C36.143 107.256 36.2756 106.679 36.6016 106.211C36.9549 105.707 37.5028 105.376 38.1926 105.206C38.6123 107.278 40.7676 109.928 43.746 112.014C46.7595 114.125 50.098 115.057 52.1965 114.699Z" stroke="#009245" stroke-width="2" stroke-miterlimit="10"/>
<path d="M52.1967 114.699C50.0982 115.057 46.7597 114.125 43.744 112.015C40.7661 109.931 38.6116 107.28 38.1906 105.207C38.9319 105.027 39.8331 105.033 40.8307 105.216C42.633 105.548 44.7547 106.462 46.7929 107.891C49.0787 109.494 50.7948 111.413 51.6495 113.155C51.915 113.689 52.1015 114.212 52.1967 114.699Z" stroke="#009245" stroke-width="2" stroke-miterlimit="10"/>
<path d="M73.877 99.5664C73.8799 99.585 73.8791 99.6068 73.8769 99.6277" stroke="#009245" stroke-width="2" stroke-miterlimit="10"/>
<path d="M71.3927 89.3746C71.3877 89.3622 71.3794 89.355 71.373 89.3418" stroke="#009245" stroke-width="2" stroke-miterlimit="10"/>
<path d="M68.1349 84.9766C68.134 84.9725 68.1291 84.9746 68.127 84.9697" stroke="#009245" stroke-width="2" stroke-miterlimit="10"/>
<path d="M42.5968 77.3045C42.5791 77.3118 42.5605 77.3148 42.5428 77.3221" stroke="#009245" stroke-width="2" stroke-miterlimit="10"/>
<path d="M100.259 39.3173C99.4094 38.8145 98.5009 38.4708 97.5597 38.284C93.1347 37.4017 88.0207 39.9286 85.1235 44.8005C81.611 50.7107 82.6873 57.8358 87.5331 60.7181C87.6221 60.7693 87.712 60.8247 87.803 60.8697C91.4462 62.8637 96.1007 61.9343 99.6441 58.8584C100.792 57.8679 101.823 56.6476 102.668 55.2306C104.956 51.3877 105.299 47.0227 103.918 43.6512C103.179 41.8448 101.95 40.3227 100.259 39.3173ZM101.653 54.1236C99.2737 58.1285 94.6822 59.7918 91.3977 57.8396C91.3016 57.782 91.2032 57.7193 91.1131 57.6525L91.1087 57.6534C88.0731 55.5924 87.4582 50.9346 89.7649 47.0532C91.524 44.0981 94.4895 42.4153 97.2393 42.5287C98.2116 42.567 99.1578 42.8282 100.016 43.3382C103.301 45.2927 104.029 50.1197 101.653 54.1236Z" stroke="#009245" stroke-width="2" stroke-miterlimit="10"/>
<path d="M98.5827 53.1304C96.8236 56.0856 93.8663 57.7642 91.1113 57.6532L91.107 57.6542C88.0713 55.5932 87.4564 50.9353 89.7631 47.054C91.5222 44.0988 94.4878 42.4161 97.2375 42.5294C100.272 44.5861 100.89 49.2477 98.5827 53.1304Z" stroke="#009245" stroke-width="2" stroke-miterlimit="10"/>
<path d="M101.653 54.1226C99.2735 58.1275 94.6821 59.7908 91.3976 57.8385C91.3015 57.781 91.2031 57.7183 91.113 57.6514C93.8671 57.7638 96.8253 56.0838 98.5843 53.1287C100.892 49.246 100.275 44.5851 97.2405 42.5285C98.2128 42.5669 99.159 42.828 100.018 43.338C103.301 45.2917 104.029 50.1186 101.653 54.1226Z" stroke="#009245" stroke-width="2" stroke-miterlimit="10"/>
<path d="M60.9185 111.803C60.7126 112.152 60.4481 112.459 60.1408 112.727C56.7538 114.962 53.6592 116.536 50.9412 117.66C51.3154 117.478 51.627 117.224 51.8526 116.897C52.2674 116.305 52.3667 115.551 52.1949 114.697C52.0997 114.21 51.9132 113.687 51.6486 113.152C51.6486 113.152 56.462 112.228 60.71 106.845C61.5904 108.708 61.7327 110.435 60.9185 111.803Z" stroke="#009245" stroke-width="2" stroke-miterlimit="10"/>
<path d="M87.8045 60.868C79.1218 77.1855 72.8406 82.5869 72.8177 82.5965C73.8499 83.3239 73.2012 86.1156 71.3932 89.3762C73.2477 92.7411 73.9553 96.7549 73.8787 99.5673C74.5479 99.3508 75.2609 99.177 76.0324 99.0463C76.0324 99.0463 76.0336 99.062 76.0399 99.0903C79.5843 95.1772 82.8706 90.6189 86.4763 85.1665C92.3272 76.3284 96.6736 67.1425 99.6461 58.8589C96.103 61.9313 91.4463 62.8611 87.8045 60.868ZM75.8789 91.6531C75.628 92.0055 75.142 92.0902 74.7862 91.8446C74.4338 91.5937 74.3447 91.1087 74.5947 90.7519C74.8456 90.3995 75.3306 90.3104 75.6874 90.5604C76.0385 90.8104 76.1223 91.2978 75.8789 91.6531Z" stroke="#009245" stroke-width="2" stroke-miterlimit="10"/>
<path d="M103.917 43.6492C103.179 41.8437 101.949 40.3207 100.259 39.3162C99.4094 38.8134 98.5009 38.4697 97.5597 38.2828C98.1844 36.5231 98.8252 34.48 99.4258 32.6113C102.856 36.3414 104.56 40.8222 103.917 43.6492Z" stroke="#009245" stroke-width="2" stroke-miterlimit="10"/>
<path d="M106.571 22.8987C106.391 28.0167 105.629 35.5532 103.919 43.651C104.564 40.8248 102.858 36.3431 99.4269 32.6122C98.4123 31.5052 97.2433 30.4643 95.9435 29.5495C90.7758 25.9195 83.6221 25.07 80.1281 26.816C80.1363 26.8119 80.1353 26.8075 80.1374 26.8014C80.1417 26.8004 80.1456 26.7973 80.149 26.792C80.1709 26.7723 80.1877 26.7605 80.1929 26.7583C86.8152 22.0625 93.0981 18.7642 97.652 16.802C101.957 14.9485 106.736 18.2145 106.571 22.8987Z" stroke="#009245" stroke-width="2" stroke-miterlimit="10"/>
<path d="M71.3918 89.3742C70.9183 90.2224 70.3685 91.1079 69.7509 91.9914C66.7502 96.2662 63.2669 98.9896 61.961 98.0783C60.6613 97.1691 62.0309 92.9595 65.0287 88.6866C66.0381 87.2414 67.1054 85.9752 68.1278 84.9702C70.1305 82.982 71.9484 81.9906 72.8154 82.5958C73.8472 83.3211 73.1989 86.1149 71.3918 89.3742Z" stroke="#009245" stroke-width="2" stroke-miterlimit="10"/>
<path d="M95.9412 29.5495C90.7735 25.9196 83.6197 25.07 80.1257 26.816L80.1214 26.817C80.1214 26.817 80.1214 26.817 80.117 26.818C78.7621 27.9662 58.7914 45.2282 49.8984 59.5322C46.6471 64.7542 44.0302 69.8142 42.1177 74.2592C42.4012 75.3339 42.55 76.347 42.5983 77.3035C46.3746 76.0386 54.6318 74.8146 63.356 80.935C65.2015 82.2259 66.8413 83.64 68.1286 84.9676C70.1313 82.9794 71.9491 81.988 72.8162 82.5932C72.8383 82.5849 79.1204 77.1822 87.803 60.8647C87.712 60.8197 87.6221 60.7642 87.5331 60.7131C82.6873 57.8307 81.611 50.7057 85.1235 44.7955C88.0207 39.9236 93.1347 37.3966 97.5597 38.279C98.1844 36.5192 98.8252 34.4761 99.4258 32.6075C98.41 31.5053 97.2418 30.4631 95.9412 29.5495ZM48.4071 74.3499C48.1605 74.7014 47.6711 74.7914 47.3187 74.5405C46.9611 74.2919 46.8772 73.8046 47.1272 73.4478C47.3737 73.0963 47.8641 73.0107 48.2155 73.2572C48.5718 73.505 48.6557 73.9923 48.4071 74.3499ZM58.0135 75.0953C57.767 75.4468 57.2766 75.5324 56.9252 75.2859C56.5675 75.0373 56.4837 74.5499 56.7284 74.1954C56.9793 73.843 57.4705 73.756 57.8212 74.0039C58.1783 74.2504 58.2621 74.7377 58.0135 75.0953ZM66.9399 79.4352C66.6913 79.7928 66.204 79.8767 65.8516 79.6258C65.4971 79.381 65.4101 78.8898 65.6558 78.5397C65.9044 78.1821 66.3961 78.0973 66.7485 78.3482C67.1052 78.5925 67.1908 79.0828 66.9399 79.4352Z" stroke="#009245" stroke-width="2" stroke-miterlimit="10"/>
<path d="M73.8797 99.5658C66.5155 101.941 65.134 109.07 65.134 109.07L65.1539 109.103C63.4155 110.474 61.7481 111.675 60.1458 112.728C60.4531 112.46 60.7176 112.154 60.9235 111.804C61.7377 110.436 61.5949 108.707 60.7155 106.849C59.4717 104.215 56.7465 101.312 53.1744 98.7935C52.8816 98.5899 52.5866 98.3868 52.2855 98.1874C49.0093 96.0197 45.1543 94.9884 41.9634 95.0333C39.2093 95.0705 36.9523 95.9147 35.9981 97.5167C36.2233 94.6737 36.667 91.5905 37.4147 88.3065L37.4419 88.3107C37.4419 88.3107 42.9333 84.4442 42.6012 77.3074C46.3775 76.0425 54.6347 74.8185 63.359 80.9389C65.2045 82.2298 66.8443 83.6438 68.1315 84.9715C67.1091 85.9765 66.041 87.244 65.0324 88.6879C62.036 92.9616 60.665 97.1704 61.9647 98.0796C63.2698 98.9922 66.7539 96.2674 69.7546 91.9927C70.3736 91.1101 70.9233 90.2245 71.3955 89.3755C73.2478 92.7409 73.9563 96.7533 73.8797 99.5658Z" stroke="#009245" stroke-width="2" stroke-miterlimit="10"/>
<path d="M41.9602 95.0321C39.3475 99.8274 40.8311 105.217 40.8311 105.217C39.8349 105.034 38.9324 105.027 38.1911 105.207C37.5021 105.376 36.9534 105.708 36.6001 106.212C36.2728 106.679 36.1424 107.256 36.1835 107.901C35.8304 104.973 35.6822 101.475 35.992 97.5231C35.992 97.5231 35.9963 97.5221 35.994 97.5169C36.9491 95.9136 39.206 95.0694 41.9602 95.0321Z" stroke="#009245" stroke-width="2" stroke-miterlimit="10"/>
<path d="M42.1194 74.2611C42.4028 75.3358 42.5516 76.3489 42.6 77.3054C42.932 84.4422 37.4406 88.3087 37.4406 88.3087L37.4134 88.3045L23.8078 87.4607C22.6577 87.3932 21.9401 86.1782 22.4364 85.1388C23.1567 83.6457 24.2735 81.6537 25.7495 80.1132C28.4675 77.2703 42.1194 74.2611 42.1194 74.2611Z" stroke="#009245" stroke-width="2" stroke-miterlimit="10"/>
<path d="M76.0297 99.0446C76.0297 99.0446 76.0309 99.0604 76.0372 99.0887C76.2131 99.9302 78.8298 112.851 77.3974 116.379C76.5947 118.357 75.2424 120.193 74.1698 121.461C73.4258 122.341 72.0267 122.18 71.4858 121.16L65.1481 109.103L65.1281 109.07C65.1281 109.07 66.5096 101.941 73.8738 99.5662C74.5452 99.3491 75.2582 99.1754 76.0297 99.0446Z" stroke="#009245" stroke-width="2" stroke-miterlimit="10"/>
<path d="M75.8779 91.6529C75.627 92.0053 75.141 92.09 74.7852 91.8444C74.4327 91.5935 74.3437 91.1085 74.5936 90.7517C74.8445 90.3993 75.3296 90.3102 75.6863 90.5602C76.0374 90.8102 76.1213 91.2976 75.8779 91.6529Z" fill="#009245"/>
<path d="M66.9421 79.4346C66.6934 79.7922 66.2061 79.876 65.8537 79.6251C65.4992 79.3804 65.4122 78.8892 65.6579 78.539C65.9066 78.1814 66.3982 78.0966 66.7507 78.3475C67.1073 78.5918 67.193 79.0821 66.9421 79.4346Z" fill="#009245"/>
<path d="M58.0152 75.0949C57.7686 75.4464 57.2783 75.532 56.9268 75.2855C56.5692 75.0369 56.4854 74.5495 56.7301 74.1951C56.981 73.8426 57.4722 73.7557 57.8228 74.0035C58.1799 74.25 58.2638 74.7373 58.0152 75.0949Z" fill="#009245"/>
<path d="M48.4084 74.3495C48.1619 74.7009 47.6725 74.7909 47.3201 74.54C46.9624 74.2914 46.8786 73.8041 47.1285 73.4473C47.3751 73.0958 47.8654 73.0102 48.2169 73.2567C48.5732 73.5045 48.657 73.9918 48.4084 74.3495Z" fill="#009245"/>
<path d="M30.941 120.003C30.8365 120.176 30.5189 120.712 30.1131 121.536C30.3223 121.006 30.6023 120.491 30.941 120.003Z" stroke="#009245" stroke-width="2" stroke-miterlimit="10"/>
<path d="M44.5732 128.673C44.5294 128.754 44.4794 128.832 44.4309 128.902C40.029 136.222 33.6214 138.291 30.6376 138.864C29.6821 139.051 28.7126 138.525 28.3989 137.597C26.1537 131.027 28.6783 124.46 30.1152 121.535C30.5196 120.71 30.8394 120.174 30.943 120.002C30.9651 119.968 30.9765 119.947 30.9765 119.947C33.537 116.289 38.5826 115.404 42.2395 117.965C45.7154 120.401 46.6898 125.078 44.5732 128.673Z" stroke="#009245" stroke-width="2" stroke-miterlimit="10"/>
<path d="M53.1693 98.7922C52.6478 99.5368 47.0855 107.506 46.7915 107.891C44.7533 106.462 42.6316 105.549 40.8293 105.217C40.8293 105.217 39.3443 99.8264 41.9583 95.032C45.1492 94.9871 49.0042 96.0184 52.2804 98.1861C52.5815 98.3855 52.8773 98.5873 53.1693 98.7922Z" stroke="#009245" stroke-width="2" stroke-miterlimit="10"/>
<path d="M60.7133 106.847C56.4645 112.231 51.652 113.153 51.652 113.153C50.7964 111.413 49.0811 109.492 46.7953 107.889C47.0888 107.502 52.6516 99.535 53.1732 98.7904C56.7444 101.311 59.4695 104.214 60.7133 106.847Z" stroke="#009245" stroke-width="2" stroke-miterlimit="10"/>
<path d="M44.6328 85.0518C43.6515 87.2798 42.7198 89.5563 41.8476 91.8801" stroke="#009245" stroke-width="2" stroke-miterlimit="10"/>
<path d="M47.127 79.6982C46.69 80.5828 46.2599 81.4774 45.8395 82.38" stroke="#009245" stroke-width="2" stroke-miterlimit="10"/>
<path d="M62.2637 55.2763C58.3582 60.4683 54.5454 66.1515 51.0527 72.3005" stroke="#009245" stroke-width="2" stroke-miterlimit="10"/>
<path d="M74.5342 40.6804C72.1227 43.2626 69.656 46.0488 67.1889 49.035" stroke="#009245" stroke-width="2" stroke-miterlimit="10"/>
<path d="M78.5796 36.4802C78.1493 36.9145 77.7156 37.3542 77.279 37.8014" stroke="#009245" stroke-width="2" stroke-miterlimit="10"/>
<path d="M86.8263 28.6648C84.8617 30.4173 82.7499 32.3771 80.5407 34.5365" stroke="#009245" stroke-width="2" stroke-miterlimit="10"/>
<path d="M96.3996 20.7228C95.2978 21.5649 93.9756 22.6031 92.4753 23.8326" stroke="#009245" stroke-width="2" stroke-miterlimit="10"/>
<path d="M100.042 18.0601C100.042 18.0601 99.4069 18.4895 98.2622 19.3285" stroke="#009245" stroke-width="2" stroke-miterlimit="10"/>
<path d="M29.2236 80.6326C28.1463 80.9612 27.191 81.3244 26.4694 81.7227" stroke="#009245" stroke-width="2" stroke-miterlimit="10"/>
<path d="M40.6969 78.4694C40.6969 78.4694 35.7839 79.0094 31.4707 80.0311" stroke="#009245" stroke-width="2" stroke-miterlimit="10"/>
<path d="M30.4785 127.624C29.768 130.885 29.7295 133.462 29.7295 133.462" stroke="#009245" stroke-width="2" stroke-miterlimit="10"/>
<path d="M33.7946 121.732C33.1028 122.538 32.4207 123.538 31.8186 124.775" stroke="#009245" stroke-width="2" stroke-miterlimit="10"/>
<path d="M38.7495 118.492C38.7495 118.492 37.2647 118.636 35.5259 119.706" stroke="#009245" stroke-width="2" stroke-miterlimit="10"/>
</svg>
