<svg width="654" height="444" viewBox="0 0 654 444" fill="none" xmlns="http://www.w3.org/2000/svg">
<rect x="46" y="59.3385" width="558" height="357.009" rx="15" fill="#FFD4A3" fill-opacity="0.5"/>
<g clip-path="url(#clip0)">
<path d="M21.9709 401.888C88.6159 331.539 152.82 259.243 214.582 184.757C221.906 175.993 229.474 166.987 239.727 161.632C249.98 156.52 263.651 156.276 271.707 164.309C264.383 187.678 244.853 204.961 228.009 222.73C178.697 274.336 144.275 338.599 95.4513 390.691C77.8746 409.434 55.4155 427.447 29.7828 425.257C23.6797 424.77 17.3326 422.579 14.159 417.467C11.2296 412.355 14.4031 403.836 20.5062 404.079" fill="#704B16"/>
<path d="M122.305 420.632C185.532 338.355 250.468 257.539 316.869 177.697C320.531 173.316 324.193 168.934 329.319 166.743C334.446 164.553 341.281 165.283 344.455 169.908C347.628 174.533 345.675 180.618 343.722 185.974C311.987 264.599 241.68 320.099 191.879 388.743C179.429 406.026 166.49 425.257 145.984 430.855C135.975 433.533 121.572 428.178 123.769 418.197" fill="#704B16"/>
<path d="M213.606 429.395C277.077 363.184 332.249 289.184 377.655 209.586C382.293 201.309 387.176 192.546 394.988 187.191C401.579 182.566 410.367 180.375 418.179 182.809C420.132 183.539 422.329 184.513 423.55 186.217C425.015 188.164 425.015 191.086 425.015 193.52C423.062 235.875 386.932 267.276 363.252 302.329C344.455 330.079 332.493 361.967 313.94 389.961C295.386 417.954 267.068 442.783 233.38 444C227.521 444.243 221.174 443.513 217.268 439.375C213.362 435.237 214.094 426.717 219.709 425.257" fill="#704B16"/>
<path d="M259.745 416.25C258.036 404.079 262.43 391.421 270.974 382.658C279.518 373.895 292.457 369.757 304.663 371.217C300.269 373.651 298.072 378.52 296.363 383.145C294.654 387.77 293.433 392.882 290.26 396.533C287.33 399.697 283.424 401.645 279.763 403.349C272.927 406.513 265.848 410.164 261.942 416.493" fill="#697827"/>
<path d="M259.012 415.763C260.477 409.921 255.351 404.322 249.98 401.645C244.609 398.967 238.506 397.75 233.624 394.099C226.788 388.987 223.615 379.98 224.103 371.461C228.741 372.921 234.112 371.461 238.75 372.434C244.853 373.651 249.492 378.52 253.398 383.388C256.571 387.526 259.745 391.908 260.965 397.02C262.186 402.375 261.454 407.974 260.233 413.086" fill="#697827"/>
<path d="M263.895 410.651C263.651 403.349 269.509 397.02 273.904 391.908C276.101 389.474 278.298 387.04 280.739 385.092C283.424 382.901 286.598 381.197 289.527 379.493C289.772 379.25 289.772 378.763 289.283 378.763C285.866 379.493 282.936 381.684 280.251 383.875C277.321 386.066 274.88 388.987 272.439 391.664C268.045 397.02 262.674 403.349 263.406 410.895C263.651 410.895 263.895 410.895 263.895 410.651Z" fill="#74852B"/>
<path d="M228.253 375.355C229.718 378.52 232.647 380.467 235.577 381.928C238.994 383.875 242.412 385.579 245.586 388.013C251.933 392.882 256.083 399.454 259.989 406.27C260.233 406.757 260.965 406.513 260.965 405.783C258.524 398.724 253.886 392.151 248.027 387.283C245.097 384.849 242.168 382.901 238.75 381.197C235.333 379.493 231.427 377.789 229.23 374.625C228.741 374.138 227.765 374.625 228.253 375.355Z" fill="#74852B"/>
<path d="M304.907 357.099C303.198 344.928 307.592 332.27 316.137 323.507C324.681 314.743 337.619 310.605 349.825 312.066C345.431 314.5 343.234 319.368 341.525 323.993C339.816 328.618 338.596 333.73 335.422 337.382C332.493 340.546 328.587 342.493 324.925 344.197C318.09 347.362 311.01 351.013 307.104 357.342" fill="#697827"/>
<path d="M304.175 356.855C305.639 351.013 300.513 345.414 295.142 342.737C289.772 340.059 283.669 338.842 278.786 335.191C271.951 330.079 268.777 321.072 269.265 312.553C273.904 314.013 279.274 312.553 283.913 313.526C290.016 314.743 294.654 319.612 298.56 324.48C301.733 328.618 304.907 333 306.128 338.112C307.348 343.467 306.616 349.066 305.395 354.178" fill="#697827"/>
<path d="M309.057 351.5C308.813 344.197 314.672 337.868 319.066 332.757C321.263 330.322 323.46 327.888 325.901 325.941C328.587 323.75 331.76 322.046 334.69 320.342C334.934 320.099 334.934 319.612 334.446 319.612C331.028 320.342 328.099 322.533 325.413 324.724C322.484 326.914 320.043 329.836 317.601 332.513C313.207 337.868 307.837 344.197 308.569 351.743C308.813 351.743 309.057 351.743 309.057 351.5Z" fill="#74852B"/>
<path d="M273.415 316.204C274.88 319.368 277.81 321.316 280.739 322.776C284.157 324.724 287.574 326.428 290.748 328.862C297.095 333.73 301.245 340.303 305.151 347.118C305.395 347.605 306.128 347.362 306.128 346.632C303.686 339.572 299.048 333 293.189 328.132C290.26 325.697 287.33 323.75 283.913 322.046C280.495 320.342 276.589 318.638 274.392 315.474C273.904 315.23 272.927 315.717 273.415 316.204Z" fill="#74852B"/>
<path d="M340.549 305.737C338.84 293.566 343.234 280.908 351.778 272.145C360.323 263.382 373.261 259.243 385.467 260.704C381.073 263.138 378.876 268.007 377.167 272.632C375.458 277.257 374.237 282.368 371.064 286.02C368.134 289.184 364.228 291.132 360.567 292.836C353.731 296 346.652 299.651 342.746 305.98" fill="#697827"/>
<path d="M340.06 305.25C341.525 299.408 336.399 293.809 331.028 291.132C325.657 288.454 319.554 287.237 314.672 283.586C307.836 278.474 304.663 269.467 305.151 260.947C309.789 262.408 315.16 260.947 319.798 261.921C325.901 263.138 330.54 268.007 334.446 272.875C337.619 277.013 340.793 281.395 342.013 286.507C343.234 291.862 342.502 297.461 341.281 302.572" fill="#697827"/>
<path d="M344.943 300.138C344.699 292.836 350.558 286.507 354.952 281.395C357.149 278.961 359.346 276.526 361.787 274.579C364.473 272.388 367.646 270.684 370.576 268.98C370.82 268.737 370.82 268.25 370.331 268.25C366.914 268.98 363.984 271.171 361.299 273.362C358.37 275.553 355.928 278.474 353.487 281.151C349.093 286.507 343.722 292.836 344.455 300.382C344.455 300.382 344.943 300.382 344.943 300.138Z" fill="#74852B"/>
<path d="M309.057 264.842C310.522 268.007 313.451 269.954 316.381 271.414C319.798 273.362 323.216 275.066 326.39 277.5C332.737 282.368 336.887 288.941 340.793 295.757C341.037 296.243 341.769 296 341.769 295.27C339.328 288.211 334.69 281.638 328.831 276.77C325.901 274.336 322.972 272.388 319.554 270.684C316.137 268.98 312.231 267.276 310.034 264.112C309.789 263.625 308.813 264.112 309.057 264.842Z" fill="#74852B"/>
<path d="M221.662 127.553C226.544 122.684 228.985 115.868 228.009 109.053C227.032 101.02 221.906 93.4737 223.859 85.6842C224.835 81.3026 228.009 77.8947 229.474 73.5132C231.427 66.6974 228.253 59.3947 225.568 52.5789C222.638 46.0066 219.953 38.2171 223.127 31.6447C225.324 27.2632 229.962 23.125 228.497 18.2566C228.253 16.7961 227.277 15.8224 226.544 14.6053C223.127 9.98026 219.709 4.86842 216.291 0C219.221 6.81579 218.732 14.8487 214.826 21.1776C213.606 23.125 212.141 24.8289 211.165 27.0197C207.503 34.5658 211.897 43.8158 209.7 52.0921C207.991 58.6645 201.888 64.0197 201.644 70.8355C201.156 78.3816 207.503 84.7105 208.723 92.2566C209.456 97.6118 207.503 102.724 206.038 107.836C204.573 112.947 203.597 118.789 206.282 123.414" fill="#58A847"/>
<path d="M224.103 132.664C219.221 130.717 215.803 125.362 216.291 120.25C216.535 118.303 217.024 116.112 217.268 114.164C217.512 107.836 212.873 102.724 207.991 98.5855C205.306 96.3948 202.376 94.204 201.644 90.7961C201.156 88.3619 201.888 85.9276 201.644 83.4934C200.912 76.9211 193.832 72.7829 187.241 71.8092C184.8 71.5658 182.358 71.3224 179.917 70.5921C176.011 69.375 172.838 66.2105 169.42 63.7763C161.608 58.4211 150.867 57.4474 142.323 61.3421C139.881 62.3158 137.44 63.7763 134.755 63.0461C133.778 62.8026 133.046 62.3158 132.069 62.3158C130.605 62.3158 129.384 63.2895 128.163 64.2632C124.746 66.9408 121.572 69.8619 118.155 72.5395C126.943 70.1053 136.464 70.5921 145.008 74C147.937 75.2171 151.111 76.9211 152.087 80.0855C152.331 81.0592 152.576 82.0329 152.82 83.0066C153.796 85.4408 156.726 86.4145 159.167 87.1448C163.805 88.3619 168.443 89.8224 172.593 92.5C176.499 95.1777 179.917 99.3158 180.161 104.184C180.161 105.401 180.161 106.618 180.161 107.836C180.894 111.487 184.555 113.678 188.217 114.651C191.879 115.625 195.785 116.112 198.714 118.303C202.376 120.98 203.841 125.849 205.306 130.23C206.77 134.612 209.212 139.237 213.606 140.697" fill="#596621"/>
<path d="M217.756 217.862C217.756 197.414 218 177.211 218 156.763C218 150.921 218.244 144.836 220.929 139.724C224.835 132.908 233.135 129.257 237.286 122.441C242.412 113.678 239.971 101.02 247.295 93.9605C251.445 89.8224 258.28 88.6053 261.698 83.9803C267.312 76.1908 260.965 65.2369 263.895 56.2303C267.068 46.4934 280.739 41.1382 280.007 30.9145C268.533 40.8948 257.059 50.875 245.83 60.8553C243.389 62.8026 240.947 64.9934 239.727 67.9145C238.018 71.3224 238.262 75.2171 236.309 78.3816C231.671 86.9013 217.023 86.4145 214.094 95.6645C212.385 101.507 216.779 108.079 214.582 113.921C213.362 117.086 210.188 119.276 208.479 122.441C207.015 125.362 207.015 128.77 207.259 132.178C208.479 141.671 212.385 150.434 212.629 159.928C212.873 165.283 211.653 170.638 210.92 175.993C208.723 189.625 208.235 203.257 208.968 216.888C210.92 217.618 212.873 218.592 215.071 219.322" fill="#697827"/>
<path d="M157.946 186.461C153.064 181.592 150.623 174.776 151.599 167.961C152.576 159.928 157.702 152.382 155.749 144.592C154.773 140.211 151.599 136.803 150.134 132.421C148.181 125.605 151.355 118.303 154.04 111.487C156.97 104.914 159.655 97.125 156.482 90.5527C154.284 86.1711 149.646 82.0329 151.111 77.1645C151.355 75.704 152.331 74.7303 153.064 73.5132C156.482 68.6448 159.899 63.5329 163.317 58.6645C160.387 65.4803 160.876 73.5132 164.782 79.8421C166.002 81.7895 167.467 83.4934 168.443 85.6842C172.105 93.2303 167.711 102.48 169.908 110.757C171.617 117.329 177.72 122.684 177.964 129.5C178.452 137.046 172.105 143.375 170.885 150.921C170.152 156.276 172.105 161.388 173.57 166.5C175.035 171.612 176.011 177.454 173.326 182.079" fill="#58A847"/>
<path d="M155.505 191.572C160.387 189.625 163.805 184.27 163.317 179.158C163.073 177.211 162.585 175.02 162.34 173.072C162.096 166.743 166.735 161.632 171.617 157.493C174.302 155.303 177.232 153.112 177.964 149.704C178.452 147.27 177.72 144.836 177.964 142.401C178.697 135.829 185.776 131.691 192.367 130.717C194.809 130.474 197.25 130.23 199.691 129.5C203.597 128.283 206.77 125.118 210.188 122.684C218 117.329 228.741 116.355 237.286 120.25C239.727 121.224 242.168 122.684 244.853 121.954C245.83 121.711 246.562 121.224 247.539 121.224C249.003 121.224 250.224 122.197 251.445 123.171C254.862 125.849 258.036 128.77 261.454 131.447C252.665 129.013 243.144 129.5 234.6 132.908C231.671 134.125 228.497 135.829 227.521 138.993C227.277 139.967 227.032 140.941 226.788 141.914C225.812 144.349 222.882 145.322 220.441 146.053C215.803 147.27 211.165 148.73 207.015 151.408C203.109 154.086 199.691 158.224 199.447 163.092C199.447 164.309 199.447 165.526 199.447 166.743C198.714 170.395 195.053 172.586 191.391 173.559C187.729 174.533 183.823 175.02 180.894 177.211C177.232 180.132 175.767 185 174.302 189.382C172.838 193.763 170.396 198.388 166.002 199.849" fill="#596621"/>
<path d="M161.608 276.77C161.608 256.322 161.364 236.118 161.364 215.671C161.364 209.829 161.12 203.743 158.434 198.632C154.529 191.816 146.228 188.164 142.078 181.349C136.952 172.586 139.393 159.928 132.069 152.868C127.919 148.73 121.084 147.513 117.666 142.888C112.052 135.099 118.399 124.145 115.469 115.138C112.296 105.401 98.6249 100.046 99.3572 89.8224C110.831 99.8026 122.305 109.783 133.534 119.763C135.975 121.711 138.417 123.901 139.637 126.822C141.346 130.23 141.102 134.125 143.055 137.289C147.693 145.809 162.34 145.322 165.27 154.572C166.979 160.414 162.585 166.987 164.782 172.829C166.002 175.993 169.176 178.184 170.885 181.349C172.349 184.27 172.349 187.678 172.105 191.086C170.885 200.579 166.979 209.342 166.735 218.836C166.49 224.191 167.711 229.546 168.443 234.901C170.641 248.533 171.129 262.164 170.396 275.796C168.443 276.526 166.49 277.5 164.293 278.23" fill="#596621"/>
<path d="M375.702 252.915C373.993 240.743 378.387 228.086 386.932 219.322C395.476 210.559 408.414 206.421 420.62 207.882C416.226 210.316 414.029 215.184 412.32 219.809C410.611 224.434 409.391 229.546 406.217 233.197C403.288 236.362 399.382 238.309 395.72 240.013C388.885 243.178 381.805 246.829 377.899 253.158" fill="#697827"/>
<path d="M374.97 252.428C376.434 246.586 371.308 240.987 365.937 238.309C360.567 235.632 354.464 234.414 349.581 230.763C342.746 225.651 339.572 216.645 340.06 208.125C344.699 209.586 350.069 208.125 354.708 209.099C360.811 210.316 365.449 215.184 369.355 220.053C372.529 224.191 375.702 228.572 376.923 233.684C378.143 239.039 377.411 244.638 376.19 249.75" fill="#697827"/>
<path d="M379.852 247.316C379.608 240.013 385.467 233.684 389.861 228.572C392.058 226.138 394.255 223.704 396.697 221.757C399.382 219.566 402.555 217.862 405.485 216.158C405.729 215.915 405.729 215.428 405.241 215.428C401.823 216.158 398.894 218.349 396.208 220.54C393.279 222.73 390.838 225.651 388.396 228.329C384.002 233.684 378.632 240.013 379.364 247.559C379.608 247.559 379.852 247.559 379.852 247.316Z" fill="#74852B"/>
<path d="M344.211 212.02C345.675 215.184 348.605 217.132 351.534 218.592C354.952 220.539 358.37 222.243 361.543 224.678C367.89 229.546 372.04 236.118 375.946 242.934C376.19 243.421 376.923 243.178 376.923 242.447C374.482 235.388 369.843 228.816 363.984 223.947C361.055 221.513 358.125 219.566 354.708 217.862C351.29 216.158 347.384 214.454 345.187 211.289C344.699 210.803 343.722 211.289 344.211 212.02Z" fill="#74852B"/>
<path d="M122.305 255.836C127.187 250.967 129.628 244.151 128.652 237.336C127.675 229.303 122.549 221.757 124.502 213.967C125.478 209.586 128.652 206.178 130.116 201.796C132.069 194.98 128.896 187.678 126.211 180.862C123.281 174.29 120.596 166.5 123.769 159.928C125.966 155.546 130.605 151.408 129.14 146.539C128.896 145.079 127.919 144.105 127.187 142.888C123.769 138.02 120.352 132.908 116.934 128.039C119.863 134.855 119.375 142.888 115.469 149.217C114.249 151.164 112.784 152.868 111.807 155.059C108.146 162.605 112.54 171.855 110.343 180.132C108.634 186.704 102.531 192.059 102.287 198.875C101.798 206.421 108.146 212.75 109.366 220.296C110.099 225.651 108.146 230.763 106.681 235.875C105.216 240.987 104.24 246.829 106.925 251.454" fill="#58A847"/>
<path d="M124.746 260.947C119.863 259 116.446 253.645 116.934 248.533C117.178 246.586 117.666 244.395 117.91 242.447C118.155 236.118 113.516 231.007 108.634 226.868C105.948 224.678 103.019 222.487 102.287 219.079C101.798 216.645 102.531 214.211 102.287 211.776C101.554 205.204 94.4748 201.066 87.8835 200.092C85.4423 199.849 83.0011 199.605 80.5599 198.875C76.654 197.658 73.4804 194.493 70.0627 192.059C62.2508 186.704 51.5095 185.73 42.9653 189.625C40.5241 190.599 38.0829 192.059 35.3975 191.329C34.421 191.086 33.6887 190.599 32.7122 190.599C31.2475 190.599 30.0269 191.572 28.8063 192.546C25.3886 195.224 22.215 198.145 18.7973 200.822C27.5857 198.388 37.1064 198.875 45.6506 202.283C48.5801 203.5 51.7536 205.204 52.7301 208.368C52.9742 209.342 53.2184 210.316 53.4625 211.289C54.439 213.724 57.3684 214.697 59.8096 215.428C64.4479 216.645 69.0862 218.105 73.2363 220.783C77.1422 223.461 80.5599 227.599 80.804 232.467C80.804 233.684 80.804 234.901 80.804 236.118C81.5364 239.77 85.1982 241.961 88.86 242.934C92.5218 243.908 96.4278 244.395 99.3572 246.586C103.019 249.263 104.484 254.132 105.948 258.513C107.413 262.895 109.854 267.52 114.249 268.98" fill="#596621"/>
<path d="M118.643 346.145C118.643 325.697 118.887 305.493 118.887 285.046C118.887 279.204 119.131 273.118 121.816 268.007C125.722 261.191 134.022 257.539 138.172 250.724C143.299 241.961 140.858 229.303 148.181 222.243C152.331 218.105 159.167 216.888 162.585 212.263C168.199 204.474 161.852 193.52 164.782 184.513C167.955 174.776 181.626 169.421 180.894 159.197C169.42 169.178 157.946 179.158 146.717 189.138C144.275 191.086 141.834 193.276 140.614 196.197C138.905 199.605 139.149 203.5 137.196 206.664C132.558 215.184 117.91 214.697 114.981 223.947C113.272 229.789 117.666 236.362 115.469 242.204C114.249 245.368 111.075 247.559 109.366 250.724C107.901 253.645 107.901 257.053 108.146 260.461C109.366 269.954 113.272 278.717 113.516 288.211C113.76 293.566 112.54 298.921 111.807 304.276C109.61 317.908 109.122 331.539 109.854 345.171C111.807 345.901 113.76 346.875 115.957 347.605" fill="#697827"/>
<path d="M58.589 314.5C53.7066 309.632 51.2654 302.816 52.2419 296C53.2183 287.967 58.3449 280.421 56.3919 272.632C55.4154 268.25 52.2419 264.842 50.7771 260.461C48.8242 253.645 51.9977 246.342 54.6831 239.526C57.6125 232.954 60.2979 225.165 57.1243 218.592C54.9272 214.211 50.2889 210.072 51.7536 205.204C51.9977 203.743 52.9742 202.77 53.7066 201.553C57.1243 196.684 60.542 191.572 63.9597 186.704C61.0302 193.52 61.5185 201.553 65.4244 207.882C66.645 209.829 68.1097 211.533 69.0862 213.724C72.748 221.27 68.3538 230.52 70.5509 238.796C72.2598 245.368 78.3628 250.724 78.6069 257.539C79.0952 265.086 72.748 271.414 71.5274 278.961C70.7951 284.316 72.748 289.428 74.2127 294.539C75.6775 299.651 76.654 305.493 73.9686 310.118" fill="#58A847"/>
<path d="M56.1478 319.612C61.0302 317.664 64.4479 312.309 63.9597 307.197C63.7156 305.25 63.2273 303.059 62.9832 301.112C62.7391 294.783 67.3774 289.671 72.2598 285.533C74.9451 283.342 77.8746 281.151 78.6069 277.743C79.0952 275.309 78.3628 272.875 78.6069 270.441C79.3393 263.868 86.4188 259.73 93.0101 258.757C95.4513 258.513 97.8925 258.27 100.334 257.539C104.24 256.322 107.413 253.158 110.831 250.724C118.643 245.368 129.384 244.395 137.928 248.289C140.37 249.263 142.811 250.724 145.496 249.993C146.473 249.75 147.205 249.263 148.181 249.263C149.646 249.263 150.867 250.237 152.087 251.211C155.505 253.888 158.679 256.809 162.096 259.487C153.308 257.053 143.787 257.539 135.243 260.947C132.314 262.164 129.14 263.868 128.163 267.033C127.919 268.007 127.675 268.98 127.431 269.954C126.455 272.388 123.525 273.362 121.084 274.092C116.446 275.309 111.807 276.77 107.657 279.447C103.751 282.125 100.334 286.263 100.09 291.132C100.09 292.349 100.09 293.566 100.09 294.783C99.3572 298.434 95.6954 300.625 92.0336 301.599C88.3718 302.572 84.4658 303.059 81.5364 305.25C77.8746 307.928 76.4099 312.796 74.9451 317.178C73.4804 321.559 71.0392 326.184 66.645 327.645" fill="#596621"/>
<path d="M62.495 404.809C62.495 384.362 62.2508 364.158 62.2508 343.71C62.2508 337.868 62.0067 331.783 59.3214 326.671C55.4155 319.855 47.1153 316.204 42.9653 309.388C37.8387 300.625 40.28 287.967 32.9563 280.908C28.8063 276.77 21.9709 275.553 18.5532 270.928C12.9384 263.138 19.2855 252.184 16.3561 243.178C13.1825 233.441 -0.488251 228.085 0.244112 217.862C11.7178 227.842 23.1915 237.822 34.4211 247.803C36.8623 249.75 39.3035 251.941 40.5241 254.862C42.2329 258.27 41.9888 262.164 43.9418 265.329C48.5801 273.849 63.2273 273.362 66.1568 282.612C67.8656 288.454 63.4715 295.026 65.6685 300.868C66.8891 304.033 70.0627 306.224 71.7716 309.388C73.2363 312.309 73.2363 315.717 72.9922 319.125C71.7716 328.618 67.8656 337.382 67.6215 346.875C67.3774 352.23 68.598 357.585 69.3304 362.941C71.5274 376.572 72.0157 390.204 71.2833 403.835C69.3304 404.566 67.3774 405.539 65.1803 406.27" fill="#697827"/>
<path d="M176.988 376.329C176.744 376.329 176.499 376.329 176.255 376.085C176.499 376.329 176.744 376.572 177.232 377.059C177.232 377.059 177.232 376.816 176.988 376.816C176.988 376.572 176.988 376.329 176.988 376.329C176.744 376.329 176.499 376.329 176.499 376.085C176.255 376.085 176.255 375.842 176.011 376.085C175.767 376.085 175.767 376.085 175.523 376.085C175.279 376.085 175.279 376.329 175.035 376.329C174.791 376.329 174.791 376.572 174.791 376.816C174.791 377.059 174.791 377.059 174.791 377.303V377.546C174.791 377.789 175.035 378.033 175.035 378.033L175.279 378.276C175.523 378.276 175.767 378.52 176.011 378.52H176.255C176.499 378.52 176.499 378.52 176.744 378.276C176.988 378.276 176.988 378.033 176.988 377.789C176.988 377.789 176.988 377.546 177.232 377.546C176.988 377.789 176.744 378.033 176.255 378.52C176.499 378.52 176.744 378.52 176.988 378.276H177.232C177.476 378.276 177.476 378.033 177.476 378.033C177.476 378.033 177.476 377.789 177.72 377.789C177.72 377.546 177.72 377.546 177.72 377.303V377.059V376.816C177.72 376.572 177.476 376.572 177.476 376.572C177.232 376.329 177.232 376.329 176.988 376.329Z" fill="#A67435"/>
<path d="M186.508 372.921C188.217 372.921 188.217 370.243 186.508 370.243C184.8 370.243 184.8 372.921 186.508 372.921Z" fill="#A67435"/>
<path d="M232.159 299.651C233.624 299.651 233.624 297.217 232.159 297.217C230.45 297.461 230.45 299.651 232.159 299.651Z" fill="#A67435"/>
<path d="M241.924 309.388C243.389 309.388 243.389 307.197 241.924 307.197C240.459 307.197 240.459 309.388 241.924 309.388Z" fill="#A67435"/>
<path d="M238.506 284.072C238.506 284.316 238.506 284.559 238.506 284.803C238.506 285.046 238.506 285.046 238.506 285.29C238.506 285.533 238.506 285.533 238.75 285.533L238.994 285.776C239.239 285.776 239.239 285.776 239.483 285.776H239.727C239.971 285.776 239.971 285.533 240.215 285.533C240.215 285.533 240.215 285.29 240.459 285.29C240.459 285.046 240.703 285.046 240.703 284.803C240.703 284.559 240.703 284.316 240.703 284.072C240.703 283.829 240.703 283.829 240.703 283.586C240.703 283.342 240.703 283.342 240.459 283.342L240.215 283.099C240.215 283.099 239.971 283.099 239.727 283.099H239.483C239.239 283.099 239.239 283.342 238.994 283.342C238.994 283.342 238.994 283.586 238.75 283.586C238.506 283.586 238.506 283.829 238.506 284.072Z" fill="#A67435"/>
<path d="M303.686 230.763C305.151 230.763 305.151 228.572 303.686 228.572C302.222 228.572 302.222 230.763 303.686 230.763Z" fill="#A67435"/>
<path d="M307.836 237.336C308.325 237.336 308.325 236.605 307.836 236.605C307.104 236.605 307.104 237.336 307.836 237.336Z" fill="#A67435"/>
<path d="M324.925 194.98C326.146 194.98 326.146 193.033 324.925 193.033C323.704 193.033 323.704 194.98 324.925 194.98Z" fill="#A67435"/>
<path d="M399.626 195.711C401.091 195.711 401.091 193.52 399.626 193.52C398.405 193.763 398.405 195.711 399.626 195.711Z" fill="#A67435"/>
<path d="M408.903 191.329H408.658C408.658 191.329 408.658 191.329 408.414 191.329C408.414 191.329 408.414 191.329 408.17 191.329C408.414 191.329 408.658 191.572 408.903 191.329C408.658 191.572 408.658 191.572 408.903 191.329C408.903 191.572 408.903 191.816 408.903 191.816C408.903 191.816 408.903 191.572 408.658 191.572C408.903 191.572 408.658 191.572 408.903 191.329C408.658 191.329 408.414 191.086 408.414 191.086C408.17 191.086 408.17 191.086 407.926 191.086C407.682 191.086 407.682 191.086 407.438 191.086C407.194 191.086 407.194 191.329 406.95 191.329C406.95 191.329 406.706 191.572 406.706 191.816C406.706 192.059 406.706 192.059 406.706 192.303V192.546C406.706 192.789 406.95 193.033 406.95 193.033L407.194 193.276C407.438 193.276 407.682 193.52 407.682 193.52H407.926C408.17 193.52 408.17 193.52 408.414 193.276C408.658 193.276 408.658 193.033 408.658 193.033C408.658 193.033 408.658 192.789 408.903 192.789C408.903 193.033 408.658 193.033 408.658 193.276C408.414 193.276 408.414 193.52 408.17 193.52C408.17 193.52 408.17 193.52 408.414 193.52C408.414 193.52 408.414 193.52 408.658 193.52H408.903H409.147L409.391 193.276V193.033V192.789V192.546V192.303L409.147 192.059C409.147 191.572 408.903 191.329 408.903 191.329Z" fill="#A67435"/>
<path d="M314.184 370.487C314.672 370.487 314.672 369.757 314.184 369.757C313.695 369.513 313.695 370.487 314.184 370.487Z" fill="#A67435"/>
<path d="M315.16 382.415C316.381 382.415 316.381 380.467 315.16 380.467C313.695 380.224 313.695 382.415 315.16 382.415Z" fill="#A67435"/>
<path d="M237.041 431.586C236.797 431.586 236.553 431.586 236.309 431.586C236.553 431.829 236.797 432.072 237.286 432.316V432.072C237.041 431.829 237.041 431.829 237.041 431.586C236.797 431.586 236.797 431.586 236.553 431.342C236.309 431.342 236.309 431.342 236.065 431.342C235.821 431.342 235.821 431.342 235.577 431.342C235.333 431.342 235.333 431.342 235.333 431.586L235.088 431.829C235.088 432.072 235.088 432.072 235.088 432.316V432.559C235.088 432.803 235.333 432.803 235.333 433.046C235.333 433.046 235.577 433.046 235.577 433.29C235.821 433.29 235.821 433.533 236.065 433.533H236.309C236.553 433.533 236.553 433.533 236.553 433.29L236.797 433.046V432.803C236.553 433.046 236.309 433.29 235.821 433.533C236.065 433.533 236.309 433.533 236.553 433.533H236.797C236.797 433.533 237.041 433.533 237.041 433.29L237.286 433.046V432.803V432.559C237.286 432.316 237.286 432.316 237.041 432.316C237.041 432.316 237.041 432.316 236.797 432.072C237.286 431.586 237.041 431.586 237.041 431.586Z" fill="#A67435"/>
<path d="M241.436 422.822C241.436 423.066 241.436 423.309 241.436 423.553C241.436 423.796 241.436 423.796 241.436 424.039C241.436 424.039 241.436 424.04 241.436 424.283V424.526V424.77L241.68 425.013C241.924 425.257 242.168 425.257 242.412 425.257C242.656 425.257 242.656 425.257 242.9 425.013C243.144 424.77 243.389 424.526 243.389 424.283V424.039C243.389 424.039 243.389 424.04 243.389 423.796C243.389 423.553 243.389 423.553 243.389 423.309C243.389 423.066 243.389 422.822 243.389 422.579C243.389 422.336 243.389 422.336 243.389 422.092C243.389 421.849 243.144 421.849 243.144 421.605C243.144 421.362 242.9 421.362 242.656 421.362C242.412 421.362 242.412 421.362 242.168 421.362C241.924 421.362 241.436 421.605 241.191 421.849C241.436 422.092 241.436 422.336 241.436 422.822Z" fill="#A67435"/>
<path d="M251.689 431.099C253.153 431.099 253.153 428.665 251.689 428.665C249.98 428.908 249.98 431.099 251.689 431.099Z" fill="#A67435"/>
<path d="M28.318 412.112C30.5151 412.112 30.5151 408.704 28.318 408.704C26.3651 408.704 26.3651 412.112 28.318 412.112Z" fill="#A67435"/>
<path d="M35.6417 402.862C37.8387 402.862 37.8387 399.697 35.6417 399.697C33.6887 399.697 33.6887 402.862 35.6417 402.862Z" fill="#A67435"/>
<path d="M43.9418 407.487H43.6976C43.4535 407.487 43.2094 407.487 43.2094 407.487C42.9653 407.487 42.9653 407.487 42.7212 407.487C42.477 407.487 42.477 407.73 42.2329 407.73C42.2329 407.73 41.9888 407.974 41.9888 408.217C41.9888 408.461 41.9888 408.461 41.9888 408.704V408.947C41.9888 409.191 42.2329 409.434 42.2329 409.434L42.477 409.678C42.7212 409.678 42.9653 409.921 43.2094 409.921C43.4535 409.921 43.6976 409.921 43.6976 409.921H43.9418H44.1859C44.43 409.921 44.43 409.678 44.43 409.678C44.43 409.678 44.43 409.434 44.6741 409.434C44.6741 409.191 44.6741 409.191 44.6741 408.947V408.704V408.461C44.6741 408.217 44.43 408.217 44.43 408.217C44.1859 407.487 44.1859 407.487 43.9418 407.487Z" fill="#A67435"/>
<path d="M96.6719 353.691C98.1366 353.691 98.1366 351.257 96.6719 351.257C95.2072 351.257 95.2072 353.691 96.6719 353.691Z" fill="#A67435"/>
<path d="M140.614 295.27H140.37C140.125 295.27 140.125 295.27 139.637 295.513C139.637 295.513 139.637 295.513 139.393 295.513C139.149 295.513 139.149 295.757 138.905 296C138.905 296.243 138.661 296.487 138.661 296.487C138.661 296.73 138.661 296.974 138.905 296.974C138.905 297.217 139.149 297.217 139.393 297.461C139.637 297.461 139.637 297.704 140.125 297.704H140.37C140.614 297.704 140.614 297.704 140.858 297.704C141.102 297.704 141.102 297.461 141.346 297.461C141.346 297.461 141.59 297.217 141.59 296.974C141.59 296.73 141.59 296.73 141.59 296.487V296.243C141.59 296 141.346 295.757 141.346 295.757L141.102 295.513C141.102 295.513 140.858 295.27 140.614 295.27Z" fill="#A67435"/>
<path d="M185.288 234.171C186.997 234.171 186.997 231.25 185.288 231.25C183.335 231.25 183.335 234.171 185.288 234.171Z" fill="#A67435"/>
<path d="M190.658 241.717C192.123 241.717 192.123 239.526 190.658 239.526C189.438 239.526 189.438 241.717 190.658 241.717Z" fill="#A67435"/>
<path d="M194.32 223.704C196.029 223.704 196.029 221.026 194.32 221.026C192.611 221.026 192.611 223.704 194.32 223.704Z" fill="#A67435"/>
<path d="M240.215 178.428C241.68 178.428 241.68 175.993 240.215 175.993C238.506 175.993 238.506 178.428 240.215 178.428Z" fill="#A67435"/>
<path d="M251.2 169.421C251.445 169.178 251.445 169.178 251.2 169.421C251.445 169.421 251.445 169.178 251.445 169.178L251.689 168.934C251.689 168.934 251.933 168.691 251.933 168.447C251.933 168.204 251.933 168.204 251.933 167.961V167.717C251.933 167.474 251.689 167.474 251.689 167.23C251.689 167.23 251.689 167.23 251.445 167.23C251.445 167.23 251.445 167.23 251.2 167.23H250.956C250.712 166.987 250.468 166.987 250.224 166.987C249.98 166.987 249.736 166.987 249.492 167.23C249.003 167.474 248.759 167.961 248.759 168.447C248.759 168.934 249.003 169.421 249.492 169.664C249.736 169.908 249.98 169.908 250.224 169.908C250.712 169.421 250.956 169.421 251.2 169.421Z" fill="#A67435"/>
<path d="M250.468 182.566C251.933 182.566 251.933 180.375 250.468 180.375C249.003 180.375 249.003 182.566 250.468 182.566Z" fill="#A67435"/>
<path d="M154.529 400.671C152.82 388.5 157.214 375.842 165.758 367.079C174.302 358.316 187.241 354.178 199.447 355.638C195.053 358.072 192.856 362.941 191.147 367.566C189.438 372.191 188.217 377.303 185.044 380.954C182.114 384.118 178.208 386.066 174.546 387.77C167.711 390.934 160.632 394.585 156.726 400.914" fill="#535F1F"/>
<path d="M153.796 400.428C155.261 394.586 150.134 388.987 144.764 386.309C139.393 383.632 133.29 382.414 128.408 378.763C121.572 373.651 118.399 364.645 118.887 356.125C123.525 357.585 128.896 356.125 133.534 357.099C139.637 358.316 144.275 363.184 148.181 368.053C151.355 372.191 154.529 376.572 155.749 381.684C156.97 387.039 156.237 392.638 155.017 397.75" fill="#58A847"/>
<path d="M158.679 395.072C158.434 387.77 164.293 381.441 168.688 376.329C170.885 373.895 173.082 371.461 175.523 369.513C178.208 367.322 181.382 365.618 184.311 363.914C184.555 363.671 184.555 363.184 184.067 363.184C180.649 363.914 177.72 366.105 175.035 368.296C172.105 370.487 169.664 373.408 167.223 376.086C162.829 381.441 157.458 387.77 158.19 395.316C158.434 395.316 158.679 395.316 158.679 395.072Z" fill="#613445"/>
<path d="M123.037 359.776C124.502 362.941 127.431 364.888 130.361 366.349C133.778 368.296 137.196 370 140.37 372.434C146.717 377.303 150.867 383.875 154.773 390.691C155.017 391.178 155.749 390.934 155.749 390.204C153.308 383.145 148.67 376.572 142.811 371.704C139.881 369.27 136.952 367.322 133.534 365.618C130.116 363.914 126.211 362.21 124.013 359.046C123.525 358.803 122.793 359.289 123.037 359.776Z" fill="#613445"/>
<path d="M201.644 345.901C199.935 333.73 204.329 321.072 212.873 312.309C221.418 303.546 234.356 299.408 246.562 300.868C242.168 303.303 239.971 308.171 238.262 312.796C236.553 317.421 235.333 322.533 232.159 326.184C229.23 329.349 225.324 331.296 221.662 333C214.826 336.164 207.747 339.816 203.841 346.145" fill="#535F1F"/>
<path d="M200.912 345.658C202.376 339.816 197.25 334.217 191.879 331.539C186.508 328.862 180.405 327.645 175.523 323.993C168.688 318.882 165.514 309.875 166.002 301.355C170.641 302.816 176.011 301.355 180.649 302.329C186.753 303.546 191.391 308.414 195.297 313.283C198.47 317.421 201.644 321.803 202.864 326.914C204.085 332.27 203.353 337.868 202.132 342.98" fill="#58A847"/>
<path d="M205.794 340.546C205.55 333.243 211.409 326.914 215.803 321.803C218 319.368 220.197 316.934 222.638 314.987C225.324 312.796 228.497 311.092 231.427 309.388C231.671 309.145 231.671 308.658 231.183 308.658C227.765 309.388 224.835 311.579 222.15 313.77C219.221 315.96 216.779 318.882 214.338 321.559C209.944 326.914 204.573 333.243 205.306 340.789C205.55 340.546 205.794 340.546 205.794 340.546Z" fill="#613445"/>
<path d="M170.152 305.007C171.617 308.171 174.546 310.118 177.476 311.579C180.894 313.526 184.311 315.23 187.485 317.664C193.832 322.533 197.982 329.105 201.888 335.921C202.132 336.408 202.864 336.164 202.864 335.434C200.423 328.375 195.785 321.803 189.926 316.934C186.997 314.5 184.067 312.553 180.649 310.849C177.232 309.145 173.326 307.441 171.129 304.276C170.641 304.033 169.908 304.52 170.152 305.007Z" fill="#613445"/>
<path d="M246.562 288.697C244.853 276.526 249.247 263.868 257.792 255.105C266.336 246.342 279.274 242.204 291.48 243.664C287.086 246.099 284.889 250.967 283.18 255.592C281.471 260.217 280.251 265.329 277.077 268.98C274.148 272.145 270.242 274.092 266.58 275.796C259.745 278.96 252.665 282.612 248.759 288.941" fill="#535F1F"/>
<path d="M245.83 288.211C247.295 282.368 242.168 276.77 236.797 274.092C231.427 271.414 225.324 270.197 220.441 266.546C213.606 261.434 210.432 252.428 210.92 243.908C215.559 245.368 220.929 243.908 225.568 244.882C231.671 246.099 236.309 250.967 240.215 255.836C243.389 259.974 246.562 264.355 247.783 269.467C249.003 274.822 248.271 280.421 247.05 285.533" fill="#58A847"/>
<path d="M250.712 283.099C250.468 275.796 256.327 269.467 260.721 264.355C262.918 261.921 265.115 259.487 267.557 257.539C270.242 255.349 273.415 253.645 276.345 251.941C276.589 251.697 276.589 251.211 276.101 251.211C272.683 251.941 269.754 254.132 267.068 256.322C264.139 258.513 261.698 261.434 259.256 264.112C254.862 269.467 249.492 275.796 250.224 283.342C250.468 283.342 250.712 283.342 250.712 283.099Z" fill="#613445"/>
<path d="M215.071 247.803C216.535 250.967 219.465 252.914 222.394 254.375C225.812 256.322 229.23 258.026 232.403 260.461C238.75 265.329 242.9 271.901 246.806 278.717C247.05 279.204 247.783 278.961 247.783 278.23C245.342 271.171 240.703 264.599 234.844 259.73C231.915 257.296 228.985 255.349 225.568 253.645C222.15 251.941 218.244 250.237 216.047 247.072C215.559 246.829 214.582 247.072 215.071 247.803Z" fill="#613445"/>
<path d="M291.725 234.171C290.016 222 294.41 209.342 302.954 200.579C311.498 191.816 324.437 187.678 336.643 189.138C332.249 191.572 330.052 196.441 328.343 201.066C326.634 205.691 325.413 210.803 322.24 214.454C319.31 217.618 315.404 219.566 311.742 221.27C304.907 224.434 297.828 228.086 293.922 234.414" fill="#535F1F"/>
<path d="M290.992 233.928C292.457 228.086 287.33 222.487 281.96 219.809C276.589 217.132 270.486 215.914 265.604 212.263C258.768 207.151 255.595 198.145 256.083 189.625C260.721 191.086 266.092 189.625 270.73 190.599C276.833 191.816 281.471 196.684 285.377 201.553C288.551 205.691 291.725 210.072 292.945 215.184C294.166 220.539 293.433 226.138 292.213 231.25" fill="#58A847"/>
<path d="M295.875 228.572C295.63 221.27 301.489 214.941 305.884 209.829C308.081 207.395 310.278 204.961 312.719 203.013C315.404 200.822 318.578 199.118 321.507 197.414C321.751 197.171 321.751 196.684 321.263 196.684C317.846 197.414 314.916 199.605 312.231 201.796C309.301 203.987 306.86 206.908 304.419 209.586C300.025 214.941 294.654 221.27 295.386 228.816C295.63 228.816 295.875 228.816 295.875 228.572Z" fill="#613445"/>
<path d="M260.233 193.276C261.698 196.441 264.627 198.388 267.557 199.849C270.974 201.796 274.392 203.5 277.566 205.934C283.913 210.803 288.063 217.375 291.969 224.191C292.213 224.678 292.945 224.434 292.945 223.704C290.504 216.645 285.866 210.072 280.007 205.204C277.077 202.77 274.148 200.822 270.73 199.118C267.312 197.415 263.406 195.711 261.209 192.546C260.721 192.303 259.989 192.789 260.233 193.276Z" fill="#613445"/>
<path d="M328.343 187.921C326.634 175.75 331.028 163.092 339.572 154.329C348.116 145.566 361.055 141.428 373.261 142.888C368.867 145.322 366.67 150.191 364.961 154.816C363.252 159.441 362.031 164.553 358.858 168.204C355.928 171.368 352.022 173.316 348.361 175.02C341.525 178.184 334.446 181.836 330.54 188.164" fill="#535F1F"/>
<path d="M327.61 187.678C329.075 181.836 323.948 176.237 318.578 173.559C313.207 170.882 307.104 169.664 302.222 166.013C295.386 160.901 292.213 151.895 292.701 143.375C297.339 144.836 302.71 143.375 307.348 144.349C313.451 145.566 318.09 150.434 321.996 155.303C325.169 159.441 328.343 163.822 329.563 168.934C330.784 174.289 330.051 179.888 328.831 185" fill="#58A847"/>
<path d="M332.493 182.322C332.249 175.02 338.108 168.691 342.502 163.579C344.699 161.145 346.896 158.711 349.337 156.763C352.022 154.572 355.196 152.868 358.125 151.164C358.37 150.921 358.37 150.434 357.881 150.434C354.464 151.164 351.534 153.355 348.849 155.546C345.919 157.737 343.478 160.658 341.037 163.336C336.643 168.691 331.272 175.02 332.005 182.566C332.249 182.566 332.493 182.566 332.493 182.322Z" fill="#613445"/>
<path d="M296.851 147.026C298.316 150.191 301.245 152.138 304.175 153.599C307.592 155.546 311.01 157.25 314.184 159.684C320.531 164.553 324.681 171.125 328.587 177.941C328.831 178.428 329.563 178.184 329.563 177.454C327.122 170.395 322.484 163.822 316.625 158.954C313.695 156.52 310.766 154.572 307.348 152.868C303.931 151.164 300.025 149.461 297.828 146.296C297.339 146.053 296.607 146.539 296.851 147.026Z" fill="#613445"/>
<path d="M406.461 163.336L410.123 165.526L414.517 167.961L419.4 170.638C422.573 173.072 425.503 175.263 428.676 177.697L441.127 186.217L452.356 165.283L438.441 155.303C435.024 153.112 431.362 150.678 427.944 148.487L415.25 141.914L406.461 163.336Z" fill="#6B3020"/>
<path d="M466.271 237.092C466.515 240.013 467.247 243.421 468.468 246.586C469.2 248.29 469.933 249.993 470.909 251.697C480.186 267.276 485.312 286.02 485.312 286.02C493.124 284.316 500.936 282.368 508.504 280.421C514.363 278.961 520.222 277.5 525.348 274.336C537.798 266.303 541.704 249.75 538.531 235.388C537.554 230.763 535.845 226.625 533.893 222.487C532.672 220.053 531.451 217.618 530.231 215.428C528.766 212.75 527.057 210.072 525.104 207.395C522.663 203.987 520.222 200.579 517.781 197.171L467.98 221.757C467.98 221.757 467.003 223.947 466.271 227.599C466.271 230.276 466.027 233.441 466.271 237.092Z" fill="#6B3020"/>
<path d="M431.362 192.059C434.535 195.224 437.709 198.388 440.882 201.309C443.568 203.987 446.497 206.908 447.23 210.559C447.962 213.724 446.985 216.888 445.765 219.566C442.103 227.112 435.268 232.954 432.826 240.987C431.362 246.099 432.094 251.454 431.85 256.566C431.118 270.684 423.55 283.342 416.226 295.27C408.17 308.658 400.114 321.803 392.058 335.191C389.861 335.678 381.317 333.974 381.317 333.974C381.317 333.974 408.414 266.303 413.053 230.763C415.25 213.967 416.959 195.954 426.968 182.079" fill="#612B1D"/>
<path d="M440.394 220.539C430.141 221.026 419.4 217.862 411.1 211.776C414.273 204.961 417.447 198.145 420.62 191.329C421.597 189.138 423.794 180.862 433.803 181.592C444.056 182.322 440.394 220.539 440.394 220.539Z" fill="#A67435"/>
<path d="M380.829 350.526C377.655 350.77 374.726 350.283 371.796 349.553C374.726 345.415 377.899 341.276 380.829 337.138C378.876 337.868 376.923 338.842 374.97 338.842C372.773 338.842 370.576 337.868 370.087 335.921C373.749 335.921 376.679 333.243 379.364 330.809C382.049 328.375 385.955 326.671 389.373 328.375L393.523 329.105C394.988 332.513 396.208 336.165 396.452 339.816C396.696 341.52 396.452 343.224 396.208 344.928C391.814 348.579 386.688 350.283 380.829 350.526Z" fill="#575E3C"/>
<path d="M363.74 351.5C363.984 353.447 364.717 355.395 365.693 357.342C365.937 357.586 366.181 358.072 366.67 358.316C367.158 358.559 367.402 358.316 367.89 358.316C379.852 355.151 392.302 351.743 402.311 344.441C402.8 344.197 403.044 343.954 403.288 343.467C403.532 342.98 403.288 342.493 403.044 342.007C402.067 339.329 401.091 336.408 399.382 334.217C398.894 333.487 398.405 333 397.673 332.757C396.208 332.27 394.744 332.757 393.279 333.243C384.002 337.138 375.946 342.98 367.646 348.092C366.181 348.822 363.74 350.526 363.74 351.5Z" fill="#993825"/>
<path d="M395.72 348.579C393.523 345.901 391.082 343.711 388.641 341.52C388.152 341.276 387.908 340.789 387.176 340.789C386.443 340.789 385.955 341.52 385.955 342.25C385.955 342.98 386.199 343.711 386.443 344.441C387.664 347.118 388.885 349.553 390.349 351.987C388.885 348.822 386.199 346.145 383.026 344.684C382.293 344.441 381.317 344.441 381.317 345.171C381.317 345.414 381.317 345.658 381.561 345.901C382.782 348.336 384.002 350.526 384.979 352.961C383.514 351.5 381.805 350.283 380.096 349.309C379.608 349.066 379.12 348.579 378.387 348.579C377.655 348.579 377.167 349.066 377.167 349.553C377.167 350.04 377.411 350.283 377.655 350.526C378.632 351.743 379.364 352.961 380.34 354.178C378.632 353.934 377.167 353.934 375.458 353.691C374.726 353.691 373.749 353.691 373.505 354.421C373.017 355.395 374.481 356.125 375.702 356.368C377.655 356.855 379.608 357.099 381.561 357.099C387.176 357.099 391.57 352.717 395.72 348.579Z" fill="#575E3C"/>
<path d="M382.538 330.079C382.538 329.349 387.176 302.816 387.176 302.816L408.658 308.414L394.499 333.243L382.538 330.079Z" fill="#575E3C"/>
<path d="M466.271 237.092C468.224 235.388 471.398 232.711 475.792 230.033C483.359 225.408 498.007 231.493 509.48 227.355C517.048 224.678 525.348 219.079 530.475 215.428C526.813 209.099 522.419 203.013 518.025 197.171L468.224 221.757C468.468 222 465.539 228.329 466.271 237.092Z" fill="#612B1D"/>
<path d="M383.026 293.079C384.49 277.5 399.626 267.276 414.029 260.704C447.474 245.125 484.58 236.605 521.686 235.875L537.31 230.276C537.31 230.276 541.704 238.796 542.925 253.158C544.146 267.52 530.719 280.421 502.889 285.046C475.059 289.914 448.694 300.382 443.324 301.355C434.047 302.816 423.794 304.276 417.691 311.336C427.212 317.178 437.221 323.263 443.08 332.757C447.23 339.329 448.938 347.118 450.403 354.664C452.6 364.888 454.797 374.868 456.994 385.092C456.994 385.579 457.239 386.066 457.239 386.553C457.239 386.796 457.239 386.796 457.239 387.04C455.286 386.553 452.844 386.553 450.891 386.553C449.671 386.553 448.206 386.309 446.741 386.309C422.817 371.217 407.194 346.145 392.791 322.046C387.664 313.039 382.049 303.303 383.026 293.079Z" fill="#6B3020"/>
<path d="M573.684 351.013L573.196 381.928C587.599 381.441 601.758 380.71 616.161 379.493L616.405 368.783C606.396 362.941 598.096 353.447 586.623 351.257C582.228 350.283 573.684 351.013 573.684 351.013Z" fill="#6B3020"/>
<path d="M574.172 370.487C574.417 363.914 574.661 348.336 574.661 348.336C574.661 348.336 547.807 349.066 542.681 341.276C537.066 333 539.507 322.046 541.46 312.309C545.366 293.566 546.831 274.579 545.854 255.349C545.61 252.428 545.366 249.263 544.146 246.829L541.948 250.724C541.46 248.776 540.972 246.829 540.24 244.882L475.548 289.671C481.407 310.605 488.242 331.296 496.298 351.743C500.204 361.724 505.086 372.434 514.851 377.789C521.442 381.197 529.254 381.684 536.822 381.928C549.028 382.171 561.234 382.171 573.44 381.928C573.684 378.033 573.928 374.138 574.172 370.487Z" fill="#6C754B"/>
<path d="M502.889 285.046C475.059 289.914 429.897 311.092 429.897 311.092L447.23 328.375C447.23 328.375 438.685 331.296 428.92 334.461C424.526 335.921 420.132 337.382 415.982 338.842C412.076 340.303 408.414 341.52 405.729 342.25C401.335 335.678 397.185 328.862 393.035 322.046C387.664 313.039 382.049 303.546 383.026 293.079C384.49 277.743 399.626 267.276 414.029 260.704C423.794 256.079 433.803 252.184 444.056 248.776C457.238 244.395 470.909 241.23 484.824 239.039C497.03 237.092 509.236 235.875 521.686 235.875L537.31 230.276C537.31 230.276 541.948 238.796 542.925 253.158C544.39 267.52 530.963 280.421 502.889 285.046Z" fill="#778254"/>
<path d="M425.503 183.053C427.7 173.072 429.897 163.336 432.094 153.355C432.582 151.651 432.826 149.947 434.291 148.73C436.244 146.783 439.662 147.27 442.347 148C456.506 151.164 470.909 154.329 484.336 160.171C497.763 166.013 510.457 174.046 519.245 185.487C522.419 189.625 525.104 194.25 527.789 198.875C535.357 211.776 542.681 224.678 547.563 238.796C552.202 252.914 554.155 268.25 550.249 282.612C537.066 288.454 521.442 288.454 508.504 282.125C504.598 280.178 500.692 277.743 496.542 276.283C488.486 273.362 479.698 274.579 471.153 274.335C462.609 273.849 453.088 271.414 448.938 263.868C444.544 255.835 447.718 245.855 446.497 236.849C445.521 230.276 441.859 223.947 436.732 219.809C435.023 218.592 433.315 217.375 432.094 215.428C431.362 213.967 431.118 212.507 430.385 211.046C428.92 206.908 425.503 203.987 424.526 199.605C424.038 197.414 424.526 194.98 424.77 192.789C425.503 187.678 426.235 182.809 427.212 177.697" fill="#B9813B"/>
<path d="M432.094 209.342C431.606 199.849 432.826 190.355 436.244 181.349C437.221 178.671 438.685 175.75 441.127 174.289C442.835 173.316 444.788 173.072 446.741 173.072C458.703 173.316 472.618 181.592 476.036 206.664C479.454 231.737 469.689 249.507 457.239 260.461C444.544 271.414 405.729 287.237 405.729 287.237L399.626 277.987C412.32 267.033 436.732 248.046 436.732 248.046C436 248.289 432.094 209.342 432.094 209.342Z" fill="#6B3020"/>
<path d="M443.568 159.684C443.568 159.684 433.315 159.441 430.873 176.237C428.188 192.789 430.385 213.967 430.385 213.967L488.486 214.454C488.486 214.454 480.918 163.822 443.568 159.684Z" fill="#B9813B"/>
<path d="M402.311 277.743C396.697 278.961 390.594 277.987 384.735 279.204C384.246 279.204 383.514 279.447 383.27 279.934C382.782 280.421 382.782 281.151 383.27 281.638C383.514 281.882 383.758 281.882 384.246 282.125C384.49 282.368 384.979 282.612 384.735 282.855C384.246 283.099 383.514 283.342 383.026 283.829C382.538 284.316 382.293 285.046 382.538 285.776C382.782 286.507 383.514 286.75 384.002 286.993C383.514 287.48 383.026 288.21 382.782 288.941C382.782 289.671 383.514 290.645 384.246 290.401C383.514 291.132 383.026 291.862 383.026 292.836C383.026 294.053 384.246 295.026 385.223 295.27C386.443 295.513 387.42 295.026 388.641 294.783C391.814 293.566 394.988 292.349 398.161 291.132C400.602 290.158 402.8 289.428 404.997 287.967C407.926 286.02 410.367 283.586 412.564 280.908" fill="#575E3C"/>
<path d="M350.558 360.993C355.684 358.072 360.811 355.151 365.937 352.474C366.914 352.717 368.134 353.204 368.378 354.421C368.378 354.665 368.378 355.151 368.378 355.395C364.473 357.342 360.811 359.533 356.905 361.48C354.952 362.454 352.511 364.401 350.313 362.941C349.825 362.454 349.825 361.48 350.558 360.993Z" fill="#8C8268"/>
<path d="M361.299 363.671C359.346 359.533 355.684 356.368 351.29 354.908C350.069 354.421 348.849 354.178 347.628 354.421C345.675 354.665 344.211 356.125 342.746 357.342C338.596 361.237 334.202 364.888 331.028 369.757C330.54 370.243 330.296 370.974 330.296 371.704C330.296 372.191 330.54 372.678 331.028 372.921C333.225 375.112 336.643 374.868 339.816 374.625C346.408 373.895 352.755 372.921 358.858 370.487C360.322 369.757 362.031 369.026 362.52 367.322C363.496 365.132 361.787 362.697 360.322 360.75" fill="#8C8268"/>
<path d="M352.511 365.375C352.755 365.375 352.511 365.862 352.267 365.862C352.022 365.862 352.022 365.618 351.778 365.375C350.558 362.941 346.408 362.211 344.455 364.401C343.722 362.211 342.013 360.263 339.816 358.803C337.863 357.586 335.178 357.099 333.225 358.559C332.004 359.776 331.516 361.48 331.272 363.184C331.028 364.645 331.028 366.105 330.784 367.566C330.784 368.053 330.784 368.783 331.028 369.026C331.516 369.757 332.249 370 333.225 370.243C337.375 370.974 341.769 370.243 345.675 368.539C347.872 367.566 350.069 366.105 352.511 365.618" fill="#704B16"/>
<path d="M396.941 279.204L416.47 257.783L431.362 277.743L401.335 289.914L396.941 279.204Z" fill="#575E3C"/>
<path d="M460.656 388.5C460.412 387.526 455.53 354.421 455.53 354.421L420.62 366.105L443.812 388.5L433.803 394.342L461.877 394.829L460.656 388.5Z" fill="#351A1A"/>
<path d="M612.255 381.928L637.4 381.197L654 383.388L643.015 370.244L638.376 372.921L609.814 354.665L612.255 381.928Z" fill="#351A1A"/>
<path d="M414.029 129.013C415.982 140.941 417.691 154.086 411.1 164.066C408.903 167.23 405.973 169.908 402.311 170.882C394.744 173.072 385.955 165.283 387.42 157.493L386.443 135.342L414.029 129.013Z" fill="#6B3020"/>
<path d="M380.829 153.112C381.073 153.842 384.735 170.882 384.735 170.882L394.744 165.526L391.814 144.836L377.411 146.296L380.829 153.112Z" fill="#6B3020"/>
<path d="M376.434 138.263L395.476 139.967L402.555 140.697C401.335 138.263 400.602 135.586 403.776 135.342C407.926 134.855 408.903 138.993 408.658 141.428H409.147L415.25 141.914C415.25 141.914 418.179 124.632 409.635 119.276C401.091 113.678 376.434 138.263 376.434 138.263Z" fill="#351A1A"/>
<path d="M408.658 142.158L408.414 142.645C408.658 142.888 408.658 142.645 408.658 142.158Z" fill="#EF920F"/>
<path d="M395.476 139.967C395.476 140.211 395.72 140.454 395.72 140.697C399.382 147.757 402.799 144.836 403.776 144.349C404.264 144.105 403.288 142.645 402.311 140.941C401.091 138.507 400.358 135.829 403.532 135.586C407.682 135.099 408.658 139.237 408.414 141.671C408.414 142.158 408.414 142.401 408.414 142.645L408.903 141.671L411.588 136.072L405.485 129.743C405.729 129.013 392.791 133.151 395.476 139.967Z" fill="#351A1A"/>
<path d="M412.808 125.849C419.888 126.579 426.723 129.743 431.606 134.855C436.244 140.211 438.685 147.757 436.488 154.572C435.268 158.711 432.338 162.362 431.85 166.5C432.338 163.336 430.385 160.414 428.188 158.224C425.991 156.033 423.062 154.572 420.376 152.868C417.447 151.164 414.761 148.974 412.32 146.539C411.832 146.053 411.344 145.566 411.1 144.836C410.855 144.105 410.855 143.375 410.855 142.645C410.855 137.776 411.588 132.908 413.297 128.526" fill="#351A1A"/>
<path d="M429.165 153.112C424.77 155.789 422.329 161.145 422.085 166.257C421.841 171.368 423.55 176.48 425.991 181.349C430.629 178.915 433.803 174.29 434.291 168.934C434.779 163.822 432.582 158.467 428.432 155.303" fill="#351A1A"/>
<path d="M427.7 173.072C422.329 176.724 420.132 183.783 420.62 190.355C421.109 196.928 424.038 203.013 427.212 208.612C429.409 205.447 431.606 202.283 432.338 198.388C433.315 193.52 432.094 188.408 430.873 183.783C430.141 181.105 429.409 178.184 428.676 175.507C428.432 174.533 427.7 173.316 426.723 173.803" fill="#351A1A"/>
<path d="M427.212 193.52C422.329 197.171 419.644 203.257 418.912 209.342C418.667 211.289 418.667 213.237 418.912 215.184C419.644 217.862 421.109 220.053 422.817 222.243C424.282 224.434 425.991 226.625 427.456 228.572C433.071 218.836 432.338 205.691 425.747 196.684" fill="#351A1A"/>
<path d="M427.212 221.513C427.7 222.73 426.968 224.191 426.235 225.408C424.526 228.572 423.062 231.98 423.306 235.632C423.55 239.283 425.503 242.691 428.432 244.882C427.944 243.421 427.456 241.961 427.456 240.5C428.676 241.474 430.141 242.204 430.873 243.421C431.606 244.638 431.85 246.586 431.118 247.803C433.559 245.125 435.024 241.717 435.024 238.309C435.024 234.901 433.559 231.25 431.362 228.572C430.385 227.599 429.409 226.625 428.676 225.651C427.944 224.678 427.456 223.217 427.944 222" fill="#351A1A"/>
<path d="M408.658 119.763C415.738 116.355 423.306 113.921 431.118 112.46C433.071 112.217 435.512 112.217 436.244 113.921C436.976 115.625 435.512 117.572 434.047 118.789C420.62 129.743 402.8 134.855 391.814 148C388.396 152.138 385.711 157.007 381.073 160.171C368.623 171.612 346.163 167.717 372.773 141.184C379.364 137.533 408.658 119.763 408.658 119.763Z" fill="#D37300"/>
<path d="M372.04 139.237C370.576 133.395 368.867 127.553 367.402 121.711C366.914 119.52 366.181 117.086 367.158 114.895C368.379 111.974 371.552 110.757 374.237 109.296C378.143 107.105 381.561 104.184 385.467 102.237C389.373 100.289 394.5 99.3158 398.161 101.75C400.114 102.967 401.579 104.914 402.8 106.862C405.973 111.73 409.391 116.355 412.564 121.224C412.564 121.224 385.223 142.645 378.632 144.349C374.482 145.079 373.749 146.296 372.04 139.237Z" fill="#EF920F"/>
<path d="M410.123 165.283L414.517 167.717C418.179 154.086 411.588 143.862 413.785 150.921C416.226 158.711 409.879 164.066 410.123 164.796C410.123 165.039 410.123 165.039 410.123 165.283Z" fill="#612B1D"/>
<path d="M436.976 168.691C440.638 164.553 446.009 162.849 451.38 164.309C456.994 166.013 461.389 170.151 464.562 175.02C471.153 185.243 472.13 197.658 473.106 209.586C473.351 211.533 476.28 211.533 476.28 209.586C475.303 195.954 474.083 181.349 465.05 170.395C461.144 165.77 455.774 161.875 449.671 161.145C444.544 160.658 438.441 162.605 436 167.474C435.512 168.691 436.488 169.421 436.976 168.691Z" fill="#A67435"/>
<path d="M437.709 155.546C437.953 155.789 438.197 156.033 438.441 156.276C438.685 156.52 439.174 156.763 439.418 157.007C439.906 157.493 440.638 157.98 441.127 158.467C441.615 158.954 442.103 159.441 442.591 159.928C442.835 160.171 443.08 160.414 443.324 160.658C443.324 160.658 443.324 160.414 443.324 160.658C443.324 160.658 443.324 160.901 443.568 160.901C443.812 161.145 443.812 161.145 444.056 161.388C444.544 162.118 445.277 163.335 446.253 162.849C447.23 162.362 446.497 160.901 446.009 160.171C445.032 158.954 444.056 157.737 442.835 156.763C442.103 156.276 441.371 155.789 440.638 155.303C440.394 155.059 439.906 154.816 439.662 154.816C439.174 154.572 438.929 154.329 438.441 154.329C437.709 154.329 437.221 155.059 437.709 155.546Z" fill="#A67435"/>
<path d="M511.678 226.382C510.213 230.763 508.992 235.145 506.551 239.283C504.354 243.178 501.424 246.829 498.007 249.993C494.589 253.158 490.927 255.592 486.777 257.54C484.58 258.513 482.383 259.243 480.186 259.974C478.233 260.461 476.036 260.704 474.083 261.678C473.106 262.165 473.839 263.138 474.571 263.138C476.768 263.382 479.454 262.651 481.406 261.921C483.604 261.191 485.801 260.461 487.998 259.243C492.392 257.053 496.298 254.375 499.96 250.967C506.551 244.638 512.166 235.632 513.142 226.382C513.142 225.895 511.922 225.895 511.678 226.382Z" fill="#A67435"/>
<path d="M484.092 237.822C483.848 238.553 484.092 239.283 484.824 239.77C485.557 240.257 486.289 240.257 487.265 240.5C488.242 240.5 488.974 240.5 489.951 240.5C490.927 240.5 491.66 240.013 492.636 239.77C493.368 239.526 493.124 238.553 492.392 238.796C491.66 239.039 490.927 239.039 490.439 239.039C489.707 239.039 488.974 239.039 488.486 239.039C487.754 239.039 487.265 239.039 486.533 238.796C486.289 238.796 486.045 238.796 486.045 238.553H485.801C485.801 238.553 485.801 238.553 485.801 238.309C485.801 238.553 485.801 238.553 485.801 238.309C485.557 237.822 484.336 237.336 484.092 237.822Z" fill="#A67435"/>
<path d="M456.75 263.868C462.365 268.25 469.2 270.197 476.28 271.171C483.848 272.145 491.415 271.171 498.983 272.388C506.307 273.605 511.433 279.934 518.513 282.125C523.884 283.829 532.428 284.559 537.066 280.664C537.554 280.178 537.066 279.204 536.578 279.204C533.404 279.204 530.231 280.421 526.813 280.421C523.151 280.421 519.245 279.447 516.072 277.987C509.969 275.066 505.574 270.441 498.495 269.467C491.904 268.493 484.824 269.467 478.233 268.737C470.909 268.007 463.83 266.059 457.483 262.408C456.506 262.408 456.018 263.382 456.75 263.868Z" fill="#A67435"/>
<path d="M495.566 285.776C495.81 291.618 497.763 297.704 499.227 303.546C500.692 309.388 502.401 314.987 503.866 320.586C506.795 330.809 509.48 341.763 514.119 351.257C516.072 355.151 518.513 358.803 522.175 361.237C526.081 364.158 530.963 365.132 535.601 365.618C541.46 366.349 547.319 366.836 553.178 367.566C556.352 367.809 559.525 368.296 562.699 368.54C565.628 368.783 568.558 369.513 571.487 369.026C573.196 368.783 572.708 366.349 571.487 365.862C569.046 364.888 566.361 364.888 563.919 364.645C561.234 364.401 558.305 364.158 555.619 363.671C550.004 363.184 544.39 362.454 538.775 361.967C533.648 361.48 528.278 360.75 524.128 357.586C520.466 354.908 518.269 351.013 516.316 346.875C512.166 337.382 509.48 326.914 506.795 316.934C505.33 311.579 503.866 306.224 502.401 300.868C500.936 295.513 499.96 289.914 498.007 284.803C497.518 284.316 495.566 284.072 495.566 285.776Z" fill="#778254"/>
</g>
<defs>
<clipPath id="clip0">
<rect width="654" height="444" fill="white"/>
</clipPath>
</defs>
</svg>
