<svg width="30" height="30" viewBox="0 0 30 30" fill="none" xmlns="http://www.w3.org/2000/svg">
<rect width="30" height="30" rx="4" fill="white"/>
<path d="M20.3055 6.78366C18.3634 5.14415 15.8613 4.15503 13.1288 4.15503C6.99078 4.15503 2 9.14581 2 15.2838C2 21.4218 6.99078 26.4171 13.1288 26.4171C15.8613 26.4171 18.3634 25.4234 20.3055 23.7839V26.4171H24.262V4.15503H20.3055V6.78366ZM13.1288 22.4606C9.17227 22.4606 5.95649 19.2403 5.95649 15.2838C5.95649 11.3273 9.17227 8.11152 13.1288 8.11152C17.0852 8.11152 20.3055 11.3273 20.3055 15.2838C20.3055 19.2403 17.0852 22.4606 13.1288 22.4606Z" fill="#58A847"/>
<path d="M27.0714 11.0708L27.071 11.0713C25.5963 12.5499 23.5326 13.0857 21.6336 12.6768C21.2238 10.7734 21.756 8.71317 23.2349 7.23426C24.7097 5.75943 26.7737 5.2238 28.6729 5.63281C29.0819 7.53199 28.5463 9.59597 27.0714 11.0708Z" fill="#58A847" stroke="white"/>
</svg>
